<svg width="316" height="171" viewBox="0 0 316 171" fill="none" xmlns="http://www.w3.org/2000/svg">
<g opacity="0.5" clip-path="url(#clip0_802_817)">
<path d="M19.35 10.6967C18.67 7.24674 15.64 4.65674 12 4.65674C9.11 4.65674 6.6 6.29674 5.35 8.69674C2.34 9.01674 0 11.5667 0 14.6567C0 17.9667 2.69 20.6567 6 20.6567H19C21.76 20.6567 24 18.4167 24 15.6567C24 13.0167 21.95 10.8767 19.35 10.6967Z" fill="white"/>
</g>
<path d="M7.168 49.6487H0.224V46.0007H18.144V49.6487H11.2V68.6567H7.168V49.6487ZM20.615 53.2967H24.455V68.6567H20.615V53.2967ZM20.071 48.0807C20.071 47.4621 20.295 46.9287 20.743 46.4807C21.2123 46.0114 21.799 45.7767 22.503 45.7767C23.207 45.7767 23.7937 46.0007 24.263 46.4487C24.7537 46.8754 24.999 47.4194 24.999 48.0807C24.999 48.7421 24.7537 49.2967 24.263 49.7447C23.7937 50.1714 23.207 50.3847 22.503 50.3847C21.799 50.3847 21.2123 50.1607 20.743 49.7127C20.295 49.2434 20.071 48.6994 20.071 48.0807ZM27.0715 56.5607V53.2967H30.2395V48.8487H34.0795V53.2967H38.3035V56.5607H34.0795V63.2807C34.0795 64.0487 34.2182 64.6567 34.4955 65.1047C34.7942 65.5527 35.3702 65.7767 36.2235 65.7767C36.5648 65.7767 36.9382 65.7447 37.3435 65.6807C37.7488 65.5954 38.0688 65.4674 38.3035 65.2967V68.5287C37.8982 68.7207 37.3968 68.8487 36.7995 68.9127C36.2235 68.9981 35.7115 69.0407 35.2635 69.0407C34.2395 69.0407 33.3968 68.9234 32.7355 68.6887C32.0955 68.4754 31.5835 68.1447 31.1995 67.6967C30.8368 67.2274 30.5808 66.6514 30.4315 65.9687C30.3035 65.2861 30.2395 64.4967 30.2395 63.6007V56.5607H27.0715ZM41.3963 44.4647H45.2363V68.6567H41.3963V44.4647ZM52.7168 62.3207C52.8448 63.4727 53.2928 64.3687 54.0608 65.0087C54.8288 65.6487 55.7568 65.9687 56.8448 65.9687C57.8048 65.9687 58.6048 65.7767 59.2448 65.3927C59.9061 64.9874 60.4821 64.4861 60.9728 63.8887L63.7248 65.9687C62.8288 67.0781 61.8261 67.8674 60.7168 68.3367C59.6074 68.8061 58.4448 69.0407 57.2288 69.0407C56.0768 69.0407 54.9888 68.8487 53.9648 68.4647C52.9408 68.0807 52.0554 67.5367 51.3088 66.8327C50.5621 66.1287 49.9648 65.2861 49.5168 64.3047C49.0901 63.3021 48.8768 62.1927 48.8768 60.9767C48.8768 59.7607 49.0901 58.6621 49.5168 57.6807C49.9648 56.6781 50.5621 55.8247 51.3088 55.1207C52.0554 54.4167 52.9408 53.8727 53.9648 53.4887C54.9888 53.1047 56.0768 52.9127 57.2288 52.9127C58.2954 52.9127 59.2661 53.1047 60.1408 53.4887C61.0368 53.8514 61.7941 54.3847 62.4128 55.0887C63.0528 55.7927 63.5434 56.6674 63.8848 57.7127C64.2474 58.7367 64.4288 59.9207 64.4288 61.2647V62.3207H52.7168ZM60.5888 59.4407C60.5674 58.3101 60.2154 57.4247 59.5328 56.7847C58.8501 56.1234 57.9008 55.7927 56.6848 55.7927C55.5328 55.7927 54.6154 56.1234 53.9328 56.7847C53.2714 57.4461 52.8661 58.3314 52.7168 59.4407H60.5888ZM83.8885 50.4167L79.6325 54.3527L77.3925 51.6967L84.2405 46.0007H87.7285V68.6567H83.8885V50.4167Z" fill="white" fill-opacity="0.8"/>
<path d="M4.032 127.073H11.952V128.657H2.304V111.665H4.032V127.073ZM23.352 123.041C23.352 122.417 23.248 121.833 23.04 121.289C22.848 120.745 22.568 120.273 22.2 119.873C21.832 119.473 21.384 119.161 20.856 118.937C20.344 118.697 19.76 118.577 19.104 118.577C18.448 118.577 17.856 118.697 17.328 118.937C16.816 119.161 16.376 119.473 16.008 119.873C15.656 120.273 15.376 120.745 15.168 121.289C14.976 121.833 14.88 122.417 14.88 123.041C14.88 123.665 14.976 124.249 15.168 124.793C15.376 125.337 15.656 125.809 16.008 126.209C16.376 126.609 16.816 126.929 17.328 127.169C17.856 127.393 18.448 127.505 19.104 127.505C19.76 127.505 20.344 127.393 20.856 127.169C21.384 126.929 21.832 126.609 22.2 126.209C22.568 125.809 22.848 125.337 23.04 124.793C23.248 124.249 23.352 123.665 23.352 123.041ZM25.08 123.041C25.08 123.889 24.928 124.673 24.624 125.393C24.336 126.113 23.928 126.737 23.4 127.265C22.872 127.793 22.24 128.209 21.504 128.513C20.784 128.801 19.984 128.945 19.104 128.945C18.24 128.945 17.44 128.801 16.704 128.513C15.984 128.209 15.36 127.793 14.832 127.265C14.304 126.737 13.888 126.113 13.584 125.393C13.296 124.673 13.152 123.889 13.152 123.041C13.152 122.193 13.296 121.409 13.584 120.689C13.888 119.969 14.304 119.345 14.832 118.817C15.36 118.289 15.984 117.881 16.704 117.593C17.44 117.289 18.24 117.137 19.104 117.137C19.984 117.137 20.784 117.289 21.504 117.593C22.24 117.881 22.872 118.289 23.4 118.817C23.928 119.345 24.336 119.969 24.624 120.689C24.928 121.409 25.08 122.193 25.08 123.041ZM28.1226 120.929C28.1226 120.433 28.1066 119.929 28.0746 119.417C28.0586 118.905 28.0426 118.241 28.0266 117.425H29.5866V119.513H29.6346C29.7466 119.209 29.9066 118.921 30.1146 118.649C30.3226 118.361 30.5706 118.105 30.8586 117.881C31.1626 117.657 31.5066 117.481 31.8906 117.353C32.2906 117.209 32.7386 117.137 33.2346 117.137C33.6826 117.137 34.0746 117.185 34.4106 117.281L34.0986 118.841C33.8906 118.761 33.5866 118.721 33.1866 118.721C32.5786 118.721 32.0586 118.841 31.6266 119.081C31.1946 119.305 30.8346 119.601 30.5466 119.969C30.2586 120.321 30.0426 120.705 29.8986 121.121C29.7706 121.537 29.7066 121.937 29.7066 122.321V128.657H28.1226V120.929ZM44.2374 122.177C44.2374 121.105 43.9174 120.241 43.2774 119.585C42.6374 118.913 41.7414 118.577 40.5894 118.577C40.0774 118.577 39.5814 118.681 39.1014 118.889C38.6214 119.081 38.1974 119.345 37.8294 119.681C37.4774 120.017 37.1894 120.401 36.9654 120.833C36.7574 121.265 36.6534 121.713 36.6534 122.177H44.2374ZM36.6054 123.473C36.6534 124.033 36.7894 124.561 37.0134 125.057C37.2374 125.553 37.5334 125.985 37.9014 126.353C38.2694 126.705 38.6934 126.985 39.1734 127.193C39.6534 127.401 40.1734 127.505 40.7334 127.505C41.5814 127.505 42.3094 127.313 42.9174 126.929C43.5414 126.529 44.0134 126.073 44.3334 125.561L45.5574 126.569C44.8854 127.417 44.1414 128.025 43.3254 128.393C42.5254 128.761 41.6614 128.945 40.7334 128.945C39.9014 128.945 39.1254 128.801 38.4054 128.513C37.7014 128.209 37.0934 127.793 36.5814 127.265C36.0694 126.737 35.6614 126.113 35.3574 125.393C35.0694 124.673 34.9254 123.889 34.9254 123.041C34.9254 122.193 35.0694 121.409 35.3574 120.689C35.6454 119.969 36.0454 119.345 36.5574 118.817C37.0694 118.289 37.6694 117.881 38.3574 117.593C39.0454 117.289 39.7894 117.137 40.5894 117.137C41.4374 117.137 42.1974 117.289 42.8694 117.593C43.5414 117.897 44.1014 118.305 44.5494 118.817C45.0134 119.313 45.3654 119.905 45.6054 120.593C45.8454 121.265 45.9654 121.985 45.9654 122.753V123.473H36.6054ZM48.8374 119.921C48.8374 119.505 48.8214 119.089 48.7894 118.673C48.7734 118.257 48.7494 117.841 48.7174 117.425H50.4214V119.129H50.4694C50.8534 118.473 51.3814 117.977 52.0534 117.641C52.7414 117.305 53.4214 117.137 54.0934 117.137C54.3974 117.137 54.7174 117.169 55.0534 117.233C55.4054 117.297 55.7414 117.417 56.0614 117.593C56.3814 117.753 56.6774 117.985 56.9494 118.289C57.2374 118.593 57.4774 118.985 57.6694 119.465C57.9894 118.745 58.4934 118.177 59.1814 117.761C59.8854 117.345 60.6134 117.137 61.3654 117.137C62.8054 117.137 63.8694 117.521 64.5574 118.289C65.2454 119.041 65.5894 120.121 65.5894 121.529V128.657H64.0054V122.105C64.0054 120.969 63.8054 120.097 63.4054 119.489C63.0054 118.881 62.2614 118.577 61.1734 118.577C60.5814 118.577 60.0854 118.697 59.6854 118.937C59.2854 119.161 58.9574 119.465 58.7014 119.849C58.4614 120.233 58.2854 120.673 58.1734 121.169C58.0614 121.649 58.0054 122.153 58.0054 122.681V128.657H56.4214V122.105C56.4214 120.969 56.2214 120.097 55.8214 119.489C55.4214 118.881 54.6774 118.577 53.5894 118.577C53.4934 118.577 53.2694 118.609 52.9174 118.673C52.5814 118.737 52.2294 118.913 51.8614 119.201C51.4934 119.489 51.1574 119.921 50.8534 120.497C50.5654 121.073 50.4214 121.873 50.4214 122.897V128.657H48.8374V119.921ZM78.2586 113.105C78.2586 113.441 78.1386 113.721 77.8986 113.945C77.6586 114.153 77.3946 114.257 77.1066 114.257C76.8186 114.257 76.5546 114.153 76.3146 113.945C76.0746 113.721 75.9546 113.441 75.9546 113.105C75.9546 112.769 76.0746 112.497 76.3146 112.289C76.5546 112.065 76.8186 111.953 77.1066 111.953C77.3946 111.953 77.6586 112.065 77.8986 112.289C78.1386 112.497 78.2586 112.769 78.2586 113.105ZM77.8986 128.657H76.3146V117.425H77.8986V128.657ZM91.9682 123.041C91.9682 122.417 91.8642 121.833 91.6562 121.289C91.4642 120.745 91.1842 120.273 90.8162 119.873C90.4482 119.473 90.0002 119.161 89.4722 118.937C88.9602 118.697 88.3762 118.577 87.7202 118.577C87.0642 118.577 86.4642 118.697 85.9202 118.937C85.3762 119.161 84.9042 119.473 84.5042 119.873C84.1042 120.273 83.7922 120.745 83.5682 121.289C83.3442 121.833 83.2322 122.417 83.2322 123.041C83.2322 123.665 83.3442 124.249 83.5682 124.793C83.7922 125.337 84.1042 125.809 84.5042 126.209C84.9042 126.609 85.3762 126.929 85.9202 127.169C86.4642 127.393 87.0642 127.505 87.7202 127.505C88.3762 127.505 88.9602 127.393 89.4722 127.169C90.0002 126.929 90.4482 126.609 90.8162 126.209C91.1842 125.809 91.4642 125.337 91.6562 124.793C91.8642 124.249 91.9682 123.665 91.9682 123.041ZM81.7202 117.425H83.3042V119.297H83.3522C83.6082 118.913 83.9122 118.585 84.2642 118.313C84.6162 118.041 84.9842 117.817 85.3682 117.641C85.7522 117.465 86.1442 117.337 86.5442 117.257C86.9602 117.177 87.3522 117.137 87.7202 117.137C88.6002 117.137 89.4002 117.289 90.1202 117.593C90.8562 117.881 91.4882 118.289 92.0162 118.817C92.5442 119.345 92.9522 119.969 93.2402 120.689C93.5442 121.409 93.6962 122.193 93.6962 123.041C93.6962 123.889 93.5442 124.673 93.2402 125.393C92.9522 126.113 92.5442 126.737 92.0162 127.265C91.4882 127.793 90.8562 128.209 90.1202 128.513C89.4002 128.801 88.6002 128.945 87.7202 128.945C87.3522 128.945 86.9602 128.905 86.5442 128.825C86.1442 128.745 85.7522 128.617 85.3682 128.441C84.9842 128.265 84.6162 128.041 84.2642 127.769C83.9122 127.497 83.6082 127.169 83.3522 126.785H83.3042V135.569H81.7202V117.425ZM102.344 120.089C102.104 119.625 101.784 119.257 101.384 118.985C100.984 118.713 100.496 118.577 99.9201 118.577C99.6481 118.577 99.3681 118.609 99.0801 118.673C98.8081 118.737 98.5601 118.841 98.3361 118.985C98.1121 119.113 97.9281 119.281 97.7841 119.489C97.6561 119.697 97.5921 119.953 97.5921 120.257C97.5921 120.785 97.7761 121.169 98.1441 121.409C98.5121 121.649 99.0641 121.857 99.8001 122.033L101.408 122.417C102.192 122.593 102.84 122.953 103.352 123.497C103.88 124.025 104.144 124.689 104.144 125.489C104.144 126.097 104.016 126.625 103.76 127.073C103.52 127.505 103.192 127.865 102.776 128.153C102.376 128.425 101.912 128.625 101.384 128.753C100.856 128.881 100.32 128.945 99.7761 128.945C98.9121 128.945 98.1041 128.785 97.3521 128.465C96.6161 128.129 95.9841 127.561 95.4561 126.761L96.8241 125.825C97.1441 126.337 97.5441 126.745 98.0241 127.049C98.5201 127.353 99.1041 127.505 99.7761 127.505C100.096 127.505 100.416 127.473 100.736 127.409C101.056 127.329 101.336 127.217 101.576 127.073C101.832 126.913 102.032 126.713 102.176 126.473C102.336 126.233 102.416 125.953 102.416 125.633C102.416 125.073 102.208 124.673 101.792 124.433C101.376 124.177 100.872 123.977 100.28 123.833L98.7441 123.473C98.5521 123.425 98.2881 123.345 97.9521 123.233C97.6321 123.121 97.3121 122.953 96.9921 122.729C96.6881 122.505 96.4241 122.217 96.2001 121.865C95.9761 121.497 95.8641 121.049 95.8641 120.521C95.8641 119.945 95.9761 119.441 96.2001 119.009C96.4401 118.577 96.7521 118.225 97.1361 117.953C97.5361 117.681 97.9841 117.481 98.4801 117.353C98.9761 117.209 99.4881 117.137 100.016 117.137C100.8 117.137 101.528 117.289 102.2 117.593C102.872 117.897 103.392 118.417 103.76 119.153L102.344 120.089ZM114.723 128.657C114.691 128.353 114.667 128.057 114.651 127.769C114.651 127.465 114.651 127.161 114.651 126.857H114.603C114.427 127.161 114.203 127.441 113.931 127.697C113.659 127.953 113.355 128.177 113.019 128.369C112.683 128.545 112.323 128.681 111.939 128.777C111.571 128.889 111.203 128.945 110.835 128.945C109.395 128.945 108.331 128.569 107.643 127.817C106.955 127.049 106.611 125.961 106.611 124.553V117.425H108.195V123.641C108.195 124.265 108.243 124.817 108.339 125.297C108.435 125.777 108.595 126.185 108.819 126.521C109.059 126.841 109.371 127.089 109.755 127.265C110.155 127.425 110.651 127.505 111.243 127.505C111.323 127.505 111.547 127.473 111.915 127.409C112.283 127.345 112.667 127.169 113.067 126.881C113.483 126.593 113.851 126.161 114.171 125.585C114.491 125.009 114.651 124.209 114.651 123.185V117.425H116.235V126.185C116.235 126.489 116.243 126.873 116.259 127.337C116.291 127.801 116.323 128.241 116.355 128.657H114.723ZM119.947 119.921C119.947 119.505 119.931 119.089 119.899 118.673C119.883 118.257 119.859 117.841 119.827 117.425H121.531V119.129H121.579C121.963 118.473 122.491 117.977 123.163 117.641C123.851 117.305 124.531 117.137 125.203 117.137C125.507 117.137 125.827 117.169 126.163 117.233C126.515 117.297 126.851 117.417 127.171 117.593C127.491 117.753 127.787 117.985 128.059 118.289C128.347 118.593 128.587 118.985 128.779 119.465C129.099 118.745 129.603 118.177 130.291 117.761C130.995 117.345 131.723 117.137 132.475 117.137C133.915 117.137 134.979 117.521 135.667 118.289C136.355 119.041 136.699 120.121 136.699 121.529V128.657H135.115V122.105C135.115 120.969 134.915 120.097 134.515 119.489C134.115 118.881 133.371 118.577 132.283 118.577C131.691 118.577 131.195 118.697 130.795 118.937C130.395 119.161 130.067 119.465 129.811 119.849C129.571 120.233 129.395 120.673 129.283 121.169C129.171 121.649 129.115 122.153 129.115 122.681V128.657H127.531V122.105C127.531 120.969 127.331 120.097 126.931 119.489C126.531 118.881 125.787 118.577 124.699 118.577C124.603 118.577 124.379 118.609 124.027 118.673C123.691 118.737 123.339 118.913 122.971 119.201C122.603 119.489 122.267 119.921 121.963 120.497C121.675 121.073 121.531 121.873 121.531 122.897V128.657H119.947V119.921ZM148.024 123.041C148.024 123.665 148.12 124.249 148.312 124.793C148.52 125.337 148.808 125.809 149.176 126.209C149.544 126.609 149.984 126.929 150.496 127.169C151.024 127.393 151.616 127.505 152.272 127.505C152.912 127.505 153.504 127.393 154.048 127.169C154.608 126.929 155.088 126.609 155.488 126.209C155.888 125.809 156.2 125.337 156.424 124.793C156.648 124.249 156.76 123.665 156.76 123.041C156.76 122.417 156.648 121.833 156.424 121.289C156.2 120.745 155.888 120.273 155.488 119.873C155.088 119.473 154.608 119.161 154.048 118.937C153.504 118.697 152.912 118.577 152.272 118.577C151.616 118.577 151.024 118.697 150.496 118.937C149.984 119.161 149.544 119.473 149.176 119.873C148.808 120.273 148.52 120.745 148.312 121.289C148.12 121.833 148.024 122.417 148.024 123.041ZM158.272 128.657H156.688V126.785H156.64C156.384 127.169 156.08 127.497 155.728 127.769C155.376 128.041 155.008 128.265 154.624 128.441C154.24 128.617 153.84 128.745 153.424 128.825C153.024 128.905 152.64 128.945 152.272 128.945C151.392 128.945 150.584 128.801 149.848 128.513C149.128 128.209 148.504 127.793 147.976 127.265C147.448 126.737 147.032 126.113 146.728 125.393C146.44 124.673 146.296 123.889 146.296 123.041C146.296 122.193 146.44 121.409 146.728 120.689C147.032 119.969 147.448 119.345 147.976 118.817C148.504 118.289 149.128 117.881 149.848 117.593C150.584 117.289 151.392 117.137 152.272 117.137C152.64 117.137 153.024 117.177 153.424 117.257C153.84 117.337 154.24 117.465 154.624 117.641C155.008 117.817 155.376 118.041 155.728 118.313C156.08 118.585 156.384 118.913 156.64 119.297H156.688V110.513H158.272V128.657ZM171.36 123.041C171.36 122.417 171.256 121.833 171.048 121.289C170.856 120.745 170.576 120.273 170.208 119.873C169.84 119.473 169.392 119.161 168.864 118.937C168.352 118.697 167.768 118.577 167.112 118.577C166.456 118.577 165.864 118.697 165.336 118.937C164.824 119.161 164.384 119.473 164.016 119.873C163.664 120.273 163.384 120.745 163.176 121.289C162.984 121.833 162.888 122.417 162.888 123.041C162.888 123.665 162.984 124.249 163.176 124.793C163.384 125.337 163.664 125.809 164.016 126.209C164.384 126.609 164.824 126.929 165.336 127.169C165.864 127.393 166.456 127.505 167.112 127.505C167.768 127.505 168.352 127.393 168.864 127.169C169.392 126.929 169.84 126.609 170.208 126.209C170.576 125.809 170.856 125.337 171.048 124.793C171.256 124.249 171.36 123.665 171.36 123.041ZM173.088 123.041C173.088 123.889 172.936 124.673 172.632 125.393C172.344 126.113 171.936 126.737 171.408 127.265C170.88 127.793 170.248 128.209 169.512 128.513C168.792 128.801 167.992 128.945 167.112 128.945C166.248 128.945 165.448 128.801 164.712 128.513C163.992 128.209 163.368 127.793 162.84 127.265C162.312 126.737 161.896 126.113 161.592 125.393C161.304 124.673 161.16 123.889 161.16 123.041C161.16 122.193 161.304 121.409 161.592 120.689C161.896 119.969 162.312 119.345 162.84 118.817C163.368 118.289 163.992 117.881 164.712 117.593C165.448 117.289 166.248 117.137 167.112 117.137C167.992 117.137 168.792 117.289 169.512 117.593C170.248 117.881 170.88 118.289 171.408 118.817C171.936 119.345 172.344 119.969 172.632 120.689C172.936 121.409 173.088 122.193 173.088 123.041ZM177.906 128.657H176.322V110.513H177.906V128.657ZM191.352 123.041C191.352 122.417 191.248 121.833 191.04 121.289C190.848 120.745 190.568 120.273 190.2 119.873C189.832 119.473 189.384 119.161 188.856 118.937C188.344 118.697 187.76 118.577 187.104 118.577C186.448 118.577 185.856 118.697 185.328 118.937C184.816 119.161 184.376 119.473 184.008 119.873C183.656 120.273 183.376 120.745 183.168 121.289C182.976 121.833 182.88 122.417 182.88 123.041C182.88 123.665 182.976 124.249 183.168 124.793C183.376 125.337 183.656 125.809 184.008 126.209C184.376 126.609 184.816 126.929 185.328 127.169C185.856 127.393 186.448 127.505 187.104 127.505C187.76 127.505 188.344 127.393 188.856 127.169C189.384 126.929 189.832 126.609 190.2 126.209C190.568 125.809 190.848 125.337 191.04 124.793C191.248 124.249 191.352 123.665 191.352 123.041ZM193.08 123.041C193.08 123.889 192.928 124.673 192.624 125.393C192.336 126.113 191.928 126.737 191.4 127.265C190.872 127.793 190.24 128.209 189.504 128.513C188.784 128.801 187.984 128.945 187.104 128.945C186.24 128.945 185.44 128.801 184.704 128.513C183.984 128.209 183.36 127.793 182.832 127.265C182.304 126.737 181.888 126.113 181.584 125.393C181.296 124.673 181.152 123.889 181.152 123.041C181.152 122.193 181.296 121.409 181.584 120.689C181.888 119.969 182.304 119.345 182.832 118.817C183.36 118.289 183.984 117.881 184.704 117.593C185.44 117.289 186.24 117.137 187.104 117.137C187.984 117.137 188.784 117.289 189.504 117.593C190.24 117.881 190.872 118.289 191.4 118.817C191.928 119.345 192.336 119.969 192.624 120.689C192.928 121.409 193.08 122.193 193.08 123.041ZM196.123 120.929C196.123 120.433 196.107 119.929 196.075 119.417C196.059 118.905 196.043 118.241 196.027 117.425H197.587V119.513H197.635C197.747 119.209 197.907 118.921 198.115 118.649C198.323 118.361 198.571 118.105 198.859 117.881C199.163 117.657 199.507 117.481 199.891 117.353C200.291 117.209 200.739 117.137 201.235 117.137C201.683 117.137 202.075 117.185 202.411 117.281L202.099 118.841C201.891 118.761 201.587 118.721 201.187 118.721C200.579 118.721 200.059 118.841 199.627 119.081C199.195 119.305 198.835 119.601 198.547 119.969C198.259 120.321 198.043 120.705 197.899 121.121C197.771 121.537 197.707 121.937 197.707 122.321V128.657H196.123V120.929ZM216.555 120.089C216.315 119.625 215.995 119.257 215.595 118.985C215.195 118.713 214.707 118.577 214.131 118.577C213.859 118.577 213.579 118.609 213.291 118.673C213.019 118.737 212.771 118.841 212.547 118.985C212.323 119.113 212.139 119.281 211.995 119.489C211.867 119.697 211.803 119.953 211.803 120.257C211.803 120.785 211.987 121.169 212.355 121.409C212.723 121.649 213.275 121.857 214.011 122.033L215.619 122.417C216.403 122.593 217.051 122.953 217.563 123.497C218.091 124.025 218.355 124.689 218.355 125.489C218.355 126.097 218.227 126.625 217.971 127.073C217.731 127.505 217.403 127.865 216.987 128.153C216.587 128.425 216.123 128.625 215.595 128.753C215.067 128.881 214.531 128.945 213.987 128.945C213.123 128.945 212.315 128.785 211.563 128.465C210.827 128.129 210.195 127.561 209.667 126.761L211.035 125.825C211.355 126.337 211.755 126.745 212.235 127.049C212.731 127.353 213.315 127.505 213.987 127.505C214.307 127.505 214.627 127.473 214.947 127.409C215.267 127.329 215.547 127.217 215.787 127.073C216.043 126.913 216.243 126.713 216.387 126.473C216.547 126.233 216.627 125.953 216.627 125.633C216.627 125.073 216.419 124.673 216.003 124.433C215.587 124.177 215.083 123.977 214.491 123.833L212.955 123.473C212.763 123.425 212.499 123.345 212.163 123.233C211.843 123.121 211.523 122.953 211.203 122.729C210.899 122.505 210.635 122.217 210.411 121.865C210.187 121.497 210.075 121.049 210.075 120.521C210.075 119.945 210.187 119.441 210.411 119.009C210.651 118.577 210.963 118.225 211.347 117.953C211.747 117.681 212.195 117.481 212.691 117.353C213.187 117.209 213.699 117.137 214.227 117.137C215.011 117.137 215.739 117.289 216.411 117.593C217.083 117.897 217.603 118.417 217.971 119.153L216.555 120.089ZM223.126 113.105C223.126 113.441 223.006 113.721 222.766 113.945C222.526 114.153 222.262 114.257 221.974 114.257C221.686 114.257 221.422 114.153 221.182 113.945C220.942 113.721 220.822 113.441 220.822 113.105C220.822 112.769 220.942 112.497 221.182 112.289C221.422 112.065 221.686 111.953 221.974 111.953C222.262 111.953 222.526 112.065 222.766 112.289C223.006 112.497 223.126 112.769 223.126 113.105ZM222.766 128.657H221.182V117.425H222.766V128.657ZM232.395 118.865H229.155V125.489C229.155 125.905 229.195 126.249 229.275 126.521C229.355 126.777 229.467 126.977 229.611 127.121C229.755 127.265 229.923 127.369 230.115 127.433C230.323 127.481 230.547 127.505 230.787 127.505C231.059 127.505 231.339 127.465 231.627 127.385C231.915 127.305 232.179 127.201 232.419 127.073L232.491 128.537C231.899 128.809 231.187 128.945 230.355 128.945C230.051 128.945 229.731 128.905 229.395 128.825C229.075 128.745 228.779 128.593 228.507 128.369C228.235 128.145 228.011 127.841 227.835 127.457C227.659 127.073 227.571 126.569 227.571 125.945V118.865H225.195V117.425H227.571V114.257H229.155V117.425H232.395V118.865ZM247.62 123.065C247.22 123.065 246.716 123.089 246.108 123.137C245.516 123.169 244.94 123.265 244.38 123.425C243.836 123.569 243.364 123.801 242.964 124.121C242.58 124.441 242.388 124.881 242.388 125.441C242.388 125.809 242.46 126.129 242.604 126.401C242.764 126.657 242.972 126.873 243.228 127.049C243.484 127.209 243.764 127.329 244.068 127.409C244.388 127.473 244.708 127.505 245.028 127.505C245.604 127.505 246.1 127.409 246.516 127.217C246.948 127.025 247.308 126.769 247.596 126.449C247.884 126.113 248.092 125.729 248.22 125.297C248.364 124.849 248.436 124.377 248.436 123.881V123.065H247.62ZM248.436 121.769V121.481C248.436 119.545 247.476 118.577 245.556 118.577C244.244 118.577 243.1 119.017 242.124 119.897L241.164 118.769C242.22 117.681 243.804 117.137 245.916 117.137C246.46 117.137 246.98 117.217 247.476 117.377C247.988 117.537 248.428 117.785 248.796 118.121C249.164 118.441 249.46 118.849 249.684 119.345C249.908 119.841 250.02 120.433 250.02 121.121V126.137C250.02 126.569 250.036 127.025 250.068 127.505C250.116 127.969 250.164 128.353 250.212 128.657H248.676C248.628 128.385 248.588 128.089 248.556 127.769C248.54 127.449 248.532 127.137 248.532 126.833H248.484C248.02 127.585 247.468 128.129 246.828 128.465C246.204 128.785 245.436 128.945 244.524 128.945C244.028 128.945 243.548 128.873 243.084 128.729C242.62 128.601 242.204 128.401 241.836 128.129C241.484 127.841 241.196 127.497 240.972 127.097C240.764 126.681 240.66 126.201 240.66 125.657C240.66 124.745 240.892 124.033 241.356 123.521C241.836 122.993 242.428 122.601 243.132 122.345C243.852 122.089 244.612 121.929 245.412 121.865C246.228 121.801 246.972 121.769 247.644 121.769H248.436ZM253.681 119.921C253.681 119.505 253.665 119.089 253.633 118.673C253.617 118.257 253.593 117.841 253.561 117.425H255.265V119.129H255.313C255.697 118.473 256.225 117.977 256.897 117.641C257.585 117.305 258.265 117.137 258.937 117.137C259.241 117.137 259.561 117.169 259.897 117.233C260.249 117.297 260.585 117.417 260.905 117.593C261.225 117.753 261.521 117.985 261.793 118.289C262.081 118.593 262.321 118.985 262.513 119.465C262.833 118.745 263.337 118.177 264.025 117.761C264.729 117.345 265.457 117.137 266.209 117.137C267.649 117.137 268.713 117.521 269.401 118.289C270.089 119.041 270.433 120.121 270.433 121.529V128.657H268.849V122.105C268.849 120.969 268.649 120.097 268.249 119.489C267.849 118.881 267.105 118.577 266.017 118.577C265.425 118.577 264.929 118.697 264.529 118.937C264.129 119.161 263.801 119.465 263.545 119.849C263.305 120.233 263.129 120.673 263.017 121.169C262.905 121.649 262.849 122.153 262.849 122.681V128.657H261.265V122.105C261.265 120.969 261.065 120.097 260.665 119.489C260.265 118.881 259.521 118.577 258.433 118.577C258.337 118.577 258.113 118.609 257.761 118.673C257.425 118.737 257.073 118.913 256.705 119.201C256.337 119.489 256.001 119.921 255.697 120.497C255.409 121.073 255.265 121.873 255.265 122.897V128.657H253.681V119.921ZM282.855 122.177C282.855 121.105 282.535 120.241 281.895 119.585C281.255 118.913 280.359 118.577 279.207 118.577C278.695 118.577 278.199 118.681 277.719 118.889C277.239 119.081 276.815 119.345 276.447 119.681C276.095 120.017 275.807 120.401 275.583 120.833C275.375 121.265 275.271 121.713 275.271 122.177H282.855ZM275.223 123.473C275.271 124.033 275.407 124.561 275.631 125.057C275.855 125.553 276.151 125.985 276.519 126.353C276.887 126.705 277.311 126.985 277.791 127.193C278.271 127.401 278.791 127.505 279.351 127.505C280.199 127.505 280.927 127.313 281.535 126.929C282.159 126.529 282.631 126.073 282.951 125.561L284.175 126.569C283.503 127.417 282.759 128.025 281.943 128.393C281.143 128.761 280.279 128.945 279.351 128.945C278.519 128.945 277.743 128.801 277.023 128.513C276.319 128.209 275.711 127.793 275.199 127.265C274.687 126.737 274.279 126.113 273.975 125.393C273.687 124.673 273.543 123.889 273.543 123.041C273.543 122.193 273.687 121.409 273.975 120.689C274.263 119.969 274.663 119.345 275.175 118.817C275.687 118.289 276.287 117.881 276.975 117.593C277.663 117.289 278.407 117.137 279.207 117.137C280.055 117.137 280.815 117.289 281.487 117.593C282.159 117.897 282.719 118.305 283.167 118.817C283.631 119.313 283.983 119.905 284.223 120.593C284.463 121.265 284.583 121.985 284.583 122.753V123.473H275.223ZM293.263 118.865H290.023V125.489C290.023 125.905 290.063 126.249 290.143 126.521C290.223 126.777 290.335 126.977 290.479 127.121C290.623 127.265 290.791 127.369 290.983 127.433C291.191 127.481 291.415 127.505 291.655 127.505C291.927 127.505 292.207 127.465 292.495 127.385C292.783 127.305 293.047 127.201 293.287 127.073L293.359 128.537C292.767 128.809 292.055 128.945 291.223 128.945C290.919 128.945 290.599 128.905 290.263 128.825C289.943 128.745 289.647 128.593 289.375 128.369C289.103 128.145 288.879 127.841 288.703 127.457C288.527 127.073 288.439 126.569 288.439 125.945V118.865H286.063V117.425H288.439V114.257H290.023V117.425H293.263V118.865ZM296.863 132.017H295.255L296.863 126.377H298.807L296.863 132.017ZM9.912 153.065C9.64 152.649 9.256 152.297 8.76 152.009C8.28 151.721 7.728 151.577 7.104 151.577C6.448 151.561 5.856 151.665 5.328 151.889C4.816 152.113 4.376 152.425 4.008 152.825C3.64 153.225 3.36 153.705 3.168 154.265C2.976 154.809 2.88 155.401 2.88 156.041C2.88 156.681 2.976 157.281 3.168 157.841C3.36 158.385 3.64 158.857 4.008 159.257C4.376 159.657 4.816 159.969 5.328 160.193C5.856 160.417 6.448 160.521 7.104 160.505C7.728 160.505 8.28 160.361 8.76 160.073C9.256 159.785 9.64 159.433 9.912 159.017L11.208 160.001C10.648 160.657 10.016 161.145 9.312 161.465C8.608 161.769 7.872 161.929 7.104 161.945C6.192 161.961 5.368 161.825 4.632 161.537C3.896 161.233 3.264 160.817 2.736 160.289C2.224 159.761 1.832 159.137 1.56 158.417C1.288 157.681 1.152 156.889 1.152 156.041C1.152 155.193 1.288 154.409 1.56 153.689C1.832 152.953 2.224 152.321 2.736 151.793C3.264 151.265 3.896 150.857 4.632 150.569C5.368 150.265 6.192 150.121 7.104 150.137C7.872 150.153 8.608 150.321 9.312 150.641C10.016 150.945 10.648 151.425 11.208 152.081L9.912 153.065ZM22.9301 156.041C22.9301 155.417 22.8261 154.833 22.6181 154.289C22.4261 153.745 22.1461 153.273 21.7781 152.873C21.4101 152.473 20.9621 152.161 20.4341 151.937C19.9221 151.697 19.3381 151.577 18.6821 151.577C18.0261 151.577 17.4341 151.697 16.9061 151.937C16.3941 152.161 15.9541 152.473 15.5861 152.873C15.2341 153.273 14.9541 153.745 14.7461 154.289C14.5541 154.833 14.4581 155.417 14.4581 156.041C14.4581 156.665 14.5541 157.249 14.7461 157.793C14.9541 158.337 15.2341 158.809 15.5861 159.209C15.9541 159.609 16.3941 159.929 16.9061 160.169C17.4341 160.393 18.0261 160.505 18.6821 160.505C19.3381 160.505 19.9221 160.393 20.4341 160.169C20.9621 159.929 21.4101 159.609 21.7781 159.209C22.1461 158.809 22.4261 158.337 22.6181 157.793C22.8261 157.249 22.9301 156.665 22.9301 156.041ZM24.6581 156.041C24.6581 156.889 24.5061 157.673 24.2021 158.393C23.9141 159.113 23.5061 159.737 22.9781 160.265C22.4501 160.793 21.8181 161.209 21.0821 161.513C20.3621 161.801 19.5621 161.945 18.6821 161.945C17.8181 161.945 17.0181 161.801 16.2821 161.513C15.5621 161.209 14.9381 160.793 14.4101 160.265C13.8821 159.737 13.4661 159.113 13.1621 158.393C12.8741 157.673 12.7301 156.889 12.7301 156.041C12.7301 155.193 12.8741 154.409 13.1621 153.689C13.4661 152.969 13.8821 152.345 14.4101 151.817C14.9381 151.289 15.5621 150.881 16.2821 150.593C17.0181 150.289 17.8181 150.137 18.6821 150.137C19.5621 150.137 20.3621 150.289 21.0821 150.593C21.8181 150.881 22.4501 151.289 22.9781 151.817C23.5061 152.345 23.9141 152.969 24.2021 153.689C24.5061 154.409 24.6581 155.193 24.6581 156.041ZM29.0447 150.425C29.0767 150.729 29.0927 151.033 29.0927 151.337C29.1087 151.625 29.1167 151.921 29.1167 152.225H29.1647C29.3407 151.921 29.5647 151.641 29.8367 151.385C30.1087 151.129 30.4127 150.913 30.7487 150.737C31.0847 150.545 31.4367 150.401 31.8047 150.305C32.1887 150.193 32.5647 150.137 32.9327 150.137C34.3727 150.137 35.4367 150.521 36.1247 151.289C36.8127 152.041 37.1567 153.121 37.1567 154.529V161.657H35.5727V155.441C35.5727 154.193 35.3567 153.241 34.9247 152.585C34.4927 151.913 33.6927 151.577 32.5247 151.577C32.4447 151.577 32.2207 151.609 31.8527 151.673C31.4847 151.737 31.0927 151.913 30.6767 152.201C30.2767 152.489 29.9167 152.921 29.5967 153.497C29.2767 154.073 29.1167 154.873 29.1167 155.897V161.657H27.5327V152.897C27.5327 152.593 27.5167 152.209 27.4847 151.745C27.4687 151.281 27.4447 150.841 27.4127 150.425H29.0447ZM46.8206 153.089C46.5806 152.625 46.2606 152.257 45.8606 151.985C45.4606 151.713 44.9726 151.577 44.3966 151.577C44.1246 151.577 43.8446 151.609 43.5566 151.673C43.2846 151.737 43.0366 151.841 42.8126 151.985C42.5886 152.113 42.4046 152.281 42.2606 152.489C42.1326 152.697 42.0686 152.953 42.0686 153.257C42.0686 153.785 42.2526 154.169 42.6206 154.409C42.9886 154.649 43.5406 154.857 44.2766 155.033L45.8846 155.417C46.6686 155.593 47.3166 155.953 47.8286 156.497C48.3566 157.025 48.6206 157.689 48.6206 158.489C48.6206 159.097 48.4926 159.625 48.2366 160.073C47.9966 160.505 47.6686 160.865 47.2526 161.153C46.8526 161.425 46.3886 161.625 45.8606 161.753C45.3326 161.881 44.7966 161.945 44.2526 161.945C43.3886 161.945 42.5806 161.785 41.8286 161.465C41.0926 161.129 40.4606 160.561 39.9326 159.761L41.3006 158.825C41.6206 159.337 42.0206 159.745 42.5006 160.049C42.9966 160.353 43.5806 160.505 44.2526 160.505C44.5726 160.505 44.8926 160.473 45.2126 160.409C45.5326 160.329 45.8126 160.217 46.0526 160.073C46.3086 159.913 46.5086 159.713 46.6526 159.473C46.8126 159.233 46.8926 158.953 46.8926 158.633C46.8926 158.073 46.6846 157.673 46.2686 157.433C45.8526 157.177 45.3486 156.977 44.7566 156.833L43.2206 156.473C43.0286 156.425 42.7646 156.345 42.4286 156.233C42.1086 156.121 41.7886 155.953 41.4686 155.729C41.1646 155.505 40.9006 155.217 40.6766 154.865C40.4526 154.497 40.3406 154.049 40.3406 153.521C40.3406 152.945 40.4526 152.441 40.6766 152.009C40.9166 151.577 41.2286 151.225 41.6126 150.953C42.0126 150.681 42.4606 150.481 42.9566 150.353C43.4526 150.209 43.9646 150.137 44.4926 150.137C45.2766 150.137 46.0046 150.289 46.6766 150.593C47.3486 150.897 47.8686 151.417 48.2366 152.153L46.8206 153.089ZM59.8234 155.177C59.8234 154.105 59.5034 153.241 58.8634 152.585C58.2234 151.913 57.3274 151.577 56.1754 151.577C55.6634 151.577 55.1674 151.681 54.6874 151.889C54.2074 152.081 53.7834 152.345 53.4154 152.681C53.0634 153.017 52.7754 153.401 52.5514 153.833C52.3434 154.265 52.2394 154.713 52.2394 155.177H59.8234ZM52.1914 156.473C52.2394 157.033 52.3754 157.561 52.5994 158.057C52.8234 158.553 53.1194 158.985 53.4874 159.353C53.8554 159.705 54.2794 159.985 54.7594 160.193C55.2394 160.401 55.7594 160.505 56.3194 160.505C57.1674 160.505 57.8954 160.313 58.5034 159.929C59.1274 159.529 59.5994 159.073 59.9194 158.561L61.1434 159.569C60.4714 160.417 59.7274 161.025 58.9114 161.393C58.1114 161.761 57.2474 161.945 56.3194 161.945C55.4874 161.945 54.7114 161.801 53.9914 161.513C53.2874 161.209 52.6794 160.793 52.1674 160.265C51.6554 159.737 51.2474 159.113 50.9434 158.393C50.6554 157.673 50.5114 156.889 50.5114 156.041C50.5114 155.193 50.6554 154.409 50.9434 153.689C51.2314 152.969 51.6314 152.345 52.1434 151.817C52.6554 151.289 53.2554 150.881 53.9434 150.593C54.6314 150.289 55.3754 150.137 56.1754 150.137C57.0234 150.137 57.7834 150.289 58.4554 150.593C59.1274 150.897 59.6874 151.305 60.1354 151.817C60.5994 152.313 60.9514 152.905 61.1914 153.593C61.4314 154.265 61.5514 154.985 61.5514 155.753V156.473H52.1914ZM72.6073 153.065C72.3353 152.649 71.9513 152.297 71.4553 152.009C70.9753 151.721 70.4233 151.577 69.7993 151.577C69.1433 151.561 68.5513 151.665 68.0233 151.889C67.5113 152.113 67.0713 152.425 66.7033 152.825C66.3353 153.225 66.0553 153.705 65.8633 154.265C65.6713 154.809 65.5753 155.401 65.5753 156.041C65.5753 156.681 65.6713 157.281 65.8633 157.841C66.0553 158.385 66.3353 158.857 66.7033 159.257C67.0713 159.657 67.5113 159.969 68.0233 160.193C68.5513 160.417 69.1433 160.521 69.7993 160.505C70.4233 160.505 70.9753 160.361 71.4553 160.073C71.9513 159.785 72.3353 159.433 72.6073 159.017L73.9033 160.001C73.3433 160.657 72.7113 161.145 72.0073 161.465C71.3033 161.769 70.5673 161.929 69.7993 161.945C68.8873 161.961 68.0633 161.825 67.3273 161.537C66.5913 161.233 65.9593 160.817 65.4313 160.289C64.9193 159.761 64.5273 159.137 64.2553 158.417C63.9833 157.681 63.8473 156.889 63.8473 156.041C63.8473 155.193 63.9833 154.409 64.2553 153.689C64.5273 152.953 64.9193 152.321 65.4313 151.793C65.9593 151.265 66.5913 150.857 67.3273 150.569C68.0633 150.265 68.8873 150.121 69.7993 150.137C70.5673 150.153 71.3033 150.321 72.0073 150.641C72.7113 150.945 73.3433 151.425 73.9033 152.081L72.6073 153.065ZM81.8094 151.865H78.5694V158.489C78.5694 158.905 78.6094 159.249 78.6894 159.521C78.7694 159.777 78.8814 159.977 79.0254 160.121C79.1694 160.265 79.3374 160.369 79.5294 160.433C79.7374 160.481 79.9614 160.505 80.2014 160.505C80.4734 160.505 80.7534 160.465 81.0414 160.385C81.3294 160.305 81.5934 160.201 81.8334 160.073L81.9054 161.537C81.3134 161.809 80.6014 161.945 79.7694 161.945C79.4654 161.945 79.1454 161.905 78.8094 161.825C78.4894 161.745 78.1934 161.593 77.9214 161.369C77.6494 161.145 77.4254 160.841 77.2494 160.457C77.0734 160.073 76.9854 159.569 76.9854 158.945V151.865H74.6094V150.425H76.9854V147.257H78.5694V150.425H81.8094V151.865ZM92.7062 155.177C92.7062 154.105 92.3862 153.241 91.7462 152.585C91.1062 151.913 90.2102 151.577 89.0582 151.577C88.5462 151.577 88.0502 151.681 87.5702 151.889C87.0902 152.081 86.6662 152.345 86.2982 152.681C85.9462 153.017 85.6582 153.401 85.4342 153.833C85.2262 154.265 85.1222 154.713 85.1222 155.177H92.7062ZM85.0742 156.473C85.1222 157.033 85.2582 157.561 85.4822 158.057C85.7062 158.553 86.0022 158.985 86.3702 159.353C86.7382 159.705 87.1622 159.985 87.6422 160.193C88.1222 160.401 88.6422 160.505 89.2022 160.505C90.0502 160.505 90.7782 160.313 91.3862 159.929C92.0102 159.529 92.4822 159.073 92.8022 158.561L94.0262 159.569C93.3542 160.417 92.6102 161.025 91.7942 161.393C90.9942 161.761 90.1302 161.945 89.2022 161.945C88.3702 161.945 87.5942 161.801 86.8742 161.513C86.1702 161.209 85.5622 160.793 85.0502 160.265C84.5382 159.737 84.1302 159.113 83.8262 158.393C83.5382 157.673 83.3942 156.889 83.3942 156.041C83.3942 155.193 83.5382 154.409 83.8262 153.689C84.1142 152.969 84.5142 152.345 85.0262 151.817C85.5382 151.289 86.1382 150.881 86.8262 150.593C87.5142 150.289 88.2582 150.137 89.0582 150.137C89.9062 150.137 90.6662 150.289 91.3382 150.593C92.0102 150.897 92.5702 151.305 93.0182 151.817C93.4822 152.313 93.8342 152.905 94.0742 153.593C94.3142 154.265 94.4342 154.985 94.4342 155.753V156.473H85.0742ZM103.114 151.865H99.8741V158.489C99.8741 158.905 99.9141 159.249 99.9941 159.521C100.074 159.777 100.186 159.977 100.33 160.121C100.474 160.265 100.642 160.369 100.834 160.433C101.042 160.481 101.266 160.505 101.506 160.505C101.778 160.505 102.058 160.465 102.346 160.385C102.634 160.305 102.898 160.201 103.138 160.073L103.21 161.537C102.618 161.809 101.906 161.945 101.074 161.945C100.77 161.945 100.45 161.905 100.114 161.825C99.7941 161.745 99.4981 161.593 99.2261 161.369C98.9541 161.145 98.7301 160.841 98.5541 160.457C98.3781 160.073 98.2901 159.569 98.2901 158.945V151.865H95.9141V150.425H98.2901V147.257H99.8741V150.425H103.114V151.865ZM113.387 161.657C113.355 161.353 113.331 161.057 113.315 160.769C113.315 160.465 113.315 160.161 113.315 159.857H113.267C113.091 160.161 112.867 160.441 112.595 160.697C112.323 160.953 112.019 161.177 111.683 161.369C111.347 161.545 110.987 161.681 110.603 161.777C110.235 161.889 109.867 161.945 109.499 161.945C108.059 161.945 106.995 161.569 106.307 160.817C105.619 160.049 105.275 158.961 105.275 157.553V150.425H106.859V156.641C106.859 157.265 106.907 157.817 107.003 158.297C107.099 158.777 107.259 159.185 107.483 159.521C107.723 159.841 108.035 160.089 108.419 160.265C108.819 160.425 109.315 160.505 109.907 160.505C109.987 160.505 110.211 160.473 110.579 160.409C110.947 160.345 111.331 160.169 111.731 159.881C112.147 159.593 112.515 159.161 112.835 158.585C113.155 158.009 113.315 157.209 113.315 156.185V150.425H114.899V159.185C114.899 159.489 114.907 159.873 114.923 160.337C114.955 160.801 114.987 161.241 115.019 161.657H113.387ZM118.779 153.929C118.779 153.433 118.763 152.929 118.731 152.417C118.715 151.905 118.699 151.241 118.683 150.425H120.243V152.513H120.291C120.403 152.209 120.563 151.921 120.771 151.649C120.979 151.361 121.227 151.105 121.515 150.881C121.819 150.657 122.163 150.481 122.547 150.353C122.947 150.209 123.395 150.137 123.891 150.137C124.339 150.137 124.731 150.185 125.067 150.281L124.755 151.841C124.547 151.761 124.243 151.721 123.843 151.721C123.235 151.721 122.715 151.841 122.283 152.081C121.851 152.305 121.491 152.601 121.203 152.969C120.915 153.321 120.699 153.705 120.555 154.121C120.427 154.537 120.363 154.937 120.363 155.321V161.657H118.779V153.929ZM139.643 156.065C139.243 156.065 138.739 156.089 138.131 156.137C137.539 156.169 136.963 156.265 136.403 156.425C135.859 156.569 135.387 156.801 134.987 157.121C134.603 157.441 134.411 157.881 134.411 158.441C134.411 158.809 134.483 159.129 134.627 159.401C134.787 159.657 134.995 159.873 135.251 160.049C135.507 160.209 135.787 160.329 136.091 160.409C136.411 160.473 136.731 160.505 137.051 160.505C137.627 160.505 138.123 160.409 138.539 160.217C138.971 160.025 139.331 159.769 139.619 159.449C139.907 159.113 140.115 158.729 140.243 158.297C140.387 157.849 140.459 157.377 140.459 156.881V156.065H139.643ZM140.459 154.769V154.481C140.459 152.545 139.499 151.577 137.579 151.577C136.267 151.577 135.123 152.017 134.147 152.897L133.187 151.769C134.243 150.681 135.827 150.137 137.939 150.137C138.483 150.137 139.003 150.217 139.499 150.377C140.011 150.537 140.451 150.785 140.819 151.121C141.187 151.441 141.483 151.849 141.707 152.345C141.931 152.841 142.043 153.433 142.043 154.121V159.137C142.043 159.569 142.059 160.025 142.091 160.505C142.139 160.969 142.187 161.353 142.235 161.657H140.699C140.651 161.385 140.611 161.089 140.579 160.769C140.563 160.449 140.555 160.137 140.555 159.833H140.507C140.043 160.585 139.491 161.129 138.851 161.465C138.227 161.785 137.459 161.945 136.547 161.945C136.051 161.945 135.571 161.873 135.107 161.729C134.643 161.601 134.227 161.401 133.859 161.129C133.507 160.841 133.219 160.497 132.995 160.097C132.787 159.681 132.683 159.201 132.683 158.657C132.683 157.745 132.915 157.033 133.379 156.521C133.859 155.993 134.451 155.601 135.155 155.345C135.875 155.089 136.635 154.929 137.435 154.865C138.251 154.801 138.995 154.769 139.667 154.769H140.459ZM146.665 156.041C146.665 156.665 146.761 157.249 146.953 157.793C147.161 158.337 147.449 158.809 147.817 159.209C148.185 159.609 148.625 159.929 149.137 160.169C149.665 160.393 150.257 160.505 150.913 160.505C151.553 160.505 152.145 160.393 152.689 160.169C153.249 159.929 153.729 159.609 154.129 159.209C154.529 158.809 154.841 158.337 155.065 157.793C155.289 157.249 155.401 156.665 155.401 156.041C155.401 155.417 155.289 154.833 155.065 154.289C154.841 153.745 154.529 153.273 154.129 152.873C153.729 152.473 153.249 152.161 152.689 151.937C152.145 151.697 151.553 151.577 150.913 151.577C150.257 151.577 149.665 151.697 149.137 151.937C148.625 152.161 148.185 152.473 147.817 152.873C147.449 153.273 147.161 153.745 146.953 154.289C146.761 154.833 146.665 155.417 146.665 156.041ZM156.913 161.657H155.329V159.785H155.281C155.025 160.169 154.721 160.497 154.369 160.769C154.017 161.041 153.649 161.265 153.265 161.441C152.881 161.617 152.481 161.745 152.065 161.825C151.665 161.905 151.281 161.945 150.913 161.945C150.033 161.945 149.225 161.801 148.489 161.513C147.769 161.209 147.145 160.793 146.617 160.265C146.089 159.737 145.673 159.113 145.369 158.393C145.081 157.673 144.937 156.889 144.937 156.041C144.937 155.193 145.081 154.409 145.369 153.689C145.673 152.969 146.089 152.345 146.617 151.817C147.145 151.289 147.769 150.881 148.489 150.593C149.225 150.289 150.033 150.137 150.913 150.137C151.281 150.137 151.665 150.177 152.065 150.257C152.481 150.337 152.881 150.465 153.265 150.641C153.649 150.817 154.017 151.041 154.369 151.313C154.721 151.585 155.025 151.913 155.281 152.297H155.329V143.513H156.913V161.657ZM162.68 146.105C162.68 146.441 162.56 146.721 162.32 146.945C162.08 147.153 161.816 147.257 161.528 147.257C161.24 147.257 160.976 147.153 160.736 146.945C160.496 146.721 160.376 146.441 160.376 146.105C160.376 145.769 160.496 145.497 160.736 145.289C160.976 145.065 161.24 144.953 161.528 144.953C161.816 144.953 162.08 145.065 162.32 145.289C162.56 145.497 162.68 145.769 162.68 146.105ZM162.32 161.657H160.736V150.425H162.32V161.657ZM176.39 156.041C176.39 155.417 176.286 154.833 176.078 154.289C175.886 153.745 175.606 153.273 175.238 152.873C174.87 152.473 174.422 152.161 173.894 151.937C173.382 151.697 172.798 151.577 172.142 151.577C171.486 151.577 170.886 151.697 170.342 151.937C169.798 152.161 169.326 152.473 168.926 152.873C168.526 153.273 168.214 153.745 167.99 154.289C167.766 154.833 167.654 155.417 167.654 156.041C167.654 156.665 167.766 157.249 167.99 157.793C168.214 158.337 168.526 158.809 168.926 159.209C169.326 159.609 169.798 159.929 170.342 160.169C170.886 160.393 171.486 160.505 172.142 160.505C172.798 160.505 173.382 160.393 173.894 160.169C174.422 159.929 174.87 159.609 175.238 159.209C175.606 158.809 175.886 158.337 176.078 157.793C176.286 157.249 176.39 156.665 176.39 156.041ZM166.142 150.425H167.726V152.297H167.774C168.03 151.913 168.334 151.585 168.686 151.313C169.038 151.041 169.406 150.817 169.79 150.641C170.174 150.465 170.566 150.337 170.966 150.257C171.382 150.177 171.774 150.137 172.142 150.137C173.022 150.137 173.822 150.289 174.542 150.593C175.278 150.881 175.91 151.289 176.438 151.817C176.966 152.345 177.374 152.969 177.662 153.689C177.966 154.409 178.118 155.193 178.118 156.041C178.118 156.889 177.966 157.673 177.662 158.393C177.374 159.113 176.966 159.737 176.438 160.265C175.91 160.793 175.278 161.209 174.542 161.513C173.822 161.801 173.022 161.945 172.142 161.945C171.774 161.945 171.382 161.905 170.966 161.825C170.566 161.745 170.174 161.617 169.79 161.441C169.406 161.265 169.038 161.041 168.686 160.769C168.334 160.497 168.03 160.169 167.774 159.785H167.726V168.569H166.142V150.425ZM183.118 146.105C183.118 146.441 182.998 146.721 182.758 146.945C182.518 147.153 182.254 147.257 181.966 147.257C181.678 147.257 181.414 147.153 181.174 146.945C180.934 146.721 180.814 146.441 180.814 146.105C180.814 145.769 180.934 145.497 181.174 145.289C181.414 145.065 181.678 144.953 181.966 144.953C182.254 144.953 182.518 145.065 182.758 145.289C182.998 145.497 183.118 145.769 183.118 146.105ZM182.758 161.657H181.174V150.425H182.758V161.657ZM192.532 153.089C192.292 152.625 191.972 152.257 191.572 151.985C191.172 151.713 190.684 151.577 190.108 151.577C189.836 151.577 189.556 151.609 189.268 151.673C188.996 151.737 188.748 151.841 188.524 151.985C188.3 152.113 188.116 152.281 187.972 152.489C187.844 152.697 187.78 152.953 187.78 153.257C187.78 153.785 187.964 154.169 188.332 154.409C188.7 154.649 189.252 154.857 189.988 155.033L191.596 155.417C192.38 155.593 193.028 155.953 193.54 156.497C194.068 157.025 194.332 157.689 194.332 158.489C194.332 159.097 194.204 159.625 193.948 160.073C193.708 160.505 193.38 160.865 192.964 161.153C192.564 161.425 192.1 161.625 191.572 161.753C191.044 161.881 190.508 161.945 189.964 161.945C189.1 161.945 188.292 161.785 187.54 161.465C186.804 161.129 186.172 160.561 185.644 159.761L187.012 158.825C187.332 159.337 187.732 159.745 188.212 160.049C188.708 160.353 189.292 160.505 189.964 160.505C190.284 160.505 190.604 160.473 190.924 160.409C191.244 160.329 191.524 160.217 191.764 160.073C192.02 159.913 192.22 159.713 192.364 159.473C192.524 159.233 192.604 158.953 192.604 158.633C192.604 158.073 192.396 157.673 191.98 157.433C191.564 157.177 191.06 156.977 190.468 156.833L188.932 156.473C188.74 156.425 188.476 156.345 188.14 156.233C187.82 156.121 187.5 155.953 187.18 155.729C186.876 155.505 186.612 155.217 186.388 154.865C186.164 154.497 186.052 154.049 186.052 153.521C186.052 152.945 186.164 152.441 186.388 152.009C186.628 151.577 186.94 151.225 187.324 150.953C187.724 150.681 188.172 150.481 188.668 150.353C189.164 150.209 189.676 150.137 190.204 150.137C190.988 150.137 191.716 150.289 192.388 150.593C193.06 150.897 193.58 151.417 193.948 152.153L192.532 153.089ZM204.982 153.065C204.71 152.649 204.326 152.297 203.83 152.009C203.35 151.721 202.798 151.577 202.174 151.577C201.518 151.561 200.926 151.665 200.398 151.889C199.886 152.113 199.446 152.425 199.078 152.825C198.71 153.225 198.43 153.705 198.238 154.265C198.046 154.809 197.95 155.401 197.95 156.041C197.95 156.681 198.046 157.281 198.238 157.841C198.43 158.385 198.71 158.857 199.078 159.257C199.446 159.657 199.886 159.969 200.398 160.193C200.926 160.417 201.518 160.521 202.174 160.505C202.798 160.505 203.35 160.361 203.83 160.073C204.326 159.785 204.71 159.433 204.982 159.017L206.278 160.001C205.718 160.657 205.086 161.145 204.382 161.465C203.678 161.769 202.942 161.929 202.174 161.945C201.262 161.961 200.438 161.825 199.702 161.537C198.966 161.233 198.334 160.817 197.806 160.289C197.294 159.761 196.902 159.137 196.63 158.417C196.358 157.681 196.222 156.889 196.222 156.041C196.222 155.193 196.358 154.409 196.63 153.689C196.902 152.953 197.294 152.321 197.806 151.793C198.334 151.265 198.966 150.857 199.702 150.569C200.438 150.265 201.262 150.121 202.174 150.137C202.942 150.153 203.678 150.321 204.382 150.641C205.086 150.945 205.718 151.425 206.278 152.081L204.982 153.065ZM210.68 146.105C210.68 146.441 210.56 146.721 210.32 146.945C210.08 147.153 209.816 147.257 209.528 147.257C209.24 147.257 208.976 147.153 208.736 146.945C208.496 146.721 208.376 146.441 208.376 146.105C208.376 145.769 208.496 145.497 208.736 145.289C208.976 145.065 209.24 144.953 209.528 144.953C209.816 144.953 210.08 145.065 210.32 145.289C210.56 145.497 210.68 145.769 210.68 146.105ZM210.32 161.657H208.736V150.425H210.32V161.657ZM215.654 150.425C215.686 150.729 215.702 151.033 215.702 151.337C215.718 151.625 215.726 151.921 215.726 152.225H215.774C215.95 151.921 216.174 151.641 216.446 151.385C216.718 151.129 217.022 150.913 217.358 150.737C217.694 150.545 218.046 150.401 218.414 150.305C218.798 150.193 219.174 150.137 219.542 150.137C220.982 150.137 222.046 150.521 222.734 151.289C223.422 152.041 223.766 153.121 223.766 154.529V161.657H222.182V155.441C222.182 154.193 221.966 153.241 221.534 152.585C221.102 151.913 220.302 151.577 219.134 151.577C219.054 151.577 218.83 151.609 218.462 151.673C218.094 151.737 217.702 151.913 217.286 152.201C216.886 152.489 216.526 152.921 216.206 153.497C215.886 154.073 215.726 154.873 215.726 155.897V161.657H214.142V152.897C214.142 152.593 214.126 152.209 214.094 151.745C214.078 151.281 214.054 150.841 214.022 150.425H215.654ZM228.63 155.897C228.63 156.489 228.734 157.049 228.942 157.577C229.166 158.089 229.462 158.545 229.83 158.945C230.214 159.329 230.654 159.641 231.15 159.881C231.662 160.105 232.214 160.217 232.806 160.217C233.382 160.217 233.926 160.113 234.438 159.905C234.966 159.697 235.43 159.409 235.83 159.041C236.23 158.657 236.534 158.201 236.742 157.673C236.966 157.145 237.07 156.553 237.054 155.897C237.054 155.305 236.958 154.753 236.766 154.241C236.574 153.713 236.294 153.257 235.926 152.873C235.558 152.473 235.11 152.161 234.582 151.937C234.054 151.697 233.462 151.577 232.806 151.577C232.214 151.577 231.662 151.697 231.15 151.937C230.654 152.161 230.214 152.473 229.83 152.873C229.462 153.257 229.166 153.713 228.942 154.241C228.734 154.753 228.63 155.305 228.63 155.897ZM228.342 163.913C228.806 164.537 229.406 165.033 230.142 165.401C230.894 165.785 231.726 165.977 232.638 165.977C233.438 165.977 234.118 165.857 234.678 165.617C235.238 165.393 235.686 165.081 236.022 164.681C236.374 164.281 236.622 163.809 236.766 163.265C236.926 162.737 237.006 162.169 237.006 161.561V159.545H236.958C236.446 160.313 235.822 160.857 235.086 161.177C234.35 161.497 233.574 161.657 232.758 161.657C231.942 161.657 231.174 161.513 230.454 161.225C229.75 160.937 229.134 160.545 228.606 160.049C228.078 159.537 227.662 158.929 227.358 158.225C227.054 157.521 226.902 156.761 226.902 155.945C226.902 155.129 227.046 154.369 227.334 153.665C227.622 152.961 228.014 152.345 228.51 151.817C229.022 151.289 229.622 150.881 230.31 150.593C231.014 150.289 231.782 150.137 232.614 150.137C232.95 150.137 233.302 150.169 233.67 150.233C234.054 150.297 234.43 150.409 234.798 150.569C235.182 150.729 235.558 150.953 235.926 151.241C236.294 151.513 236.638 151.865 236.958 152.297H237.006V150.425H238.59V161.561C238.59 162.169 238.51 162.817 238.35 163.505C238.206 164.193 237.91 164.825 237.462 165.401C237.03 165.977 236.422 166.457 235.638 166.841C234.854 167.225 233.83 167.417 232.566 167.417C231.446 167.417 230.446 167.233 229.566 166.865C228.686 166.497 227.886 165.929 227.166 165.161L228.342 163.913ZM257.566 155.177C257.566 154.105 257.246 153.241 256.606 152.585C255.966 151.913 255.07 151.577 253.918 151.577C253.406 151.577 252.91 151.681 252.43 151.889C251.95 152.081 251.526 152.345 251.158 152.681C250.806 153.017 250.518 153.401 250.294 153.833C250.086 154.265 249.982 154.713 249.982 155.177H257.566ZM249.934 156.473C249.982 157.033 250.118 157.561 250.342 158.057C250.566 158.553 250.862 158.985 251.23 159.353C251.598 159.705 252.022 159.985 252.502 160.193C252.982 160.401 253.502 160.505 254.062 160.505C254.91 160.505 255.638 160.313 256.246 159.929C256.87 159.529 257.342 159.073 257.662 158.561L258.886 159.569C258.214 160.417 257.47 161.025 256.654 161.393C255.854 161.761 254.99 161.945 254.062 161.945C253.23 161.945 252.454 161.801 251.734 161.513C251.03 161.209 250.422 160.793 249.91 160.265C249.398 159.737 248.99 159.113 248.686 158.393C248.398 157.673 248.254 156.889 248.254 156.041C248.254 155.193 248.398 154.409 248.686 153.689C248.974 152.969 249.374 152.345 249.886 151.817C250.398 151.289 250.998 150.881 251.686 150.593C252.374 150.289 253.118 150.137 253.918 150.137C254.766 150.137 255.526 150.289 256.198 150.593C256.87 150.897 257.43 151.305 257.878 151.817C258.342 152.313 258.694 152.905 258.934 153.593C259.174 154.265 259.294 154.985 259.294 155.753V156.473H249.934ZM264.11 161.657H262.526V143.513H264.11V161.657ZM270.235 146.105C270.235 146.441 270.115 146.721 269.875 146.945C269.635 147.153 269.371 147.257 269.083 147.257C268.795 147.257 268.531 147.153 268.291 146.945C268.051 146.721 267.931 146.441 267.931 146.105C267.931 145.769 268.051 145.497 268.291 145.289C268.531 145.065 268.795 144.953 269.083 144.953C269.371 144.953 269.635 145.065 269.875 145.289C270.115 145.497 270.235 145.769 270.235 146.105ZM269.875 161.657H268.291V150.425H269.875V161.657ZM279.505 151.865H276.265V158.489C276.265 158.905 276.305 159.249 276.385 159.521C276.465 159.777 276.577 159.977 276.721 160.121C276.865 160.265 277.033 160.369 277.225 160.433C277.433 160.481 277.657 160.505 277.897 160.505C278.169 160.505 278.449 160.465 278.737 160.385C279.025 160.305 279.289 160.201 279.529 160.073L279.601 161.537C279.009 161.809 278.297 161.945 277.465 161.945C277.161 161.945 276.841 161.905 276.505 161.825C276.185 161.745 275.889 161.593 275.617 161.369C275.345 161.145 275.121 160.841 274.945 160.457C274.769 160.073 274.681 159.569 274.681 158.945V151.865H272.305V150.425H274.681V147.257H276.265V150.425H279.505V151.865ZM284.57 160.505C284.57 160.841 284.45 161.145 284.21 161.417C283.97 161.673 283.658 161.801 283.274 161.801C282.89 161.801 282.578 161.673 282.338 161.417C282.098 161.145 281.978 160.841 281.978 160.505C281.978 160.169 282.098 159.873 282.338 159.617C282.578 159.345 282.89 159.209 283.274 159.209C283.658 159.209 283.97 159.345 284.21 159.617C284.45 159.873 284.57 160.169 284.57 160.505Z" fill="white"/>
<defs>
<clipPath id="clip0_802_817">
<rect width="24" height="24" fill="white" transform="translate(0 0.656738)"/>
</clipPath>
</defs>
</svg>
