<svg width="412" height="232" viewBox="0 0 412 232" fill="none" xmlns="http://www.w3.org/2000/svg">
<g filter="url(#filter0_b_815_5449)">
<rect width="412" height="232" rx="16" fill="url(#paint0_linear_815_5449)" fill-opacity="0.25"/>
<path d="M71.84 60.384C71.84 62.4107 71.6213 64.1707 71.184 65.664C70.7467 67.1573 70.144 68.3947 69.376 69.376C68.608 70.3467 67.696 71.072 66.64 71.552C65.5947 72.0213 64.464 72.256 63.248 72.256C62.032 72.256 60.9013 72.0213 59.856 71.552C58.8107 71.072 57.9093 70.3467 57.152 69.376C56.3947 68.3947 55.7973 67.1573 55.36 65.664C54.9333 64.1707 54.72 62.4107 54.72 60.384C54.72 58.3573 54.9333 56.6027 55.36 55.12C55.7973 53.6267 56.3947 52.3947 57.152 51.424C57.9093 50.4427 58.8107 49.7173 59.856 49.248C60.9013 48.768 62.032 48.528 63.248 48.528C64.464 48.528 65.5947 48.768 66.64 49.248C67.696 49.7173 68.608 50.4427 69.376 51.424C70.144 52.3947 70.7467 53.6267 71.184 55.12C71.6213 56.6027 71.84 58.3573 71.84 60.384ZM67.28 60.384C67.28 58.7413 67.1627 57.3867 66.928 56.32C66.704 55.2533 66.4053 54.4107 66.032 53.792C65.6587 53.1733 65.2267 52.7413 64.736 52.496C64.256 52.2507 63.76 52.128 63.248 52.128C62.736 52.128 62.24 52.2507 61.76 52.496C61.2907 52.7413 60.8693 53.1733 60.496 53.792C60.1333 54.4107 59.84 55.2533 59.616 56.32C59.392 57.3867 59.28 58.7413 59.28 60.384C59.28 62.0373 59.392 63.3973 59.616 64.464C59.84 65.5307 60.1333 66.3733 60.496 66.992C60.8693 67.6107 61.2907 68.0427 61.76 68.288C62.24 68.5333 62.736 68.656 63.248 68.656C63.76 68.656 64.256 68.5333 64.736 68.288C65.2267 68.0427 65.6587 67.6107 66.032 66.992C66.4053 66.3733 66.704 65.5307 66.928 64.464C67.1627 63.3973 67.28 62.0373 67.28 60.384ZM74.1465 55.328C74.3172 54.1973 74.6372 53.2053 75.1065 52.352C75.5758 51.4987 76.1625 50.7893 76.8665 50.224C77.5705 49.6587 78.3705 49.2373 79.2665 48.96C80.1732 48.672 81.1492 48.528 82.1945 48.528C83.3038 48.528 84.2958 48.688 85.1705 49.008C86.0558 49.3173 86.8025 49.744 87.4105 50.288C88.0185 50.832 88.4825 51.4667 88.8025 52.192C89.1332 52.9173 89.2985 53.696 89.2985 54.528C89.2985 55.264 89.2185 55.9147 89.0585 56.48C88.9092 57.0347 88.6798 57.52 88.3705 57.936C88.0718 58.352 87.6985 58.704 87.2505 58.992C86.8132 59.28 86.3065 59.52 85.7305 59.712C88.3972 60.5867 89.7305 62.3627 89.7305 65.04C89.7305 66.224 89.5118 67.2693 89.0745 68.176C88.6372 69.072 88.0505 69.824 87.3145 70.432C86.5785 71.04 85.7198 71.4987 84.7385 71.808C83.7678 72.1067 82.7492 72.256 81.6825 72.256C80.5518 72.256 79.5545 72.128 78.6905 71.872C77.8265 71.616 77.0638 71.232 76.4025 70.72C75.7518 70.208 75.1918 69.568 74.7225 68.8C74.2532 68.0213 73.8425 67.1147 73.4905 66.08L75.4425 65.28C75.9545 65.0667 76.4292 65.008 76.8665 65.104C77.3145 65.2 77.6345 65.4347 77.8265 65.808C78.0398 66.2133 78.2638 66.5867 78.4985 66.928C78.7438 67.2693 79.0158 67.568 79.3145 67.824C79.6132 68.0693 79.9492 68.2613 80.3225 68.4C80.7065 68.5387 81.1438 68.608 81.6345 68.608C82.2532 68.608 82.7918 68.5067 83.2505 68.304C83.7092 68.1013 84.0932 67.84 84.4025 67.52C84.7118 67.1893 84.9412 66.8213 85.0905 66.416C85.2505 66 85.3305 65.5893 85.3305 65.184C85.3305 64.6507 85.2825 64.1707 85.1865 63.744C85.0905 63.3067 84.8665 62.9387 84.5145 62.64C84.1732 62.3307 83.6612 62.096 82.9785 61.936C82.3065 61.7653 81.3892 61.68 80.2265 61.68V58.576C81.1972 58.576 81.9918 58.496 82.6105 58.336C83.2292 58.176 83.7145 57.952 84.0665 57.664C84.4185 57.376 84.6585 57.0293 84.7865 56.624C84.9252 56.2187 84.9945 55.776 84.9945 55.296C84.9945 54.2827 84.7278 53.5093 84.1945 52.976C83.6718 52.4427 82.9252 52.176 81.9545 52.176C81.5278 52.176 81.1332 52.24 80.7705 52.368C80.4185 52.4853 80.0985 52.6507 79.8105 52.864C79.5332 53.0773 79.2932 53.328 79.0905 53.616C78.8878 53.904 78.7385 54.2187 78.6425 54.56C78.4398 55.0933 78.1785 55.4507 77.8585 55.632C77.5385 55.8027 77.0745 55.84 76.4665 55.744L74.1465 55.328Z" fill="white"/>
<path d="M65.784 115.956V117H56.508V100.02H57.744V115.956H65.784ZM71.6648 104.868C72.5208 104.868 73.2848 105.016 73.9568 105.312C74.6368 105.6 75.2088 106.012 75.6728 106.548C76.1368 107.084 76.4888 107.732 76.7288 108.492C76.9768 109.244 77.1008 110.088 77.1008 111.024C77.1008 111.96 76.9768 112.804 76.7288 113.556C76.4888 114.308 76.1368 114.952 75.6728 115.488C75.2088 116.024 74.6368 116.436 73.9568 116.724C73.2848 117.012 72.5208 117.156 71.6648 117.156C70.8088 117.156 70.0408 117.012 69.3608 116.724C68.6888 116.436 68.1168 116.024 67.6448 115.488C67.1808 114.952 66.8248 114.308 66.5768 113.556C66.3368 112.804 66.2168 111.96 66.2168 111.024C66.2168 110.088 66.3368 109.244 66.5768 108.492C66.8248 107.732 67.1808 107.084 67.6448 106.548C68.1168 106.012 68.6888 105.6 69.3608 105.312C70.0408 105.016 70.8088 104.868 71.6648 104.868ZM71.6648 116.256C72.3768 116.256 72.9968 116.136 73.5248 115.896C74.0608 115.648 74.5048 115.296 74.8568 114.84C75.2168 114.384 75.4848 113.836 75.6608 113.196C75.8368 112.548 75.9248 111.824 75.9248 111.024C75.9248 110.232 75.8368 109.512 75.6608 108.864C75.4848 108.216 75.2168 107.664 74.8568 107.208C74.5048 106.744 74.0608 106.388 73.5248 106.14C72.9968 105.892 72.3768 105.768 71.6648 105.768C70.9528 105.768 70.3288 105.892 69.7928 106.14C69.2648 106.388 68.8208 106.744 68.4608 107.208C68.1088 107.664 67.8408 108.216 67.6568 108.864C67.4808 109.512 67.3928 110.232 67.3928 111.024C67.3928 111.824 67.4808 112.548 67.6568 113.196C67.8408 113.836 68.1088 114.384 68.4608 114.84C68.8208 115.296 69.2648 115.648 69.7928 115.896C70.3288 116.136 70.9528 116.256 71.6648 116.256ZM81.4116 107.94C81.5956 107.452 81.8036 107.02 82.0356 106.644C82.2756 106.26 82.5476 105.936 82.8516 105.672C83.1636 105.408 83.5076 105.208 83.8836 105.072C84.2676 104.928 84.6916 104.856 85.1556 104.856C85.4036 104.856 85.6476 104.88 85.8876 104.928C86.1276 104.968 86.3396 105.044 86.5236 105.156L86.4276 105.948C86.3876 106.076 86.3116 106.14 86.1996 106.14C86.1036 106.14 85.9556 106.112 85.7556 106.056C85.5636 106 85.3076 105.972 84.9876 105.972C84.5236 105.972 84.1116 106.044 83.7516 106.188C83.3996 106.324 83.0796 106.532 82.7916 106.812C82.5116 107.092 82.2636 107.44 82.0476 107.856C81.8396 108.264 81.6476 108.736 81.4716 109.272V117H80.3196V105.06H80.9316C81.0676 105.06 81.1636 105.088 81.2196 105.144C81.2756 105.2 81.3116 105.296 81.3276 105.432L81.4116 107.94ZM96.5003 109.824C96.5003 109.184 96.4083 108.612 96.2243 108.108C96.0483 107.596 95.7963 107.164 95.4683 106.812C95.1403 106.46 94.7483 106.192 94.2923 106.008C93.8443 105.816 93.3483 105.72 92.8043 105.72C92.1883 105.72 91.6363 105.816 91.1483 106.008C90.6603 106.2 90.2363 106.476 89.8763 106.836C89.5243 107.196 89.2403 107.628 89.0243 108.132C88.8083 108.636 88.6643 109.2 88.5923 109.824H96.5003ZM88.5323 110.556V110.784C88.5323 111.68 88.6363 112.468 88.8443 113.148C89.0523 113.828 89.3483 114.4 89.7323 114.864C90.1163 115.32 90.5803 115.664 91.1243 115.896C91.6683 116.128 92.2763 116.244 92.9483 116.244C93.5483 116.244 94.0683 116.18 94.5083 116.052C94.9483 115.916 95.3163 115.768 95.6123 115.608C95.9163 115.44 96.1563 115.292 96.3323 115.164C96.5083 115.028 96.6363 114.96 96.7163 114.96C96.8203 114.96 96.9003 115 96.9563 115.08L97.2683 115.464C97.0763 115.704 96.8203 115.928 96.5003 116.136C96.1883 116.344 95.8363 116.524 95.4443 116.676C95.0603 116.82 94.6443 116.936 94.1963 117.024C93.7563 117.112 93.3123 117.156 92.8643 117.156C92.0483 117.156 91.3043 117.016 90.6323 116.736C89.9603 116.448 89.3843 116.032 88.9043 115.488C88.4243 114.944 88.0523 114.28 87.7883 113.496C87.5323 112.704 87.4043 111.8 87.4043 110.784C87.4043 109.928 87.5243 109.14 87.7643 108.42C88.0123 107.692 88.3643 107.068 88.8203 106.548C89.2843 106.02 89.8483 105.608 90.5123 105.312C91.1843 105.016 91.9443 104.868 92.7923 104.868C93.4643 104.868 94.0883 104.984 94.6643 105.216C95.2403 105.448 95.7403 105.788 96.1643 106.236C96.5883 106.676 96.9203 107.22 97.1603 107.868C97.4083 108.516 97.5323 109.26 97.5323 110.1C97.5323 110.276 97.5083 110.396 97.4603 110.46C97.4123 110.524 97.3323 110.556 97.2203 110.556H88.5323ZM100.64 117V105.06H101.276C101.476 105.06 101.592 105.16 101.624 105.36L101.732 107.088C102.196 106.424 102.728 105.888 103.328 105.48C103.928 105.072 104.604 104.868 105.356 104.868C106.228 104.868 106.924 105.12 107.444 105.624C107.972 106.128 108.328 106.828 108.512 107.724C108.656 107.236 108.856 106.812 109.112 106.452C109.376 106.092 109.676 105.796 110.012 105.564C110.348 105.324 110.712 105.148 111.104 105.036C111.504 104.924 111.912 104.868 112.328 104.868C112.92 104.868 113.452 104.968 113.924 105.168C114.396 105.36 114.796 105.648 115.124 106.032C115.452 106.416 115.704 106.888 115.88 107.448C116.056 108.008 116.144 108.648 116.144 109.368V117H115.004V109.368C115.004 108.2 114.752 107.312 114.248 106.704C113.744 106.088 113.024 105.78 112.088 105.78C111.672 105.78 111.272 105.856 110.888 106.008C110.512 106.16 110.176 106.388 109.88 106.692C109.592 106.988 109.36 107.36 109.184 107.808C109.016 108.256 108.932 108.776 108.932 109.368V117H107.78V109.368C107.78 108.208 107.548 107.32 107.084 106.704C106.628 106.088 105.956 105.78 105.068 105.78C104.42 105.78 103.82 105.972 103.268 106.356C102.716 106.74 102.224 107.272 101.792 107.952V117H100.64ZM127.74 105.06V117H126.6V105.06H127.74ZM128.232 100.944C128.232 101.088 128.2 101.224 128.136 101.352C128.08 101.472 128.004 101.58 127.908 101.676C127.812 101.772 127.7 101.848 127.572 101.904C127.444 101.96 127.308 101.988 127.164 101.988C127.02 101.988 126.884 101.96 126.756 101.904C126.628 101.848 126.516 101.772 126.42 101.676C126.324 101.58 126.248 101.472 126.192 101.352C126.136 101.224 126.108 101.088 126.108 100.944C126.108 100.8 126.136 100.664 126.192 100.536C126.248 100.4 126.324 100.284 126.42 100.188C126.516 100.092 126.628 100.016 126.756 99.96C126.884 99.904 127.02 99.876 127.164 99.876C127.308 99.876 127.444 99.904 127.572 99.96C127.7 100.016 127.812 100.092 127.908 100.188C128.004 100.284 128.08 100.4 128.136 100.536C128.2 100.664 128.232 100.8 128.232 100.944ZM132.964 114.396C133.196 114.74 133.436 115.032 133.684 115.272C133.94 115.504 134.208 115.696 134.488 115.848C134.768 115.992 135.064 116.096 135.376 116.16C135.696 116.224 136.032 116.256 136.384 116.256C137.088 116.256 137.704 116.128 138.232 115.872C138.76 115.616 139.2 115.256 139.552 114.792C139.912 114.32 140.18 113.76 140.356 113.112C140.54 112.456 140.632 111.736 140.632 110.952C140.632 109.176 140.304 107.872 139.648 107.04C138.992 106.2 138.052 105.78 136.828 105.78C136.036 105.78 135.32 105.984 134.68 106.392C134.04 106.8 133.468 107.368 132.964 108.096V114.396ZM132.916 107.208C133.444 106.488 134.06 105.916 134.764 105.492C135.476 105.068 136.272 104.856 137.152 104.856C138.616 104.856 139.756 105.364 140.572 106.38C141.396 107.396 141.808 108.92 141.808 110.952C141.808 111.824 141.692 112.64 141.46 113.4C141.236 114.152 140.9 114.808 140.452 115.368C140.012 115.92 139.468 116.356 138.82 116.676C138.18 116.996 137.44 117.156 136.6 117.156C135.792 117.156 135.092 117.008 134.5 116.712C133.908 116.416 133.396 115.98 132.964 115.404V121.224H131.812V105.06H132.448C132.648 105.06 132.764 105.16 132.796 105.36L132.916 107.208ZM151.618 106.536C151.554 106.648 151.462 106.704 151.342 106.704C151.254 106.704 151.142 106.656 151.006 106.56C150.87 106.456 150.686 106.344 150.454 106.224C150.23 106.096 149.95 105.984 149.614 105.888C149.278 105.784 148.87 105.732 148.39 105.732C147.958 105.732 147.562 105.796 147.202 105.924C146.85 106.044 146.546 106.208 146.29 106.416C146.042 106.624 145.85 106.868 145.714 107.148C145.578 107.42 145.51 107.708 145.51 108.012C145.51 108.388 145.606 108.7 145.798 108.948C145.99 109.196 146.238 109.408 146.542 109.584C146.854 109.76 147.21 109.912 147.61 110.04C148.01 110.168 148.414 110.296 148.822 110.424C149.238 110.552 149.646 110.696 150.046 110.856C150.446 111.008 150.798 111.2 151.102 111.432C151.414 111.664 151.666 111.948 151.858 112.284C152.05 112.62 152.146 113.028 152.146 113.508C152.146 114.028 152.054 114.512 151.87 114.96C151.686 115.408 151.414 115.796 151.054 116.124C150.702 116.452 150.266 116.712 149.746 116.904C149.226 117.096 148.63 117.192 147.958 117.192C147.118 117.192 146.394 117.06 145.786 116.796C145.178 116.524 144.634 116.172 144.154 115.74L144.418 115.332C144.458 115.268 144.502 115.22 144.55 115.188C144.606 115.156 144.678 115.14 144.766 115.14C144.87 115.14 144.994 115.204 145.138 115.332C145.29 115.46 145.49 115.6 145.738 115.752C145.986 115.896 146.29 116.032 146.65 116.16C147.018 116.288 147.47 116.352 148.006 116.352C148.51 116.352 148.954 116.284 149.338 116.148C149.722 116.004 150.042 115.812 150.298 115.572C150.554 115.332 150.746 115.052 150.874 114.732C151.01 114.404 151.078 114.06 151.078 113.7C151.078 113.3 150.982 112.968 150.79 112.704C150.598 112.44 150.346 112.216 150.034 112.032C149.722 111.848 149.366 111.692 148.966 111.564C148.574 111.436 148.17 111.308 147.754 111.18C147.338 111.052 146.93 110.912 146.53 110.76C146.138 110.608 145.786 110.416 145.474 110.184C145.162 109.952 144.91 109.672 144.718 109.344C144.526 109.008 144.43 108.592 144.43 108.096C144.43 107.672 144.522 107.264 144.706 106.872C144.89 106.48 145.15 106.136 145.486 105.84C145.83 105.544 146.246 105.308 146.734 105.132C147.222 104.956 147.77 104.868 148.378 104.868C149.106 104.868 149.75 104.972 150.31 105.18C150.878 105.388 151.394 105.708 151.858 106.14L151.618 106.536ZM164.513 105.06V117H163.877C163.677 117 163.561 116.896 163.529 116.688L163.421 114.912C162.869 115.6 162.229 116.152 161.501 116.568C160.781 116.984 159.977 117.192 159.089 117.192C158.425 117.192 157.845 117.088 157.349 116.88C156.853 116.672 156.441 116.372 156.113 115.98C155.785 115.588 155.537 115.116 155.369 114.564C155.201 114.012 155.117 113.388 155.117 112.692V105.06H156.269V112.692C156.269 113.812 156.525 114.692 157.037 115.332C157.549 115.964 158.329 116.28 159.377 116.28C160.153 116.28 160.877 116.084 161.549 115.692C162.229 115.292 162.833 114.74 163.361 114.036V105.06H164.513ZM168.445 117V105.06H169.081C169.281 105.06 169.397 105.16 169.429 105.36L169.537 107.088C170.001 106.424 170.533 105.888 171.133 105.48C171.733 105.072 172.409 104.868 173.161 104.868C174.033 104.868 174.729 105.12 175.249 105.624C175.777 106.128 176.133 106.828 176.317 107.724C176.461 107.236 176.661 106.812 176.917 106.452C177.181 106.092 177.481 105.796 177.817 105.564C178.153 105.324 178.517 105.148 178.909 105.036C179.309 104.924 179.717 104.868 180.133 104.868C180.725 104.868 181.257 104.968 181.729 105.168C182.201 105.36 182.601 105.648 182.929 106.032C183.257 106.416 183.509 106.888 183.685 107.448C183.861 108.008 183.949 108.648 183.949 109.368V117H182.809V109.368C182.809 108.2 182.557 107.312 182.053 106.704C181.549 106.088 180.829 105.78 179.893 105.78C179.477 105.78 179.077 105.856 178.693 106.008C178.317 106.16 177.981 106.388 177.685 106.692C177.397 106.988 177.165 107.36 176.989 107.808C176.821 108.256 176.737 108.776 176.737 109.368V117H175.585V109.368C175.585 108.208 175.353 107.32 174.889 106.704C174.433 106.088 173.761 105.78 172.873 105.78C172.225 105.78 171.625 105.972 171.073 106.356C170.521 106.74 170.029 107.272 169.597 107.952V117H168.445ZM202.421 107.628C201.965 106.94 201.457 106.456 200.897 106.176C200.345 105.896 199.713 105.756 199.001 105.756C198.297 105.756 197.681 105.884 197.153 106.14C196.625 106.396 196.181 106.76 195.821 107.232C195.469 107.696 195.201 108.256 195.017 108.912C194.841 109.56 194.753 110.276 194.753 111.06C194.753 112.836 195.077 114.144 195.725 114.984C196.381 115.816 197.325 116.232 198.557 116.232C199.341 116.232 200.057 116.028 200.705 115.62C201.353 115.212 201.925 114.64 202.421 113.904V107.628ZM203.561 99.54V117H202.937C202.729 117 202.609 116.896 202.577 116.688L202.457 114.804C201.929 115.524 201.313 116.096 200.609 116.52C199.905 116.944 199.113 117.156 198.233 117.156C196.761 117.156 195.617 116.648 194.801 115.632C193.985 114.616 193.577 113.092 193.577 111.06C193.577 110.188 193.689 109.376 193.913 108.624C194.145 107.864 194.481 107.208 194.921 106.656C195.361 106.096 195.901 105.656 196.541 105.336C197.189 105.016 197.933 104.856 198.773 104.856C199.581 104.856 200.281 105.004 200.873 105.3C201.465 105.596 201.981 106.036 202.421 106.62V99.54H203.561ZM212.219 104.868C213.075 104.868 213.839 105.016 214.511 105.312C215.191 105.6 215.763 106.012 216.227 106.548C216.691 107.084 217.043 107.732 217.283 108.492C217.531 109.244 217.655 110.088 217.655 111.024C217.655 111.96 217.531 112.804 217.283 113.556C217.043 114.308 216.691 114.952 216.227 115.488C215.763 116.024 215.191 116.436 214.511 116.724C213.839 117.012 213.075 117.156 212.219 117.156C211.363 117.156 210.595 117.012 209.915 116.724C209.243 116.436 208.671 116.024 208.199 115.488C207.735 114.952 207.379 114.308 207.131 113.556C206.891 112.804 206.771 111.96 206.771 111.024C206.771 110.088 206.891 109.244 207.131 108.492C207.379 107.732 207.735 107.084 208.199 106.548C208.671 106.012 209.243 105.6 209.915 105.312C210.595 105.016 211.363 104.868 212.219 104.868ZM212.219 116.256C212.931 116.256 213.551 116.136 214.079 115.896C214.615 115.648 215.059 115.296 215.411 114.84C215.771 114.384 216.039 113.836 216.215 113.196C216.391 112.548 216.479 111.824 216.479 111.024C216.479 110.232 216.391 109.512 216.215 108.864C216.039 108.216 215.771 107.664 215.411 107.208C215.059 106.744 214.615 106.388 214.079 106.14C213.551 105.892 212.931 105.768 212.219 105.768C211.507 105.768 210.883 105.892 210.347 106.14C209.819 106.388 209.375 106.744 209.015 107.208C208.663 107.664 208.395 108.216 208.211 108.864C208.035 109.512 207.947 110.232 207.947 111.024C207.947 111.824 208.035 112.548 208.211 113.196C208.395 113.836 208.663 114.384 209.015 114.84C209.375 115.296 209.819 115.648 210.347 115.896C210.883 116.136 211.507 116.256 212.219 116.256ZM222.134 99.54V117H220.982V99.54H222.134ZM230.899 104.868C231.755 104.868 232.519 105.016 233.191 105.312C233.871 105.6 234.443 106.012 234.907 106.548C235.371 107.084 235.723 107.732 235.963 108.492C236.211 109.244 236.335 110.088 236.335 111.024C236.335 111.96 236.211 112.804 235.963 113.556C235.723 114.308 235.371 114.952 234.907 115.488C234.443 116.024 233.871 116.436 233.191 116.724C232.519 117.012 231.755 117.156 230.899 117.156C230.043 117.156 229.275 117.012 228.595 116.724C227.923 116.436 227.351 116.024 226.879 115.488C226.415 114.952 226.059 114.308 225.811 113.556C225.571 112.804 225.451 111.96 225.451 111.024C225.451 110.088 225.571 109.244 225.811 108.492C226.059 107.732 226.415 107.084 226.879 106.548C227.351 106.012 227.923 105.6 228.595 105.312C229.275 105.016 230.043 104.868 230.899 104.868ZM230.899 116.256C231.611 116.256 232.231 116.136 232.759 115.896C233.295 115.648 233.739 115.296 234.091 114.84C234.451 114.384 234.719 113.836 234.895 113.196C235.071 112.548 235.159 111.824 235.159 111.024C235.159 110.232 235.071 109.512 234.895 108.864C234.719 108.216 234.451 107.664 234.091 107.208C233.739 106.744 233.295 106.388 232.759 106.14C232.231 105.892 231.611 105.768 230.899 105.768C230.187 105.768 229.563 105.892 229.027 106.14C228.499 106.388 228.055 106.744 227.695 107.208C227.343 107.664 227.075 108.216 226.891 108.864C226.715 109.512 226.627 110.232 226.627 111.024C226.627 111.824 226.715 112.548 226.891 113.196C227.075 113.836 227.343 114.384 227.695 114.84C228.055 115.296 228.499 115.648 229.027 115.896C229.563 116.136 230.187 116.256 230.899 116.256ZM240.646 107.94C240.83 107.452 241.038 107.02 241.27 106.644C241.51 106.26 241.782 105.936 242.086 105.672C242.398 105.408 242.742 105.208 243.118 105.072C243.502 104.928 243.926 104.856 244.39 104.856C244.638 104.856 244.882 104.88 245.122 104.928C245.362 104.968 245.574 105.044 245.758 105.156L245.662 105.948C245.622 106.076 245.546 106.14 245.434 106.14C245.338 106.14 245.19 106.112 244.99 106.056C244.798 106 244.542 105.972 244.222 105.972C243.758 105.972 243.346 106.044 242.986 106.188C242.634 106.324 242.314 106.532 242.026 106.812C241.746 107.092 241.498 107.44 241.282 107.856C241.074 108.264 240.882 108.736 240.706 109.272V117H239.554V105.06H240.166C240.302 105.06 240.398 105.088 240.454 105.144C240.51 105.2 240.546 105.296 240.562 105.432L240.646 107.94ZM260.602 106.536C260.538 106.648 260.446 106.704 260.326 106.704C260.238 106.704 260.126 106.656 259.99 106.56C259.854 106.456 259.67 106.344 259.438 106.224C259.214 106.096 258.934 105.984 258.598 105.888C258.262 105.784 257.854 105.732 257.374 105.732C256.942 105.732 256.546 105.796 256.186 105.924C255.834 106.044 255.53 106.208 255.274 106.416C255.026 106.624 254.834 106.868 254.698 107.148C254.562 107.42 254.494 107.708 254.494 108.012C254.494 108.388 254.59 108.7 254.782 108.948C254.974 109.196 255.222 109.408 255.526 109.584C255.838 109.76 256.194 109.912 256.594 110.04C256.994 110.168 257.398 110.296 257.806 110.424C258.222 110.552 258.63 110.696 259.03 110.856C259.43 111.008 259.782 111.2 260.086 111.432C260.398 111.664 260.65 111.948 260.842 112.284C261.034 112.62 261.13 113.028 261.13 113.508C261.13 114.028 261.038 114.512 260.854 114.96C260.67 115.408 260.398 115.796 260.038 116.124C259.686 116.452 259.25 116.712 258.73 116.904C258.21 117.096 257.614 117.192 256.942 117.192C256.102 117.192 255.378 117.06 254.77 116.796C254.162 116.524 253.618 116.172 253.138 115.74L253.402 115.332C253.442 115.268 253.486 115.22 253.534 115.188C253.59 115.156 253.662 115.14 253.75 115.14C253.854 115.14 253.978 115.204 254.122 115.332C254.274 115.46 254.474 115.6 254.722 115.752C254.97 115.896 255.274 116.032 255.634 116.16C256.002 116.288 256.454 116.352 256.99 116.352C257.494 116.352 257.938 116.284 258.322 116.148C258.706 116.004 259.026 115.812 259.282 115.572C259.538 115.332 259.73 115.052 259.858 114.732C259.994 114.404 260.062 114.06 260.062 113.7C260.062 113.3 259.966 112.968 259.774 112.704C259.582 112.44 259.33 112.216 259.018 112.032C258.706 111.848 258.35 111.692 257.95 111.564C257.558 111.436 257.154 111.308 256.738 111.18C256.322 111.052 255.914 110.912 255.514 110.76C255.122 110.608 254.77 110.416 254.458 110.184C254.146 109.952 253.894 109.672 253.702 109.344C253.51 109.008 253.414 108.592 253.414 108.096C253.414 107.672 253.506 107.264 253.69 106.872C253.874 106.48 254.134 106.136 254.47 105.84C254.814 105.544 255.23 105.308 255.718 105.132C256.206 104.956 256.754 104.868 257.362 104.868C258.09 104.868 258.734 104.972 259.294 105.18C259.862 105.388 260.378 105.708 260.842 106.14L260.602 106.536ZM265.506 105.06V117H264.366V105.06H265.506ZM265.998 100.944C265.998 101.088 265.966 101.224 265.902 101.352C265.846 101.472 265.77 101.58 265.674 101.676C265.578 101.772 265.466 101.848 265.338 101.904C265.21 101.96 265.074 101.988 264.93 101.988C264.786 101.988 264.65 101.96 264.522 101.904C264.394 101.848 264.282 101.772 264.186 101.676C264.09 101.58 264.014 101.472 263.958 101.352C263.902 101.224 263.874 101.088 263.874 100.944C263.874 100.8 263.902 100.664 263.958 100.536C264.014 100.4 264.09 100.284 264.186 100.188C264.282 100.092 264.394 100.016 264.522 99.96C264.65 99.904 264.786 99.876 264.93 99.876C265.074 99.876 265.21 99.904 265.338 99.96C265.466 100.016 265.578 100.092 265.674 100.188C265.77 100.284 265.846 100.4 265.902 100.536C265.966 100.664 265.998 100.8 265.998 100.944ZM272.841 117.192C272.033 117.192 271.401 116.968 270.945 116.52C270.497 116.072 270.273 115.38 270.273 114.444V106.284H268.557C268.469 106.284 268.397 106.26 268.341 106.212C268.285 106.164 268.257 106.096 268.257 106.008V105.564L270.297 105.42L270.585 101.148C270.601 101.076 270.633 101.012 270.681 100.956C270.729 100.9 270.797 100.872 270.885 100.872H271.425V105.432H275.193V106.284H271.425V114.384C271.425 114.712 271.465 114.996 271.545 115.236C271.633 115.468 271.749 115.66 271.893 115.812C272.045 115.964 272.221 116.076 272.421 116.148C272.621 116.22 272.837 116.256 273.069 116.256C273.357 116.256 273.605 116.216 273.813 116.136C274.021 116.048 274.201 115.956 274.353 115.86C274.505 115.756 274.629 115.664 274.725 115.584C274.821 115.496 274.897 115.452 274.953 115.452C275.017 115.452 275.081 115.492 275.145 115.572L275.457 116.076C275.153 116.412 274.765 116.684 274.293 116.892C273.829 117.092 273.345 117.192 272.841 117.192ZM291.004 111.228C289.868 111.268 288.888 111.36 288.064 111.504C287.248 111.64 286.572 111.828 286.036 112.068C285.508 112.308 285.116 112.596 284.86 112.932C284.604 113.26 284.476 113.636 284.476 114.06C284.476 114.46 284.54 114.808 284.668 115.104C284.804 115.392 284.98 115.632 285.196 115.824C285.42 116.008 285.676 116.144 285.964 116.232C286.252 116.32 286.552 116.364 286.864 116.364C287.328 116.364 287.752 116.316 288.136 116.22C288.528 116.116 288.888 115.976 289.216 115.8C289.552 115.616 289.864 115.4 290.152 115.152C290.44 114.904 290.724 114.636 291.004 114.348V111.228ZM283.984 106.752C284.608 106.128 285.264 105.656 285.952 105.336C286.64 105.016 287.42 104.856 288.292 104.856C288.932 104.856 289.492 104.96 289.972 105.168C290.452 105.368 290.848 105.66 291.16 106.044C291.48 106.42 291.72 106.88 291.88 107.424C292.04 107.96 292.12 108.56 292.12 109.224V117H291.664C291.424 117 291.276 116.888 291.22 116.664L291.052 115.128C290.724 115.448 290.396 115.736 290.068 115.992C289.748 116.248 289.412 116.464 289.06 116.64C288.708 116.816 288.328 116.952 287.92 117.048C287.512 117.144 287.064 117.192 286.576 117.192C286.168 117.192 285.772 117.132 285.388 117.012C285.004 116.892 284.66 116.708 284.356 116.46C284.06 116.212 283.82 115.896 283.636 115.512C283.46 115.12 283.372 114.652 283.372 114.108C283.372 113.604 283.516 113.136 283.804 112.704C284.092 112.272 284.544 111.896 285.16 111.576C285.776 111.256 286.564 111 287.524 110.808C288.492 110.616 289.652 110.504 291.004 110.472V109.224C291.004 108.12 290.764 107.272 290.284 106.68C289.812 106.08 289.108 105.78 288.172 105.78C287.596 105.78 287.104 105.86 286.696 106.02C286.296 106.18 285.956 106.356 285.676 106.548C285.396 106.74 285.168 106.916 284.992 107.076C284.816 107.236 284.668 107.316 284.548 107.316C284.46 107.316 284.388 107.296 284.332 107.256C284.276 107.216 284.228 107.164 284.188 107.1L283.984 106.752ZM295.945 117V105.06H296.581C296.781 105.06 296.897 105.16 296.929 105.36L297.037 107.088C297.501 106.424 298.033 105.888 298.633 105.48C299.233 105.072 299.909 104.868 300.661 104.868C301.533 104.868 302.229 105.12 302.749 105.624C303.277 106.128 303.633 106.828 303.817 107.724C303.961 107.236 304.161 106.812 304.417 106.452C304.681 106.092 304.981 105.796 305.317 105.564C305.653 105.324 306.017 105.148 306.409 105.036C306.809 104.924 307.217 104.868 307.633 104.868C308.225 104.868 308.757 104.968 309.229 105.168C309.701 105.36 310.101 105.648 310.429 106.032C310.757 106.416 311.009 106.888 311.185 107.448C311.361 108.008 311.449 108.648 311.449 109.368V117H310.309V109.368C310.309 108.2 310.057 107.312 309.553 106.704C309.049 106.088 308.329 105.78 307.393 105.78C306.977 105.78 306.577 105.856 306.193 106.008C305.817 106.16 305.481 106.388 305.185 106.692C304.897 106.988 304.665 107.36 304.489 107.808C304.321 108.256 304.237 108.776 304.237 109.368V117H303.085V109.368C303.085 108.208 302.853 107.32 302.389 106.704C301.933 106.088 301.261 105.78 300.373 105.78C299.725 105.78 299.125 105.972 298.573 106.356C298.021 106.74 297.529 107.272 297.097 107.952V117H295.945ZM323.633 109.824C323.633 109.184 323.541 108.612 323.357 108.108C323.181 107.596 322.929 107.164 322.601 106.812C322.273 106.46 321.881 106.192 321.425 106.008C320.977 105.816 320.481 105.72 319.937 105.72C319.321 105.72 318.769 105.816 318.281 106.008C317.793 106.2 317.369 106.476 317.009 106.836C316.657 107.196 316.373 107.628 316.157 108.132C315.941 108.636 315.797 109.2 315.725 109.824H323.633ZM315.665 110.556V110.784C315.665 111.68 315.769 112.468 315.977 113.148C316.185 113.828 316.481 114.4 316.865 114.864C317.249 115.32 317.713 115.664 318.257 115.896C318.801 116.128 319.409 116.244 320.081 116.244C320.681 116.244 321.201 116.18 321.641 116.052C322.081 115.916 322.449 115.768 322.745 115.608C323.049 115.44 323.289 115.292 323.465 115.164C323.641 115.028 323.769 114.96 323.849 114.96C323.953 114.96 324.033 115 324.089 115.08L324.401 115.464C324.209 115.704 323.953 115.928 323.633 116.136C323.321 116.344 322.969 116.524 322.577 116.676C322.193 116.82 321.777 116.936 321.329 117.024C320.889 117.112 320.445 117.156 319.997 117.156C319.181 117.156 318.437 117.016 317.765 116.736C317.093 116.448 316.517 116.032 316.037 115.488C315.557 114.944 315.185 114.28 314.921 113.496C314.665 112.704 314.537 111.8 314.537 110.784C314.537 109.928 314.657 109.14 314.897 108.42C315.145 107.692 315.497 107.068 315.953 106.548C316.417 106.02 316.981 105.608 317.645 105.312C318.317 105.016 319.077 104.868 319.925 104.868C320.597 104.868 321.221 104.984 321.797 105.216C322.373 105.448 322.873 105.788 323.297 106.236C323.721 106.676 324.053 107.22 324.293 107.868C324.541 108.516 324.665 109.26 324.665 110.1C324.665 110.276 324.641 110.396 324.593 110.46C324.545 110.524 324.465 110.556 324.353 110.556H315.665ZM330.99 117.192C330.182 117.192 329.55 116.968 329.094 116.52C328.646 116.072 328.422 115.38 328.422 114.444V106.284H326.706C326.618 106.284 326.546 106.26 326.49 106.212C326.434 106.164 326.406 106.096 326.406 106.008V105.564L328.446 105.42L328.734 101.148C328.75 101.076 328.782 101.012 328.83 100.956C328.878 100.9 328.946 100.872 329.034 100.872H329.574V105.432H333.342V106.284H329.574V114.384C329.574 114.712 329.614 114.996 329.694 115.236C329.782 115.468 329.898 115.66 330.042 115.812C330.194 115.964 330.37 116.076 330.57 116.148C330.77 116.22 330.986 116.256 331.218 116.256C331.506 116.256 331.754 116.216 331.962 116.136C332.17 116.048 332.35 115.956 332.502 115.86C332.654 115.756 332.778 115.664 332.874 115.584C332.97 115.496 333.046 115.452 333.102 115.452C333.166 115.452 333.23 115.492 333.294 115.572L333.606 116.076C333.302 116.412 332.914 116.684 332.442 116.892C331.978 117.092 331.494 117.192 330.99 117.192ZM335.712 119.856C335.672 119.824 335.644 119.792 335.628 119.76C335.62 119.728 335.616 119.692 335.616 119.652C335.616 119.604 335.648 119.54 335.712 119.46C335.784 119.38 335.88 119.26 336 119.1C336.128 118.948 336.256 118.764 336.384 118.548C336.52 118.34 336.64 118.104 336.744 117.84C336.856 117.576 336.928 117.292 336.96 116.988C336.84 117.028 336.716 117.048 336.588 117.048C336.292 117.048 336.048 116.948 335.856 116.748C335.672 116.548 335.58 116.292 335.58 115.98C335.58 115.7 335.676 115.46 335.868 115.26C336.06 115.06 336.312 114.96 336.624 114.96C336.968 114.96 337.232 115.08 337.416 115.32C337.608 115.552 337.704 115.86 337.704 116.244C337.704 116.572 337.66 116.904 337.572 117.24C337.492 117.584 337.372 117.92 337.212 118.248C337.052 118.576 336.86 118.892 336.636 119.196C336.412 119.5 336.164 119.78 335.892 120.036L335.712 119.856ZM63.996 138.656C63.956 138.696 63.916 138.732 63.876 138.764C63.844 138.788 63.796 138.8 63.732 138.8C63.652 138.8 63.544 138.748 63.408 138.644C63.272 138.532 63.088 138.412 62.856 138.284C62.624 138.156 62.332 138.04 61.98 137.936C61.636 137.824 61.216 137.768 60.72 137.768C60.032 137.768 59.42 137.892 58.884 138.14C58.356 138.38 57.908 138.728 57.54 139.184C57.172 139.64 56.892 140.192 56.7 140.84C56.516 141.488 56.424 142.216 56.424 143.024C56.424 143.864 56.52 144.608 56.712 145.256C56.912 145.904 57.192 146.452 57.552 146.9C57.912 147.34 58.348 147.676 58.86 147.908C59.372 148.14 59.94 148.256 60.564 148.256C61.14 148.256 61.62 148.188 62.004 148.052C62.396 147.916 62.716 147.768 62.964 147.608C63.22 147.448 63.42 147.3 63.564 147.164C63.708 147.028 63.828 146.96 63.924 146.96C64.02 146.96 64.1 147 64.164 147.08L64.464 147.464C64.28 147.704 64.048 147.928 63.768 148.136C63.488 148.344 63.172 148.524 62.82 148.676C62.468 148.828 62.084 148.944 61.668 149.024C61.26 149.112 60.832 149.156 60.384 149.156C59.624 149.156 58.928 149.02 58.296 148.748C57.672 148.468 57.132 148.068 56.676 147.548C56.228 147.02 55.876 146.376 55.62 145.616C55.372 144.856 55.248 143.992 55.248 143.024C55.248 142.112 55.368 141.28 55.608 140.528C55.848 139.776 56.2 139.128 56.664 138.584C57.128 138.04 57.692 137.62 58.356 137.324C59.028 137.02 59.796 136.868 60.66 136.868C61.436 136.868 62.124 136.992 62.724 137.24C63.324 137.488 63.848 137.824 64.296 138.248L63.996 138.656ZM71.7819 136.868C72.6379 136.868 73.4019 137.016 74.0739 137.312C74.7539 137.6 75.3259 138.012 75.7899 138.548C76.2539 139.084 76.6059 139.732 76.8459 140.492C77.0939 141.244 77.2179 142.088 77.2179 143.024C77.2179 143.96 77.0939 144.804 76.8459 145.556C76.6059 146.308 76.2539 146.952 75.7899 147.488C75.3259 148.024 74.7539 148.436 74.0739 148.724C73.4019 149.012 72.6379 149.156 71.7819 149.156C70.9259 149.156 70.1579 149.012 69.4779 148.724C68.8059 148.436 68.2339 148.024 67.7619 147.488C67.2979 146.952 66.9419 146.308 66.6939 145.556C66.4539 144.804 66.3339 143.96 66.3339 143.024C66.3339 142.088 66.4539 141.244 66.6939 140.492C66.9419 139.732 67.2979 139.084 67.7619 138.548C68.2339 138.012 68.8059 137.6 69.4779 137.312C70.1579 137.016 70.9259 136.868 71.7819 136.868ZM71.7819 148.256C72.4939 148.256 73.1139 148.136 73.6419 147.896C74.1779 147.648 74.6219 147.296 74.9739 146.84C75.3339 146.384 75.6019 145.836 75.7779 145.196C75.9539 144.548 76.0419 143.824 76.0419 143.024C76.0419 142.232 75.9539 141.512 75.7779 140.864C75.6019 140.216 75.3339 139.664 74.9739 139.208C74.6219 138.744 74.1779 138.388 73.6419 138.14C73.1139 137.892 72.4939 137.768 71.7819 137.768C71.0699 137.768 70.4459 137.892 69.9099 138.14C69.3819 138.388 68.9379 138.744 68.5779 139.208C68.2259 139.664 67.9579 140.216 67.7739 140.864C67.5979 141.512 67.5099 142.232 67.5099 143.024C67.5099 143.824 67.5979 144.548 67.7739 145.196C67.9579 145.836 68.2259 146.384 68.5779 146.84C68.9379 147.296 69.3819 147.648 69.9099 147.896C70.4459 148.136 71.0699 148.256 71.7819 148.256ZM81.5288 139.148C82.0808 138.46 82.7168 137.908 83.4368 137.492C84.1648 137.076 84.9728 136.868 85.8608 136.868C86.5168 136.868 87.0928 136.972 87.5888 137.18C88.0928 137.388 88.5088 137.688 88.8368 138.08C89.1648 138.472 89.4128 138.944 89.5808 139.496C89.7488 140.048 89.8328 140.672 89.8328 141.368V149H88.6808V141.368C88.6808 140.248 88.4248 139.372 87.9128 138.74C87.4008 138.1 86.6208 137.78 85.5728 137.78C84.7968 137.78 84.0688 137.98 83.3888 138.38C82.7168 138.772 82.1168 139.32 81.5888 140.024V149H80.4368V137.06H81.0728C81.2728 137.06 81.3888 137.16 81.4208 137.36L81.5288 139.148ZM100.196 138.536C100.132 138.648 100.04 138.704 99.9201 138.704C99.8321 138.704 99.7201 138.656 99.5841 138.56C99.4481 138.456 99.2641 138.344 99.0321 138.224C98.8081 138.096 98.5281 137.984 98.1921 137.888C97.8561 137.784 97.4481 137.732 96.9681 137.732C96.5361 137.732 96.1401 137.796 95.7801 137.924C95.4281 138.044 95.1241 138.208 94.8681 138.416C94.6201 138.624 94.4281 138.868 94.2921 139.148C94.1561 139.42 94.0881 139.708 94.0881 140.012C94.0881 140.388 94.1841 140.7 94.3761 140.948C94.5681 141.196 94.8161 141.408 95.1201 141.584C95.4321 141.76 95.7881 141.912 96.1881 142.04C96.5881 142.168 96.9921 142.296 97.4001 142.424C97.8161 142.552 98.2241 142.696 98.6241 142.856C99.0241 143.008 99.3761 143.2 99.6801 143.432C99.9921 143.664 100.244 143.948 100.436 144.284C100.628 144.62 100.724 145.028 100.724 145.508C100.724 146.028 100.632 146.512 100.448 146.96C100.264 147.408 99.9921 147.796 99.6321 148.124C99.2801 148.452 98.8441 148.712 98.3241 148.904C97.8041 149.096 97.2081 149.192 96.5361 149.192C95.6961 149.192 94.9721 149.06 94.3641 148.796C93.7561 148.524 93.2121 148.172 92.7321 147.74L92.9961 147.332C93.0361 147.268 93.0801 147.22 93.1281 147.188C93.1841 147.156 93.2561 147.14 93.3441 147.14C93.4481 147.14 93.5721 147.204 93.7161 147.332C93.8681 147.46 94.0681 147.6 94.3161 147.752C94.5641 147.896 94.8681 148.032 95.2281 148.16C95.5961 148.288 96.0481 148.352 96.5841 148.352C97.0881 148.352 97.5321 148.284 97.9161 148.148C98.3001 148.004 98.6201 147.812 98.8761 147.572C99.1321 147.332 99.3241 147.052 99.4521 146.732C99.5881 146.404 99.6561 146.06 99.6561 145.7C99.6561 145.3 99.5601 144.968 99.3681 144.704C99.1761 144.44 98.9241 144.216 98.6121 144.032C98.3001 143.848 97.9441 143.692 97.5441 143.564C97.1521 143.436 96.7481 143.308 96.3321 143.18C95.9161 143.052 95.5081 142.912 95.1081 142.76C94.7161 142.608 94.3641 142.416 94.0521 142.184C93.7401 141.952 93.4881 141.672 93.2961 141.344C93.1041 141.008 93.0081 140.592 93.0081 140.096C93.0081 139.672 93.1001 139.264 93.2841 138.872C93.4681 138.48 93.7281 138.136 94.0641 137.84C94.4081 137.544 94.8241 137.308 95.3121 137.132C95.8001 136.956 96.3481 136.868 96.9561 136.868C97.6841 136.868 98.3281 136.972 98.8881 137.18C99.4561 137.388 99.9721 137.708 100.436 138.14L100.196 138.536ZM112.203 141.824C112.203 141.184 112.111 140.612 111.927 140.108C111.751 139.596 111.499 139.164 111.171 138.812C110.843 138.46 110.451 138.192 109.995 138.008C109.547 137.816 109.051 137.72 108.507 137.72C107.891 137.72 107.339 137.816 106.851 138.008C106.363 138.2 105.939 138.476 105.579 138.836C105.227 139.196 104.943 139.628 104.727 140.132C104.511 140.636 104.367 141.2 104.295 141.824H112.203ZM104.235 142.556V142.784C104.235 143.68 104.339 144.468 104.547 145.148C104.755 145.828 105.051 146.4 105.435 146.864C105.819 147.32 106.283 147.664 106.827 147.896C107.371 148.128 107.979 148.244 108.651 148.244C109.251 148.244 109.771 148.18 110.211 148.052C110.651 147.916 111.019 147.768 111.315 147.608C111.619 147.44 111.859 147.292 112.035 147.164C112.211 147.028 112.339 146.96 112.419 146.96C112.523 146.96 112.603 147 112.659 147.08L112.971 147.464C112.779 147.704 112.523 147.928 112.203 148.136C111.891 148.344 111.539 148.524 111.147 148.676C110.763 148.82 110.347 148.936 109.899 149.024C109.459 149.112 109.015 149.156 108.567 149.156C107.751 149.156 107.007 149.016 106.335 148.736C105.663 148.448 105.087 148.032 104.607 147.488C104.127 146.944 103.755 146.28 103.491 145.496C103.235 144.704 103.107 143.8 103.107 142.784C103.107 141.928 103.227 141.14 103.467 140.42C103.715 139.692 104.067 139.068 104.523 138.548C104.987 138.02 105.551 137.608 106.215 137.312C106.887 137.016 107.647 136.868 108.495 136.868C109.167 136.868 109.791 136.984 110.367 137.216C110.943 137.448 111.443 137.788 111.867 138.236C112.291 138.676 112.623 139.22 112.863 139.868C113.111 140.516 113.235 141.26 113.235 142.1C113.235 142.276 113.211 142.396 113.163 142.46C113.115 142.524 113.035 142.556 112.923 142.556H104.235ZM124.371 138.656C124.331 138.696 124.291 138.732 124.251 138.764C124.219 138.788 124.171 138.8 124.107 138.8C124.027 138.8 123.919 138.748 123.783 138.644C123.647 138.532 123.463 138.412 123.231 138.284C122.999 138.156 122.707 138.04 122.355 137.936C122.011 137.824 121.591 137.768 121.095 137.768C120.407 137.768 119.795 137.892 119.259 138.14C118.731 138.38 118.283 138.728 117.915 139.184C117.547 139.64 117.267 140.192 117.075 140.84C116.891 141.488 116.799 142.216 116.799 143.024C116.799 143.864 116.895 144.608 117.087 145.256C117.287 145.904 117.567 146.452 117.927 146.9C118.287 147.34 118.723 147.676 119.235 147.908C119.747 148.14 120.315 148.256 120.939 148.256C121.515 148.256 121.995 148.188 122.379 148.052C122.771 147.916 123.091 147.768 123.339 147.608C123.595 147.448 123.795 147.3 123.939 147.164C124.083 147.028 124.203 146.96 124.299 146.96C124.395 146.96 124.475 147 124.539 147.08L124.839 147.464C124.655 147.704 124.423 147.928 124.143 148.136C123.863 148.344 123.547 148.524 123.195 148.676C122.843 148.828 122.459 148.944 122.043 149.024C121.635 149.112 121.207 149.156 120.759 149.156C119.999 149.156 119.303 149.02 118.671 148.748C118.047 148.468 117.507 148.068 117.051 147.548C116.603 147.02 116.251 146.376 115.995 145.616C115.747 144.856 115.623 143.992 115.623 143.024C115.623 142.112 115.743 141.28 115.983 140.528C116.223 139.776 116.575 139.128 117.039 138.584C117.503 138.04 118.067 137.62 118.731 137.324C119.403 137.02 120.171 136.868 121.035 136.868C121.811 136.868 122.499 136.992 123.099 137.24C123.699 137.488 124.223 137.824 124.671 138.248L124.371 138.656ZM130.927 149.192C130.119 149.192 129.487 148.968 129.031 148.52C128.583 148.072 128.359 147.38 128.359 146.444V138.284H126.643C126.555 138.284 126.483 138.26 126.427 138.212C126.371 138.164 126.343 138.096 126.343 138.008V137.564L128.383 137.42L128.671 133.148C128.687 133.076 128.719 133.012 128.767 132.956C128.815 132.9 128.883 132.872 128.971 132.872H129.511V137.432H133.279V138.284H129.511V146.384C129.511 146.712 129.551 146.996 129.631 147.236C129.719 147.468 129.835 147.66 129.979 147.812C130.131 147.964 130.307 148.076 130.507 148.148C130.707 148.22 130.923 148.256 131.155 148.256C131.443 148.256 131.691 148.216 131.899 148.136C132.107 148.048 132.287 147.956 132.439 147.86C132.591 147.756 132.715 147.664 132.811 147.584C132.907 147.496 132.983 147.452 133.039 147.452C133.103 147.452 133.167 147.492 133.231 147.572L133.543 148.076C133.239 148.412 132.851 148.684 132.379 148.892C131.915 149.092 131.431 149.192 130.927 149.192ZM144.219 141.824C144.219 141.184 144.127 140.612 143.943 140.108C143.767 139.596 143.515 139.164 143.187 138.812C142.859 138.46 142.467 138.192 142.011 138.008C141.563 137.816 141.067 137.72 140.523 137.72C139.907 137.72 139.355 137.816 138.867 138.008C138.379 138.2 137.955 138.476 137.595 138.836C137.243 139.196 136.959 139.628 136.743 140.132C136.527 140.636 136.383 141.2 136.311 141.824H144.219ZM136.251 142.556V142.784C136.251 143.68 136.355 144.468 136.563 145.148C136.771 145.828 137.067 146.4 137.451 146.864C137.835 147.32 138.299 147.664 138.843 147.896C139.387 148.128 139.995 148.244 140.667 148.244C141.267 148.244 141.787 148.18 142.227 148.052C142.667 147.916 143.035 147.768 143.331 147.608C143.635 147.44 143.875 147.292 144.051 147.164C144.227 147.028 144.355 146.96 144.435 146.96C144.539 146.96 144.619 147 144.675 147.08L144.987 147.464C144.795 147.704 144.539 147.928 144.219 148.136C143.907 148.344 143.555 148.524 143.163 148.676C142.779 148.82 142.363 148.936 141.915 149.024C141.475 149.112 141.031 149.156 140.583 149.156C139.767 149.156 139.023 149.016 138.351 148.736C137.679 148.448 137.103 148.032 136.623 147.488C136.143 146.944 135.771 146.28 135.507 145.496C135.251 144.704 135.123 143.8 135.123 142.784C135.123 141.928 135.243 141.14 135.483 140.42C135.731 139.692 136.083 139.068 136.539 138.548C137.003 138.02 137.567 137.608 138.231 137.312C138.903 137.016 139.663 136.868 140.511 136.868C141.183 136.868 141.807 136.984 142.383 137.216C142.959 137.448 143.459 137.788 143.883 138.236C144.307 138.676 144.639 139.22 144.879 139.868C145.127 140.516 145.251 141.26 145.251 142.1C145.251 142.276 145.227 142.396 145.179 142.46C145.131 142.524 145.051 142.556 144.939 142.556H136.251ZM151.576 149.192C150.768 149.192 150.136 148.968 149.68 148.52C149.232 148.072 149.008 147.38 149.008 146.444V138.284H147.292C147.204 138.284 147.132 138.26 147.076 138.212C147.02 138.164 146.992 138.096 146.992 138.008V137.564L149.032 137.42L149.32 133.148C149.336 133.076 149.368 133.012 149.416 132.956C149.464 132.9 149.532 132.872 149.62 132.872H150.16V137.432H153.928V138.284H150.16V146.384C150.16 146.712 150.2 146.996 150.28 147.236C150.368 147.468 150.484 147.66 150.628 147.812C150.78 147.964 150.956 148.076 151.156 148.148C151.356 148.22 151.572 148.256 151.804 148.256C152.092 148.256 152.34 148.216 152.548 148.136C152.756 148.048 152.936 147.956 153.088 147.86C153.24 147.756 153.364 147.664 153.46 147.584C153.556 147.496 153.632 147.452 153.688 147.452C153.752 147.452 153.816 147.492 153.88 147.572L154.192 148.076C153.888 148.412 153.5 148.684 153.028 148.892C152.564 149.092 152.08 149.192 151.576 149.192ZM165.802 137.06V149H165.166C164.966 149 164.85 148.896 164.818 148.688L164.71 146.912C164.158 147.6 163.518 148.152 162.79 148.568C162.07 148.984 161.266 149.192 160.378 149.192C159.714 149.192 159.134 149.088 158.638 148.88C158.142 148.672 157.73 148.372 157.402 147.98C157.074 147.588 156.826 147.116 156.658 146.564C156.49 146.012 156.406 145.388 156.406 144.692V137.06H157.558V144.692C157.558 145.812 157.814 146.692 158.326 147.332C158.838 147.964 159.618 148.28 160.666 148.28C161.442 148.28 162.166 148.084 162.838 147.692C163.518 147.292 164.122 146.74 164.65 146.036V137.06H165.802ZM170.826 139.94C171.01 139.452 171.218 139.02 171.45 138.644C171.69 138.26 171.962 137.936 172.266 137.672C172.578 137.408 172.922 137.208 173.298 137.072C173.682 136.928 174.106 136.856 174.57 136.856C174.818 136.856 175.062 136.88 175.302 136.928C175.542 136.968 175.754 137.044 175.938 137.156L175.842 137.948C175.802 138.076 175.726 138.14 175.614 138.14C175.518 138.14 175.37 138.112 175.17 138.056C174.978 138 174.722 137.972 174.402 137.972C173.938 137.972 173.526 138.044 173.166 138.188C172.814 138.324 172.494 138.532 172.206 138.812C171.926 139.092 171.678 139.44 171.462 139.856C171.254 140.264 171.062 140.736 170.886 141.272V149H169.734V137.06H170.346C170.482 137.06 170.578 137.088 170.634 137.144C170.69 137.2 170.726 137.296 170.742 137.432L170.826 139.94ZM190.902 143.228C189.766 143.268 188.786 143.36 187.962 143.504C187.146 143.64 186.47 143.828 185.934 144.068C185.406 144.308 185.014 144.596 184.758 144.932C184.502 145.26 184.374 145.636 184.374 146.06C184.374 146.46 184.438 146.808 184.566 147.104C184.702 147.392 184.878 147.632 185.094 147.824C185.318 148.008 185.574 148.144 185.862 148.232C186.15 148.32 186.45 148.364 186.762 148.364C187.226 148.364 187.65 148.316 188.034 148.22C188.426 148.116 188.786 147.976 189.114 147.8C189.45 147.616 189.762 147.4 190.05 147.152C190.338 146.904 190.622 146.636 190.902 146.348V143.228ZM183.882 138.752C184.506 138.128 185.162 137.656 185.85 137.336C186.538 137.016 187.318 136.856 188.19 136.856C188.83 136.856 189.39 136.96 189.87 137.168C190.35 137.368 190.746 137.66 191.058 138.044C191.378 138.42 191.618 138.88 191.778 139.424C191.938 139.96 192.018 140.56 192.018 141.224V149H191.562C191.322 149 191.174 148.888 191.118 148.664L190.95 147.128C190.622 147.448 190.294 147.736 189.966 147.992C189.646 148.248 189.31 148.464 188.958 148.64C188.606 148.816 188.226 148.952 187.818 149.048C187.41 149.144 186.962 149.192 186.474 149.192C186.066 149.192 185.67 149.132 185.286 149.012C184.902 148.892 184.558 148.708 184.254 148.46C183.958 148.212 183.718 147.896 183.534 147.512C183.358 147.12 183.27 146.652 183.27 146.108C183.27 145.604 183.414 145.136 183.702 144.704C183.99 144.272 184.442 143.896 185.058 143.576C185.674 143.256 186.462 143 187.422 142.808C188.39 142.616 189.55 142.504 190.902 142.472V141.224C190.902 140.12 190.662 139.272 190.182 138.68C189.71 138.08 189.006 137.78 188.07 137.78C187.494 137.78 187.002 137.86 186.594 138.02C186.194 138.18 185.854 138.356 185.574 138.548C185.294 138.74 185.066 138.916 184.89 139.076C184.714 139.236 184.566 139.316 184.446 139.316C184.358 139.316 184.286 139.296 184.23 139.256C184.174 139.216 184.126 139.164 184.086 139.1L183.882 138.752ZM203.991 139.628C203.535 138.94 203.027 138.456 202.467 138.176C201.915 137.896 201.283 137.756 200.571 137.756C199.867 137.756 199.251 137.884 198.723 138.14C198.195 138.396 197.751 138.76 197.391 139.232C197.039 139.696 196.771 140.256 196.587 140.912C196.411 141.56 196.323 142.276 196.323 143.06C196.323 144.836 196.647 146.144 197.295 146.984C197.951 147.816 198.895 148.232 200.127 148.232C200.911 148.232 201.627 148.028 202.275 147.62C202.923 147.212 203.495 146.64 203.991 145.904V139.628ZM205.131 131.54V149H204.507C204.299 149 204.179 148.896 204.147 148.688L204.027 146.804C203.499 147.524 202.883 148.096 202.179 148.52C201.475 148.944 200.683 149.156 199.803 149.156C198.331 149.156 197.187 148.648 196.371 147.632C195.555 146.616 195.147 145.092 195.147 143.06C195.147 142.188 195.259 141.376 195.483 140.624C195.715 139.864 196.051 139.208 196.491 138.656C196.931 138.096 197.471 137.656 198.111 137.336C198.759 137.016 199.503 136.856 200.343 136.856C201.151 136.856 201.851 137.004 202.443 137.3C203.035 137.596 203.551 138.036 203.991 138.62V131.54H205.131ZM210.334 137.06V149H209.194V137.06H210.334ZM210.826 132.944C210.826 133.088 210.794 133.224 210.73 133.352C210.674 133.472 210.598 133.58 210.502 133.676C210.406 133.772 210.294 133.848 210.166 133.904C210.038 133.96 209.902 133.988 209.758 133.988C209.614 133.988 209.478 133.96 209.35 133.904C209.222 133.848 209.11 133.772 209.014 133.676C208.918 133.58 208.842 133.472 208.786 133.352C208.73 133.224 208.702 133.088 208.702 132.944C208.702 132.8 208.73 132.664 208.786 132.536C208.842 132.4 208.918 132.284 209.014 132.188C209.11 132.092 209.222 132.016 209.35 131.96C209.478 131.904 209.614 131.876 209.758 131.876C209.902 131.876 210.038 131.904 210.166 131.96C210.294 132.016 210.406 132.092 210.502 132.188C210.598 132.284 210.674 132.4 210.73 132.536C210.794 132.664 210.826 132.8 210.826 132.944ZM215.558 146.396C215.79 146.74 216.03 147.032 216.278 147.272C216.534 147.504 216.802 147.696 217.082 147.848C217.362 147.992 217.658 148.096 217.97 148.16C218.29 148.224 218.626 148.256 218.978 148.256C219.682 148.256 220.298 148.128 220.826 147.872C221.354 147.616 221.794 147.256 222.146 146.792C222.506 146.32 222.774 145.76 222.95 145.112C223.134 144.456 223.226 143.736 223.226 142.952C223.226 141.176 222.898 139.872 222.242 139.04C221.586 138.2 220.646 137.78 219.422 137.78C218.63 137.78 217.914 137.984 217.274 138.392C216.634 138.8 216.062 139.368 215.558 140.096V146.396ZM215.51 139.208C216.038 138.488 216.654 137.916 217.358 137.492C218.07 137.068 218.866 136.856 219.746 136.856C221.21 136.856 222.35 137.364 223.166 138.38C223.99 139.396 224.402 140.92 224.402 142.952C224.402 143.824 224.286 144.64 224.054 145.4C223.83 146.152 223.494 146.808 223.046 147.368C222.606 147.92 222.062 148.356 221.414 148.676C220.774 148.996 220.034 149.156 219.194 149.156C218.386 149.156 217.686 149.008 217.094 148.712C216.502 148.416 215.99 147.98 215.558 147.404V153.224H214.406V137.06H215.042C215.242 137.06 215.358 137.16 215.39 137.36L215.51 139.208ZM228.92 137.06V149H227.78V137.06H228.92ZM229.412 132.944C229.412 133.088 229.38 133.224 229.316 133.352C229.26 133.472 229.184 133.58 229.088 133.676C228.992 133.772 228.88 133.848 228.752 133.904C228.624 133.96 228.488 133.988 228.344 133.988C228.2 133.988 228.064 133.96 227.936 133.904C227.808 133.848 227.696 133.772 227.6 133.676C227.504 133.58 227.428 133.472 227.372 133.352C227.316 133.224 227.288 133.088 227.288 132.944C227.288 132.8 227.316 132.664 227.372 132.536C227.428 132.4 227.504 132.284 227.6 132.188C227.696 132.092 227.808 132.016 227.936 131.96C228.064 131.904 228.2 131.876 228.344 131.876C228.488 131.876 228.624 131.904 228.752 131.96C228.88 132.016 228.992 132.092 229.088 132.188C229.184 132.284 229.26 132.4 229.316 132.536C229.38 132.664 229.412 132.8 229.412 132.944ZM239.555 138.536C239.491 138.648 239.399 138.704 239.279 138.704C239.191 138.704 239.079 138.656 238.943 138.56C238.807 138.456 238.623 138.344 238.391 138.224C238.167 138.096 237.887 137.984 237.551 137.888C237.215 137.784 236.807 137.732 236.327 137.732C235.895 137.732 235.499 137.796 235.139 137.924C234.787 138.044 234.483 138.208 234.227 138.416C233.979 138.624 233.787 138.868 233.651 139.148C233.515 139.42 233.447 139.708 233.447 140.012C233.447 140.388 233.543 140.7 233.735 140.948C233.927 141.196 234.175 141.408 234.479 141.584C234.791 141.76 235.147 141.912 235.547 142.04C235.947 142.168 236.351 142.296 236.759 142.424C237.175 142.552 237.583 142.696 237.983 142.856C238.383 143.008 238.735 143.2 239.039 143.432C239.351 143.664 239.603 143.948 239.795 144.284C239.987 144.62 240.083 145.028 240.083 145.508C240.083 146.028 239.991 146.512 239.807 146.96C239.623 147.408 239.351 147.796 238.991 148.124C238.639 148.452 238.203 148.712 237.683 148.904C237.163 149.096 236.567 149.192 235.895 149.192C235.055 149.192 234.331 149.06 233.723 148.796C233.115 148.524 232.571 148.172 232.091 147.74L232.355 147.332C232.395 147.268 232.439 147.22 232.487 147.188C232.543 147.156 232.615 147.14 232.703 147.14C232.807 147.14 232.931 147.204 233.075 147.332C233.227 147.46 233.427 147.6 233.675 147.752C233.923 147.896 234.227 148.032 234.587 148.16C234.955 148.288 235.407 148.352 235.943 148.352C236.447 148.352 236.891 148.284 237.275 148.148C237.659 148.004 237.979 147.812 238.235 147.572C238.491 147.332 238.683 147.052 238.811 146.732C238.947 146.404 239.015 146.06 239.015 145.7C239.015 145.3 238.919 144.968 238.727 144.704C238.535 144.44 238.283 144.216 237.971 144.032C237.659 143.848 237.303 143.692 236.903 143.564C236.511 143.436 236.107 143.308 235.691 143.18C235.275 143.052 234.867 142.912 234.467 142.76C234.075 142.608 233.723 142.416 233.411 142.184C233.099 141.952 232.847 141.672 232.655 141.344C232.463 141.008 232.367 140.592 232.367 140.096C232.367 139.672 232.459 139.264 232.643 138.872C232.827 138.48 233.087 138.136 233.423 137.84C233.767 137.544 234.183 137.308 234.671 137.132C235.159 136.956 235.707 136.868 236.315 136.868C237.043 136.868 237.687 136.972 238.247 137.18C238.815 137.388 239.331 137.708 239.795 138.14L239.555 138.536ZM251.215 138.656C251.175 138.696 251.135 138.732 251.095 138.764C251.063 138.788 251.015 138.8 250.951 138.8C250.871 138.8 250.763 138.748 250.627 138.644C250.491 138.532 250.307 138.412 250.075 138.284C249.843 138.156 249.551 138.04 249.199 137.936C248.855 137.824 248.435 137.768 247.939 137.768C247.251 137.768 246.639 137.892 246.103 138.14C245.575 138.38 245.127 138.728 244.759 139.184C244.391 139.64 244.111 140.192 243.919 140.84C243.735 141.488 243.643 142.216 243.643 143.024C243.643 143.864 243.739 144.608 243.931 145.256C244.131 145.904 244.411 146.452 244.771 146.9C245.131 147.34 245.567 147.676 246.079 147.908C246.591 148.14 247.159 148.256 247.783 148.256C248.359 148.256 248.839 148.188 249.223 148.052C249.615 147.916 249.935 147.768 250.183 147.608C250.439 147.448 250.639 147.3 250.783 147.164C250.927 147.028 251.047 146.96 251.143 146.96C251.239 146.96 251.319 147 251.383 147.08L251.683 147.464C251.499 147.704 251.267 147.928 250.987 148.136C250.707 148.344 250.391 148.524 250.039 148.676C249.687 148.828 249.303 148.944 248.887 149.024C248.479 149.112 248.051 149.156 247.603 149.156C246.843 149.156 246.147 149.02 245.515 148.748C244.891 148.468 244.351 148.068 243.895 147.548C243.447 147.02 243.095 146.376 242.839 145.616C242.591 144.856 242.467 143.992 242.467 143.024C242.467 142.112 242.587 141.28 242.827 140.528C243.067 139.776 243.419 139.128 243.883 138.584C244.347 138.04 244.911 137.62 245.575 137.324C246.247 137.02 247.015 136.868 247.879 136.868C248.655 136.868 249.343 136.992 249.943 137.24C250.543 137.488 251.067 137.824 251.515 138.248L251.215 138.656ZM255.779 137.06V149H254.639V137.06H255.779ZM256.271 132.944C256.271 133.088 256.239 133.224 256.175 133.352C256.119 133.472 256.043 133.58 255.947 133.676C255.851 133.772 255.739 133.848 255.611 133.904C255.483 133.96 255.347 133.988 255.203 133.988C255.059 133.988 254.923 133.96 254.795 133.904C254.667 133.848 254.555 133.772 254.459 133.676C254.363 133.58 254.287 133.472 254.231 133.352C254.175 133.224 254.147 133.088 254.147 132.944C254.147 132.8 254.175 132.664 254.231 132.536C254.287 132.4 254.363 132.284 254.459 132.188C254.555 132.092 254.667 132.016 254.795 131.96C254.923 131.904 255.059 131.876 255.203 131.876C255.347 131.876 255.483 131.904 255.611 131.96C255.739 132.016 255.851 132.092 255.947 132.188C256.043 132.284 256.119 132.4 256.175 132.536C256.239 132.664 256.271 132.8 256.271 132.944ZM260.943 139.148C261.495 138.46 262.131 137.908 262.851 137.492C263.579 137.076 264.387 136.868 265.275 136.868C265.931 136.868 266.507 136.972 267.003 137.18C267.507 137.388 267.923 137.688 268.251 138.08C268.579 138.472 268.827 138.944 268.995 139.496C269.163 140.048 269.247 140.672 269.247 141.368V149H268.095V141.368C268.095 140.248 267.839 139.372 267.327 138.74C266.815 138.1 266.035 137.78 264.987 137.78C264.211 137.78 263.483 137.98 262.803 138.38C262.131 138.772 261.531 139.32 261.003 140.024V149H259.851V137.06H260.487C260.687 137.06 260.803 137.16 260.835 137.36L260.943 139.148ZM276.946 143.72C277.458 143.72 277.914 143.648 278.314 143.504C278.714 143.352 279.05 143.144 279.322 142.88C279.594 142.616 279.802 142.3 279.946 141.932C280.09 141.564 280.162 141.156 280.162 140.708C280.162 140.26 280.086 139.852 279.934 139.484C279.79 139.108 279.578 138.788 279.298 138.524C279.026 138.26 278.69 138.056 278.29 137.912C277.898 137.768 277.45 137.696 276.946 137.696C276.442 137.696 275.99 137.768 275.59 137.912C275.198 138.056 274.862 138.26 274.582 138.524C274.31 138.788 274.102 139.108 273.958 139.484C273.814 139.852 273.742 140.26 273.742 140.708C273.742 141.156 273.814 141.564 273.958 141.932C274.102 142.3 274.31 142.616 274.582 142.88C274.862 143.144 275.198 143.352 275.59 143.504C275.99 143.648 276.442 143.72 276.946 143.72ZM281.41 149.804C281.41 149.428 281.31 149.128 281.11 148.904C280.918 148.672 280.658 148.492 280.33 148.364C280.002 148.236 279.622 148.148 279.19 148.1C278.766 148.044 278.318 148.004 277.846 147.98C277.382 147.956 276.914 147.932 276.442 147.908C275.97 147.884 275.526 147.836 275.11 147.764C274.806 147.884 274.526 148.024 274.27 148.184C274.014 148.336 273.794 148.512 273.61 148.712C273.426 148.912 273.282 149.128 273.178 149.36C273.074 149.6 273.022 149.856 273.022 150.128C273.022 150.48 273.11 150.804 273.286 151.1C273.47 151.404 273.734 151.664 274.078 151.88C274.43 152.104 274.858 152.28 275.362 152.408C275.866 152.536 276.446 152.6 277.102 152.6C277.71 152.6 278.274 152.532 278.794 152.396C279.322 152.26 279.778 152.068 280.162 151.82C280.554 151.572 280.858 151.276 281.074 150.932C281.298 150.588 281.41 150.212 281.41 149.804ZM282.658 137.588V137.984C282.658 138.16 282.546 138.268 282.322 138.308L280.498 138.44C280.722 138.744 280.894 139.084 281.014 139.46C281.134 139.836 281.194 140.244 281.194 140.684C281.194 141.26 281.09 141.784 280.882 142.256C280.682 142.72 280.394 143.12 280.018 143.456C279.65 143.784 279.202 144.04 278.674 144.224C278.154 144.408 277.578 144.5 276.946 144.5C276.266 144.5 275.646 144.396 275.086 144.188C274.75 144.38 274.482 144.608 274.282 144.872C274.09 145.128 273.994 145.384 273.994 145.64C273.994 145.984 274.114 146.248 274.354 146.432C274.602 146.616 274.922 146.752 275.314 146.84C275.714 146.92 276.166 146.972 276.67 146.996C277.182 147.02 277.702 147.048 278.23 147.08C278.758 147.104 279.274 147.152 279.778 147.224C280.29 147.296 280.742 147.424 281.134 147.608C281.534 147.784 281.854 148.036 282.094 148.364C282.342 148.684 282.466 149.112 282.466 149.648C282.466 150.144 282.342 150.62 282.094 151.076C281.846 151.532 281.486 151.936 281.014 152.288C280.55 152.64 279.986 152.92 279.322 153.128C278.658 153.344 277.914 153.452 277.09 153.452C276.25 153.452 275.514 153.364 274.882 153.188C274.25 153.02 273.718 152.788 273.286 152.492C272.862 152.204 272.542 151.868 272.326 151.484C272.11 151.1 272.002 150.692 272.002 150.26C272.002 149.628 272.21 149.088 272.626 148.64C273.042 148.184 273.61 147.828 274.33 147.572C273.93 147.436 273.606 147.24 273.358 146.984C273.118 146.72 272.998 146.364 272.998 145.916C272.998 145.748 273.03 145.572 273.094 145.388C273.158 145.204 273.254 145.024 273.382 144.848C273.51 144.664 273.666 144.492 273.85 144.332C274.034 144.172 274.242 144.028 274.474 143.9C273.906 143.572 273.462 143.136 273.142 142.592C272.83 142.048 272.674 141.412 272.674 140.684C272.674 140.108 272.774 139.588 272.974 139.124C273.182 138.652 273.474 138.248 273.85 137.912C274.226 137.576 274.674 137.316 275.194 137.132C275.722 136.948 276.306 136.856 276.946 136.856C277.474 136.856 277.958 136.92 278.398 137.048C278.846 137.176 279.246 137.356 279.598 137.588H282.658ZM300.196 141.824C300.196 141.184 300.104 140.612 299.92 140.108C299.744 139.596 299.492 139.164 299.164 138.812C298.836 138.46 298.444 138.192 297.988 138.008C297.54 137.816 297.044 137.72 296.5 137.72C295.884 137.72 295.332 137.816 294.844 138.008C294.356 138.2 293.932 138.476 293.572 138.836C293.22 139.196 292.936 139.628 292.72 140.132C292.504 140.636 292.36 141.2 292.288 141.824H300.196ZM292.228 142.556V142.784C292.228 143.68 292.332 144.468 292.54 145.148C292.748 145.828 293.044 146.4 293.428 146.864C293.812 147.32 294.276 147.664 294.82 147.896C295.364 148.128 295.972 148.244 296.644 148.244C297.244 148.244 297.764 148.18 298.204 148.052C298.644 147.916 299.012 147.768 299.308 147.608C299.612 147.44 299.852 147.292 300.028 147.164C300.204 147.028 300.332 146.96 300.412 146.96C300.516 146.96 300.596 147 300.652 147.08L300.964 147.464C300.772 147.704 300.516 147.928 300.196 148.136C299.884 148.344 299.532 148.524 299.14 148.676C298.756 148.82 298.34 148.936 297.892 149.024C297.452 149.112 297.008 149.156 296.56 149.156C295.744 149.156 295 149.016 294.328 148.736C293.656 148.448 293.08 148.032 292.6 147.488C292.12 146.944 291.748 146.28 291.484 145.496C291.228 144.704 291.1 143.8 291.1 142.784C291.1 141.928 291.22 141.14 291.46 140.42C291.708 139.692 292.06 139.068 292.516 138.548C292.98 138.02 293.544 137.608 294.208 137.312C294.88 137.016 295.64 136.868 296.488 136.868C297.16 136.868 297.784 136.984 298.36 137.216C298.936 137.448 299.436 137.788 299.86 138.236C300.284 138.676 300.616 139.22 300.856 139.868C301.104 140.516 301.228 141.26 301.228 142.1C301.228 142.276 301.204 142.396 301.156 142.46C301.108 142.524 301.028 142.556 300.916 142.556H292.228ZM305.595 131.54V149H304.443V131.54H305.595ZM310.904 137.06V149H309.764V137.06H310.904ZM311.396 132.944C311.396 133.088 311.364 133.224 311.3 133.352C311.244 133.472 311.168 133.58 311.072 133.676C310.976 133.772 310.864 133.848 310.736 133.904C310.608 133.96 310.472 133.988 310.328 133.988C310.184 133.988 310.048 133.96 309.92 133.904C309.792 133.848 309.68 133.772 309.584 133.676C309.488 133.58 309.412 133.472 309.356 133.352C309.3 133.224 309.272 133.088 309.272 132.944C309.272 132.8 309.3 132.664 309.356 132.536C309.412 132.4 309.488 132.284 309.584 132.188C309.68 132.092 309.792 132.016 309.92 131.96C310.048 131.904 310.184 131.876 310.328 131.876C310.472 131.876 310.608 131.904 310.736 131.96C310.864 132.016 310.976 132.092 311.072 132.188C311.168 132.284 311.244 132.4 311.3 132.536C311.364 132.664 311.396 132.8 311.396 132.944ZM318.24 149.192C317.432 149.192 316.8 148.968 316.344 148.52C315.896 148.072 315.672 147.38 315.672 146.444V138.284H313.956C313.868 138.284 313.796 138.26 313.74 138.212C313.684 138.164 313.656 138.096 313.656 138.008V137.564L315.696 137.42L315.984 133.148C316 133.076 316.032 133.012 316.08 132.956C316.128 132.9 316.196 132.872 316.284 132.872H316.824V137.432H320.592V138.284H316.824V146.384C316.824 146.712 316.864 146.996 316.944 147.236C317.032 147.468 317.148 147.66 317.292 147.812C317.444 147.964 317.62 148.076 317.82 148.148C318.02 148.22 318.236 148.256 318.468 148.256C318.756 148.256 319.004 148.216 319.212 148.136C319.42 148.048 319.6 147.956 319.752 147.86C319.904 147.756 320.028 147.664 320.124 147.584C320.22 147.496 320.296 147.452 320.352 147.452C320.416 147.452 320.48 147.492 320.544 147.572L320.856 148.076C320.552 148.412 320.164 148.684 319.692 148.892C319.228 149.092 318.744 149.192 318.24 149.192ZM322.926 148.076C322.926 147.924 322.954 147.78 323.01 147.644C323.066 147.508 323.142 147.392 323.238 147.296C323.342 147.192 323.458 147.112 323.586 147.056C323.722 146.992 323.87 146.96 324.03 146.96C324.182 146.96 324.326 146.992 324.462 147.056C324.598 147.112 324.714 147.192 324.81 147.296C324.914 147.392 324.994 147.508 325.05 147.644C325.114 147.78 325.146 147.924 325.146 148.076C325.146 148.236 325.114 148.384 325.05 148.52C324.994 148.648 324.914 148.764 324.81 148.868C324.714 148.964 324.598 149.04 324.462 149.096C324.326 149.152 324.182 149.18 324.03 149.18C323.718 149.18 323.454 149.076 323.238 148.868C323.03 148.652 322.926 148.388 322.926 148.076ZM57.744 165.04V172.18H65.484V173.2H57.744V181H56.508V164.02H66.684V165.04H57.744ZM74.3942 175.228C73.2582 175.268 72.2782 175.36 71.4542 175.504C70.6382 175.64 69.9622 175.828 69.4262 176.068C68.8982 176.308 68.5062 176.596 68.2502 176.932C67.9942 177.26 67.8662 177.636 67.8662 178.06C67.8662 178.46 67.9302 178.808 68.0582 179.104C68.1942 179.392 68.3702 179.632 68.5862 179.824C68.8102 180.008 69.0662 180.144 69.3542 180.232C69.6422 180.32 69.9422 180.364 70.2542 180.364C70.7182 180.364 71.1422 180.316 71.5262 180.22C71.9182 180.116 72.2782 179.976 72.6062 179.8C72.9422 179.616 73.2542 179.4 73.5422 179.152C73.8302 178.904 74.1142 178.636 74.3942 178.348V175.228ZM67.3742 170.752C67.9982 170.128 68.6542 169.656 69.3422 169.336C70.0302 169.016 70.8102 168.856 71.6822 168.856C72.3222 168.856 72.8822 168.96 73.3622 169.168C73.8422 169.368 74.2382 169.66 74.5502 170.044C74.8702 170.42 75.1102 170.88 75.2702 171.424C75.4302 171.96 75.5102 172.56 75.5102 173.224V181H75.0542C74.8142 181 74.6662 180.888 74.6102 180.664L74.4422 179.128C74.1142 179.448 73.7862 179.736 73.4582 179.992C73.1382 180.248 72.8022 180.464 72.4502 180.64C72.0982 180.816 71.7182 180.952 71.3102 181.048C70.9022 181.144 70.4542 181.192 69.9662 181.192C69.5582 181.192 69.1622 181.132 68.7782 181.012C68.3942 180.892 68.0502 180.708 67.7462 180.46C67.4502 180.212 67.2102 179.896 67.0262 179.512C66.8502 179.12 66.7622 178.652 66.7622 178.108C66.7622 177.604 66.9062 177.136 67.1942 176.704C67.4822 176.272 67.9342 175.896 68.5502 175.576C69.1662 175.256 69.9542 175 70.9142 174.808C71.8822 174.616 73.0422 174.504 74.3942 174.472V173.224C74.3942 172.12 74.1542 171.272 73.6742 170.68C73.2022 170.08 72.4982 169.78 71.5622 169.78C70.9862 169.78 70.4942 169.86 70.0862 170.02C69.6862 170.18 69.3462 170.356 69.0662 170.548C68.7862 170.74 68.5582 170.916 68.3822 171.076C68.2062 171.236 68.0582 171.316 67.9382 171.316C67.8502 171.316 67.7782 171.296 67.7222 171.256C67.6662 171.216 67.6182 171.164 67.5782 171.1L67.3742 170.752ZM88.5992 169.06V181H87.9632C87.7632 181 87.6472 180.896 87.6152 180.688L87.5072 178.912C86.9552 179.6 86.3152 180.152 85.5872 180.568C84.8672 180.984 84.0632 181.192 83.1752 181.192C82.5112 181.192 81.9312 181.088 81.4352 180.88C80.9392 180.672 80.5272 180.372 80.1992 179.98C79.8712 179.588 79.6232 179.116 79.4552 178.564C79.2872 178.012 79.2032 177.388 79.2032 176.692V169.06H80.3552V176.692C80.3552 177.812 80.6112 178.692 81.1232 179.332C81.6352 179.964 82.4152 180.28 83.4632 180.28C84.2392 180.28 84.9632 180.084 85.6352 179.692C86.3152 179.292 86.9192 178.74 87.4472 178.036V169.06H88.5992ZM100.559 170.656C100.519 170.696 100.479 170.732 100.439 170.764C100.407 170.788 100.359 170.8 100.295 170.8C100.215 170.8 100.107 170.748 99.9705 170.644C99.8345 170.532 99.6505 170.412 99.4185 170.284C99.1865 170.156 98.8945 170.04 98.5425 169.936C98.1985 169.824 97.7785 169.768 97.2825 169.768C96.5945 169.768 95.9825 169.892 95.4465 170.14C94.9185 170.38 94.4705 170.728 94.1025 171.184C93.7345 171.64 93.4545 172.192 93.2625 172.84C93.0785 173.488 92.9865 174.216 92.9865 175.024C92.9865 175.864 93.0825 176.608 93.2745 177.256C93.4745 177.904 93.7545 178.452 94.1145 178.9C94.4745 179.34 94.9105 179.676 95.4225 179.908C95.9345 180.14 96.5025 180.256 97.1265 180.256C97.7025 180.256 98.1825 180.188 98.5665 180.052C98.9585 179.916 99.2785 179.768 99.5265 179.608C99.7825 179.448 99.9825 179.3 100.127 179.164C100.271 179.028 100.391 178.96 100.487 178.96C100.583 178.96 100.663 179 100.727 179.08L101.027 179.464C100.843 179.704 100.611 179.928 100.331 180.136C100.051 180.344 99.7345 180.524 99.3825 180.676C99.0305 180.828 98.6465 180.944 98.2305 181.024C97.8225 181.112 97.3945 181.156 96.9465 181.156C96.1865 181.156 95.4905 181.02 94.8585 180.748C94.2345 180.468 93.6945 180.068 93.2385 179.548C92.7905 179.02 92.4385 178.376 92.1825 177.616C91.9345 176.856 91.8105 175.992 91.8105 175.024C91.8105 174.112 91.9305 173.28 92.1705 172.528C92.4105 171.776 92.7625 171.128 93.2265 170.584C93.6905 170.04 94.2545 169.62 94.9185 169.324C95.5905 169.02 96.3585 168.868 97.2225 168.868C97.9985 168.868 98.6865 168.992 99.2865 169.24C99.8865 169.488 100.411 169.824 100.859 170.248L100.559 170.656ZM105.123 169.06V181H103.983V169.06H105.123ZM105.615 164.944C105.615 165.088 105.583 165.224 105.519 165.352C105.463 165.472 105.387 165.58 105.291 165.676C105.195 165.772 105.083 165.848 104.955 165.904C104.827 165.96 104.691 165.988 104.547 165.988C104.403 165.988 104.267 165.96 104.139 165.904C104.011 165.848 103.899 165.772 103.803 165.676C103.707 165.58 103.631 165.472 103.575 165.352C103.519 165.224 103.491 165.088 103.491 164.944C103.491 164.8 103.519 164.664 103.575 164.536C103.631 164.4 103.707 164.284 103.803 164.188C103.899 164.092 104.011 164.016 104.139 163.96C104.267 163.904 104.403 163.876 104.547 163.876C104.691 163.876 104.827 163.904 104.955 163.96C105.083 164.016 105.195 164.092 105.291 164.188C105.387 164.284 105.463 164.4 105.519 164.536C105.583 164.664 105.615 164.8 105.615 164.944ZM110.347 178.396C110.811 179.084 111.319 179.568 111.871 179.848C112.431 180.12 113.059 180.256 113.755 180.256C114.467 180.256 115.087 180.128 115.615 179.872C116.151 179.616 116.595 179.252 116.947 178.78C117.307 178.3 117.575 177.72 117.751 177.04C117.927 176.36 118.015 175.596 118.015 174.748C118.015 173.1 117.687 171.86 117.031 171.028C116.375 170.196 115.455 169.78 114.271 169.78C113.423 169.78 112.683 169.984 112.051 170.392C111.419 170.8 110.851 171.368 110.347 172.096V178.396ZM110.347 171.136C110.867 170.432 111.475 169.88 112.171 169.48C112.867 169.072 113.675 168.868 114.595 168.868C115.315 168.868 115.959 169 116.527 169.264C117.095 169.528 117.575 169.908 117.967 170.404C118.367 170.9 118.671 171.512 118.879 172.24C119.087 172.96 119.191 173.78 119.191 174.7C119.191 175.668 119.075 176.552 118.843 177.352C118.611 178.144 118.271 178.824 117.823 179.392C117.383 179.952 116.843 180.388 116.203 180.7C115.563 181.004 114.831 181.156 114.007 181.156C113.159 181.156 112.435 180.996 111.835 180.676C111.243 180.348 110.731 179.864 110.299 179.224L110.215 180.7C110.191 180.9 110.083 181 109.891 181H109.195V163.54H110.347V171.136ZM131.677 169.06V181H131.041C130.841 181 130.725 180.896 130.693 180.688L130.585 178.912C130.033 179.6 129.393 180.152 128.665 180.568C127.945 180.984 127.141 181.192 126.253 181.192C125.589 181.192 125.009 181.088 124.513 180.88C124.017 180.672 123.605 180.372 123.277 179.98C122.949 179.588 122.701 179.116 122.533 178.564C122.365 178.012 122.281 177.388 122.281 176.692V169.06H123.433V176.692C123.433 177.812 123.689 178.692 124.201 179.332C124.713 179.964 125.493 180.28 126.541 180.28C127.317 180.28 128.041 180.084 128.713 179.692C129.393 179.292 129.997 178.74 130.525 178.036V169.06H131.677ZM142.173 170.536C142.109 170.648 142.017 170.704 141.897 170.704C141.809 170.704 141.697 170.656 141.561 170.56C141.425 170.456 141.241 170.344 141.009 170.224C140.785 170.096 140.505 169.984 140.169 169.888C139.833 169.784 139.425 169.732 138.945 169.732C138.513 169.732 138.117 169.796 137.757 169.924C137.405 170.044 137.101 170.208 136.845 170.416C136.597 170.624 136.405 170.868 136.269 171.148C136.133 171.42 136.065 171.708 136.065 172.012C136.065 172.388 136.161 172.7 136.353 172.948C136.545 173.196 136.793 173.408 137.097 173.584C137.409 173.76 137.765 173.912 138.165 174.04C138.565 174.168 138.969 174.296 139.377 174.424C139.793 174.552 140.201 174.696 140.601 174.856C141.001 175.008 141.353 175.2 141.657 175.432C141.969 175.664 142.221 175.948 142.413 176.284C142.605 176.62 142.701 177.028 142.701 177.508C142.701 178.028 142.609 178.512 142.425 178.96C142.241 179.408 141.969 179.796 141.609 180.124C141.257 180.452 140.821 180.712 140.301 180.904C139.781 181.096 139.185 181.192 138.513 181.192C137.673 181.192 136.949 181.06 136.341 180.796C135.733 180.524 135.189 180.172 134.709 179.74L134.973 179.332C135.013 179.268 135.057 179.22 135.105 179.188C135.161 179.156 135.233 179.14 135.321 179.14C135.425 179.14 135.549 179.204 135.693 179.332C135.845 179.46 136.045 179.6 136.293 179.752C136.541 179.896 136.845 180.032 137.205 180.16C137.573 180.288 138.025 180.352 138.561 180.352C139.065 180.352 139.509 180.284 139.893 180.148C140.277 180.004 140.597 179.812 140.853 179.572C141.109 179.332 141.301 179.052 141.429 178.732C141.565 178.404 141.633 178.06 141.633 177.7C141.633 177.3 141.537 176.968 141.345 176.704C141.153 176.44 140.901 176.216 140.589 176.032C140.277 175.848 139.921 175.692 139.521 175.564C139.129 175.436 138.725 175.308 138.309 175.18C137.893 175.052 137.485 174.912 137.085 174.76C136.693 174.608 136.341 174.416 136.029 174.184C135.717 173.952 135.465 173.672 135.273 173.344C135.081 173.008 134.985 172.592 134.985 172.096C134.985 171.672 135.077 171.264 135.261 170.872C135.445 170.48 135.705 170.136 136.041 169.84C136.385 169.544 136.801 169.308 137.289 169.132C137.777 168.956 138.325 168.868 138.933 168.868C139.661 168.868 140.305 168.972 140.865 169.18C141.433 169.388 141.949 169.708 142.413 170.14L142.173 170.536ZM153.592 169.06V181H152.452V169.06H153.592ZM154.084 164.944C154.084 165.088 154.052 165.224 153.988 165.352C153.932 165.472 153.856 165.58 153.76 165.676C153.664 165.772 153.552 165.848 153.424 165.904C153.296 165.96 153.16 165.988 153.016 165.988C152.872 165.988 152.736 165.96 152.608 165.904C152.48 165.848 152.368 165.772 152.272 165.676C152.176 165.58 152.1 165.472 152.044 165.352C151.988 165.224 151.96 165.088 151.96 164.944C151.96 164.8 151.988 164.664 152.044 164.536C152.1 164.4 152.176 164.284 152.272 164.188C152.368 164.092 152.48 164.016 152.608 163.96C152.736 163.904 152.872 163.876 153.016 163.876C153.16 163.876 153.296 163.904 153.424 163.96C153.552 164.016 153.664 164.092 153.76 164.188C153.856 164.284 153.932 164.4 153.988 164.536C154.052 164.664 154.084 164.8 154.084 164.944ZM158.755 171.148C159.307 170.46 159.943 169.908 160.663 169.492C161.391 169.076 162.199 168.868 163.087 168.868C163.743 168.868 164.319 168.972 164.815 169.18C165.319 169.388 165.735 169.688 166.063 170.08C166.391 170.472 166.639 170.944 166.807 171.496C166.975 172.048 167.059 172.672 167.059 173.368V181H165.907V173.368C165.907 172.248 165.651 171.372 165.139 170.74C164.627 170.1 163.847 169.78 162.799 169.78C162.023 169.78 161.295 169.98 160.615 170.38C159.943 170.772 159.343 171.32 158.815 172.024V181H157.663V169.06H158.299C158.499 169.06 158.615 169.16 158.647 169.36L158.755 171.148ZM178.634 163.54V181H177.482V163.54H178.634ZM183.943 169.06V181H182.803V169.06H183.943ZM184.435 164.944C184.435 165.088 184.403 165.224 184.339 165.352C184.283 165.472 184.207 165.58 184.111 165.676C184.015 165.772 183.903 165.848 183.775 165.904C183.647 165.96 183.511 165.988 183.367 165.988C183.223 165.988 183.087 165.96 182.959 165.904C182.831 165.848 182.719 165.772 182.623 165.676C182.527 165.58 182.451 165.472 182.395 165.352C182.339 165.224 182.311 165.088 182.311 164.944C182.311 164.8 182.339 164.664 182.395 164.536C182.451 164.4 182.527 164.284 182.623 164.188C182.719 164.092 182.831 164.016 182.959 163.96C183.087 163.904 183.223 163.876 183.367 163.876C183.511 163.876 183.647 163.904 183.775 163.96C183.903 164.016 184.015 164.092 184.111 164.188C184.207 164.284 184.283 164.4 184.339 164.536C184.403 164.664 184.435 164.8 184.435 164.944ZM189.167 178.396C189.631 179.084 190.139 179.568 190.691 179.848C191.251 180.12 191.879 180.256 192.575 180.256C193.287 180.256 193.907 180.128 194.435 179.872C194.971 179.616 195.415 179.252 195.767 178.78C196.127 178.3 196.395 177.72 196.571 177.04C196.747 176.36 196.835 175.596 196.835 174.748C196.835 173.1 196.507 171.86 195.851 171.028C195.195 170.196 194.275 169.78 193.091 169.78C192.243 169.78 191.503 169.984 190.871 170.392C190.239 170.8 189.671 171.368 189.167 172.096V178.396ZM189.167 171.136C189.687 170.432 190.295 169.88 190.991 169.48C191.687 169.072 192.495 168.868 193.415 168.868C194.135 168.868 194.779 169 195.347 169.264C195.915 169.528 196.395 169.908 196.787 170.404C197.187 170.9 197.491 171.512 197.699 172.24C197.907 172.96 198.011 173.78 198.011 174.7C198.011 175.668 197.895 176.552 197.663 177.352C197.431 178.144 197.091 178.824 196.643 179.392C196.203 179.952 195.663 180.388 195.023 180.7C194.383 181.004 193.651 181.156 192.827 181.156C191.979 181.156 191.255 180.996 190.655 180.676C190.063 180.348 189.551 179.864 189.119 179.224L189.035 180.7C189.011 180.9 188.903 181 188.711 181H188.015V163.54H189.167V171.136ZM209.61 173.824C209.61 173.184 209.518 172.612 209.334 172.108C209.158 171.596 208.906 171.164 208.578 170.812C208.25 170.46 207.858 170.192 207.402 170.008C206.954 169.816 206.458 169.72 205.914 169.72C205.298 169.72 204.746 169.816 204.258 170.008C203.77 170.2 203.346 170.476 202.986 170.836C202.634 171.196 202.35 171.628 202.134 172.132C201.918 172.636 201.774 173.2 201.702 173.824H209.61ZM201.642 174.556V174.784C201.642 175.68 201.746 176.468 201.954 177.148C202.162 177.828 202.458 178.4 202.842 178.864C203.226 179.32 203.69 179.664 204.234 179.896C204.778 180.128 205.386 180.244 206.058 180.244C206.658 180.244 207.178 180.18 207.618 180.052C208.058 179.916 208.426 179.768 208.722 179.608C209.026 179.44 209.266 179.292 209.442 179.164C209.618 179.028 209.746 178.96 209.826 178.96C209.93 178.96 210.01 179 210.066 179.08L210.378 179.464C210.186 179.704 209.93 179.928 209.61 180.136C209.298 180.344 208.946 180.524 208.554 180.676C208.17 180.82 207.754 180.936 207.306 181.024C206.866 181.112 206.422 181.156 205.974 181.156C205.158 181.156 204.414 181.016 203.742 180.736C203.07 180.448 202.494 180.032 202.014 179.488C201.534 178.944 201.162 178.28 200.898 177.496C200.642 176.704 200.514 175.8 200.514 174.784C200.514 173.928 200.634 173.14 200.874 172.42C201.122 171.692 201.474 171.068 201.93 170.548C202.394 170.02 202.958 169.608 203.622 169.312C204.294 169.016 205.054 168.868 205.902 168.868C206.574 168.868 207.198 168.984 207.774 169.216C208.35 169.448 208.85 169.788 209.274 170.236C209.698 170.676 210.03 171.22 210.27 171.868C210.518 172.516 210.642 173.26 210.642 174.1C210.642 174.276 210.618 174.396 210.57 174.46C210.522 174.524 210.442 174.556 210.33 174.556H201.642ZM214.841 171.94C215.025 171.452 215.233 171.02 215.465 170.644C215.705 170.26 215.977 169.936 216.281 169.672C216.593 169.408 216.937 169.208 217.313 169.072C217.697 168.928 218.121 168.856 218.585 168.856C218.833 168.856 219.077 168.88 219.317 168.928C219.557 168.968 219.769 169.044 219.953 169.156L219.857 169.948C219.817 170.076 219.741 170.14 219.629 170.14C219.533 170.14 219.385 170.112 219.185 170.056C218.993 170 218.737 169.972 218.417 169.972C217.953 169.972 217.541 170.044 217.181 170.188C216.829 170.324 216.509 170.532 216.221 170.812C215.941 171.092 215.693 171.44 215.477 171.856C215.269 172.264 215.077 172.736 214.901 173.272V181H213.749V169.06H214.361C214.497 169.06 214.593 169.088 214.649 169.144C214.705 169.2 214.741 169.296 214.757 169.432L214.841 171.94ZM226.282 168.868C227.138 168.868 227.902 169.016 228.574 169.312C229.254 169.6 229.826 170.012 230.29 170.548C230.754 171.084 231.106 171.732 231.346 172.492C231.594 173.244 231.718 174.088 231.718 175.024C231.718 175.96 231.594 176.804 231.346 177.556C231.106 178.308 230.754 178.952 230.29 179.488C229.826 180.024 229.254 180.436 228.574 180.724C227.902 181.012 227.138 181.156 226.282 181.156C225.426 181.156 224.658 181.012 223.978 180.724C223.306 180.436 222.734 180.024 222.262 179.488C221.798 178.952 221.442 178.308 221.194 177.556C220.954 176.804 220.834 175.96 220.834 175.024C220.834 174.088 220.954 173.244 221.194 172.492C221.442 171.732 221.798 171.084 222.262 170.548C222.734 170.012 223.306 169.6 223.978 169.312C224.658 169.016 225.426 168.868 226.282 168.868ZM226.282 180.256C226.994 180.256 227.614 180.136 228.142 179.896C228.678 179.648 229.122 179.296 229.474 178.84C229.834 178.384 230.102 177.836 230.278 177.196C230.454 176.548 230.542 175.824 230.542 175.024C230.542 174.232 230.454 173.512 230.278 172.864C230.102 172.216 229.834 171.664 229.474 171.208C229.122 170.744 228.678 170.388 228.142 170.14C227.614 169.892 226.994 169.768 226.282 169.768C225.57 169.768 224.946 169.892 224.41 170.14C223.882 170.388 223.438 170.744 223.078 171.208C222.726 171.664 222.458 172.216 222.274 172.864C222.098 173.512 222.01 174.232 222.01 175.024C222.01 175.824 222.098 176.548 222.274 177.196C222.458 177.836 222.726 178.384 223.078 178.84C223.438 179.296 223.882 179.648 224.41 179.896C224.946 180.136 225.57 180.256 226.282 180.256ZM242.544 171.94C242.728 171.452 242.936 171.02 243.168 170.644C243.408 170.26 243.68 169.936 243.984 169.672C244.296 169.408 244.64 169.208 245.016 169.072C245.4 168.928 245.824 168.856 246.288 168.856C246.536 168.856 246.78 168.88 247.02 168.928C247.26 168.968 247.472 169.044 247.656 169.156L247.56 169.948C247.52 170.076 247.444 170.14 247.332 170.14C247.236 170.14 247.088 170.112 246.888 170.056C246.696 170 246.44 169.972 246.12 169.972C245.656 169.972 245.244 170.044 244.884 170.188C244.532 170.324 244.212 170.532 243.924 170.812C243.644 171.092 243.396 171.44 243.18 171.856C242.972 172.264 242.78 172.736 242.604 173.272V181H241.452V169.06H242.064C242.2 169.06 242.296 169.088 242.352 169.144C242.408 169.2 242.444 169.296 242.46 169.432L242.544 171.94ZM251.209 169.06V181H250.069V169.06H251.209ZM251.701 164.944C251.701 165.088 251.669 165.224 251.605 165.352C251.549 165.472 251.473 165.58 251.377 165.676C251.281 165.772 251.169 165.848 251.041 165.904C250.913 165.96 250.777 165.988 250.633 165.988C250.489 165.988 250.353 165.96 250.225 165.904C250.097 165.848 249.985 165.772 249.889 165.676C249.793 165.58 249.717 165.472 249.661 165.352C249.605 165.224 249.577 165.088 249.577 164.944C249.577 164.8 249.605 164.664 249.661 164.536C249.717 164.4 249.793 164.284 249.889 164.188C249.985 164.092 250.097 164.016 250.225 163.96C250.353 163.904 250.489 163.876 250.633 163.876C250.777 163.876 250.913 163.904 251.041 163.96C251.169 164.016 251.281 164.092 251.377 164.188C251.473 164.284 251.549 164.4 251.605 164.536C251.669 164.664 251.701 164.8 251.701 164.944ZM261.845 170.536C261.781 170.648 261.689 170.704 261.569 170.704C261.481 170.704 261.369 170.656 261.233 170.56C261.097 170.456 260.913 170.344 260.681 170.224C260.457 170.096 260.177 169.984 259.841 169.888C259.505 169.784 259.097 169.732 258.617 169.732C258.185 169.732 257.789 169.796 257.429 169.924C257.077 170.044 256.773 170.208 256.517 170.416C256.269 170.624 256.077 170.868 255.941 171.148C255.805 171.42 255.737 171.708 255.737 172.012C255.737 172.388 255.833 172.7 256.025 172.948C256.217 173.196 256.465 173.408 256.769 173.584C257.081 173.76 257.437 173.912 257.837 174.04C258.237 174.168 258.641 174.296 259.049 174.424C259.465 174.552 259.873 174.696 260.273 174.856C260.673 175.008 261.025 175.2 261.329 175.432C261.641 175.664 261.893 175.948 262.085 176.284C262.277 176.62 262.373 177.028 262.373 177.508C262.373 178.028 262.281 178.512 262.097 178.96C261.913 179.408 261.641 179.796 261.281 180.124C260.929 180.452 260.493 180.712 259.973 180.904C259.453 181.096 258.857 181.192 258.185 181.192C257.345 181.192 256.621 181.06 256.013 180.796C255.405 180.524 254.861 180.172 254.381 179.74L254.645 179.332C254.685 179.268 254.729 179.22 254.777 179.188C254.833 179.156 254.905 179.14 254.993 179.14C255.097 179.14 255.221 179.204 255.365 179.332C255.517 179.46 255.717 179.6 255.965 179.752C256.213 179.896 256.517 180.032 256.877 180.16C257.245 180.288 257.697 180.352 258.233 180.352C258.737 180.352 259.181 180.284 259.565 180.148C259.949 180.004 260.269 179.812 260.525 179.572C260.781 179.332 260.973 179.052 261.101 178.732C261.237 178.404 261.305 178.06 261.305 177.7C261.305 177.3 261.209 176.968 261.017 176.704C260.825 176.44 260.573 176.216 260.261 176.032C259.949 175.848 259.593 175.692 259.193 175.564C258.801 175.436 258.397 175.308 257.981 175.18C257.565 175.052 257.157 174.912 256.757 174.76C256.365 174.608 256.013 174.416 255.701 174.184C255.389 173.952 255.137 173.672 254.945 173.344C254.753 173.008 254.657 172.592 254.657 172.096C254.657 171.672 254.749 171.264 254.933 170.872C255.117 170.48 255.377 170.136 255.713 169.84C256.057 169.544 256.473 169.308 256.961 169.132C257.449 168.956 257.997 168.868 258.605 168.868C259.333 168.868 259.977 168.972 260.537 169.18C261.105 169.388 261.621 169.708 262.085 170.14L261.845 170.536ZM274.74 169.06V181H274.104C273.904 181 273.788 180.896 273.756 180.688L273.648 178.912C273.096 179.6 272.456 180.152 271.728 180.568C271.008 180.984 270.204 181.192 269.316 181.192C268.652 181.192 268.072 181.088 267.576 180.88C267.08 180.672 266.668 180.372 266.34 179.98C266.012 179.588 265.764 179.116 265.596 178.564C265.428 178.012 265.344 177.388 265.344 176.692V169.06H266.496V176.692C266.496 177.812 266.752 178.692 267.264 179.332C267.776 179.964 268.556 180.28 269.604 180.28C270.38 180.28 271.104 180.084 271.776 179.692C272.456 179.292 273.06 178.74 273.588 178.036V169.06H274.74ZM285.235 170.536C285.171 170.648 285.079 170.704 284.959 170.704C284.871 170.704 284.759 170.656 284.623 170.56C284.487 170.456 284.303 170.344 284.071 170.224C283.847 170.096 283.567 169.984 283.231 169.888C282.895 169.784 282.487 169.732 282.007 169.732C281.575 169.732 281.179 169.796 280.819 169.924C280.467 170.044 280.163 170.208 279.907 170.416C279.659 170.624 279.467 170.868 279.331 171.148C279.195 171.42 279.127 171.708 279.127 172.012C279.127 172.388 279.223 172.7 279.415 172.948C279.607 173.196 279.855 173.408 280.159 173.584C280.471 173.76 280.827 173.912 281.227 174.04C281.627 174.168 282.031 174.296 282.439 174.424C282.855 174.552 283.263 174.696 283.663 174.856C284.063 175.008 284.415 175.2 284.719 175.432C285.031 175.664 285.283 175.948 285.475 176.284C285.667 176.62 285.763 177.028 285.763 177.508C285.763 178.028 285.671 178.512 285.487 178.96C285.303 179.408 285.031 179.796 284.671 180.124C284.319 180.452 283.883 180.712 283.363 180.904C282.843 181.096 282.247 181.192 281.575 181.192C280.735 181.192 280.011 181.06 279.403 180.796C278.795 180.524 278.251 180.172 277.771 179.74L278.035 179.332C278.075 179.268 278.119 179.22 278.167 179.188C278.223 179.156 278.295 179.14 278.383 179.14C278.487 179.14 278.611 179.204 278.755 179.332C278.907 179.46 279.107 179.6 279.355 179.752C279.603 179.896 279.907 180.032 280.267 180.16C280.635 180.288 281.087 180.352 281.623 180.352C282.127 180.352 282.571 180.284 282.955 180.148C283.339 180.004 283.659 179.812 283.915 179.572C284.171 179.332 284.363 179.052 284.491 178.732C284.627 178.404 284.695 178.06 284.695 177.7C284.695 177.3 284.599 176.968 284.407 176.704C284.215 176.44 283.963 176.216 283.651 176.032C283.339 175.848 282.983 175.692 282.583 175.564C282.191 175.436 281.787 175.308 281.371 175.18C280.955 175.052 280.547 174.912 280.147 174.76C279.755 174.608 279.403 174.416 279.091 174.184C278.779 173.952 278.527 173.672 278.335 173.344C278.143 173.008 278.047 172.592 278.047 172.096C278.047 171.672 278.139 171.264 278.323 170.872C278.507 170.48 278.767 170.136 279.103 169.84C279.447 169.544 279.863 169.308 280.351 169.132C280.839 168.956 281.387 168.868 281.995 168.868C282.723 168.868 283.367 168.972 283.927 169.18C284.495 169.388 285.011 169.708 285.475 170.14L285.235 170.536Z" fill="white"/>
</g>
<defs>
<filter id="filter0_b_815_5449" x="-32" y="-32" width="476" height="296" filterUnits="userSpaceOnUse" color-interpolation-filters="sRGB">
<feFlood flood-opacity="0" result="BackgroundImageFix"/>
<feGaussianBlur in="BackgroundImageFix" stdDeviation="16"/>
<feComposite in2="SourceAlpha" operator="in" result="effect1_backgroundBlur_815_5449"/>
<feBlend mode="normal" in="SourceGraphic" in2="effect1_backgroundBlur_815_5449" result="shape"/>
</filter>
<linearGradient id="paint0_linear_815_5449" x1="206" y1="0" x2="206" y2="159" gradientUnits="userSpaceOnUse">
<stop stop-color="white"/>
<stop offset="1" stop-color="white" stop-opacity="0.5"/>
</linearGradient>
</defs>
</svg>
