<svg width="165" height="165" viewBox="0 0 165 165" fill="none" xmlns="http://www.w3.org/2000/svg">
<circle cx="82.5" cy="82.5" r="82.5" fill="white" fill-opacity="0.9"/>
<path d="M122.964 22.5816C122.23 22.2515 121.712 22.1133 121.41 22.1669C121.098 22.223 120.735 22.606 120.321 23.316L115.442 31.68C115.053 32.3471 114.9 32.8406 114.985 33.1604C115.065 33.4863 115.44 33.8773 116.109 34.3333L115.906 34.6822L110.59 31.5813L110.793 31.2324C111.507 31.5991 112.038 31.7573 112.387 31.7068C112.73 31.6527 113.084 31.3135 113.448 30.6892L118.718 21.655C118.84 21.4469 118.902 21.262 118.906 21.1004C118.901 20.9412 118.788 20.7767 118.567 20.6069C118.437 20.5064 118.297 20.4085 118.147 20.3131C117.992 20.2141 117.7 20.0397 117.271 19.7898C115.601 18.815 114.391 18.294 113.643 18.2267C112.894 18.1594 111.915 18.5312 110.703 19.3422L110.226 19.0637L113.045 16.34L123.163 22.2419L122.964 22.5816Z" fill="#333333"/>
<path d="M106.861 19.1975C106.457 20.5486 105.689 21.5615 104.556 22.2361C103.413 22.9154 102.167 23.0533 100.816 22.6497C99.4713 22.2481 98.4897 21.4742 97.8707 20.3279C97.2517 19.1816 97.1613 17.8752 97.5994 16.4087C98.003 15.0576 98.7816 14.0108 99.9352 13.2682C101.089 12.5257 102.345 12.3573 103.702 12.7629C105.006 13.1524 105.966 13.9606 106.583 15.1877C107.2 16.4147 107.293 17.7513 106.861 19.1975ZM101.283 22.1238C101.82 22.2841 102.338 22.2465 102.837 22.0111C103.7 21.596 104.358 20.6315 104.81 19.1174C105.171 17.9089 105.237 16.7007 105.006 15.4929C104.768 14.283 104.164 13.5331 103.193 13.243C102.433 13.0159 101.744 13.1911 101.128 13.7688C100.505 14.3444 100.024 15.1991 99.6853 16.3329C99.3344 17.5075 99.2652 18.6923 99.4777 19.8872C99.6902 21.0822 100.292 21.8277 101.283 22.1238Z" fill="#333333"/>
<path d="M93.3196 11.0661C92.6653 11.059 92.2241 11.1298 91.996 11.2784C91.7672 11.434 91.6252 11.7939 91.57 12.3581L91.1034 17.129C91.0352 17.8271 91.0535 18.3309 91.1586 18.6402C91.2559 18.9559 91.4773 19.1306 91.8228 19.1644C91.8934 19.1713 91.9896 19.17 92.1116 19.1606C92.2258 19.1575 92.3477 19.1481 92.4774 19.1323L92.4433 19.4814C92.0275 19.5831 91.6008 19.6873 91.1632 19.794C90.7256 19.9008 90.4226 19.9779 90.2542 20.0255C89.8884 20.125 89.5104 20.2412 89.1201 20.3739C89.0707 20.369 89.0442 20.3486 89.0406 20.3127C89.03 20.276 89.0302 20.2013 89.0412 20.0885L89.2109 18.3536C88.6981 18.9371 88.2165 19.3848 87.7659 19.6968C87.3083 20.008 86.8538 20.1416 86.4025 20.0974C86.0428 20.0622 85.7608 19.9243 85.5565 19.6836C85.3515 19.45 85.2649 19.171 85.2966 18.8466C85.3249 18.5574 85.4369 18.3227 85.6325 18.1425C85.821 17.9616 86.0458 17.8839 86.3067 17.9094C86.5747 17.9356 86.8342 18.0856 87.0851 18.3593C87.3289 18.6323 87.5284 18.7765 87.6836 18.7916C87.9304 18.8158 88.2533 18.6444 88.6523 18.2776C89.0506 17.9179 89.2704 17.5264 89.3118 17.1033L89.7783 12.3324C89.8376 11.7259 89.738 11.289 89.4793 11.0216C89.22 10.7613 88.7617 10.6061 88.1045 10.5561L88.1386 10.207L93.3538 10.717L93.3196 11.0661Z" fill="#333333"/>
<path d="M77.1809 20.2441C76.1857 20.3328 75.2832 20.0646 74.4735 19.4396C73.6643 18.8217 73.2034 17.881 73.0908 16.6176L79.8135 16.0185C79.597 14.3873 79.1201 13.2275 78.383 12.5391C77.6458 11.8508 76.8184 11.5475 75.9009 11.6292C75.1598 11.6953 74.5525 11.9451 74.0789 12.3785C73.6053 12.812 73.185 13.4044 72.818 14.1556L72.4361 14.0616C72.6456 13.1394 73.1152 12.2617 73.8448 11.4283C74.5673 10.5956 75.5038 10.128 76.6543 10.0255C77.9812 9.90719 79.0528 10.3168 79.8691 11.2542C80.6783 12.1923 81.1411 13.3142 81.2575 14.6199C81.384 16.0386 81.0732 17.3005 80.3251 18.4059C79.577 19.5112 78.529 20.1239 77.1809 20.2441ZM77.7261 19.4165C78.5307 19.3448 79.113 18.9336 79.4729 18.183C79.6648 17.7818 79.7843 17.2874 79.8316 16.6998L75.3639 17.098C75.5044 17.7969 75.6854 18.3107 75.9068 18.6396C76.308 19.2299 76.9144 19.4888 77.7261 19.4165Z" fill="#333333"/>
<path d="M65.9416 11.7978C65.4385 12.0319 65.1231 12.2435 64.9954 12.4326C64.7985 12.7221 64.8045 13.1568 65.0136 13.7367L66.877 18.9063C67.0548 19.3996 67.238 19.6988 67.4266 19.8041C67.6085 19.9118 67.8495 19.9115 68.1494 19.8034C68.2894 19.753 68.3937 19.7078 68.4622 19.6681C68.5241 19.6307 68.5956 19.5786 68.677 19.5116L68.8031 19.8616L68.1697 20.361C67.9409 20.5414 67.5708 20.8518 67.0592 21.2924C66.5476 21.7329 66.2751 21.9591 66.2418 21.9711C66.2085 21.9831 66.1825 21.9737 66.1638 21.9428C66.1451 21.9118 66.119 21.8497 66.0853 21.7564L65.5987 20.4065C65.155 21.2443 64.7341 21.8631 64.3358 22.2627C63.94 22.669 63.4887 22.9635 62.9821 23.1461C62.2955 23.3936 61.6648 23.3573 61.0899 23.0373C60.7853 22.8609 60.4849 22.5812 60.1887 22.1984C59.8757 22.8762 59.579 23.4011 59.2989 23.7733C58.8146 24.4148 58.2425 24.8546 57.5825 25.0924C56.5093 25.4793 55.6353 25.301 54.9606 24.5575C54.5761 24.1387 54.1916 23.396 53.8072 22.3294L52.3114 18.1798C52.1408 17.7065 51.9209 17.4204 51.6518 17.3216C51.3784 17.2318 50.9588 17.2588 50.393 17.4025L50.2993 17.1425L54.8089 15.517L54.9098 15.797C54.3491 16.0593 54.0111 16.313 53.896 16.5578C53.7743 16.8051 53.8131 17.2054 54.0125 17.7586L55.566 22.0683C55.7991 22.7149 56.0409 23.1663 56.2914 23.4225C56.7351 23.8802 57.3169 23.9793 58.0368 23.7198C58.4701 23.5636 58.8484 23.2653 59.1717 22.8249C59.3583 22.5693 59.5655 22.1933 59.7933 21.6969L57.9479 16.5774C57.7533 16.0374 57.5122 15.6611 57.2246 15.4484C56.9304 15.2381 56.473 15.2335 55.8525 15.4346L55.7588 15.1746L60.3484 13.5202L60.4421 13.7802C59.8377 14.0884 59.4896 14.3871 59.398 14.6763C59.3064 14.9654 59.4204 15.5532 59.74 16.4398L60.7492 19.2396C61.1192 20.2662 61.4406 20.9488 61.7133 21.2873C62.1687 21.8613 62.7531 22.0198 63.4664 21.7626C63.873 21.6161 64.2321 21.3586 64.5437 20.9902C64.8577 20.6284 65.0998 20.2135 65.27 19.7454L63.2985 14.2758C63.1159 13.7692 62.9031 13.4505 62.6601 13.3196C62.4104 13.1912 61.9877 13.2306 61.392 13.4378L61.2983 13.1778L65.8479 11.5378L65.9416 11.7978Z" fill="#333333"/>
<path d="M44.9101 37.4442C45.1107 37.6735 45.2034 37.9408 45.188 38.2461C45.1726 38.5514 45.0476 38.8067 44.813 39.012C44.5836 39.2126 44.3166 39.3002 44.012 39.2748C43.7067 39.2595 43.4514 39.1345 43.2462 38.8998C43.0455 38.6705 42.9556 38.4008 42.9763 38.0909C42.9963 37.7909 43.121 37.5406 43.3503 37.34C43.585 37.1347 43.8523 37.0421 44.1523 37.0621C44.4569 37.0875 44.7095 37.2148 44.9101 37.4442ZM37.0953 26.4445C36.5713 26.9971 36.2953 27.408 36.2673 27.6773C36.2439 27.9519 36.5052 28.4012 37.051 29.0252L40.3892 32.8412C40.6924 33.1878 40.9264 33.4068 41.091 33.4982C41.3623 33.6468 41.626 33.6092 41.882 33.3853C41.9406 33.3339 41.9946 33.2773 42.044 33.2153C42.088 33.158 42.2106 32.9754 42.412 32.6674L42.6289 32.9154L42.3829 33.3283C41.7155 34.4488 41.2655 35.2473 41.0328 35.7239C40.9394 35.9185 40.8714 36.0345 40.8288 36.0718C40.7854 36.0438 40.7451 36.0085 40.7078 35.9658L35.683 30.2219C35.1512 29.6139 34.7456 29.2956 34.4663 29.2669C34.1817 29.2428 33.762 29.4358 33.2074 29.8457L33.0114 29.6217L36.8994 26.2205L37.0953 26.4445Z" fill="#333333"/>
<path d="M28.261 37.5222C27.7683 37.3695 27.3156 37.3609 26.9029 37.4963C26.4914 37.6417 26.1325 37.9094 25.8262 38.2995C25.3535 38.9014 25.249 39.6482 25.5127 40.5401C25.7776 41.4418 26.4451 42.3129 27.5151 43.1531C28.5405 43.9584 29.4819 44.3372 30.3391 44.2896C31.192 44.2476 31.8482 43.934 32.3077 43.3489C32.6315 42.9365 32.7988 42.4596 32.8094 41.9184C32.8256 41.3815 32.711 41.0168 32.4658 40.8242L28.261 37.5222ZM25.358 30.9448C24.98 31.495 24.8311 31.9141 24.9112 32.2022C24.9869 32.4959 25.2281 32.8025 25.635 33.122L33.66 39.424C34.0836 39.7566 34.3954 39.9159 34.5956 39.9019C34.797 39.8979 35.0093 39.7537 35.2325 39.4695C35.2806 39.4082 35.3238 39.3475 35.362 39.2874C35.3958 39.2329 35.4437 39.1489 35.5058 39.0354L35.7816 39.2521L35.4171 40.2497C35.4008 40.282 35.1533 40.993 34.6745 42.3829C34.6526 42.4108 34.6233 42.4194 34.5867 42.4086C34.5513 42.4078 34.5169 42.3943 34.4834 42.3681L33.3549 41.4818C33.4339 42.1385 33.4531 42.6762 33.4126 43.0949C33.3308 43.8415 33.0821 44.4795 32.6663 45.009C32.0624 45.778 31.215 46.1802 30.1241 46.2155C29.0344 46.2608 27.9211 45.837 26.7843 44.9442C25.6697 44.069 24.9208 42.9403 24.5375 41.5582C24.1499 40.1816 24.3522 38.989 25.1443 37.9803C25.3894 37.6682 25.6407 37.4286 25.8981 37.2614C26.2952 36.9966 26.768 36.8363 27.3164 36.7804L24.5829 34.6338C24.02 34.1918 23.6023 34.0124 23.3297 34.0956C23.0571 34.1789 22.6556 34.5123 22.1252 35.0959L21.8327 34.8661L25.0821 30.7282L25.358 30.9448Z" fill="#333333"/>
<path d="M22.0479 48.9326L21.8922 49.2469C21.096 49.0342 20.4429 48.9558 19.9329 49.0115C19.0016 49.1036 18.3236 49.5782 17.8988 50.4353C17.6629 50.9115 17.6074 51.3506 17.7325 51.7526C17.8607 52.1641 18.1343 52.4737 18.5534 52.6813C18.82 52.8135 19.1165 52.8615 19.4428 52.8255C19.7691 52.7895 20.1488 52.6297 20.5819 52.3461L21.72 51.5814C22.526 51.0081 23.2329 50.6427 23.8408 50.4853C24.4487 50.3278 25.0415 50.3922 25.6193 50.6785C26.3304 51.0309 26.7887 51.5743 26.9941 52.3087C27.1996 53.0432 27.112 53.7946 26.7313 54.5628C26.5645 54.8993 26.3186 55.2361 25.9934 55.5732C25.6651 55.9166 25.4883 56.1137 25.4631 56.1645C25.4065 56.2788 25.3815 56.3692 25.3881 56.4357C25.3946 56.5023 25.4234 56.5719 25.4744 56.6446L25.3611 56.8732L22.6709 55.6232L22.8172 55.3279C23.496 55.5061 24.0603 55.5722 24.5102 55.5262C25.3401 55.4472 25.9392 55.0363 26.3073 54.2934C26.5275 53.8489 26.564 53.4321 26.4169 53.0428C26.2697 52.6536 26.012 52.3677 25.6437 52.1853C25.0596 51.8958 24.3219 52.0759 23.4306 52.7256L22.1314 53.6477C20.7248 54.6351 19.5326 54.8866 18.5548 54.4021C17.8056 54.0308 17.3329 53.4447 17.1367 52.6437C16.9374 51.849 17.0627 50.9976 17.5126 50.0897C17.7013 49.7088 17.9788 49.3085 18.3449 48.8889C18.7109 48.4692 18.916 48.215 18.9601 48.1261C18.9978 48.0499 19.0023 47.9691 18.9734 47.8836C18.951 47.8013 18.9095 47.7254 18.849 47.6559L18.9717 47.4083L22.0479 48.9326Z" fill="#333333"/>
<path d="M22.3565 64.9693L15.7729 63.2574C15.3066 63.1361 14.9159 63.1041 14.6009 63.1613C14.0137 63.2795 13.6318 63.678 13.4553 64.357C13.334 64.8233 13.3697 65.3195 13.5624 65.8455C13.6679 66.1438 13.8376 66.4625 14.0716 66.8016L19.7088 68.2674C20.2368 68.4047 20.6099 68.3919 20.828 68.229C21.0461 68.066 21.2525 67.6804 21.4473 67.0721L21.7868 67.1604L20.9228 70.483L13.6808 68.5999C13.2145 68.4787 12.8708 68.4771 12.6497 68.5954C12.4337 68.7222 12.2655 69.0592 12.1452 69.6063L11.8572 69.5314C11.8524 69.1275 11.8457 68.8293 11.8372 68.6367C11.8356 68.4459 11.8206 68.1235 11.7922 67.6695C11.7768 67.4752 11.731 67.0459 11.6548 66.3818C11.6637 66.3475 11.6862 66.3314 11.7223 66.3334C11.7515 66.3337 11.7867 66.3392 11.8278 66.3499L13.484 66.7806C13.0498 66.1698 12.7489 65.6376 12.5813 65.184C12.3214 64.4941 12.2761 63.8234 12.4455 63.1719C12.6007 62.5753 12.9595 62.0682 13.522 61.6507C14.0794 61.2246 14.8519 61.1399 15.8395 61.3967L21.1783 62.7849C21.7269 62.9276 22.1242 62.9064 22.37 62.7214C22.5258 62.6008 22.6919 62.2999 22.8683 61.8186L23.1563 61.8935L22.3565 64.9693Z" fill="#333333"/>
<path d="M10.171 75.2114C10.2256 75.7636 10.3211 76.1312 10.4574 76.3142C10.6654 76.5958 11.0777 76.7337 11.6942 76.7281L17.1891 76.6781C17.7134 76.6734 18.0564 76.5994 18.2181 76.4562C18.3799 76.3201 18.4593 76.0926 18.4564 75.7737C18.455 75.6249 18.4469 75.5116 18.432 75.4338C18.4172 75.3631 18.3916 75.2783 18.3553 75.1794L18.7273 75.176L18.9893 75.939C19.084 76.2145 19.2546 76.6664 19.5013 77.2949C19.7479 77.9233 19.8714 78.2552 19.8717 78.2906C19.872 78.3261 19.8545 78.3475 19.8192 78.3549C19.7838 78.3623 19.7165 78.3665 19.6173 78.3674L18.1825 78.3804C18.8266 79.0761 19.2714 79.6779 19.5169 80.1859C19.7696 80.6938 19.8984 81.217 19.9033 81.7555C19.9099 82.4854 19.6672 83.0686 19.1751 83.5054C18.9079 83.7346 18.5447 83.9257 18.0855 84.0786C18.6217 84.5981 19.0191 85.0516 19.2778 85.439C19.7232 86.1081 19.9491 86.7934 19.9555 87.4949C19.9659 88.6357 19.5087 89.4016 18.5839 89.7927C18.0616 90.0171 17.2336 90.1345 16.0999 90.1448L11.6891 90.185C11.186 90.1895 10.8433 90.3025 10.6611 90.5238C10.486 90.7522 10.3728 91.1571 10.3214 91.7387L10.045 91.7412L10.0014 86.9477L10.299 86.945C10.3613 87.561 10.489 87.9637 10.682 88.1533C10.8752 88.3499 11.2658 88.4456 11.8539 88.4402L16.4348 88.3986C17.1221 88.3923 17.628 88.3133 17.9526 88.1615C18.5312 87.8941 18.8171 87.3777 18.8101 86.6125C18.8059 86.1519 18.6494 85.6963 18.3406 85.2455C18.1611 84.985 17.8747 84.6652 17.4815 84.2861L12.0397 84.3356C11.4658 84.3408 11.0309 84.444 10.7352 84.6451C10.4394 84.8533 10.2839 85.2834 10.2686 85.9355L9.99223 85.938L9.94784 81.0595L10.2242 81.057C10.3153 81.7294 10.4822 82.1566 10.7248 82.3386C10.9674 82.5207 11.5599 82.6074 12.5023 82.5988L15.4782 82.5717C16.5694 82.5618 17.3199 82.4841 17.7295 82.3387C18.4218 82.0985 18.7645 81.5994 18.7576 80.8412C18.7537 80.409 18.6293 79.9849 18.3846 79.5691C18.147 79.1531 17.8354 78.7875 17.4499 78.4721L11.6361 78.525C11.0976 78.5299 10.7264 78.6254 10.5226 78.8115C10.3189 79.0047 10.2163 79.4166 10.215 80.0473L9.93865 80.0498L9.89464 75.2139L10.171 75.2114Z" fill="#333333"/>
<path d="M121.434 137.411C120.912 138.092 120.523 138.717 120.267 139.286C119.778 140.381 119.759 141.26 120.21 141.922C120.573 142.455 121.016 142.728 121.539 142.74C121.879 142.749 122.189 142.657 122.471 142.466C122.857 142.203 123.152 141.843 123.356 141.387C123.566 140.927 123.557 140.53 123.33 140.196L121.434 137.411ZM119.059 143.593C118.481 142.743 118.423 141.745 118.885 140.599C119.185 139.881 119.935 138.672 121.135 136.972L120.627 136.225C120.22 135.627 119.878 135.251 119.602 135.097C119.135 134.84 118.589 134.925 117.962 135.352C117.663 135.555 117.431 135.824 117.265 136.16C117.103 136.502 117.116 136.81 117.304 137.085C117.351 137.156 117.448 137.266 117.593 137.416C117.734 137.56 117.82 137.655 117.852 137.702C118.075 138.03 118.122 138.332 117.993 138.609C117.922 138.769 117.802 138.906 117.632 139.022C117.368 139.202 117.108 139.254 116.852 139.18C116.592 139.1 116.39 138.955 116.247 138.744C115.967 138.334 115.928 137.735 116.129 136.947C116.331 136.149 116.922 135.417 117.9 134.751C119.036 133.977 120.058 133.822 120.964 134.285C121.456 134.541 121.965 135.056 122.492 135.829L124.89 139.353C125.122 139.693 125.304 139.911 125.439 140.008C125.671 140.184 125.907 140.191 126.147 140.028C126.282 139.936 126.379 139.84 126.439 139.739C126.499 139.638 126.583 139.435 126.692 139.129L127.003 139.586C126.971 139.942 126.897 140.267 126.78 140.561C126.603 141.007 126.345 141.345 126.006 141.577C125.607 141.848 125.23 141.916 124.873 141.782C124.521 141.644 124.215 141.402 123.955 141.057C123.773 141.747 123.587 142.293 123.399 142.696C123.081 143.375 122.682 143.878 122.201 144.205C121.698 144.548 121.142 144.669 120.533 144.569C119.921 144.463 119.43 144.137 119.059 143.593Z" fill="#333333"/>
<path d="M132.032 136.649C132.357 136.2 132.53 135.861 132.549 135.634C132.58 135.285 132.363 134.909 131.898 134.504L127.752 130.897C127.357 130.553 127.051 130.381 126.835 130.381C126.624 130.375 126.413 130.493 126.204 130.733C126.106 130.846 126.037 130.936 125.997 131.004C125.961 131.067 125.924 131.147 125.885 131.245L125.605 131.001L125.915 130.256C126.027 129.987 126.199 129.536 126.431 128.902C126.663 128.268 126.791 127.938 126.814 127.911C126.837 127.884 126.865 127.88 126.896 127.898C126.927 127.916 126.98 127.957 127.055 128.022L128.138 128.964C128.117 128.016 128.183 127.271 128.337 126.728C128.484 126.18 128.735 125.703 129.088 125.297C129.568 124.746 130.136 124.471 130.794 124.47C131.146 124.476 131.545 124.574 131.99 124.764C131.933 124.019 131.936 123.416 132 122.955C132.11 122.159 132.396 121.496 132.856 120.967C133.605 120.106 134.455 119.836 135.406 120.157C135.946 120.335 136.644 120.797 137.499 121.541L140.827 124.436C141.206 124.766 141.538 124.909 141.821 124.864C142.103 124.81 142.457 124.582 142.881 124.18L143.089 124.362L139.943 127.978L139.718 127.783C140.08 127.281 140.252 126.894 140.233 126.625C140.219 126.349 139.99 126.019 139.546 125.633L136.09 122.626C135.572 122.174 135.141 121.898 134.797 121.796C134.187 121.613 133.63 121.81 133.128 122.387C132.826 122.734 132.641 123.179 132.573 123.721C132.534 124.035 132.536 124.465 132.579 125.009L136.685 128.581C137.118 128.958 137.512 129.169 137.866 129.215C138.226 129.255 138.628 129.036 139.071 128.559L139.28 128.74L136.078 132.421L135.869 132.239C136.247 131.675 136.405 131.245 136.344 130.948C136.284 130.651 135.898 130.193 135.187 129.574L132.942 127.621C132.118 126.905 131.505 126.465 131.102 126.302C130.425 126.023 129.837 126.169 129.339 126.741C129.056 127.067 128.868 127.467 128.775 127.94C128.677 128.409 128.668 128.89 128.747 129.381L133.133 133.198C133.539 133.551 133.88 133.726 134.156 133.722C134.437 133.712 134.787 133.472 135.206 133.001L135.415 133.182L132.24 136.831L132.032 136.649Z" fill="#333333"/>
<path d="M139.069 110.646C139.512 109.751 140.211 109.12 141.166 108.754C142.115 108.385 143.158 108.482 144.295 109.044L141.305 115.095C142.81 115.759 144.049 115.956 145.02 115.686C145.992 115.415 146.682 114.867 147.09 114.041C147.419 113.374 147.523 112.725 147.399 112.095C147.276 111.465 146.989 110.798 146.539 110.093L146.818 109.816C147.496 110.475 148.001 111.333 148.332 112.39C148.667 113.441 148.578 114.484 148.066 115.519C147.476 116.714 146.568 117.415 145.343 117.624C144.121 117.826 142.922 117.637 141.747 117.056C140.47 116.425 139.555 115.502 139.001 114.288C138.447 113.074 138.47 111.86 139.069 110.646ZM139.492 111.543C139.134 112.267 139.181 112.978 139.635 113.676C139.877 114.049 140.237 114.409 140.714 114.755L142.701 110.734C142.031 110.49 141.499 110.377 141.102 110.394C140.39 110.429 139.853 110.812 139.492 111.543Z" fill="#333333"/>
<path d="M143.957 97.8901L144.692 98.1008L144.095 100.185L149.975 101.892C150.493 102.04 150.897 102.108 151.188 102.096C151.705 102.067 152.032 101.814 152.168 101.337C152.238 101.092 152.241 100.864 152.176 100.654C152.113 100.437 151.989 100.176 151.803 99.8726L152.104 99.6713L152.346 99.9839C152.721 100.475 152.951 100.946 153.035 101.398C153.12 101.849 153.109 102.259 153.004 102.627C152.774 103.431 152.26 103.873 151.463 103.954C151.029 104 150.469 103.924 149.781 103.727L143.589 101.953L143.27 103.067C143.24 103.095 143.211 103.116 143.185 103.131C143.161 103.139 143.132 103.138 143.097 103.128C143.029 103.108 142.982 103.08 142.956 103.043C142.925 102.997 142.865 102.873 142.775 102.671C142.521 102.089 142.305 101.662 142.125 101.39C141.94 101.108 141.44 100.434 140.625 99.3681C140.651 99.2796 140.672 99.2304 140.69 99.2207C140.709 99.2042 140.763 99.2086 140.852 99.2339L143.365 99.9541L143.957 97.8901Z" fill="#333333"/>
<path d="M155.037 89.718C155.746 89.8116 156.373 90.1552 156.916 90.7487C157.46 91.3421 157.826 91.9515 158.015 92.5769L157.567 92.7215C157.277 91.997 156.927 91.4791 156.518 91.1678C156.11 90.8495 155.758 90.6708 155.463 90.6319C155.365 90.6189 155.297 90.6422 155.261 90.7017C155.224 90.7612 155.201 90.8261 155.192 90.8964L155.173 91.6121C155.134 91.9072 155.003 92.1651 154.781 92.386C154.552 92.6059 154.255 92.6917 153.89 92.6435C153.609 92.6064 153.348 92.4684 153.108 92.2295C152.868 91.9905 152.778 91.6392 152.84 91.1756C152.898 90.733 153.126 90.3592 153.524 90.0543C153.914 89.7485 154.419 89.6364 155.037 89.718Z" fill="#333333"/>
<path d="M144.386 70.9356C144.224 70.0647 144.312 69.2737 144.648 68.5626C144.976 67.8458 145.408 67.4375 145.945 67.3379C146.175 67.2952 146.406 67.3351 146.637 67.4578C146.862 67.5818 147.006 67.811 147.068 68.1454C147.113 68.3893 147.07 68.6208 146.937 68.8399C146.804 69.0521 146.585 69.2298 146.28 69.373L145.801 69.5915C145.449 69.7507 145.217 69.956 145.105 70.2074C145.001 70.4645 144.985 70.7811 145.054 71.1574C145.202 71.9516 145.675 72.5591 146.474 72.9801C147.265 73.3953 148.235 73.4962 149.384 73.2826C150.436 73.0871 151.325 72.6122 152.049 71.8577C152.773 71.0963 153.039 70.2035 152.849 69.1794C152.715 68.4549 152.358 67.8544 151.779 67.3782C151.448 67.1082 150.949 66.8262 150.282 66.5321L150.405 66.2065C151.315 66.4483 152.054 66.7433 152.623 67.0916C153.714 67.7611 154.362 68.6497 154.567 69.7575C154.769 70.8443 154.519 71.8853 153.818 72.8805C153.116 73.8757 152.031 74.5099 150.561 74.783C149.118 75.0509 147.794 74.825 146.586 74.1052C145.378 73.3855 144.645 72.3289 144.386 70.9356Z" fill="#333333"/>
<path d="M147.249 61.1681C145.948 61.7117 144.678 61.7587 143.438 61.3092C142.189 60.8559 141.292 59.9786 140.748 58.6775C140.208 57.383 140.185 56.1331 140.679 54.928C141.174 53.7229 142.128 52.8253 143.54 52.2353C144.841 51.6916 146.144 51.6309 147.45 52.0531C148.755 52.4754 149.681 53.3403 150.227 54.6479C150.752 55.9033 150.735 57.1583 150.176 58.4131C149.618 59.6678 148.642 60.5862 147.249 61.1681ZM141.452 58.7063C141.667 59.2228 142.025 59.5996 142.523 59.8368C143.391 60.242 144.554 60.14 146.012 59.5308C147.176 59.0445 148.152 58.3295 148.94 57.3857C149.726 56.4355 149.924 55.4928 149.533 54.5579C149.227 53.8256 148.655 53.404 147.818 53.2931C146.978 53.1756 146.012 53.345 144.92 53.8013C143.789 54.2739 142.828 54.9709 142.038 55.8923C141.248 56.8137 141.053 57.7517 141.452 58.7063Z" fill="#333333"/>
<path d="M144.902 45.158C144.559 44.7836 144.256 44.5685 143.991 44.5125C143.716 44.4549 143.313 44.6139 142.78 44.9897L138.376 48.0957C138.006 48.3571 137.769 48.5756 137.668 48.7513C137.525 49.0165 137.575 49.3199 137.816 49.6616C137.852 49.7137 137.894 49.7667 137.941 49.8205C137.983 49.8685 138.039 49.929 138.108 50.0019L137.804 50.2163C137.567 50.0279 136.991 49.5928 136.077 48.9111L135.232 48.2846C135.203 48.244 135.201 48.2106 135.226 48.1844C135.247 48.1524 135.283 48.1181 135.335 48.0813L136.612 47.1807C135.738 46.9992 135.103 46.8233 134.705 46.6529C134.103 46.4014 133.63 46.0324 133.287 45.546C133.009 45.1522 132.869 44.7136 132.866 44.23C132.865 43.2943 133.429 42.4282 134.558 41.6317L138.615 38.7707C139.031 38.4767 139.273 38.1803 139.34 37.8817C139.407 37.5831 139.304 37.2349 139.033 36.837L139.276 36.6655L141.892 40.3743L141.649 40.5459C141.292 40.164 140.968 39.9504 140.676 39.905C140.378 39.8636 139.934 40.0513 139.343 40.4679L135.635 43.0838C135.137 43.435 134.791 43.8177 134.597 44.2317C134.398 44.6498 134.474 45.1078 134.825 45.6058C135.066 45.9474 135.427 46.2132 135.908 46.403C136.18 46.506 136.579 46.6056 137.107 46.7018L141.971 43.2711C142.388 42.977 142.603 42.6863 142.617 42.3989C142.626 42.1155 142.495 41.77 142.224 41.3623L142.468 41.1908L145.145 44.9864L144.902 45.158Z" fill="#333333"/>
<path d="M132.621 34.3709L132.365 34.1316C132.797 33.4298 133.059 32.8266 133.152 32.3221C133.331 31.4034 133.07 30.6178 132.371 29.9651C131.983 29.6026 131.578 29.4235 131.157 29.4281C130.726 29.4329 130.351 29.6063 130.032 29.9482C129.829 30.1658 129.698 30.4361 129.639 30.759C129.58 31.0819 129.624 31.4915 129.771 31.9877L130.178 33.2972C130.496 34.2338 130.643 35.0158 130.62 35.6433C130.596 36.2708 130.365 36.8203 129.925 37.2917C129.383 37.872 128.731 38.1552 127.969 38.1415C127.206 38.1277 126.511 37.8283 125.885 37.2434C125.61 36.9871 125.358 36.6549 125.128 36.2468C124.893 35.8337 124.755 35.6079 124.714 35.5692C124.62 35.4822 124.541 35.4323 124.475 35.4195C124.41 35.4068 124.335 35.4144 124.251 35.4423L124.064 35.2683L126.033 33.0495L126.274 33.2743C125.908 33.8735 125.683 34.3951 125.598 34.8393C125.436 35.6571 125.658 36.3488 126.264 36.9144C126.627 37.2528 127.016 37.4073 127.431 37.3779C127.846 37.3485 128.194 37.1836 128.474 36.8831C128.919 36.4065 128.958 35.6481 128.591 34.608L128.08 33.099C127.537 31.4683 127.638 30.2541 128.383 29.4563C128.953 28.8449 129.65 28.5602 130.474 28.6019C131.292 28.6388 132.072 29.0029 132.813 29.6942C133.124 29.9843 133.428 30.3648 133.725 30.8358C134.022 31.3069 134.207 31.5762 134.279 31.6439C134.341 31.7019 134.417 31.7294 134.508 31.7262C134.593 31.7283 134.677 31.7103 134.761 31.6724L134.963 31.8609L132.621 34.3709Z" fill="#333333"/>
<path d="M46.4468 20.0344C45.9298 20.4355 45.6281 20.7651 45.5417 21.0232C45.4591 21.2873 45.5715 21.6576 45.8789 22.1339L48.478 26.1617C48.8584 26.7511 49.1858 27.1344 49.4603 27.3115C49.7327 27.4983 50.0147 27.4976 50.3065 27.3094C50.366 27.271 50.4406 27.2102 50.5303 27.127C50.6179 27.0536 50.7076 26.9704 50.7994 26.8774L50.9896 27.1722C50.727 27.5102 50.4575 27.8571 50.181 28.2126C49.9044 28.5682 49.7149 28.8169 49.6126 28.9589C49.3879 29.2641 49.1639 29.59 48.9405 29.9365C48.8988 29.9634 48.8654 29.9639 48.8402 29.9379C48.8091 29.9159 48.7628 29.8572 48.7014 29.7619L47.7562 28.2973C47.7171 29.073 47.618 29.7231 47.4588 30.2475C47.2936 30.7757 47.0206 31.1628 46.6395 31.4087C46.3358 31.6046 46.0292 31.6718 45.7196 31.6102C45.4138 31.5545 45.1725 31.3897 44.9958 31.1158C44.8383 30.8717 44.7801 30.6183 44.8214 30.3555C44.8567 30.0966 44.9845 29.8961 45.2048 29.7539C45.4311 29.6079 45.7276 29.5642 46.0942 29.6227C46.4549 29.6851 46.7008 29.674 46.8318 29.5895C47.0402 29.4551 47.1867 29.1202 47.2714 28.5848C47.3598 28.0555 47.2888 27.6122 47.0583 27.2549L44.4592 23.2271C44.1288 22.7151 43.7792 22.4347 43.4104 22.3859C43.0454 22.3431 42.5899 22.5063 42.0439 22.8755L41.8537 22.5808L46.2567 19.7396L46.4468 20.0344Z" fill="#333333"/>
<path d="M82.3328 53.7112C82.4267 52.7629 83.5733 52.7629 83.6672 53.7112L84.4537 61.6661C85.4694 71.9381 92.2183 80.0367 100.778 81.2555L107.407 82.1994C108.198 82.312 108.198 83.688 107.407 83.8006L100.778 84.7445C92.2183 85.9633 85.4694 94.0619 84.4537 104.334L83.6672 112.289C83.5733 113.237 82.4267 113.237 82.3328 112.289L81.5463 104.334C80.5306 94.0619 73.7817 85.9633 65.2218 84.7445L58.5927 83.8006C57.8024 83.688 57.8024 82.312 58.5927 82.1994L65.2218 81.2555C73.7817 80.0367 80.5306 71.9381 81.5463 61.6661L82.3328 53.7112Z" fill="#333333"/>
</svg>
