<svg width="110" height="120" viewBox="0 0 110 120" fill="none" xmlns="http://www.w3.org/2000/svg">
<path d="M15.984 26H12.624L5.016 14.504V26H1.656V9.224H5.016L12.624 20.744V9.224H15.984V26ZM25.2084 26.216C23.9284 26.216 22.7764 25.936 21.7524 25.376C20.7284 24.8 19.9204 23.992 19.3284 22.952C18.7524 21.912 18.4644 20.712 18.4644 19.352C18.4644 17.992 18.7604 16.792 19.3524 15.752C19.9604 14.712 20.7844 13.912 21.8244 13.352C22.8644 12.776 24.0244 12.488 25.3044 12.488C26.5844 12.488 27.7444 12.776 28.7844 13.352C29.8244 13.912 30.6404 14.712 31.2324 15.752C31.8404 16.792 32.1444 17.992 32.1444 19.352C32.1444 20.712 31.8324 21.912 31.2084 22.952C30.6004 23.992 29.7684 24.8 28.7124 25.376C27.6724 25.936 26.5044 26.216 25.2084 26.216ZM25.2084 23.288C25.8164 23.288 26.3844 23.144 26.9124 22.856C27.4564 22.552 27.8884 22.104 28.2084 21.512C28.5284 20.92 28.6884 20.2 28.6884 19.352C28.6884 18.088 28.3524 17.12 27.6804 16.448C27.0244 15.76 26.2164 15.416 25.2564 15.416C24.2964 15.416 23.4884 15.76 22.8324 16.448C22.1924 17.12 21.8724 18.088 21.8724 19.352C21.8724 20.616 22.1844 21.592 22.8084 22.28C23.4484 22.952 24.2484 23.288 25.2084 23.288ZM36.0971 26.168C35.4891 26.168 34.9851 25.984 34.5851 25.616C34.2011 25.232 34.0091 24.76 34.0091 24.2C34.0091 23.64 34.2011 23.176 34.5851 22.808C34.9851 22.424 35.4891 22.232 36.0971 22.232C36.6891 22.232 37.1771 22.424 37.5611 22.808C37.9451 23.176 38.1371 23.64 38.1371 24.2C38.1371 24.76 37.9451 25.232 37.5611 25.616C37.1771 25.984 36.6891 26.168 36.0971 26.168ZM40.0515 11.6V8.504H45.8355V26H42.3795V11.6H40.0515Z" fill="white"/>
<rect y="52" width="38" height="4" fill="white"/>
<path d="M2.688 88.816H6.592V90H1.232V78.848H2.688V88.816ZM11.9623 90.144C11.1409 90.144 10.3943 89.9573 9.72225 89.584C9.06092 89.2107 8.53825 88.6827 8.15425 88C7.78092 87.3067 7.59425 86.5067 7.59425 85.6C7.59425 84.704 7.78625 83.9147 8.17025 83.232C8.56492 82.5387 9.09825 82.0107 9.77025 81.648C10.4423 81.2747 11.1943 81.088 12.0263 81.088C12.8583 81.088 13.6103 81.2747 14.2823 81.648C14.9543 82.0107 15.4823 82.5333 15.8663 83.216C16.2609 83.8987 16.4583 84.6933 16.4583 85.6C16.4583 86.5067 16.2556 87.3067 15.8503 88C15.4556 88.6827 14.9169 89.2107 14.2343 89.584C13.5516 89.9573 12.7943 90.144 11.9623 90.144ZM11.9623 88.864C12.4849 88.864 12.9756 88.7413 13.4343 88.496C13.8929 88.2507 14.2609 87.8827 14.5383 87.392C14.8263 86.9013 14.9703 86.304 14.9703 85.6C14.9703 84.896 14.8316 84.2987 14.5543 83.808C14.2769 83.3173 13.9143 82.9547 13.4663 82.72C13.0183 82.4747 12.5329 82.352 12.0103 82.352C11.4769 82.352 10.9863 82.4747 10.5383 82.72C10.1009 82.9547 9.74892 83.3173 9.48225 83.808C9.21558 84.2987 9.08225 84.896 9.08225 85.6C9.08225 86.3147 9.21025 86.9173 9.46625 87.408C9.73292 87.8987 10.0849 88.2667 10.5223 88.512C10.9596 88.7467 11.4396 88.864 11.9623 88.864ZM19.8286 82.656C20.0846 82.1547 20.4473 81.7653 20.9166 81.488C21.3966 81.2107 21.978 81.072 22.6606 81.072V82.576H22.2766C20.6446 82.576 19.8286 83.4613 19.8286 85.232V90H18.3726V81.232H19.8286V82.656ZM32.3414 85.28C32.3414 85.5573 32.3254 85.8507 32.2934 86.16H25.2854C25.3387 87.024 25.632 87.7013 26.1654 88.192C26.7094 88.672 27.3654 88.912 28.1334 88.912C28.7627 88.912 29.2854 88.768 29.7014 88.48C30.128 88.1813 30.4267 87.7867 30.5974 87.296H32.1654C31.9307 88.1387 31.4614 88.8267 30.7574 89.36C30.0534 89.8827 29.1787 90.144 28.1334 90.144C27.3014 90.144 26.5547 89.9573 25.8934 89.584C25.2427 89.2107 24.7307 88.6827 24.3574 88C23.984 87.3067 23.7974 86.5067 23.7974 85.6C23.7974 84.6933 23.9787 83.8987 24.3414 83.216C24.704 82.5333 25.2107 82.0107 25.8614 81.648C26.5227 81.2747 27.28 81.088 28.1334 81.088C28.9654 81.088 29.7014 81.2693 30.3414 81.632C30.9814 81.9947 31.472 82.496 31.8134 83.136C32.1654 83.7653 32.3414 84.48 32.3414 85.28ZM30.8374 84.976C30.8374 84.4213 30.7147 83.9467 30.4694 83.552C30.224 83.1467 29.888 82.8427 29.4614 82.64C29.0454 82.4267 28.5814 82.32 28.0694 82.32C27.3334 82.32 26.704 82.5547 26.1814 83.024C25.6694 83.4933 25.376 84.144 25.3014 84.976H30.8374ZM44.8073 81.072C45.4899 81.072 46.0979 81.216 46.6313 81.504C47.1646 81.7813 47.5859 82.2027 47.8953 82.768C48.2046 83.3333 48.3593 84.0213 48.3593 84.832V90H46.9193V85.04C46.9193 84.1653 46.7006 83.4987 46.2633 83.04C45.8366 82.5707 45.2553 82.336 44.5193 82.336C43.7619 82.336 43.1593 82.5813 42.7113 83.072C42.2633 83.552 42.0393 84.2507 42.0393 85.168V90H40.5993V85.04C40.5993 84.1653 40.3806 83.4987 39.9433 83.04C39.5166 82.5707 38.9353 82.336 38.1993 82.336C37.4419 82.336 36.8393 82.5813 36.3913 83.072C35.9433 83.552 35.7193 84.2507 35.7193 85.168V90H34.2633V81.232H35.7193V82.496C36.0073 82.0373 36.3913 81.6853 36.8713 81.44C37.3619 81.1947 37.9006 81.072 38.4873 81.072C39.2233 81.072 39.8739 81.2373 40.4393 81.568C41.0046 81.8987 41.4259 82.384 41.7033 83.024C41.9486 82.4053 42.3539 81.9253 42.9193 81.584C43.4846 81.2427 44.1139 81.072 44.8073 81.072ZM55.7653 79.808C55.4879 79.808 55.2533 79.712 55.0613 79.52C54.8693 79.328 54.7733 79.0933 54.7733 78.816C54.7733 78.5387 54.8693 78.304 55.0613 78.112C55.2533 77.92 55.4879 77.824 55.7653 77.824C56.0319 77.824 56.2559 77.92 56.4373 78.112C56.6293 78.304 56.7253 78.5387 56.7253 78.816C56.7253 79.0933 56.6293 79.328 56.4373 79.52C56.2559 79.712 56.0319 79.808 55.7653 79.808ZM56.4693 81.232V90H55.0133V81.232H56.4693ZM60.4068 82.848C60.6948 82.3467 61.1214 81.9307 61.6868 81.6C62.2628 81.2587 62.9294 81.088 63.6868 81.088C64.4654 81.088 65.1694 81.2747 65.7987 81.648C66.4387 82.0213 66.9401 82.5493 67.3028 83.232C67.6654 83.904 67.8468 84.688 67.8468 85.584C67.8468 86.4693 67.6654 87.2587 67.3028 87.952C66.9401 88.6453 66.4387 89.184 65.7987 89.568C65.1694 89.952 64.4654 90.144 63.6868 90.144C62.9401 90.144 62.2788 89.9787 61.7028 89.648C61.1374 89.3067 60.7054 88.8853 60.4068 88.384V94.16H58.9508V81.232H60.4068V82.848ZM66.3588 85.584C66.3588 84.9227 66.2254 84.3467 65.9588 83.856C65.6921 83.3653 65.3294 82.992 64.8708 82.736C64.4228 82.48 63.9268 82.352 63.3828 82.352C62.8494 82.352 62.3534 82.4853 61.8948 82.752C61.4468 83.008 61.0841 83.3867 60.8068 83.888C60.5401 84.3787 60.4068 84.9493 60.4068 85.6C60.4068 86.2613 60.5401 86.8427 60.8068 87.344C61.0841 87.8347 61.4468 88.2133 61.8948 88.48C62.3534 88.736 62.8494 88.864 63.3828 88.864C63.9268 88.864 64.4228 88.736 64.8708 88.48C65.3294 88.2133 65.6921 87.8347 65.9588 87.344C66.2254 86.8427 66.3588 86.256 66.3588 85.584ZM72.8673 90.144C72.1953 90.144 71.5926 90.032 71.0593 89.808C70.5259 89.5733 70.1046 89.2533 69.7953 88.848C69.4859 88.432 69.3153 87.9573 69.2833 87.424H70.7873C70.8299 87.8613 71.0326 88.2187 71.3953 88.496C71.7686 88.7733 72.2539 88.912 72.8513 88.912C73.4059 88.912 73.8433 88.7893 74.1633 88.544C74.4833 88.2987 74.6433 87.9893 74.6433 87.616C74.6433 87.232 74.4726 86.9493 74.1313 86.768C73.7899 86.576 73.2619 86.3893 72.5473 86.208C71.8966 86.0373 71.3633 85.8667 70.9473 85.696C70.5419 85.5147 70.1899 85.2533 69.8913 84.912C69.6033 84.56 69.4593 84.1013 69.4593 83.536C69.4593 83.088 69.5926 82.6773 69.8593 82.304C70.1259 81.9307 70.5046 81.6373 70.9953 81.424C71.4859 81.2 72.0459 81.088 72.6753 81.088C73.6459 81.088 74.4299 81.3333 75.0273 81.824C75.6246 82.3147 75.9446 82.9867 75.9873 83.84H74.5313C74.4993 83.3813 74.3126 83.0133 73.9713 82.736C73.6406 82.4587 73.1926 82.32 72.6273 82.32C72.1046 82.32 71.6886 82.432 71.3793 82.656C71.0699 82.88 70.9153 83.1733 70.9153 83.536C70.9153 83.824 71.0059 84.064 71.1873 84.256C71.3793 84.4373 71.6139 84.5867 71.8913 84.704C72.1793 84.8107 72.5739 84.9333 73.0753 85.072C73.7046 85.2427 74.2166 85.4133 74.6113 85.584C75.0059 85.744 75.3419 85.9893 75.6193 86.32C75.9073 86.6507 76.0566 87.0827 76.0673 87.616C76.0673 88.096 75.9339 88.528 75.6673 88.912C75.4006 89.296 75.0219 89.6 74.5313 89.824C74.0513 90.0373 73.4966 90.144 72.8673 90.144ZM85.8986 81.232V90H84.4426V88.704C84.1653 89.152 83.776 89.504 83.2746 89.76C82.784 90.0053 82.24 90.128 81.6426 90.128C80.96 90.128 80.3466 89.9893 79.8026 89.712C79.2586 89.424 78.8266 88.9973 78.5066 88.432C78.1973 87.8667 78.0426 87.1787 78.0426 86.368V81.232H79.4826V86.176C79.4826 87.04 79.7013 87.7067 80.1386 88.176C80.576 88.6347 81.1733 88.864 81.9306 88.864C82.7093 88.864 83.3226 88.624 83.7706 88.144C84.2186 87.664 84.4426 86.9653 84.4426 86.048V81.232H85.8986ZM98.901 81.072C99.5837 81.072 100.192 81.216 100.725 81.504C101.258 81.7813 101.68 82.2027 101.989 82.768C102.298 83.3333 102.453 84.0213 102.453 84.832V90H101.013V85.04C101.013 84.1653 100.794 83.4987 100.357 83.04C99.9303 82.5707 99.349 82.336 98.613 82.336C97.8557 82.336 97.253 82.5813 96.805 83.072C96.357 83.552 96.133 84.2507 96.133 85.168V90H94.693V85.04C94.693 84.1653 94.4743 83.4987 94.037 83.04C93.6103 82.5707 93.029 82.336 92.293 82.336C91.5357 82.336 90.933 82.5813 90.485 83.072C90.037 83.552 89.813 84.2507 89.813 85.168V90H88.357V81.232H89.813V82.496C90.101 82.0373 90.485 81.6853 90.965 81.44C91.4557 81.1947 91.9943 81.072 92.581 81.072C93.317 81.072 93.9677 81.2373 94.533 81.568C95.0983 81.8987 95.5197 82.384 95.797 83.024C96.0423 82.4053 96.4477 81.9253 97.013 81.584C97.5783 81.2427 98.2077 81.072 98.901 81.072ZM0.688 109.584C0.688 108.688 0.869333 107.904 1.232 107.232C1.59467 106.549 2.09067 106.021 2.72 105.648C3.36 105.275 4.07467 105.088 4.864 105.088C5.54667 105.088 6.18133 105.248 6.768 105.568C7.35467 105.877 7.80267 106.288 8.112 106.8V102.16H9.584V114H8.112V112.352C7.824 112.875 7.39733 113.307 6.832 113.648C6.26667 113.979 5.60533 114.144 4.848 114.144C4.06933 114.144 3.36 113.952 2.72 113.568C2.09067 113.184 1.59467 112.645 1.232 111.952C0.869333 111.259 0.688 110.469 0.688 109.584ZM8.112 109.6C8.112 108.939 7.97867 108.363 7.712 107.872C7.44533 107.381 7.08267 107.008 6.624 106.752C6.176 106.485 5.68 106.352 5.136 106.352C4.592 106.352 4.096 106.48 3.648 106.736C3.2 106.992 2.84267 107.365 2.576 107.856C2.30933 108.347 2.176 108.923 2.176 109.584C2.176 110.256 2.30933 110.843 2.576 111.344C2.84267 111.835 3.2 112.213 3.648 112.48C4.096 112.736 4.592 112.864 5.136 112.864C5.68 112.864 6.176 112.736 6.624 112.48C7.08267 112.213 7.44533 111.835 7.712 111.344C7.97867 110.843 8.112 110.261 8.112 109.6ZM15.8685 114.144C15.0472 114.144 14.3005 113.957 13.6285 113.584C12.9672 113.211 12.4445 112.683 12.0605 112C11.6872 111.307 11.5005 110.507 11.5005 109.6C11.5005 108.704 11.6925 107.915 12.0765 107.232C12.4712 106.539 13.0045 106.011 13.6765 105.648C14.3485 105.275 15.1005 105.088 15.9325 105.088C16.7645 105.088 17.5165 105.275 18.1885 105.648C18.8605 106.011 19.3885 106.533 19.7725 107.216C20.1672 107.899 20.3645 108.693 20.3645 109.6C20.3645 110.507 20.1618 111.307 19.7565 112C19.3618 112.683 18.8232 113.211 18.1405 113.584C17.4578 113.957 16.7005 114.144 15.8685 114.144ZM15.8685 112.864C16.3912 112.864 16.8818 112.741 17.3405 112.496C17.7992 112.251 18.1672 111.883 18.4445 111.392C18.7325 110.901 18.8765 110.304 18.8765 109.6C18.8765 108.896 18.7378 108.299 18.4605 107.808C18.1832 107.317 17.8205 106.955 17.3725 106.72C16.9245 106.475 16.4392 106.352 15.9165 106.352C15.3832 106.352 14.8925 106.475 14.4445 106.72C14.0072 106.955 13.6552 107.317 13.3885 107.808C13.1218 108.299 12.9885 108.896 12.9885 109.6C12.9885 110.315 13.1165 110.917 13.3725 111.408C13.6392 111.899 13.9912 112.267 14.4285 112.512C14.8658 112.747 15.3458 112.864 15.8685 112.864ZM23.7349 102.16V114H22.2789V102.16H23.7349ZM30.0404 114.144C29.219 114.144 28.4724 113.957 27.8004 113.584C27.139 113.211 26.6164 112.683 26.2324 112C25.859 111.307 25.6724 110.507 25.6724 109.6C25.6724 108.704 25.8644 107.915 26.2484 107.232C26.643 106.539 27.1764 106.011 27.8484 105.648C28.5204 105.275 29.2724 105.088 30.1044 105.088C30.9364 105.088 31.6884 105.275 32.3604 105.648C33.0324 106.011 33.5604 106.533 33.9444 107.216C34.339 107.899 34.5364 108.693 34.5364 109.6C34.5364 110.507 34.3337 111.307 33.9284 112C33.5337 112.683 32.995 113.211 32.3124 113.584C31.6297 113.957 30.8724 114.144 30.0404 114.144ZM30.0404 112.864C30.563 112.864 31.0537 112.741 31.5124 112.496C31.971 112.251 32.339 111.883 32.6164 111.392C32.9044 110.901 33.0484 110.304 33.0484 109.6C33.0484 108.896 32.9097 108.299 32.6324 107.808C32.355 107.317 31.9924 106.955 31.5444 106.72C31.0964 106.475 30.611 106.352 30.0884 106.352C29.555 106.352 29.0644 106.475 28.6164 106.72C28.179 106.955 27.827 107.317 27.5604 107.808C27.2937 108.299 27.1604 108.896 27.1604 109.6C27.1604 110.315 27.2884 110.917 27.5444 111.408C27.811 111.899 28.163 112.267 28.6004 112.512C29.0377 112.747 29.5177 112.864 30.0404 112.864ZM37.9068 106.656C38.1628 106.155 38.5254 105.765 38.9948 105.488C39.4748 105.211 40.0561 105.072 40.7388 105.072V106.576H40.3548C38.7228 106.576 37.9068 107.461 37.9068 109.232V114H36.4508V105.232H37.9068V106.656ZM46.1411 109.584C46.1411 108.688 46.3225 107.904 46.6851 107.232C47.0478 106.549 47.5438 106.021 48.1731 105.648C48.8131 105.275 49.5225 105.088 50.3011 105.088C51.0691 105.088 51.7358 105.253 52.3011 105.584C52.8665 105.915 53.2878 106.331 53.5651 106.832V105.232H55.0371V114H53.5651V112.368C53.2771 112.88 52.8451 113.307 52.2691 113.648C51.7038 113.979 51.0425 114.144 50.2851 114.144C49.5065 114.144 48.8025 113.952 48.1731 113.568C47.5438 113.184 47.0478 112.645 46.6851 111.952C46.3225 111.259 46.1411 110.469 46.1411 109.584ZM53.5651 109.6C53.5651 108.939 53.4318 108.363 53.1651 107.872C52.8985 107.381 52.5358 107.008 52.0771 106.752C51.6291 106.485 51.1331 106.352 50.5891 106.352C50.0451 106.352 49.5491 106.48 49.1011 106.736C48.6531 106.992 48.2958 107.365 48.0291 107.856C47.7625 108.347 47.6291 108.923 47.6291 109.584C47.6291 110.256 47.7625 110.843 48.0291 111.344C48.2958 111.835 48.6531 112.213 49.1011 112.48C49.5491 112.736 50.0451 112.864 50.5891 112.864C51.1331 112.864 51.6291 112.736 52.0771 112.48C52.5358 112.213 52.8985 111.835 53.1651 111.344C53.4318 110.843 53.5651 110.261 53.5651 109.6ZM68.0416 105.072C68.7243 105.072 69.3323 105.216 69.8656 105.504C70.399 105.781 70.8203 106.203 71.1296 106.768C71.439 107.333 71.5936 108.021 71.5936 108.832V114H70.1536V109.04C70.1536 108.165 69.935 107.499 69.4976 107.04C69.071 106.571 68.4896 106.336 67.7536 106.336C66.9963 106.336 66.3936 106.581 65.9456 107.072C65.4976 107.552 65.2736 108.251 65.2736 109.168V114H63.8336V109.04C63.8336 108.165 63.615 107.499 63.1776 107.04C62.751 106.571 62.1696 106.336 61.4336 106.336C60.6763 106.336 60.0736 106.581 59.6256 107.072C59.1776 107.552 58.9536 108.251 58.9536 109.168V114H57.4976V105.232H58.9536V106.496C59.2416 106.037 59.6256 105.685 60.1056 105.44C60.5963 105.195 61.135 105.072 61.7216 105.072C62.4576 105.072 63.1083 105.237 63.6736 105.568C64.239 105.899 64.6603 106.384 64.9376 107.024C65.183 106.405 65.5883 105.925 66.1536 105.584C66.719 105.243 67.3483 105.072 68.0416 105.072ZM81.982 109.28C81.982 109.557 81.966 109.851 81.934 110.16H74.926C74.9793 111.024 75.2727 111.701 75.806 112.192C76.35 112.672 77.006 112.912 77.774 112.912C78.4033 112.912 78.926 112.768 79.342 112.48C79.7687 112.181 80.0673 111.787 80.238 111.296H81.806C81.5713 112.139 81.102 112.827 80.398 113.36C79.694 113.883 78.8193 114.144 77.774 114.144C76.942 114.144 76.1953 113.957 75.534 113.584C74.8833 113.211 74.3713 112.683 73.998 112C73.6247 111.307 73.438 110.507 73.438 109.6C73.438 108.693 73.6193 107.899 73.982 107.216C74.3447 106.533 74.8513 106.011 75.502 105.648C76.1633 105.275 76.9207 105.088 77.774 105.088C78.606 105.088 79.342 105.269 79.982 105.632C80.622 105.995 81.1127 106.496 81.454 107.136C81.806 107.765 81.982 108.48 81.982 109.28ZM80.478 108.976C80.478 108.421 80.3553 107.947 80.11 107.552C79.8647 107.147 79.5287 106.843 79.102 106.64C78.686 106.427 78.222 106.32 77.71 106.32C76.974 106.32 76.3447 106.555 75.822 107.024C75.31 107.493 75.0167 108.144 74.942 108.976H80.478ZM85.6799 106.432V111.6C85.6799 112.027 85.7705 112.331 85.9519 112.512C86.1332 112.683 86.4479 112.768 86.8959 112.768H87.9679V114H86.6559C85.8452 114 85.2372 113.813 84.8319 113.44C84.4265 113.067 84.2239 112.453 84.2239 111.6V106.432H83.0879V105.232H84.2239V103.024H85.6799V105.232H87.9679V106.432H85.6799Z" fill="white"/>
</svg>
