<svg width="224" height="194" viewBox="0 0 224 194" fill="none" xmlns="http://www.w3.org/2000/svg">
<g filter="url(#filter0_b_832_1489)">
<rect width="224" height="194" rx="32" fill="url(#paint0_linear_832_1489)" fill-opacity="0.5"/>
<rect x="1" y="1" width="222" height="192" rx="31" stroke="white" stroke-width="2"/>
<circle cx="40" cy="48" r="24" fill="#8AB2DC" fill-opacity="0.35"/>
<g clip-path="url(#clip0_832_1489)">
<path d="M40 57.35L38.55 56.03C33.4 51.36 30 48.28 30 44.5C30 41.42 32.42 39 35.5 39C37.24 39 38.91 39.81 40 41.09C41.09 39.81 42.76 39 44.5 39C47.58 39 50 41.42 50 44.5C50 48.28 46.6 51.36 41.45 56.04L40 57.35Z" fill="#8AB2DC"/>
</g>
<path d="M23.856 120.304V121H17.672V109.68H18.496V120.304H23.856ZM27.7765 112.912C28.3472 112.912 28.8565 113.011 29.3045 113.208C29.7578 113.4 30.1392 113.675 30.4485 114.032C30.7578 114.389 30.9925 114.821 31.1525 115.328C31.3178 115.829 31.4005 116.392 31.4005 117.016C31.4005 117.64 31.3178 118.203 31.1525 118.704C30.9925 119.205 30.7578 119.635 30.4485 119.992C30.1392 120.349 29.7578 120.624 29.3045 120.816C28.8565 121.008 28.3472 121.104 27.7765 121.104C27.2058 121.104 26.6938 121.008 26.2405 120.816C25.7925 120.624 25.4112 120.349 25.0965 119.992C24.7872 119.635 24.5498 119.205 24.3845 118.704C24.2245 118.203 24.1445 117.64 24.1445 117.016C24.1445 116.392 24.2245 115.829 24.3845 115.328C24.5498 114.821 24.7872 114.389 25.0965 114.032C25.4112 113.675 25.7925 113.4 26.2405 113.208C26.6938 113.011 27.2058 112.912 27.7765 112.912ZM27.7765 120.504C28.2512 120.504 28.6645 120.424 29.0165 120.264C29.3738 120.099 29.6698 119.864 29.9045 119.56C30.1445 119.256 30.3232 118.891 30.4405 118.464C30.5578 118.032 30.6165 117.549 30.6165 117.016C30.6165 116.488 30.5578 116.008 30.4405 115.576C30.3232 115.144 30.1445 114.776 29.9045 114.472C29.6698 114.163 29.3738 113.925 29.0165 113.76C28.6645 113.595 28.2512 113.512 27.7765 113.512C27.3018 113.512 26.8858 113.595 26.5285 113.76C26.1765 113.925 25.8805 114.163 25.6405 114.472C25.4058 114.776 25.2272 115.144 25.1045 115.576C24.9872 116.008 24.9285 116.488 24.9285 117.016C24.9285 117.549 24.9872 118.032 25.1045 118.464C25.2272 118.891 25.4058 119.256 25.6405 119.56C25.8805 119.864 26.1765 120.099 26.5285 120.264C26.8858 120.424 27.3018 120.504 27.7765 120.504ZM34.2744 114.96C34.397 114.635 34.5357 114.347 34.6904 114.096C34.8504 113.84 35.0317 113.624 35.2344 113.448C35.4424 113.272 35.6717 113.139 35.9224 113.048C36.1784 112.952 36.461 112.904 36.7704 112.904C36.9357 112.904 37.0984 112.92 37.2584 112.952C37.4184 112.979 37.5597 113.029 37.6824 113.104L37.6184 113.632C37.5917 113.717 37.541 113.76 37.4664 113.76C37.4024 113.76 37.3037 113.741 37.1704 113.704C37.0424 113.667 36.8717 113.648 36.6584 113.648C36.349 113.648 36.0744 113.696 35.8344 113.792C35.5997 113.883 35.3864 114.021 35.1944 114.208C35.0077 114.395 34.8424 114.627 34.6984 114.904C34.5597 115.176 34.4317 115.491 34.3144 115.848V121H33.5464V113.04H33.9544C34.045 113.04 34.109 113.059 34.1464 113.096C34.1837 113.133 34.2077 113.197 34.2184 113.288L34.2744 114.96ZM44.3335 116.216C44.3335 115.789 44.2722 115.408 44.1495 115.072C44.0322 114.731 43.8642 114.443 43.6455 114.208C43.4268 113.973 43.1655 113.795 42.8615 113.672C42.5628 113.544 42.2322 113.48 41.8695 113.48C41.4588 113.48 41.0908 113.544 40.7655 113.672C40.4402 113.8 40.1575 113.984 39.9175 114.224C39.6828 114.464 39.4935 114.752 39.3495 115.088C39.2055 115.424 39.1095 115.8 39.0615 116.216H44.3335ZM39.0215 116.704V116.856C39.0215 117.453 39.0908 117.979 39.2295 118.432C39.3682 118.885 39.5655 119.267 39.8215 119.576C40.0775 119.88 40.3868 120.109 40.7495 120.264C41.1122 120.419 41.5175 120.496 41.9655 120.496C42.3655 120.496 42.7122 120.453 43.0055 120.368C43.2988 120.277 43.5442 120.179 43.7415 120.072C43.9442 119.96 44.1042 119.861 44.2215 119.776C44.3388 119.685 44.4242 119.64 44.4775 119.64C44.5468 119.64 44.6002 119.667 44.6375 119.72L44.8455 119.976C44.7175 120.136 44.5468 120.285 44.3335 120.424C44.1255 120.563 43.8908 120.683 43.6295 120.784C43.3735 120.88 43.0962 120.957 42.7975 121.016C42.5042 121.075 42.2082 121.104 41.9095 121.104C41.3655 121.104 40.8695 121.011 40.4215 120.824C39.9735 120.632 39.5895 120.355 39.2695 119.992C38.9495 119.629 38.7015 119.187 38.5255 118.664C38.3548 118.136 38.2695 117.533 38.2695 116.856C38.2695 116.285 38.3495 115.76 38.5095 115.28C38.6748 114.795 38.9095 114.379 39.2135 114.032C39.5228 113.68 39.8988 113.405 40.3415 113.208C40.7895 113.011 41.2962 112.912 41.8615 112.912C42.3095 112.912 42.7255 112.989 43.1095 113.144C43.4935 113.299 43.8268 113.525 44.1095 113.824C44.3922 114.117 44.6135 114.48 44.7735 114.912C44.9388 115.344 45.0215 115.84 45.0215 116.4C45.0215 116.517 45.0055 116.597 44.9735 116.64C44.9415 116.683 44.8882 116.704 44.8135 116.704H39.0215ZM47.0933 121V113.04H47.5173C47.6506 113.04 47.7279 113.107 47.7493 113.24L47.8213 114.392C48.1306 113.949 48.4853 113.592 48.8853 113.32C49.2853 113.048 49.7359 112.912 50.2373 112.912C50.8186 112.912 51.2826 113.08 51.6293 113.416C51.9813 113.752 52.2186 114.219 52.3413 114.816C52.4373 114.491 52.5706 114.208 52.7413 113.968C52.9173 113.728 53.1173 113.531 53.3413 113.376C53.5653 113.216 53.8079 113.099 54.0693 113.024C54.3359 112.949 54.6079 112.912 54.8853 112.912C55.2799 112.912 55.6346 112.979 55.9493 113.112C56.2639 113.24 56.5306 113.432 56.7493 113.688C56.9679 113.944 57.1359 114.259 57.2533 114.632C57.3706 115.005 57.4293 115.432 57.4293 115.912V121H56.6693V115.912C56.6693 115.133 56.5013 114.541 56.1653 114.136C55.8293 113.725 55.3493 113.52 54.7253 113.52C54.4479 113.52 54.1813 113.571 53.9253 113.672C53.6746 113.773 53.4506 113.925 53.2533 114.128C53.0613 114.325 52.9066 114.573 52.7893 114.872C52.6773 115.171 52.6213 115.517 52.6213 115.912V121H51.8533V115.912C51.8533 115.139 51.6986 114.547 51.3893 114.136C51.0853 113.725 50.6373 113.52 50.0453 113.52C49.6133 113.52 49.2133 113.648 48.8453 113.904C48.4773 114.16 48.1493 114.515 47.8613 114.968V121H47.0933ZM65.16 113.04V121H64.4V113.04H65.16ZM65.488 110.296C65.488 110.392 65.4667 110.483 65.424 110.568C65.3867 110.648 65.336 110.72 65.272 110.784C65.208 110.848 65.1333 110.899 65.048 110.936C64.9627 110.973 64.872 110.992 64.776 110.992C64.68 110.992 64.5893 110.973 64.504 110.936C64.4187 110.899 64.344 110.848 64.28 110.784C64.216 110.72 64.1653 110.648 64.128 110.568C64.0907 110.483 64.072 110.392 64.072 110.296C64.072 110.2 64.0907 110.109 64.128 110.024C64.1653 109.933 64.216 109.856 64.28 109.792C64.344 109.728 64.4187 109.677 64.504 109.64C64.5893 109.603 64.68 109.584 64.776 109.584C64.872 109.584 64.9627 109.603 65.048 109.64C65.1333 109.677 65.208 109.728 65.272 109.792C65.336 109.856 65.3867 109.933 65.424 110.024C65.4667 110.109 65.488 110.2 65.488 110.296ZM68.6425 119.264C68.7972 119.493 68.9572 119.688 69.1225 119.848C69.2932 120.003 69.4718 120.131 69.6585 120.232C69.8452 120.328 70.0425 120.397 70.2505 120.44C70.4638 120.483 70.6878 120.504 70.9225 120.504C71.3918 120.504 71.8025 120.419 72.1545 120.248C72.5065 120.077 72.7998 119.837 73.0345 119.528C73.2745 119.213 73.4532 118.84 73.5705 118.408C73.6932 117.971 73.7545 117.491 73.7545 116.968C73.7545 115.784 73.5358 114.915 73.0985 114.36C72.6612 113.8 72.0345 113.52 71.2185 113.52C70.6905 113.52 70.2132 113.656 69.7865 113.928C69.3598 114.2 68.9785 114.579 68.6425 115.064V119.264ZM68.6105 114.472C68.9625 113.992 69.3732 113.611 69.8425 113.328C70.3172 113.045 70.8478 112.904 71.4345 112.904C72.4105 112.904 73.1705 113.243 73.7145 113.92C74.2638 114.597 74.5385 115.613 74.5385 116.968C74.5385 117.549 74.4612 118.093 74.3065 118.6C74.1572 119.101 73.9332 119.539 73.6345 119.912C73.3412 120.28 72.9785 120.571 72.5465 120.784C72.1198 120.997 71.6265 121.104 71.0665 121.104C70.5278 121.104 70.0612 121.005 69.6665 120.808C69.2718 120.611 68.9305 120.32 68.6425 119.936V123.816H67.8745V113.04H68.2985C68.4318 113.04 68.5092 113.107 68.5305 113.24L68.6105 114.472ZM81.0786 114.024C81.036 114.099 80.9746 114.136 80.8946 114.136C80.836 114.136 80.7613 114.104 80.6706 114.04C80.58 113.971 80.4573 113.896 80.3026 113.816C80.1533 113.731 79.9666 113.656 79.7426 113.592C79.5186 113.523 79.2466 113.488 78.9266 113.488C78.6386 113.488 78.3746 113.531 78.1346 113.616C77.9 113.696 77.6973 113.805 77.5266 113.944C77.3613 114.083 77.2333 114.245 77.1426 114.432C77.052 114.613 77.0066 114.805 77.0066 115.008C77.0066 115.259 77.0706 115.467 77.1986 115.632C77.3266 115.797 77.492 115.939 77.6946 116.056C77.9026 116.173 78.14 116.275 78.4066 116.36C78.6733 116.445 78.9426 116.531 79.2146 116.616C79.492 116.701 79.764 116.797 80.0306 116.904C80.2973 117.005 80.532 117.133 80.7346 117.288C80.9426 117.443 81.1106 117.632 81.2386 117.856C81.3666 118.08 81.4306 118.352 81.4306 118.672C81.4306 119.019 81.3693 119.341 81.2466 119.64C81.124 119.939 80.9426 120.197 80.7026 120.416C80.468 120.635 80.1773 120.808 79.8306 120.936C79.484 121.064 79.0866 121.128 78.6386 121.128C78.0786 121.128 77.596 121.04 77.1906 120.864C76.7853 120.683 76.4226 120.448 76.1026 120.16L76.2786 119.888C76.3053 119.845 76.3346 119.813 76.3666 119.792C76.404 119.771 76.452 119.76 76.5106 119.76C76.58 119.76 76.6626 119.803 76.7586 119.888C76.86 119.973 76.9933 120.067 77.1586 120.168C77.324 120.264 77.5266 120.355 77.7666 120.44C78.012 120.525 78.3133 120.568 78.6706 120.568C79.0066 120.568 79.3026 120.523 79.5586 120.432C79.8146 120.336 80.028 120.208 80.1986 120.048C80.3693 119.888 80.4973 119.701 80.5826 119.488C80.6733 119.269 80.7186 119.04 80.7186 118.8C80.7186 118.533 80.6546 118.312 80.5266 118.136C80.3986 117.96 80.2306 117.811 80.0226 117.688C79.8146 117.565 79.5773 117.461 79.3106 117.376C79.0493 117.291 78.78 117.205 78.5026 117.12C78.2253 117.035 77.9533 116.941 77.6866 116.84C77.4253 116.739 77.1906 116.611 76.9826 116.456C76.7746 116.301 76.6066 116.115 76.4786 115.896C76.3506 115.672 76.2866 115.395 76.2866 115.064C76.2866 114.781 76.348 114.509 76.4706 114.248C76.5933 113.987 76.7666 113.757 76.9906 113.56C77.22 113.363 77.4973 113.205 77.8226 113.088C78.148 112.971 78.5133 112.912 78.9186 112.912C79.404 112.912 79.8333 112.981 80.2066 113.12C80.5853 113.259 80.9293 113.472 81.2386 113.76L81.0786 114.024ZM89.6755 113.04V121H89.2515C89.1182 121 89.0408 120.931 89.0195 120.792L88.9475 119.608C88.5795 120.067 88.1528 120.435 87.6675 120.712C87.1875 120.989 86.6515 121.128 86.0595 121.128C85.6168 121.128 85.2302 121.059 84.8995 120.92C84.5688 120.781 84.2942 120.581 84.0755 120.32C83.8568 120.059 83.6915 119.744 83.5795 119.376C83.4675 119.008 83.4115 118.592 83.4115 118.128V113.04H84.1795V118.128C84.1795 118.875 84.3502 119.461 84.6915 119.888C85.0328 120.309 85.5528 120.52 86.2515 120.52C86.7688 120.52 87.2515 120.389 87.6995 120.128C88.1528 119.861 88.5555 119.493 88.9075 119.024V113.04H89.6755ZM92.2964 121V113.04H92.7204C92.8537 113.04 92.931 113.107 92.9524 113.24L93.0244 114.392C93.3337 113.949 93.6884 113.592 94.0884 113.32C94.4884 113.048 94.939 112.912 95.4404 112.912C96.0217 112.912 96.4857 113.08 96.8324 113.416C97.1844 113.752 97.4217 114.219 97.5444 114.816C97.6404 114.491 97.7737 114.208 97.9444 113.968C98.1204 113.728 98.3204 113.531 98.5444 113.376C98.7684 113.216 99.011 113.099 99.2724 113.024C99.539 112.949 99.811 112.912 100.088 112.912C100.483 112.912 100.838 112.979 101.152 113.112C101.467 113.24 101.734 113.432 101.952 113.688C102.171 113.944 102.339 114.259 102.456 114.632C102.574 115.005 102.632 115.432 102.632 115.912V121H101.872V115.912C101.872 115.133 101.704 114.541 101.368 114.136C101.032 113.725 100.552 113.52 99.9284 113.52C99.651 113.52 99.3844 113.571 99.1284 113.672C98.8777 113.773 98.6537 113.925 98.4564 114.128C98.2644 114.325 98.1097 114.573 97.9924 114.872C97.8804 115.171 97.8244 115.517 97.8244 115.912V121H97.0564V115.912C97.0564 115.139 96.9017 114.547 96.5924 114.136C96.2884 113.725 95.8404 113.52 95.2484 113.52C94.8164 113.52 94.4164 113.648 94.0484 113.904C93.6804 114.16 93.3524 114.515 93.0644 114.968V121H92.2964ZM114.947 114.752C114.643 114.293 114.304 113.971 113.931 113.784C113.563 113.597 113.142 113.504 112.667 113.504C112.198 113.504 111.787 113.589 111.435 113.76C111.083 113.931 110.787 114.173 110.547 114.488C110.312 114.797 110.134 115.171 110.011 115.608C109.894 116.04 109.835 116.517 109.835 117.04C109.835 118.224 110.051 119.096 110.483 119.656C110.92 120.211 111.55 120.488 112.371 120.488C112.894 120.488 113.371 120.352 113.803 120.08C114.235 119.808 114.616 119.427 114.947 118.936V114.752ZM115.707 109.36V121H115.291C115.152 121 115.072 120.931 115.051 120.792L114.971 119.536C114.619 120.016 114.208 120.397 113.739 120.68C113.27 120.963 112.742 121.104 112.155 121.104C111.174 121.104 110.411 120.765 109.867 120.088C109.323 119.411 109.051 118.395 109.051 117.04C109.051 116.459 109.126 115.917 109.275 115.416C109.43 114.909 109.654 114.472 109.947 114.104C110.24 113.731 110.6 113.437 111.027 113.224C111.459 113.011 111.955 112.904 112.515 112.904C113.054 112.904 113.52 113.003 113.915 113.2C114.31 113.397 114.654 113.691 114.947 114.08V109.36H115.707ZM121.48 112.912C122.05 112.912 122.56 113.011 123.008 113.208C123.461 113.4 123.842 113.675 124.152 114.032C124.461 114.389 124.696 114.821 124.856 115.328C125.021 115.829 125.104 116.392 125.104 117.016C125.104 117.64 125.021 118.203 124.856 118.704C124.696 119.205 124.461 119.635 124.152 119.992C123.842 120.349 123.461 120.624 123.008 120.816C122.56 121.008 122.05 121.104 121.48 121.104C120.909 121.104 120.397 121.008 119.944 120.816C119.496 120.624 119.114 120.349 118.8 119.992C118.49 119.635 118.253 119.205 118.088 118.704C117.928 118.203 117.848 117.64 117.848 117.016C117.848 116.392 117.928 115.829 118.088 115.328C118.253 114.821 118.49 114.389 118.8 114.032C119.114 113.675 119.496 113.4 119.944 113.208C120.397 113.011 120.909 112.912 121.48 112.912ZM121.48 120.504C121.954 120.504 122.368 120.424 122.72 120.264C123.077 120.099 123.373 119.864 123.608 119.56C123.848 119.256 124.026 118.891 124.144 118.464C124.261 118.032 124.32 117.549 124.32 117.016C124.32 116.488 124.261 116.008 124.144 115.576C124.026 115.144 123.848 114.776 123.608 114.472C123.373 114.163 123.077 113.925 122.72 113.76C122.368 113.595 121.954 113.512 121.48 113.512C121.005 113.512 120.589 113.595 120.232 113.76C119.88 113.925 119.584 114.163 119.344 114.472C119.109 114.776 118.93 115.144 118.808 115.576C118.69 116.008 118.632 116.488 118.632 117.016C118.632 117.549 118.69 118.032 118.808 118.464C118.93 118.891 119.109 119.256 119.344 119.56C119.584 119.864 119.88 120.099 120.232 120.264C120.589 120.424 121.005 120.504 121.48 120.504ZM128.09 109.36V121H127.322V109.36H128.09ZM133.933 112.912C134.503 112.912 135.013 113.011 135.461 113.208C135.914 113.4 136.295 113.675 136.605 114.032C136.914 114.389 137.149 114.821 137.309 115.328C137.474 115.829 137.557 116.392 137.557 117.016C137.557 117.64 137.474 118.203 137.309 118.704C137.149 119.205 136.914 119.635 136.605 119.992C136.295 120.349 135.914 120.624 135.461 120.816C135.013 121.008 134.503 121.104 133.933 121.104C133.362 121.104 132.85 121.008 132.397 120.816C131.949 120.624 131.567 120.349 131.253 119.992C130.943 119.635 130.706 119.205 130.541 118.704C130.381 118.203 130.301 117.64 130.301 117.016C130.301 116.392 130.381 115.829 130.541 115.328C130.706 114.821 130.943 114.389 131.253 114.032C131.567 113.675 131.949 113.4 132.397 113.208C132.85 113.011 133.362 112.912 133.933 112.912ZM133.933 120.504C134.407 120.504 134.821 120.424 135.173 120.264C135.53 120.099 135.826 119.864 136.061 119.56C136.301 119.256 136.479 118.891 136.597 118.464C136.714 118.032 136.773 117.549 136.773 117.016C136.773 116.488 136.714 116.008 136.597 115.576C136.479 115.144 136.301 114.776 136.061 114.472C135.826 114.163 135.53 113.925 135.173 113.76C134.821 113.595 134.407 113.512 133.933 113.512C133.458 113.512 133.042 113.595 132.685 113.76C132.333 113.925 132.037 114.163 131.797 114.472C131.562 114.776 131.383 115.144 131.261 115.576C131.143 116.008 131.085 116.488 131.085 117.016C131.085 117.549 131.143 118.032 131.261 118.464C131.383 118.891 131.562 119.256 131.797 119.56C132.037 119.864 132.333 120.099 132.685 120.264C133.042 120.424 133.458 120.504 133.933 120.504ZM140.431 114.96C140.553 114.635 140.692 114.347 140.847 114.096C141.007 113.84 141.188 113.624 141.391 113.448C141.599 113.272 141.828 113.139 142.079 113.048C142.335 112.952 142.617 112.904 142.927 112.904C143.092 112.904 143.255 112.92 143.415 112.952C143.575 112.979 143.716 113.029 143.839 113.104L143.775 113.632C143.748 113.717 143.697 113.76 143.623 113.76C143.559 113.76 143.46 113.741 143.327 113.704C143.199 113.667 143.028 113.648 142.815 113.648C142.505 113.648 142.231 113.696 141.991 113.792C141.756 113.883 141.543 114.021 141.351 114.208C141.164 114.395 140.999 114.627 140.855 114.904C140.716 115.176 140.588 115.491 140.471 115.848V121H139.703V113.04H140.111C140.201 113.04 140.265 113.059 140.303 113.096C140.34 113.133 140.364 113.197 140.375 113.288L140.431 114.96ZM153.735 114.024C153.692 114.099 153.631 114.136 153.551 114.136C153.492 114.136 153.418 114.104 153.327 114.04C153.236 113.971 153.114 113.896 152.959 113.816C152.81 113.731 152.623 113.656 152.399 113.592C152.175 113.523 151.903 113.488 151.583 113.488C151.295 113.488 151.031 113.531 150.791 113.616C150.556 113.696 150.354 113.805 150.183 113.944C150.018 114.083 149.89 114.245 149.799 114.432C149.708 114.613 149.663 114.805 149.663 115.008C149.663 115.259 149.727 115.467 149.855 115.632C149.983 115.797 150.148 115.939 150.351 116.056C150.559 116.173 150.796 116.275 151.063 116.36C151.33 116.445 151.599 116.531 151.871 116.616C152.148 116.701 152.42 116.797 152.687 116.904C152.954 117.005 153.188 117.133 153.391 117.288C153.599 117.443 153.767 117.632 153.895 117.856C154.023 118.08 154.087 118.352 154.087 118.672C154.087 119.019 154.026 119.341 153.903 119.64C153.78 119.939 153.599 120.197 153.359 120.416C153.124 120.635 152.834 120.808 152.487 120.936C152.14 121.064 151.743 121.128 151.295 121.128C150.735 121.128 150.252 121.04 149.847 120.864C149.442 120.683 149.079 120.448 148.759 120.16L148.935 119.888C148.962 119.845 148.991 119.813 149.023 119.792C149.06 119.771 149.108 119.76 149.167 119.76C149.236 119.76 149.319 119.803 149.415 119.888C149.516 119.973 149.65 120.067 149.815 120.168C149.98 120.264 150.183 120.355 150.423 120.44C150.668 120.525 150.97 120.568 151.327 120.568C151.663 120.568 151.959 120.523 152.215 120.432C152.471 120.336 152.684 120.208 152.855 120.048C153.026 119.888 153.154 119.701 153.239 119.488C153.33 119.269 153.375 119.04 153.375 118.8C153.375 118.533 153.311 118.312 153.183 118.136C153.055 117.96 152.887 117.811 152.679 117.688C152.471 117.565 152.234 117.461 151.967 117.376C151.706 117.291 151.436 117.205 151.159 117.12C150.882 117.035 150.61 116.941 150.343 116.84C150.082 116.739 149.847 116.611 149.639 116.456C149.431 116.301 149.263 116.115 149.135 115.896C149.007 115.672 148.943 115.395 148.943 115.064C148.943 114.781 149.004 114.509 149.127 114.248C149.25 113.987 149.423 113.757 149.647 113.56C149.876 113.363 150.154 113.205 150.479 113.088C150.804 112.971 151.17 112.912 151.575 112.912C152.06 112.912 152.49 112.981 152.863 113.12C153.242 113.259 153.586 113.472 153.895 113.76L153.735 114.024ZM157.004 113.04V121H156.244V113.04H157.004ZM157.332 110.296C157.332 110.392 157.31 110.483 157.268 110.568C157.23 110.648 157.18 110.72 157.116 110.784C157.052 110.848 156.977 110.899 156.892 110.936C156.806 110.973 156.716 110.992 156.62 110.992C156.524 110.992 156.433 110.973 156.348 110.936C156.262 110.899 156.188 110.848 156.124 110.784C156.06 110.72 156.009 110.648 155.972 110.568C155.934 110.483 155.916 110.392 155.916 110.296C155.916 110.2 155.934 110.109 155.972 110.024C156.009 109.933 156.06 109.856 156.124 109.792C156.188 109.728 156.262 109.677 156.348 109.64C156.433 109.603 156.524 109.584 156.62 109.584C156.716 109.584 156.806 109.603 156.892 109.64C156.977 109.677 157.052 109.728 157.116 109.792C157.18 109.856 157.23 109.933 157.268 110.024C157.31 110.109 157.332 110.2 157.332 110.296ZM161.894 121.128C161.356 121.128 160.934 120.979 160.63 120.68C160.332 120.381 160.182 119.92 160.182 119.296V113.856H159.038C158.98 113.856 158.932 113.84 158.894 113.808C158.857 113.776 158.838 113.731 158.838 113.672V113.376L160.198 113.28L160.39 110.432C160.401 110.384 160.422 110.341 160.454 110.304C160.486 110.267 160.532 110.248 160.59 110.248H160.95V113.288H163.462V113.856H160.95V119.256C160.95 119.475 160.977 119.664 161.03 119.824C161.089 119.979 161.166 120.107 161.262 120.208C161.364 120.309 161.481 120.384 161.614 120.432C161.748 120.48 161.892 120.504 162.046 120.504C162.238 120.504 162.404 120.477 162.542 120.424C162.681 120.365 162.801 120.304 162.902 120.24C163.004 120.171 163.086 120.109 163.15 120.056C163.214 119.997 163.265 119.968 163.302 119.968C163.345 119.968 163.388 119.995 163.43 120.048L163.638 120.384C163.436 120.608 163.177 120.789 162.862 120.928C162.553 121.061 162.23 121.128 161.894 121.128ZM174.002 117.152C173.245 117.179 172.592 117.24 172.042 117.336C171.498 117.427 171.048 117.552 170.69 117.712C170.338 117.872 170.077 118.064 169.906 118.288C169.736 118.507 169.65 118.757 169.65 119.04C169.65 119.307 169.693 119.539 169.778 119.736C169.869 119.928 169.986 120.088 170.13 120.216C170.28 120.339 170.45 120.429 170.642 120.488C170.834 120.547 171.034 120.576 171.242 120.576C171.552 120.576 171.834 120.544 172.09 120.48C172.352 120.411 172.592 120.317 172.81 120.2C173.034 120.077 173.242 119.933 173.434 119.768C173.626 119.603 173.816 119.424 174.002 119.232V117.152ZM169.322 114.168C169.738 113.752 170.176 113.437 170.634 113.224C171.093 113.011 171.613 112.904 172.194 112.904C172.621 112.904 172.994 112.973 173.314 113.112C173.634 113.245 173.898 113.44 174.106 113.696C174.32 113.947 174.48 114.253 174.586 114.616C174.693 114.973 174.746 115.373 174.746 115.816V121H174.442C174.282 121 174.184 120.925 174.146 120.776L174.034 119.752C173.816 119.965 173.597 120.157 173.378 120.328C173.165 120.499 172.941 120.643 172.706 120.76C172.472 120.877 172.218 120.968 171.946 121.032C171.674 121.096 171.376 121.128 171.05 121.128C170.778 121.128 170.514 121.088 170.258 121.008C170.002 120.928 169.773 120.805 169.57 120.64C169.373 120.475 169.213 120.264 169.09 120.008C168.973 119.747 168.914 119.435 168.914 119.072C168.914 118.736 169.01 118.424 169.202 118.136C169.394 117.848 169.696 117.597 170.106 117.384C170.517 117.171 171.042 117 171.682 116.872C172.328 116.744 173.101 116.669 174.002 116.648V115.816C174.002 115.08 173.842 114.515 173.522 114.12C173.208 113.72 172.738 113.52 172.114 113.52C171.73 113.52 171.402 113.573 171.13 113.68C170.864 113.787 170.637 113.904 170.45 114.032C170.264 114.16 170.112 114.277 169.994 114.384C169.877 114.491 169.778 114.544 169.698 114.544C169.64 114.544 169.592 114.531 169.554 114.504C169.517 114.477 169.485 114.443 169.458 114.4L169.322 114.168ZM177.296 121V113.04H177.72C177.854 113.04 177.931 113.107 177.952 113.24L178.024 114.392C178.334 113.949 178.688 113.592 179.088 113.32C179.488 113.048 179.939 112.912 180.44 112.912C181.022 112.912 181.486 113.08 181.832 113.416C182.184 113.752 182.422 114.219 182.544 114.816C182.64 114.491 182.774 114.208 182.944 113.968C183.12 113.728 183.32 113.531 183.544 113.376C183.768 113.216 184.011 113.099 184.272 113.024C184.539 112.949 184.811 112.912 185.088 112.912C185.483 112.912 185.838 112.979 186.152 113.112C186.467 113.24 186.734 113.432 186.952 113.688C187.171 113.944 187.339 114.259 187.456 114.632C187.574 115.005 187.632 115.432 187.632 115.912V121H186.872V115.912C186.872 115.133 186.704 114.541 186.368 114.136C186.032 113.725 185.552 113.52 184.928 113.52C184.651 113.52 184.384 113.571 184.128 113.672C183.878 113.773 183.654 113.925 183.456 114.128C183.264 114.325 183.11 114.573 182.992 114.872C182.88 115.171 182.824 115.517 182.824 115.912V121H182.056V115.912C182.056 115.139 181.902 114.547 181.592 114.136C181.288 113.725 180.84 113.52 180.248 113.52C179.816 113.52 179.416 113.648 179.048 113.904C178.68 114.16 178.352 114.515 178.064 114.968V121H177.296ZM195.755 116.216C195.755 115.789 195.694 115.408 195.571 115.072C195.454 114.731 195.286 114.443 195.067 114.208C194.849 113.973 194.587 113.795 194.283 113.672C193.985 113.544 193.654 113.48 193.291 113.48C192.881 113.48 192.513 113.544 192.187 113.672C191.862 113.8 191.579 113.984 191.339 114.224C191.105 114.464 190.915 114.752 190.771 115.088C190.627 115.424 190.531 115.8 190.483 116.216H195.755ZM190.443 116.704V116.856C190.443 117.453 190.513 117.979 190.651 118.432C190.79 118.885 190.987 119.267 191.243 119.576C191.499 119.88 191.809 120.109 192.171 120.264C192.534 120.419 192.939 120.496 193.387 120.496C193.787 120.496 194.134 120.453 194.427 120.368C194.721 120.277 194.966 120.179 195.163 120.072C195.366 119.96 195.526 119.861 195.643 119.776C195.761 119.685 195.846 119.64 195.899 119.64C195.969 119.64 196.022 119.667 196.059 119.72L196.267 119.976C196.139 120.136 195.969 120.285 195.755 120.424C195.547 120.563 195.313 120.683 195.051 120.784C194.795 120.88 194.518 120.957 194.219 121.016C193.926 121.075 193.63 121.104 193.331 121.104C192.787 121.104 192.291 121.011 191.843 120.824C191.395 120.632 191.011 120.355 190.691 119.992C190.371 119.629 190.123 119.187 189.947 118.664C189.777 118.136 189.691 117.533 189.691 116.856C189.691 116.285 189.771 115.76 189.931 115.28C190.097 114.795 190.331 114.379 190.635 114.032C190.945 113.68 191.321 113.405 191.763 113.208C192.211 113.011 192.718 112.912 193.283 112.912C193.731 112.912 194.147 112.989 194.531 113.144C194.915 113.299 195.249 113.525 195.531 113.824C195.814 114.117 196.035 114.48 196.195 114.912C196.361 115.344 196.443 115.84 196.443 116.4C196.443 116.517 196.427 116.597 196.395 116.64C196.363 116.683 196.31 116.704 196.235 116.704H190.443ZM200.66 121.128C200.121 121.128 199.7 120.979 199.396 120.68C199.097 120.381 198.948 119.92 198.948 119.296V113.856H197.804C197.745 113.856 197.697 113.84 197.66 113.808C197.623 113.776 197.604 113.731 197.604 113.672V113.376L198.964 113.28L199.156 110.432C199.167 110.384 199.188 110.341 199.22 110.304C199.252 110.267 199.297 110.248 199.356 110.248H199.716V113.288H202.228V113.856H199.716V119.256C199.716 119.475 199.743 119.664 199.796 119.824C199.855 119.979 199.932 120.107 200.028 120.208C200.129 120.309 200.247 120.384 200.38 120.432C200.513 120.48 200.657 120.504 200.812 120.504C201.004 120.504 201.169 120.477 201.308 120.424C201.447 120.365 201.567 120.304 201.668 120.24C201.769 120.171 201.852 120.109 201.916 120.056C201.98 119.997 202.031 119.968 202.068 119.968C202.111 119.968 202.153 119.995 202.196 120.048L202.404 120.384C202.201 120.608 201.943 120.789 201.628 120.928C201.319 121.061 200.996 121.128 200.66 121.128ZM203.808 122.904C203.782 122.883 203.763 122.861 203.752 122.84C203.747 122.819 203.744 122.795 203.744 122.768C203.744 122.736 203.766 122.693 203.808 122.64C203.856 122.587 203.92 122.507 204 122.4C204.086 122.299 204.171 122.176 204.256 122.032C204.347 121.893 204.427 121.736 204.496 121.56C204.571 121.384 204.619 121.195 204.64 120.992C204.56 121.019 204.478 121.032 204.392 121.032C204.195 121.032 204.032 120.965 203.904 120.832C203.782 120.699 203.72 120.528 203.72 120.32C203.72 120.133 203.784 119.973 203.912 119.84C204.04 119.707 204.208 119.64 204.416 119.64C204.646 119.64 204.822 119.72 204.944 119.88C205.072 120.035 205.136 120.24 205.136 120.496C205.136 120.715 205.107 120.936 205.048 121.16C204.995 121.389 204.915 121.613 204.808 121.832C204.702 122.051 204.574 122.261 204.424 122.464C204.275 122.667 204.11 122.853 203.928 123.024L203.808 122.904ZM22.664 136.104C22.6373 136.131 22.6107 136.155 22.584 136.176C22.5627 136.192 22.5307 136.2 22.488 136.2C22.4347 136.2 22.3627 136.165 22.272 136.096C22.1813 136.021 22.0587 135.941 21.904 135.856C21.7493 135.771 21.5547 135.693 21.32 135.624C21.0907 135.549 20.8107 135.512 20.48 135.512C20.0213 135.512 19.6133 135.595 19.256 135.76C18.904 135.92 18.6053 136.152 18.36 136.456C18.1147 136.76 17.928 137.128 17.8 137.56C17.6773 137.992 17.616 138.477 17.616 139.016C17.616 139.576 17.68 140.072 17.808 140.504C17.9413 140.936 18.128 141.301 18.368 141.6C18.608 141.893 18.8987 142.117 19.24 142.272C19.5813 142.427 19.96 142.504 20.376 142.504C20.76 142.504 21.08 142.459 21.336 142.368C21.5973 142.277 21.8107 142.179 21.976 142.072C22.1467 141.965 22.28 141.867 22.376 141.776C22.472 141.685 22.552 141.64 22.616 141.64C22.68 141.64 22.7333 141.667 22.776 141.72L22.976 141.976C22.8533 142.136 22.6987 142.285 22.512 142.424C22.3253 142.563 22.1147 142.683 21.88 142.784C21.6453 142.885 21.3893 142.963 21.112 143.016C20.84 143.075 20.5547 143.104 20.256 143.104C19.7493 143.104 19.2853 143.013 18.864 142.832C18.448 142.645 18.088 142.379 17.784 142.032C17.4853 141.68 17.2507 141.251 17.08 140.744C16.9147 140.237 16.832 139.661 16.832 139.016C16.832 138.408 16.912 137.853 17.072 137.352C17.232 136.851 17.4667 136.419 17.776 136.056C18.0853 135.693 18.4613 135.413 18.904 135.216C19.352 135.013 19.864 134.912 20.44 134.912C20.9573 134.912 21.416 134.995 21.816 135.16C22.216 135.325 22.5653 135.549 22.864 135.832L22.664 136.104ZM27.8546 134.912C28.4253 134.912 28.9346 135.011 29.3826 135.208C29.836 135.4 30.2173 135.675 30.5266 136.032C30.836 136.389 31.0706 136.821 31.2306 137.328C31.396 137.829 31.4786 138.392 31.4786 139.016C31.4786 139.64 31.396 140.203 31.2306 140.704C31.0706 141.205 30.836 141.635 30.5266 141.992C30.2173 142.349 29.836 142.624 29.3826 142.816C28.9346 143.008 28.4253 143.104 27.8546 143.104C27.284 143.104 26.772 143.008 26.3186 142.816C25.8706 142.624 25.4893 142.349 25.1746 141.992C24.8653 141.635 24.628 141.205 24.4626 140.704C24.3026 140.203 24.2226 139.64 24.2226 139.016C24.2226 138.392 24.3026 137.829 24.4626 137.328C24.628 136.821 24.8653 136.389 25.1746 136.032C25.4893 135.675 25.8706 135.4 26.3186 135.208C26.772 135.011 27.284 134.912 27.8546 134.912ZM27.8546 142.504C28.3293 142.504 28.7426 142.424 29.0946 142.264C29.452 142.099 29.748 141.864 29.9826 141.56C30.2226 141.256 30.4013 140.891 30.5186 140.464C30.636 140.032 30.6946 139.549 30.6946 139.016C30.6946 138.488 30.636 138.008 30.5186 137.576C30.4013 137.144 30.2226 136.776 29.9826 136.472C29.748 136.163 29.452 135.925 29.0946 135.76C28.7426 135.595 28.3293 135.512 27.8546 135.512C27.38 135.512 26.964 135.595 26.6066 135.76C26.2546 135.925 25.9586 136.163 25.7186 136.472C25.484 136.776 25.3053 137.144 25.1826 137.576C25.0653 138.008 25.0066 138.488 25.0066 139.016C25.0066 139.549 25.0653 140.032 25.1826 140.464C25.3053 140.891 25.484 141.256 25.7186 141.56C25.9586 141.864 26.2546 142.099 26.6066 142.264C26.964 142.424 27.38 142.504 27.8546 142.504ZM34.3525 136.432C34.7205 135.973 35.1445 135.605 35.6245 135.328C36.1098 135.051 36.6485 134.912 37.2405 134.912C37.6778 134.912 38.0618 134.981 38.3925 135.12C38.7285 135.259 39.0058 135.459 39.2245 135.72C39.4432 135.981 39.6085 136.296 39.7205 136.664C39.8325 137.032 39.8885 137.448 39.8885 137.912V143H39.1205V137.912C39.1205 137.165 38.9498 136.581 38.6085 136.16C38.2672 135.733 37.7472 135.52 37.0485 135.52C36.5312 135.52 36.0458 135.653 35.5925 135.92C35.1445 136.181 34.7445 136.547 34.3925 137.016V143H33.6245V135.04H34.0485C34.1818 135.04 34.2592 135.107 34.2805 135.24L34.3525 136.432ZM46.7974 136.024C46.7547 136.099 46.6934 136.136 46.6134 136.136C46.5547 136.136 46.48 136.104 46.3894 136.04C46.2987 135.971 46.176 135.896 46.0214 135.816C45.872 135.731 45.6854 135.656 45.4614 135.592C45.2374 135.523 44.9654 135.488 44.6454 135.488C44.3574 135.488 44.0934 135.531 43.8534 135.616C43.6187 135.696 43.416 135.805 43.2454 135.944C43.08 136.083 42.952 136.245 42.8614 136.432C42.7707 136.613 42.7254 136.805 42.7254 137.008C42.7254 137.259 42.7894 137.467 42.9174 137.632C43.0454 137.797 43.2107 137.939 43.4134 138.056C43.6214 138.173 43.8587 138.275 44.1254 138.36C44.392 138.445 44.6614 138.531 44.9334 138.616C45.2107 138.701 45.4827 138.797 45.7494 138.904C46.016 139.005 46.2507 139.133 46.4534 139.288C46.6614 139.443 46.8294 139.632 46.9574 139.856C47.0854 140.08 47.1494 140.352 47.1494 140.672C47.1494 141.019 47.088 141.341 46.9654 141.64C46.8427 141.939 46.6614 142.197 46.4214 142.416C46.1867 142.635 45.896 142.808 45.5494 142.936C45.2027 143.064 44.8054 143.128 44.3574 143.128C43.7974 143.128 43.3147 143.04 42.9094 142.864C42.504 142.683 42.1414 142.448 41.8214 142.16L41.9974 141.888C42.024 141.845 42.0534 141.813 42.0854 141.792C42.1227 141.771 42.1707 141.76 42.2294 141.76C42.2987 141.76 42.3814 141.803 42.4774 141.888C42.5787 141.973 42.712 142.067 42.8774 142.168C43.0427 142.264 43.2454 142.355 43.4854 142.44C43.7307 142.525 44.032 142.568 44.3894 142.568C44.7254 142.568 45.0214 142.523 45.2774 142.432C45.5334 142.336 45.7467 142.208 45.9174 142.048C46.088 141.888 46.216 141.701 46.3014 141.488C46.392 141.269 46.4374 141.04 46.4374 140.8C46.4374 140.533 46.3734 140.312 46.2454 140.136C46.1174 139.96 45.9494 139.811 45.7414 139.688C45.5334 139.565 45.296 139.461 45.0294 139.376C44.768 139.291 44.4987 139.205 44.2214 139.12C43.944 139.035 43.672 138.941 43.4054 138.84C43.144 138.739 42.9094 138.611 42.7014 138.456C42.4934 138.301 42.3254 138.115 42.1974 137.896C42.0694 137.672 42.0054 137.395 42.0054 137.064C42.0054 136.781 42.0667 136.509 42.1894 136.248C42.312 135.987 42.4854 135.757 42.7094 135.56C42.9387 135.363 43.216 135.205 43.5414 135.088C43.8667 134.971 44.232 134.912 44.6374 134.912C45.1227 134.912 45.552 134.981 45.9254 135.12C46.304 135.259 46.648 135.472 46.9574 135.76L46.7974 136.024ZM54.8023 138.216C54.8023 137.789 54.7409 137.408 54.6183 137.072C54.5009 136.731 54.3329 136.443 54.1143 136.208C53.8956 135.973 53.6343 135.795 53.3303 135.672C53.0316 135.544 52.7009 135.48 52.3383 135.48C51.9276 135.48 51.5596 135.544 51.2343 135.672C50.9089 135.8 50.6263 135.984 50.3863 136.224C50.1516 136.464 49.9623 136.752 49.8183 137.088C49.6743 137.424 49.5783 137.8 49.5303 138.216H54.8023ZM49.4903 138.704V138.856C49.4903 139.453 49.5596 139.979 49.6983 140.432C49.8369 140.885 50.0343 141.267 50.2903 141.576C50.5463 141.88 50.8556 142.109 51.2183 142.264C51.5809 142.419 51.9863 142.496 52.4343 142.496C52.8343 142.496 53.1809 142.453 53.4743 142.368C53.7676 142.277 54.0129 142.179 54.2103 142.072C54.4129 141.96 54.5729 141.861 54.6903 141.776C54.8076 141.685 54.8929 141.64 54.9463 141.64C55.0156 141.64 55.0689 141.667 55.1063 141.72L55.3143 141.976C55.1863 142.136 55.0156 142.285 54.8023 142.424C54.5943 142.563 54.3596 142.683 54.0983 142.784C53.8423 142.88 53.5649 142.957 53.2663 143.016C52.9729 143.075 52.6769 143.104 52.3783 143.104C51.8343 143.104 51.3383 143.011 50.8903 142.824C50.4423 142.632 50.0583 142.355 49.7383 141.992C49.4183 141.629 49.1703 141.187 48.9943 140.664C48.8236 140.136 48.7383 139.533 48.7383 138.856C48.7383 138.285 48.8183 137.76 48.9783 137.28C49.1436 136.795 49.3783 136.379 49.6823 136.032C49.9916 135.68 50.3676 135.405 50.8103 135.208C51.2583 135.011 51.7649 134.912 52.3303 134.912C52.7783 134.912 53.1943 134.989 53.5783 135.144C53.9623 135.299 54.2956 135.525 54.5783 135.824C54.8609 136.117 55.0823 136.48 55.2423 136.912C55.4076 137.344 55.4903 137.84 55.4903 138.4C55.4903 138.517 55.4743 138.597 55.4423 138.64C55.4103 138.683 55.3569 138.704 55.2823 138.704H49.4903ZM62.914 136.104C62.8873 136.131 62.8607 136.155 62.834 136.176C62.8127 136.192 62.7807 136.2 62.738 136.2C62.6847 136.2 62.6127 136.165 62.522 136.096C62.4313 136.021 62.3087 135.941 62.154 135.856C61.9993 135.771 61.8047 135.693 61.57 135.624C61.3407 135.549 61.0607 135.512 60.73 135.512C60.2713 135.512 59.8633 135.595 59.506 135.76C59.154 135.92 58.8553 136.152 58.61 136.456C58.3647 136.76 58.178 137.128 58.05 137.56C57.9273 137.992 57.866 138.477 57.866 139.016C57.866 139.576 57.93 140.072 58.058 140.504C58.1913 140.936 58.378 141.301 58.618 141.6C58.858 141.893 59.1487 142.117 59.49 142.272C59.8313 142.427 60.21 142.504 60.626 142.504C61.01 142.504 61.33 142.459 61.586 142.368C61.8473 142.277 62.0607 142.179 62.226 142.072C62.3967 141.965 62.53 141.867 62.626 141.776C62.722 141.685 62.802 141.64 62.866 141.64C62.93 141.64 62.9833 141.667 63.026 141.72L63.226 141.976C63.1033 142.136 62.9487 142.285 62.762 142.424C62.5753 142.563 62.3647 142.683 62.13 142.784C61.8953 142.885 61.6393 142.963 61.362 143.016C61.09 143.075 60.8047 143.104 60.506 143.104C59.9993 143.104 59.5353 143.013 59.114 142.832C58.698 142.645 58.338 142.379 58.034 142.032C57.7353 141.68 57.5007 141.251 57.33 140.744C57.1647 140.237 57.082 139.661 57.082 139.016C57.082 138.408 57.162 137.853 57.322 137.352C57.482 136.851 57.7167 136.419 58.026 136.056C58.3353 135.693 58.7113 135.413 59.154 135.216C59.602 135.013 60.114 134.912 60.69 134.912C61.2073 134.912 61.666 134.995 62.066 135.16C62.466 135.325 62.8153 135.549 63.114 135.832L62.914 136.104ZM67.2849 143.128C66.7462 143.128 66.3249 142.979 66.0209 142.68C65.7222 142.381 65.5729 141.92 65.5729 141.296V135.856H64.4289C64.3702 135.856 64.3222 135.84 64.2849 135.808C64.2475 135.776 64.2289 135.731 64.2289 135.672V135.376L65.5889 135.28L65.7809 132.432C65.7915 132.384 65.8129 132.341 65.8449 132.304C65.8769 132.267 65.9222 132.248 65.9809 132.248H66.3409V135.288H68.8529V135.856H66.3409V141.256C66.3409 141.475 66.3675 141.664 66.4209 141.824C66.4795 141.979 66.5569 142.107 66.6529 142.208C66.7542 142.309 66.8715 142.384 67.0049 142.432C67.1382 142.48 67.2822 142.504 67.4369 142.504C67.6289 142.504 67.7942 142.477 67.9329 142.424C68.0715 142.365 68.1915 142.304 68.2929 142.24C68.3942 142.171 68.4769 142.109 68.5409 142.056C68.6049 141.997 68.6555 141.968 68.6929 141.968C68.7355 141.968 68.7782 141.995 68.8209 142.048L69.0289 142.384C68.8262 142.608 68.5675 142.789 68.2529 142.928C67.9435 143.061 67.6209 143.128 67.2849 143.128ZM76.146 138.216C76.146 137.789 76.0847 137.408 75.962 137.072C75.8447 136.731 75.6767 136.443 75.458 136.208C75.2393 135.973 74.978 135.795 74.674 135.672C74.3753 135.544 74.0447 135.48 73.682 135.48C73.2713 135.48 72.9033 135.544 72.578 135.672C72.2527 135.8 71.97 135.984 71.73 136.224C71.4953 136.464 71.306 136.752 71.162 137.088C71.018 137.424 70.922 137.8 70.874 138.216H76.146ZM70.834 138.704V138.856C70.834 139.453 70.9033 139.979 71.042 140.432C71.1807 140.885 71.378 141.267 71.634 141.576C71.89 141.88 72.1993 142.109 72.562 142.264C72.9247 142.419 73.33 142.496 73.778 142.496C74.178 142.496 74.5247 142.453 74.818 142.368C75.1113 142.277 75.3567 142.179 75.554 142.072C75.7567 141.96 75.9167 141.861 76.034 141.776C76.1513 141.685 76.2367 141.64 76.29 141.64C76.3593 141.64 76.4127 141.667 76.45 141.72L76.658 141.976C76.53 142.136 76.3593 142.285 76.146 142.424C75.938 142.563 75.7033 142.683 75.442 142.784C75.186 142.88 74.9087 142.957 74.61 143.016C74.3167 143.075 74.0207 143.104 73.722 143.104C73.178 143.104 72.682 143.011 72.234 142.824C71.786 142.632 71.402 142.355 71.082 141.992C70.762 141.629 70.514 141.187 70.338 140.664C70.1673 140.136 70.082 139.533 70.082 138.856C70.082 138.285 70.162 137.76 70.322 137.28C70.4873 136.795 70.722 136.379 71.026 136.032C71.3353 135.68 71.7113 135.405 72.154 135.208C72.602 135.011 73.1087 134.912 73.674 134.912C74.122 134.912 74.538 134.989 74.922 135.144C75.306 135.299 75.6393 135.525 75.922 135.824C76.2047 136.117 76.426 136.48 76.586 136.912C76.7513 137.344 76.834 137.84 76.834 138.4C76.834 138.517 76.818 138.597 76.786 138.64C76.754 138.683 76.7007 138.704 76.626 138.704H70.834ZM81.0505 143.128C80.5118 143.128 80.0905 142.979 79.7865 142.68C79.4878 142.381 79.3385 141.92 79.3385 141.296V135.856H78.1945C78.1358 135.856 78.0878 135.84 78.0505 135.808C78.0132 135.776 77.9945 135.731 77.9945 135.672V135.376L79.3545 135.28L79.5465 132.432C79.5572 132.384 79.5785 132.341 79.6105 132.304C79.6425 132.267 79.6878 132.248 79.7465 132.248H80.1065V135.288H82.6185V135.856H80.1065V141.256C80.1065 141.475 80.1332 141.664 80.1865 141.824C80.2452 141.979 80.3225 142.107 80.4185 142.208C80.5198 142.309 80.6372 142.384 80.7705 142.432C80.9038 142.48 81.0478 142.504 81.2025 142.504C81.3945 142.504 81.5598 142.477 81.6985 142.424C81.8372 142.365 81.9572 142.304 82.0585 142.24C82.1598 142.171 82.2425 142.109 82.3065 142.056C82.3705 141.997 82.4212 141.968 82.4585 141.968C82.5012 141.968 82.5438 141.995 82.5865 142.048L82.7945 142.384C82.5918 142.608 82.3332 142.789 82.0185 142.928C81.7092 143.061 81.3865 143.128 81.0505 143.128ZM90.5349 135.04V143H90.1109C89.9775 143 89.9002 142.931 89.8789 142.792L89.8069 141.608C89.4389 142.067 89.0122 142.435 88.5269 142.712C88.0469 142.989 87.5109 143.128 86.9189 143.128C86.4762 143.128 86.0895 143.059 85.7589 142.92C85.4282 142.781 85.1535 142.581 84.9349 142.32C84.7162 142.059 84.5509 141.744 84.4389 141.376C84.3269 141.008 84.2709 140.592 84.2709 140.128V135.04H85.0389V140.128C85.0389 140.875 85.2095 141.461 85.5509 141.888C85.8922 142.309 86.4122 142.52 87.1109 142.52C87.6282 142.52 88.1109 142.389 88.5589 142.128C89.0122 141.861 89.4149 141.493 89.7669 141.024V135.04H90.5349ZM101.956 139.152C101.198 139.179 100.545 139.24 99.9955 139.336C99.4515 139.427 99.0008 139.552 98.6435 139.712C98.2915 139.872 98.0302 140.064 97.8595 140.288C97.6888 140.507 97.6035 140.757 97.6035 141.04C97.6035 141.307 97.6462 141.539 97.7315 141.736C97.8222 141.928 97.9395 142.088 98.0835 142.216C98.2328 142.339 98.4035 142.429 98.5955 142.488C98.7875 142.547 98.9875 142.576 99.1955 142.576C99.5048 142.576 99.7875 142.544 100.044 142.48C100.305 142.411 100.545 142.317 100.764 142.2C100.988 142.077 101.196 141.933 101.388 141.768C101.58 141.603 101.769 141.424 101.956 141.232V139.152ZM97.2755 136.168C97.6915 135.752 98.1288 135.437 98.5875 135.224C99.0462 135.011 99.5662 134.904 100.148 134.904C100.574 134.904 100.948 134.973 101.268 135.112C101.588 135.245 101.852 135.44 102.06 135.696C102.273 135.947 102.433 136.253 102.54 136.616C102.646 136.973 102.7 137.373 102.7 137.816V143H102.396C102.236 143 102.137 142.925 102.1 142.776L101.988 141.752C101.769 141.965 101.55 142.157 101.332 142.328C101.118 142.499 100.894 142.643 100.66 142.76C100.425 142.877 100.172 142.968 99.8995 143.032C99.6275 143.096 99.3288 143.128 99.0035 143.128C98.7315 143.128 98.4675 143.088 98.2115 143.008C97.9555 142.928 97.7262 142.805 97.5235 142.64C97.3262 142.475 97.1662 142.264 97.0435 142.008C96.9262 141.747 96.8675 141.435 96.8675 141.072C96.8675 140.736 96.9635 140.424 97.1555 140.136C97.3475 139.848 97.6488 139.597 98.0595 139.384C98.4702 139.171 98.9955 139 99.6355 138.872C100.281 138.744 101.054 138.669 101.956 138.648V137.816C101.956 137.08 101.796 136.515 101.476 136.12C101.161 135.72 100.692 135.52 100.068 135.52C99.6835 135.52 99.3555 135.573 99.0835 135.68C98.8168 135.787 98.5902 135.904 98.4035 136.032C98.2168 136.16 98.0648 136.277 97.9475 136.384C97.8302 136.491 97.7315 136.544 97.6515 136.544C97.5928 136.544 97.5448 136.531 97.5075 136.504C97.4702 136.477 97.4382 136.443 97.4115 136.4L97.2755 136.168ZM110.682 136.752C110.378 136.293 110.039 135.971 109.666 135.784C109.298 135.597 108.876 135.504 108.402 135.504C107.932 135.504 107.522 135.589 107.17 135.76C106.818 135.931 106.522 136.173 106.282 136.488C106.047 136.797 105.868 137.171 105.746 137.608C105.628 138.04 105.57 138.517 105.57 139.04C105.57 140.224 105.786 141.096 106.218 141.656C106.655 142.211 107.284 142.488 108.106 142.488C108.628 142.488 109.106 142.352 109.538 142.08C109.97 141.808 110.351 141.427 110.682 140.936V136.752ZM111.442 131.36V143H111.026C110.887 143 110.807 142.931 110.786 142.792L110.706 141.536C110.354 142.016 109.943 142.397 109.474 142.68C109.004 142.963 108.476 143.104 107.89 143.104C106.908 143.104 106.146 142.765 105.602 142.088C105.058 141.411 104.786 140.395 104.786 139.04C104.786 138.459 104.86 137.917 105.01 137.416C105.164 136.909 105.388 136.472 105.682 136.104C105.975 135.731 106.335 135.437 106.762 135.224C107.194 135.011 107.69 134.904 108.25 134.904C108.788 134.904 109.255 135.003 109.65 135.2C110.044 135.397 110.388 135.691 110.682 136.08V131.36H111.442ZM114.91 135.04V143H114.15V135.04H114.91ZM115.238 132.296C115.238 132.392 115.217 132.483 115.174 132.568C115.137 132.648 115.086 132.72 115.022 132.784C114.958 132.848 114.883 132.899 114.798 132.936C114.713 132.973 114.622 132.992 114.526 132.992C114.43 132.992 114.339 132.973 114.254 132.936C114.169 132.899 114.094 132.848 114.03 132.784C113.966 132.72 113.915 132.648 113.878 132.568C113.841 132.483 113.822 132.392 113.822 132.296C113.822 132.2 113.841 132.109 113.878 132.024C113.915 131.933 113.966 131.856 114.03 131.792C114.094 131.728 114.169 131.677 114.254 131.64C114.339 131.603 114.43 131.584 114.526 131.584C114.622 131.584 114.713 131.603 114.798 131.64C114.883 131.677 114.958 131.728 115.022 131.792C115.086 131.856 115.137 131.933 115.174 132.024C115.217 132.109 115.238 132.2 115.238 132.296ZM118.393 141.264C118.547 141.493 118.707 141.688 118.873 141.848C119.043 142.003 119.222 142.131 119.409 142.232C119.595 142.328 119.793 142.397 120.001 142.44C120.214 142.483 120.438 142.504 120.673 142.504C121.142 142.504 121.553 142.419 121.905 142.248C122.257 142.077 122.55 141.837 122.785 141.528C123.025 141.213 123.203 140.84 123.321 140.408C123.443 139.971 123.505 139.491 123.505 138.968C123.505 137.784 123.286 136.915 122.849 136.36C122.411 135.8 121.785 135.52 120.969 135.52C120.441 135.52 119.963 135.656 119.537 135.928C119.11 136.2 118.729 136.579 118.393 137.064V141.264ZM118.361 136.472C118.713 135.992 119.123 135.611 119.593 135.328C120.067 135.045 120.598 134.904 121.185 134.904C122.161 134.904 122.921 135.243 123.465 135.92C124.014 136.597 124.289 137.613 124.289 138.968C124.289 139.549 124.211 140.093 124.057 140.6C123.907 141.101 123.683 141.539 123.385 141.912C123.091 142.28 122.729 142.571 122.297 142.784C121.87 142.997 121.377 143.104 120.817 143.104C120.278 143.104 119.811 143.005 119.417 142.808C119.022 142.611 118.681 142.32 118.393 141.936V145.816H117.625V135.04H118.049C118.182 135.04 118.259 135.107 118.281 135.24L118.361 136.472ZM127.301 135.04V143H126.541V135.04H127.301ZM127.629 132.296C127.629 132.392 127.607 132.483 127.565 132.568C127.527 132.648 127.477 132.72 127.413 132.784C127.349 132.848 127.274 132.899 127.189 132.936C127.103 132.973 127.013 132.992 126.917 132.992C126.821 132.992 126.73 132.973 126.645 132.936C126.559 132.899 126.485 132.848 126.421 132.784C126.357 132.72 126.306 132.648 126.269 132.568C126.231 132.483 126.213 132.392 126.213 132.296C126.213 132.2 126.231 132.109 126.269 132.024C126.306 131.933 126.357 131.856 126.421 131.792C126.485 131.728 126.559 131.677 126.645 131.64C126.73 131.603 126.821 131.584 126.917 131.584C127.013 131.584 127.103 131.603 127.189 131.64C127.274 131.677 127.349 131.728 127.413 131.792C127.477 131.856 127.527 131.933 127.565 132.024C127.607 132.109 127.629 132.2 127.629 132.296ZM134.391 136.024C134.348 136.099 134.287 136.136 134.207 136.136C134.148 136.136 134.074 136.104 133.983 136.04C133.892 135.971 133.77 135.896 133.615 135.816C133.466 135.731 133.279 135.656 133.055 135.592C132.831 135.523 132.559 135.488 132.239 135.488C131.951 135.488 131.687 135.531 131.447 135.616C131.212 135.696 131.01 135.805 130.839 135.944C130.674 136.083 130.546 136.245 130.455 136.432C130.364 136.613 130.319 136.805 130.319 137.008C130.319 137.259 130.383 137.467 130.511 137.632C130.639 137.797 130.804 137.939 131.007 138.056C131.215 138.173 131.452 138.275 131.719 138.36C131.986 138.445 132.255 138.531 132.527 138.616C132.804 138.701 133.076 138.797 133.343 138.904C133.61 139.005 133.844 139.133 134.047 139.288C134.255 139.443 134.423 139.632 134.551 139.856C134.679 140.08 134.743 140.352 134.743 140.672C134.743 141.019 134.682 141.341 134.559 141.64C134.436 141.939 134.255 142.197 134.015 142.416C133.78 142.635 133.49 142.808 133.143 142.936C132.796 143.064 132.399 143.128 131.951 143.128C131.391 143.128 130.908 143.04 130.503 142.864C130.098 142.683 129.735 142.448 129.415 142.16L129.591 141.888C129.618 141.845 129.647 141.813 129.679 141.792C129.716 141.771 129.764 141.76 129.823 141.76C129.892 141.76 129.975 141.803 130.071 141.888C130.172 141.973 130.306 142.067 130.471 142.168C130.636 142.264 130.839 142.355 131.079 142.44C131.324 142.525 131.626 142.568 131.983 142.568C132.319 142.568 132.615 142.523 132.871 142.432C133.127 142.336 133.34 142.208 133.511 142.048C133.682 141.888 133.81 141.701 133.895 141.488C133.986 141.269 134.031 141.04 134.031 140.8C134.031 140.533 133.967 140.312 133.839 140.136C133.711 139.96 133.543 139.811 133.335 139.688C133.127 139.565 132.89 139.461 132.623 139.376C132.362 139.291 132.092 139.205 131.815 139.12C131.538 139.035 131.266 138.941 130.999 138.84C130.738 138.739 130.503 138.611 130.295 138.456C130.087 138.301 129.919 138.115 129.791 137.896C129.663 137.672 129.599 137.395 129.599 137.064C129.599 136.781 129.66 136.509 129.783 136.248C129.906 135.987 130.079 135.757 130.303 135.56C130.532 135.363 130.81 135.205 131.135 135.088C131.46 134.971 131.826 134.912 132.231 134.912C132.716 134.912 133.146 134.981 133.519 135.12C133.898 135.259 134.242 135.472 134.551 135.76L134.391 136.024ZM142.164 136.104C142.137 136.131 142.111 136.155 142.084 136.176C142.063 136.192 142.031 136.2 141.988 136.2C141.935 136.2 141.863 136.165 141.772 136.096C141.681 136.021 141.559 135.941 141.404 135.856C141.249 135.771 141.055 135.693 140.82 135.624C140.591 135.549 140.311 135.512 139.98 135.512C139.521 135.512 139.113 135.595 138.756 135.76C138.404 135.92 138.105 136.152 137.86 136.456C137.615 136.76 137.428 137.128 137.3 137.56C137.177 137.992 137.116 138.477 137.116 139.016C137.116 139.576 137.18 140.072 137.308 140.504C137.441 140.936 137.628 141.301 137.868 141.6C138.108 141.893 138.399 142.117 138.74 142.272C139.081 142.427 139.46 142.504 139.876 142.504C140.26 142.504 140.58 142.459 140.836 142.368C141.097 142.277 141.311 142.179 141.476 142.072C141.647 141.965 141.78 141.867 141.876 141.776C141.972 141.685 142.052 141.64 142.116 141.64C142.18 141.64 142.233 141.667 142.276 141.72L142.476 141.976C142.353 142.136 142.199 142.285 142.012 142.424C141.825 142.563 141.615 142.683 141.38 142.784C141.145 142.885 140.889 142.963 140.612 143.016C140.34 143.075 140.055 143.104 139.756 143.104C139.249 143.104 138.785 143.013 138.364 142.832C137.948 142.645 137.588 142.379 137.284 142.032C136.985 141.68 136.751 141.251 136.58 140.744C136.415 140.237 136.332 139.661 136.332 139.016C136.332 138.408 136.412 137.853 136.572 137.352C136.732 136.851 136.967 136.419 137.276 136.056C137.585 135.693 137.961 135.413 138.404 135.216C138.852 135.013 139.364 134.912 139.94 134.912C140.457 134.912 140.916 134.995 141.316 135.16C141.716 135.325 142.065 135.549 142.364 135.832L142.164 136.104ZM145.207 135.04V143H144.447V135.04H145.207ZM145.535 132.296C145.535 132.392 145.514 132.483 145.471 132.568C145.434 132.648 145.383 132.72 145.319 132.784C145.255 132.848 145.18 132.899 145.095 132.936C145.01 132.973 144.919 132.992 144.823 132.992C144.727 132.992 144.636 132.973 144.551 132.936C144.466 132.899 144.391 132.848 144.327 132.784C144.263 132.72 144.212 132.648 144.175 132.568C144.138 132.483 144.119 132.392 144.119 132.296C144.119 132.2 144.138 132.109 144.175 132.024C144.212 131.933 144.263 131.856 144.327 131.792C144.391 131.728 144.466 131.677 144.551 131.64C144.636 131.603 144.727 131.584 144.823 131.584C144.919 131.584 145.01 131.603 145.095 131.64C145.18 131.677 145.255 131.728 145.319 131.792C145.383 131.856 145.434 131.933 145.471 132.024C145.514 132.109 145.535 132.2 145.535 132.296ZM148.649 136.432C149.017 135.973 149.441 135.605 149.921 135.328C150.407 135.051 150.945 134.912 151.537 134.912C151.975 134.912 152.359 134.981 152.689 135.12C153.025 135.259 153.303 135.459 153.521 135.72C153.74 135.981 153.905 136.296 154.017 136.664C154.129 137.032 154.185 137.448 154.185 137.912V143H153.417V137.912C153.417 137.165 153.247 136.581 152.905 136.16C152.564 135.733 152.044 135.52 151.345 135.52C150.828 135.52 150.343 135.653 149.889 135.92C149.441 136.181 149.041 136.547 148.689 137.016V143H147.921V135.04H148.345C148.479 135.04 148.556 135.107 148.577 135.24L148.649 136.432ZM159.318 139.48C159.66 139.48 159.964 139.432 160.23 139.336C160.497 139.235 160.721 139.096 160.902 138.92C161.084 138.744 161.222 138.533 161.318 138.288C161.414 138.043 161.462 137.771 161.462 137.472C161.462 137.173 161.412 136.901 161.31 136.656C161.214 136.405 161.073 136.192 160.886 136.016C160.705 135.84 160.481 135.704 160.214 135.608C159.953 135.512 159.654 135.464 159.318 135.464C158.982 135.464 158.681 135.512 158.414 135.608C158.153 135.704 157.929 135.84 157.742 136.016C157.561 136.192 157.422 136.405 157.326 136.656C157.23 136.901 157.182 137.173 157.182 137.472C157.182 137.771 157.23 138.043 157.326 138.288C157.422 138.533 157.561 138.744 157.742 138.92C157.929 139.096 158.153 139.235 158.414 139.336C158.681 139.432 158.982 139.48 159.318 139.48ZM162.294 143.536C162.294 143.285 162.228 143.085 162.094 142.936C161.966 142.781 161.793 142.661 161.574 142.576C161.356 142.491 161.102 142.432 160.814 142.4C160.532 142.363 160.233 142.336 159.918 142.32C159.609 142.304 159.297 142.288 158.982 142.272C158.668 142.256 158.372 142.224 158.094 142.176C157.892 142.256 157.705 142.349 157.534 142.456C157.364 142.557 157.217 142.675 157.094 142.808C156.972 142.941 156.876 143.085 156.806 143.24C156.737 143.4 156.702 143.571 156.702 143.752C156.702 143.987 156.761 144.203 156.878 144.4C157.001 144.603 157.177 144.776 157.406 144.92C157.641 145.069 157.926 145.187 158.262 145.272C158.598 145.357 158.985 145.4 159.422 145.4C159.828 145.4 160.204 145.355 160.55 145.264C160.902 145.173 161.206 145.045 161.462 144.88C161.724 144.715 161.926 144.517 162.07 144.288C162.22 144.059 162.294 143.808 162.294 143.536ZM163.126 135.392V135.656C163.126 135.773 163.052 135.845 162.902 135.872L161.686 135.96C161.836 136.163 161.95 136.389 162.03 136.64C162.11 136.891 162.15 137.163 162.15 137.456C162.15 137.84 162.081 138.189 161.942 138.504C161.809 138.813 161.617 139.08 161.366 139.304C161.121 139.523 160.822 139.693 160.47 139.816C160.124 139.939 159.74 140 159.318 140C158.865 140 158.452 139.931 158.078 139.792C157.854 139.92 157.676 140.072 157.542 140.248C157.414 140.419 157.35 140.589 157.35 140.76C157.35 140.989 157.43 141.165 157.59 141.288C157.756 141.411 157.969 141.501 158.23 141.56C158.497 141.613 158.798 141.648 159.134 141.664C159.476 141.68 159.822 141.699 160.174 141.72C160.526 141.736 160.87 141.768 161.206 141.816C161.548 141.864 161.849 141.949 162.11 142.072C162.377 142.189 162.59 142.357 162.75 142.576C162.916 142.789 162.998 143.075 162.998 143.432C162.998 143.763 162.916 144.08 162.75 144.384C162.585 144.688 162.345 144.957 162.03 145.192C161.721 145.427 161.345 145.613 160.902 145.752C160.46 145.896 159.964 145.968 159.414 145.968C158.854 145.968 158.364 145.909 157.942 145.792C157.521 145.68 157.166 145.525 156.878 145.328C156.596 145.136 156.382 144.912 156.238 144.656C156.094 144.4 156.022 144.128 156.022 143.84C156.022 143.419 156.161 143.059 156.438 142.76C156.716 142.456 157.094 142.219 157.574 142.048C157.308 141.957 157.092 141.827 156.926 141.656C156.766 141.48 156.686 141.243 156.686 140.944C156.686 140.832 156.708 140.715 156.75 140.592C156.793 140.469 156.857 140.349 156.942 140.232C157.028 140.109 157.132 139.995 157.254 139.888C157.377 139.781 157.516 139.685 157.67 139.6C157.292 139.381 156.996 139.091 156.782 138.728C156.574 138.365 156.47 137.941 156.47 137.456C156.47 137.072 156.537 136.725 156.67 136.416C156.809 136.101 157.004 135.832 157.254 135.608C157.505 135.384 157.804 135.211 158.15 135.088C158.502 134.965 158.892 134.904 159.318 134.904C159.67 134.904 159.993 134.947 160.286 135.032C160.585 135.117 160.852 135.237 161.086 135.392H163.126ZM174.818 138.216C174.818 137.789 174.757 137.408 174.634 137.072C174.517 136.731 174.349 136.443 174.13 136.208C173.911 135.973 173.65 135.795 173.346 135.672C173.047 135.544 172.717 135.48 172.354 135.48C171.943 135.48 171.575 135.544 171.25 135.672C170.925 135.8 170.642 135.984 170.402 136.224C170.167 136.464 169.978 136.752 169.834 137.088C169.69 137.424 169.594 137.8 169.546 138.216H174.818ZM169.506 138.704V138.856C169.506 139.453 169.575 139.979 169.714 140.432C169.853 140.885 170.05 141.267 170.306 141.576C170.562 141.88 170.871 142.109 171.234 142.264C171.597 142.419 172.002 142.496 172.45 142.496C172.85 142.496 173.197 142.453 173.49 142.368C173.783 142.277 174.029 142.179 174.226 142.072C174.429 141.96 174.589 141.861 174.706 141.776C174.823 141.685 174.909 141.64 174.962 141.64C175.031 141.64 175.085 141.667 175.122 141.72L175.33 141.976C175.202 142.136 175.031 142.285 174.818 142.424C174.61 142.563 174.375 142.683 174.114 142.784C173.858 142.88 173.581 142.957 173.282 143.016C172.989 143.075 172.693 143.104 172.394 143.104C171.85 143.104 171.354 143.011 170.906 142.824C170.458 142.632 170.074 142.355 169.754 141.992C169.434 141.629 169.186 141.187 169.01 140.664C168.839 140.136 168.754 139.533 168.754 138.856C168.754 138.285 168.834 137.76 168.994 137.28C169.159 136.795 169.394 136.379 169.698 136.032C170.007 135.68 170.383 135.405 170.826 135.208C171.274 135.011 171.781 134.912 172.346 134.912C172.794 134.912 173.21 134.989 173.594 135.144C173.978 135.299 174.311 135.525 174.594 135.824C174.877 136.117 175.098 136.48 175.258 136.912C175.423 137.344 175.506 137.84 175.506 138.4C175.506 138.517 175.49 138.597 175.458 138.64C175.426 138.683 175.373 138.704 175.298 138.704H169.506ZM178.418 131.36V143H177.65V131.36H178.418ZM181.957 135.04V143H181.197V135.04H181.957ZM182.285 132.296C182.285 132.392 182.264 132.483 182.221 132.568C182.184 132.648 182.133 132.72 182.069 132.784C182.005 132.848 181.93 132.899 181.845 132.936C181.76 132.973 181.669 132.992 181.573 132.992C181.477 132.992 181.386 132.973 181.301 132.936C181.216 132.899 181.141 132.848 181.077 132.784C181.013 132.72 180.962 132.648 180.925 132.568C180.888 132.483 180.869 132.392 180.869 132.296C180.869 132.2 180.888 132.109 180.925 132.024C180.962 131.933 181.013 131.856 181.077 131.792C181.141 131.728 181.216 131.677 181.301 131.64C181.386 131.603 181.477 131.584 181.573 131.584C181.669 131.584 181.76 131.603 181.845 131.64C181.93 131.677 182.005 131.728 182.069 131.792C182.133 131.856 182.184 131.933 182.221 132.024C182.264 132.109 182.285 132.2 182.285 132.296ZM186.847 143.128C186.309 143.128 185.887 142.979 185.583 142.68C185.285 142.381 185.135 141.92 185.135 141.296V135.856H183.991C183.933 135.856 183.885 135.84 183.847 135.808C183.81 135.776 183.791 135.731 183.791 135.672V135.376L185.151 135.28L185.343 132.432C185.354 132.384 185.375 132.341 185.407 132.304C185.439 132.267 185.485 132.248 185.543 132.248H185.903V135.288H188.415V135.856H185.903V141.256C185.903 141.475 185.93 141.664 185.983 141.824C186.042 141.979 186.119 142.107 186.215 142.208C186.317 142.309 186.434 142.384 186.567 142.432C186.701 142.48 186.845 142.504 186.999 142.504C187.191 142.504 187.357 142.477 187.495 142.424C187.634 142.365 187.754 142.304 187.855 142.24C187.957 142.171 188.039 142.109 188.103 142.056C188.167 141.997 188.218 141.968 188.255 141.968C188.298 141.968 188.341 141.995 188.383 142.048L188.591 142.384C188.389 142.608 188.13 142.789 187.815 142.928C187.506 143.061 187.183 143.128 186.847 143.128ZM189.972 142.384C189.972 142.283 189.99 142.187 190.028 142.096C190.065 142.005 190.116 141.928 190.18 141.864C190.249 141.795 190.326 141.741 190.412 141.704C190.502 141.661 190.601 141.64 190.708 141.64C190.809 141.64 190.905 141.661 190.996 141.704C191.086 141.741 191.164 141.795 191.228 141.864C191.297 141.928 191.35 142.005 191.388 142.096C191.43 142.187 191.452 142.283 191.452 142.384C191.452 142.491 191.43 142.589 191.388 142.68C191.35 142.765 191.297 142.843 191.228 142.912C191.164 142.976 191.086 143.027 190.996 143.064C190.905 143.101 190.809 143.12 190.708 143.12C190.5 143.12 190.324 143.051 190.18 142.912C190.041 142.768 189.972 142.592 189.972 142.384ZM25.84 163.096C25.8933 163.096 25.9387 163.115 25.976 163.152L26.296 163.496C26.0613 163.747 25.8053 163.973 25.528 164.176C25.256 164.373 24.9547 164.544 24.624 164.688C24.2987 164.827 23.9387 164.933 23.544 165.008C23.1547 165.088 22.7253 165.128 22.256 165.128C21.472 165.128 20.752 164.992 20.096 164.72C19.4453 164.443 18.8853 164.053 18.416 163.552C17.9467 163.045 17.5813 162.435 17.32 161.72C17.064 161.005 16.936 160.211 16.936 159.336C16.936 158.477 17.0693 157.693 17.336 156.984C17.6027 156.275 17.976 155.667 18.456 155.16C18.936 154.648 19.512 154.253 20.184 153.976C20.856 153.693 21.5973 153.552 22.408 153.552C23.1813 153.552 23.8667 153.672 24.464 153.912C25.0613 154.152 25.6053 154.491 26.096 154.928L25.848 155.288C25.8053 155.352 25.7387 155.384 25.648 155.384C25.584 155.384 25.48 155.325 25.336 155.208C25.192 155.091 24.992 154.963 24.736 154.824C24.48 154.68 24.16 154.549 23.776 154.432C23.3973 154.315 22.9413 154.256 22.408 154.256C21.7253 154.256 21.0987 154.373 20.528 154.608C19.9627 154.843 19.4747 155.179 19.064 155.616C18.6587 156.053 18.3413 156.587 18.112 157.216C17.8827 157.845 17.768 158.552 17.768 159.336C17.768 160.136 17.8827 160.851 18.112 161.48C18.3467 162.109 18.6667 162.643 19.072 163.08C19.4773 163.512 19.9547 163.845 20.504 164.08C21.0587 164.309 21.656 164.424 22.296 164.424C22.7013 164.424 23.0613 164.397 23.376 164.344C23.696 164.291 23.9893 164.211 24.256 164.104C24.5227 163.997 24.7707 163.867 25 163.712C25.2293 163.557 25.456 163.376 25.68 163.168C25.7067 163.147 25.7333 163.131 25.76 163.12C25.7867 163.104 25.8133 163.096 25.84 163.096ZM34.1443 157.04V165H33.7203C33.5869 165 33.5096 164.931 33.4883 164.792L33.4163 163.608C33.0483 164.067 32.6216 164.435 32.1363 164.712C31.6563 164.989 31.1203 165.128 30.5283 165.128C30.0856 165.128 29.6989 165.059 29.3683 164.92C29.0376 164.781 28.7629 164.581 28.5443 164.32C28.3256 164.059 28.1603 163.744 28.0483 163.376C27.9363 163.008 27.8803 162.592 27.8803 162.128V157.04H28.6483V162.128C28.6483 162.875 28.8189 163.461 29.1603 163.888C29.5016 164.309 30.0216 164.52 30.7203 164.52C31.2376 164.52 31.7203 164.389 32.1683 164.128C32.6216 163.861 33.0243 163.493 33.3763 163.024V157.04H34.1443ZM37.4931 158.96C37.6158 158.635 37.7545 158.347 37.9091 158.096C38.0691 157.84 38.2505 157.624 38.4531 157.448C38.6611 157.272 38.8905 157.139 39.1411 157.048C39.3971 156.952 39.6798 156.904 39.9891 156.904C40.1545 156.904 40.3171 156.92 40.4771 156.952C40.6371 156.979 40.7785 157.029 40.9011 157.104L40.8371 157.632C40.8105 157.717 40.7598 157.76 40.6851 157.76C40.6211 157.76 40.5225 157.741 40.3891 157.704C40.2611 157.667 40.0905 157.648 39.8771 157.648C39.5678 157.648 39.2931 157.696 39.0531 157.792C38.8185 157.883 38.6051 158.021 38.4131 158.208C38.2265 158.395 38.0611 158.627 37.9171 158.904C37.7785 159.176 37.6505 159.491 37.5331 159.848V165H36.7651V157.04H37.1731C37.2638 157.04 37.3278 157.059 37.3651 157.096C37.4025 157.133 37.4265 157.197 37.4371 157.288L37.4931 158.96ZM46.7036 158.024C46.661 158.099 46.5996 158.136 46.5196 158.136C46.461 158.136 46.3863 158.104 46.2956 158.04C46.205 157.971 46.0823 157.896 45.9276 157.816C45.7783 157.731 45.5916 157.656 45.3676 157.592C45.1436 157.523 44.8716 157.488 44.5516 157.488C44.2636 157.488 43.9996 157.531 43.7596 157.616C43.525 157.696 43.3223 157.805 43.1516 157.944C42.9863 158.083 42.8583 158.245 42.7676 158.432C42.677 158.613 42.6316 158.805 42.6316 159.008C42.6316 159.259 42.6956 159.467 42.8236 159.632C42.9516 159.797 43.117 159.939 43.3196 160.056C43.5276 160.173 43.765 160.275 44.0316 160.36C44.2983 160.445 44.5676 160.531 44.8396 160.616C45.117 160.701 45.389 160.797 45.6556 160.904C45.9223 161.005 46.157 161.133 46.3596 161.288C46.5676 161.443 46.7356 161.632 46.8636 161.856C46.9916 162.08 47.0556 162.352 47.0556 162.672C47.0556 163.019 46.9943 163.341 46.8716 163.64C46.749 163.939 46.5676 164.197 46.3276 164.416C46.093 164.635 45.8023 164.808 45.4556 164.936C45.109 165.064 44.7116 165.128 44.2636 165.128C43.7036 165.128 43.221 165.04 42.8156 164.864C42.4103 164.683 42.0476 164.448 41.7276 164.16L41.9036 163.888C41.9303 163.845 41.9596 163.813 41.9916 163.792C42.029 163.771 42.077 163.76 42.1356 163.76C42.205 163.76 42.2876 163.803 42.3836 163.888C42.485 163.973 42.6183 164.067 42.7836 164.168C42.949 164.264 43.1516 164.355 43.3916 164.44C43.637 164.525 43.9383 164.568 44.2956 164.568C44.6316 164.568 44.9276 164.523 45.1836 164.432C45.4396 164.336 45.653 164.208 45.8236 164.048C45.9943 163.888 46.1223 163.701 46.2076 163.488C46.2983 163.269 46.3436 163.04 46.3436 162.8C46.3436 162.533 46.2796 162.312 46.1516 162.136C46.0236 161.96 45.8556 161.811 45.6476 161.688C45.4396 161.565 45.2023 161.461 44.9356 161.376C44.6743 161.291 44.405 161.205 44.1276 161.12C43.8503 161.035 43.5783 160.941 43.3116 160.84C43.0503 160.739 42.8156 160.611 42.6076 160.456C42.3996 160.301 42.2316 160.115 42.1036 159.896C41.9756 159.672 41.9116 159.395 41.9116 159.064C41.9116 158.781 41.973 158.509 42.0956 158.248C42.2183 157.987 42.3916 157.757 42.6156 157.56C42.845 157.363 43.1223 157.205 43.4476 157.088C43.773 156.971 44.1383 156.912 44.5436 156.912C45.029 156.912 45.4583 156.981 45.8316 157.12C46.2103 157.259 46.5543 157.472 46.8636 157.76L46.7036 158.024ZM55.3005 157.04V165H54.8765C54.7432 165 54.6658 164.931 54.6445 164.792L54.5725 163.608C54.2045 164.067 53.7778 164.435 53.2925 164.712C52.8125 164.989 52.2765 165.128 51.6845 165.128C51.2418 165.128 50.8552 165.059 50.5245 164.92C50.1938 164.781 49.9192 164.581 49.7005 164.32C49.4818 164.059 49.3165 163.744 49.2045 163.376C49.0925 163.008 49.0365 162.592 49.0365 162.128V157.04H49.8045V162.128C49.8045 162.875 49.9752 163.461 50.3165 163.888C50.6578 164.309 51.1778 164.52 51.8765 164.52C52.3938 164.52 52.8765 164.389 53.3245 164.128C53.7778 163.861 54.1805 163.493 54.5325 163.024V157.04H55.3005ZM62.2974 158.024C62.2547 158.099 62.1934 158.136 62.1134 158.136C62.0547 158.136 61.98 158.104 61.8894 158.04C61.7987 157.971 61.676 157.896 61.5214 157.816C61.372 157.731 61.1854 157.656 60.9614 157.592C60.7374 157.523 60.4654 157.488 60.1454 157.488C59.8574 157.488 59.5934 157.531 59.3534 157.616C59.1187 157.696 58.916 157.805 58.7454 157.944C58.58 158.083 58.452 158.245 58.3614 158.432C58.2707 158.613 58.2254 158.805 58.2254 159.008C58.2254 159.259 58.2894 159.467 58.4174 159.632C58.5454 159.797 58.7107 159.939 58.9134 160.056C59.1214 160.173 59.3587 160.275 59.6254 160.36C59.892 160.445 60.1614 160.531 60.4334 160.616C60.7107 160.701 60.9827 160.797 61.2494 160.904C61.516 161.005 61.7507 161.133 61.9534 161.288C62.1614 161.443 62.3294 161.632 62.4574 161.856C62.5854 162.08 62.6494 162.352 62.6494 162.672C62.6494 163.019 62.588 163.341 62.4654 163.64C62.3427 163.939 62.1614 164.197 61.9214 164.416C61.6867 164.635 61.396 164.808 61.0494 164.936C60.7027 165.064 60.3054 165.128 59.8574 165.128C59.2974 165.128 58.8147 165.04 58.4094 164.864C58.004 164.683 57.6414 164.448 57.3214 164.16L57.4974 163.888C57.524 163.845 57.5534 163.813 57.5854 163.792C57.6227 163.771 57.6707 163.76 57.7294 163.76C57.7987 163.76 57.8814 163.803 57.9774 163.888C58.0787 163.973 58.212 164.067 58.3774 164.168C58.5427 164.264 58.7454 164.355 58.9854 164.44C59.2307 164.525 59.532 164.568 59.8894 164.568C60.2254 164.568 60.5214 164.523 60.7774 164.432C61.0334 164.336 61.2467 164.208 61.4174 164.048C61.588 163.888 61.716 163.701 61.8014 163.488C61.892 163.269 61.9374 163.04 61.9374 162.8C61.9374 162.533 61.8734 162.312 61.7454 162.136C61.6174 161.96 61.4494 161.811 61.2414 161.688C61.0334 161.565 60.796 161.461 60.5294 161.376C60.268 161.291 59.9987 161.205 59.7214 161.12C59.444 161.035 59.172 160.941 58.9054 160.84C58.644 160.739 58.4094 160.611 58.2014 160.456C57.9934 160.301 57.8254 160.115 57.6974 159.896C57.5694 159.672 57.5054 159.395 57.5054 159.064C57.5054 158.781 57.5667 158.509 57.6894 158.248C57.812 157.987 57.9854 157.757 58.2094 157.56C58.4387 157.363 58.716 157.205 59.0414 157.088C59.3667 156.971 59.732 156.912 60.1374 156.912C60.6227 156.912 61.052 156.981 61.4254 157.12C61.804 157.259 62.148 157.472 62.4574 157.76L62.2974 158.024ZM69.91 157.04V165H69.15V157.04H69.91ZM70.238 154.296C70.238 154.392 70.2167 154.483 70.174 154.568C70.1367 154.648 70.086 154.72 70.022 154.784C69.958 154.848 69.8833 154.899 69.798 154.936C69.7127 154.973 69.622 154.992 69.526 154.992C69.43 154.992 69.3393 154.973 69.254 154.936C69.1687 154.899 69.094 154.848 69.03 154.784C68.966 154.72 68.9153 154.648 68.878 154.568C68.8407 154.483 68.822 154.392 68.822 154.296C68.822 154.2 68.8407 154.109 68.878 154.024C68.9153 153.933 68.966 153.856 69.03 153.792C69.094 153.728 69.1687 153.677 69.254 153.64C69.3393 153.603 69.43 153.584 69.526 153.584C69.622 153.584 69.7127 153.603 69.798 153.64C69.8833 153.677 69.958 153.728 70.022 153.792C70.086 153.856 70.1367 153.933 70.174 154.024C70.2167 154.109 70.238 154.2 70.238 154.296ZM72.6245 165V157.04H73.0485C73.1818 157.04 73.2592 157.107 73.2805 157.24L73.3525 158.392C73.6618 157.949 74.0165 157.592 74.4165 157.32C74.8165 157.048 75.2672 156.912 75.7685 156.912C76.3498 156.912 76.8138 157.08 77.1605 157.416C77.5125 157.752 77.7498 158.219 77.8725 158.816C77.9685 158.491 78.1018 158.208 78.2725 157.968C78.4485 157.728 78.6485 157.531 78.8725 157.376C79.0965 157.216 79.3392 157.099 79.6005 157.024C79.8672 156.949 80.1392 156.912 80.4165 156.912C80.8112 156.912 81.1658 156.979 81.4805 157.112C81.7952 157.24 82.0618 157.432 82.2805 157.688C82.4992 157.944 82.6672 158.259 82.7845 158.632C82.9018 159.005 82.9605 159.432 82.9605 159.912V165H82.2005V159.912C82.2005 159.133 82.0325 158.541 81.6965 158.136C81.3605 157.725 80.8805 157.52 80.2565 157.52C79.9792 157.52 79.7125 157.571 79.4565 157.672C79.2058 157.773 78.9818 157.925 78.7845 158.128C78.5925 158.325 78.4378 158.573 78.3205 158.872C78.2085 159.171 78.1525 159.517 78.1525 159.912V165H77.3845V159.912C77.3845 159.139 77.2298 158.547 76.9205 158.136C76.6165 157.725 76.1685 157.52 75.5765 157.52C75.1445 157.52 74.7445 157.648 74.3765 157.904C74.0085 158.16 73.6805 158.515 73.3925 158.968V165H72.6245ZM86.2675 163.264C86.4222 163.493 86.5822 163.688 86.7475 163.848C86.9182 164.003 87.0968 164.131 87.2835 164.232C87.4702 164.328 87.6675 164.397 87.8755 164.44C88.0888 164.483 88.3128 164.504 88.5475 164.504C89.0168 164.504 89.4275 164.419 89.7795 164.248C90.1315 164.077 90.4248 163.837 90.6595 163.528C90.8995 163.213 91.0782 162.84 91.1955 162.408C91.3182 161.971 91.3795 161.491 91.3795 160.968C91.3795 159.784 91.1608 158.915 90.7235 158.36C90.2862 157.8 89.6595 157.52 88.8435 157.52C88.3155 157.52 87.8382 157.656 87.4115 157.928C86.9848 158.2 86.6035 158.579 86.2675 159.064V163.264ZM86.2355 158.472C86.5875 157.992 86.9982 157.611 87.4675 157.328C87.9422 157.045 88.4728 156.904 89.0595 156.904C90.0355 156.904 90.7955 157.243 91.3395 157.92C91.8888 158.597 92.1635 159.613 92.1635 160.968C92.1635 161.549 92.0862 162.093 91.9315 162.6C91.7822 163.101 91.5582 163.539 91.2595 163.912C90.9662 164.28 90.6035 164.571 90.1715 164.784C89.7448 164.997 89.2515 165.104 88.6915 165.104C88.1528 165.104 87.6862 165.005 87.2915 164.808C86.8968 164.611 86.5555 164.32 86.2675 163.936V167.816H85.4995V157.04H85.9235C86.0568 157.04 86.1342 157.107 86.1555 157.24L86.2355 158.472ZM99.9116 160.216C99.9116 159.789 99.8503 159.408 99.7276 159.072C99.6103 158.731 99.4423 158.443 99.2236 158.208C99.005 157.973 98.7436 157.795 98.4396 157.672C98.141 157.544 97.8103 157.48 97.4476 157.48C97.037 157.48 96.669 157.544 96.3436 157.672C96.0183 157.8 95.7356 157.984 95.4956 158.224C95.261 158.464 95.0716 158.752 94.9276 159.088C94.7836 159.424 94.6876 159.8 94.6396 160.216H99.9116ZM94.5996 160.704V160.856C94.5996 161.453 94.669 161.979 94.8076 162.432C94.9463 162.885 95.1436 163.267 95.3996 163.576C95.6556 163.88 95.965 164.109 96.3276 164.264C96.6903 164.419 97.0956 164.496 97.5436 164.496C97.9436 164.496 98.2903 164.453 98.5836 164.368C98.877 164.277 99.1223 164.179 99.3196 164.072C99.5223 163.96 99.6823 163.861 99.7996 163.776C99.917 163.685 100.002 163.64 100.056 163.64C100.125 163.64 100.178 163.667 100.216 163.72L100.424 163.976C100.296 164.136 100.125 164.285 99.9116 164.424C99.7036 164.563 99.469 164.683 99.2076 164.784C98.9516 164.88 98.6743 164.957 98.3756 165.016C98.0823 165.075 97.7863 165.104 97.4876 165.104C96.9436 165.104 96.4476 165.011 95.9996 164.824C95.5516 164.632 95.1676 164.355 94.8476 163.992C94.5276 163.629 94.2796 163.187 94.1036 162.664C93.933 162.136 93.8476 161.533 93.8476 160.856C93.8476 160.285 93.9276 159.76 94.0876 159.28C94.253 158.795 94.4876 158.379 94.7916 158.032C95.101 157.68 95.477 157.405 95.9196 157.208C96.3676 157.011 96.8743 156.912 97.4396 156.912C97.8876 156.912 98.3036 156.989 98.6876 157.144C99.0716 157.299 99.405 157.525 99.6876 157.824C99.9703 158.117 100.192 158.48 100.352 158.912C100.517 159.344 100.6 159.84 100.6 160.4C100.6 160.517 100.584 160.597 100.552 160.64C100.52 160.683 100.466 160.704 100.392 160.704H94.5996ZM103.399 158.96C103.522 158.635 103.661 158.347 103.815 158.096C103.975 157.84 104.157 157.624 104.359 157.448C104.567 157.272 104.797 157.139 105.047 157.048C105.303 156.952 105.586 156.904 105.895 156.904C106.061 156.904 106.223 156.92 106.383 156.952C106.543 156.979 106.685 157.029 106.807 157.104L106.743 157.632C106.717 157.717 106.666 157.76 106.591 157.76C106.527 157.76 106.429 157.741 106.295 157.704C106.167 157.667 105.997 157.648 105.783 157.648C105.474 157.648 105.199 157.696 104.959 157.792C104.725 157.883 104.511 158.021 104.319 158.208C104.133 158.395 103.967 158.627 103.823 158.904C103.685 159.176 103.557 159.491 103.439 159.848V165H102.671V157.04H103.079C103.17 157.04 103.234 157.059 103.271 157.096C103.309 157.133 103.333 157.197 103.343 157.288L103.399 158.96ZM113.322 158.752C113.018 158.293 112.679 157.971 112.306 157.784C111.938 157.597 111.517 157.504 111.042 157.504C110.573 157.504 110.162 157.589 109.81 157.76C109.458 157.931 109.162 158.173 108.922 158.488C108.687 158.797 108.509 159.171 108.386 159.608C108.269 160.04 108.21 160.517 108.21 161.04C108.21 162.224 108.426 163.096 108.858 163.656C109.295 164.211 109.925 164.488 110.746 164.488C111.269 164.488 111.746 164.352 112.178 164.08C112.61 163.808 112.991 163.427 113.322 162.936V158.752ZM114.082 153.36V165H113.666C113.527 165 113.447 164.931 113.426 164.792L113.346 163.536C112.994 164.016 112.583 164.397 112.114 164.68C111.645 164.963 111.117 165.104 110.53 165.104C109.549 165.104 108.786 164.765 108.242 164.088C107.698 163.411 107.426 162.395 107.426 161.04C107.426 160.459 107.501 159.917 107.65 159.416C107.805 158.909 108.029 158.472 108.322 158.104C108.615 157.731 108.975 157.437 109.402 157.224C109.834 157.011 110.33 156.904 110.89 156.904C111.429 156.904 111.895 157.003 112.29 157.2C112.685 157.397 113.029 157.691 113.322 158.08V153.36H114.082ZM117.551 157.04V165H116.791V157.04H117.551ZM117.879 154.296C117.879 154.392 117.857 154.483 117.815 154.568C117.777 154.648 117.727 154.72 117.663 154.784C117.599 154.848 117.524 154.899 117.439 154.936C117.353 154.973 117.263 154.992 117.167 154.992C117.071 154.992 116.98 154.973 116.895 154.936C116.809 154.899 116.735 154.848 116.671 154.784C116.607 154.72 116.556 154.648 116.519 154.568C116.481 154.483 116.463 154.392 116.463 154.296C116.463 154.2 116.481 154.109 116.519 154.024C116.556 153.933 116.607 153.856 116.671 153.792C116.735 153.728 116.809 153.677 116.895 153.64C116.98 153.603 117.071 153.584 117.167 153.584C117.263 153.584 117.353 153.603 117.439 153.64C117.524 153.677 117.599 153.728 117.663 153.792C117.727 153.856 117.777 153.933 117.815 154.024C117.857 154.109 117.879 154.2 117.879 154.296ZM125.849 160.216C125.849 159.789 125.788 159.408 125.665 159.072C125.548 158.731 125.38 158.443 125.161 158.208C124.942 157.973 124.681 157.795 124.377 157.672C124.078 157.544 123.748 157.48 123.385 157.48C122.974 157.48 122.606 157.544 122.281 157.672C121.956 157.8 121.673 157.984 121.433 158.224C121.198 158.464 121.009 158.752 120.865 159.088C120.721 159.424 120.625 159.8 120.577 160.216H125.849ZM120.537 160.704V160.856C120.537 161.453 120.606 161.979 120.745 162.432C120.884 162.885 121.081 163.267 121.337 163.576C121.593 163.88 121.902 164.109 122.265 164.264C122.628 164.419 123.033 164.496 123.481 164.496C123.881 164.496 124.228 164.453 124.521 164.368C124.814 164.277 125.06 164.179 125.257 164.072C125.46 163.96 125.62 163.861 125.737 163.776C125.854 163.685 125.94 163.64 125.993 163.64C126.062 163.64 126.116 163.667 126.153 163.72L126.361 163.976C126.233 164.136 126.062 164.285 125.849 164.424C125.641 164.563 125.406 164.683 125.145 164.784C124.889 164.88 124.612 164.957 124.313 165.016C124.02 165.075 123.724 165.104 123.425 165.104C122.881 165.104 122.385 165.011 121.937 164.824C121.489 164.632 121.105 164.355 120.785 163.992C120.465 163.629 120.217 163.187 120.041 162.664C119.87 162.136 119.785 161.533 119.785 160.856C119.785 160.285 119.865 159.76 120.025 159.28C120.19 158.795 120.425 158.379 120.729 158.032C121.038 157.68 121.414 157.405 121.857 157.208C122.305 157.011 122.812 156.912 123.377 156.912C123.825 156.912 124.241 156.989 124.625 157.144C125.009 157.299 125.342 157.525 125.625 157.824C125.908 158.117 126.129 158.48 126.289 158.912C126.454 159.344 126.537 159.84 126.537 160.4C126.537 160.517 126.521 160.597 126.489 160.64C126.457 160.683 126.404 160.704 126.329 160.704H120.537ZM130.754 165.128C130.215 165.128 129.794 164.979 129.49 164.68C129.191 164.381 129.042 163.92 129.042 163.296V157.856H127.898C127.839 157.856 127.791 157.84 127.754 157.808C127.716 157.776 127.698 157.731 127.698 157.672V157.376L129.058 157.28L129.25 154.432C129.26 154.384 129.282 154.341 129.314 154.304C129.346 154.267 129.391 154.248 129.45 154.248H129.81V157.288H132.322V157.856H129.81V163.256C129.81 163.475 129.836 163.664 129.89 163.824C129.948 163.979 130.026 164.107 130.122 164.208C130.223 164.309 130.34 164.384 130.474 164.432C130.607 164.48 130.751 164.504 130.906 164.504C131.098 164.504 131.263 164.477 131.402 164.424C131.54 164.365 131.66 164.304 131.762 164.24C131.863 164.171 131.946 164.109 132.01 164.056C132.074 163.997 132.124 163.968 132.162 163.968C132.204 163.968 132.247 163.995 132.29 164.048L132.498 164.384C132.295 164.608 132.036 164.789 131.722 164.928C131.412 165.061 131.09 165.128 130.754 165.128ZM142.782 158.024C142.739 158.099 142.678 158.136 142.598 158.136C142.539 158.136 142.464 158.104 142.374 158.04C142.283 157.971 142.16 157.896 142.006 157.816C141.856 157.731 141.67 157.656 141.446 157.592C141.222 157.523 140.95 157.488 140.63 157.488C140.342 157.488 140.078 157.531 139.838 157.616C139.603 157.696 139.4 157.805 139.23 157.944C139.064 158.083 138.936 158.245 138.846 158.432C138.755 158.613 138.71 158.805 138.71 159.008C138.71 159.259 138.774 159.467 138.902 159.632C139.03 159.797 139.195 159.939 139.398 160.056C139.606 160.173 139.843 160.275 140.11 160.36C140.376 160.445 140.646 160.531 140.918 160.616C141.195 160.701 141.467 160.797 141.734 160.904C142 161.005 142.235 161.133 142.438 161.288C142.646 161.443 142.814 161.632 142.942 161.856C143.07 162.08 143.134 162.352 143.134 162.672C143.134 163.019 143.072 163.341 142.95 163.64C142.827 163.939 142.646 164.197 142.406 164.416C142.171 164.635 141.88 164.808 141.534 164.936C141.187 165.064 140.79 165.128 140.342 165.128C139.782 165.128 139.299 165.04 138.894 164.864C138.488 164.683 138.126 164.448 137.806 164.16L137.982 163.888C138.008 163.845 138.038 163.813 138.07 163.792C138.107 163.771 138.155 163.76 138.214 163.76C138.283 163.76 138.366 163.803 138.462 163.888C138.563 163.973 138.696 164.067 138.862 164.168C139.027 164.264 139.23 164.355 139.47 164.44C139.715 164.525 140.016 164.568 140.374 164.568C140.71 164.568 141.006 164.523 141.262 164.432C141.518 164.336 141.731 164.208 141.902 164.048C142.072 163.888 142.2 163.701 142.286 163.488C142.376 163.269 142.422 163.04 142.422 162.8C142.422 162.533 142.358 162.312 142.23 162.136C142.102 161.96 141.934 161.811 141.726 161.688C141.518 161.565 141.28 161.461 141.014 161.376C140.752 161.291 140.483 161.205 140.206 161.12C139.928 161.035 139.656 160.941 139.39 160.84C139.128 160.739 138.894 160.611 138.686 160.456C138.478 160.301 138.31 160.115 138.182 159.896C138.054 159.672 137.99 159.395 137.99 159.064C137.99 158.781 138.051 158.509 138.174 158.248C138.296 157.987 138.47 157.757 138.694 157.56C138.923 157.363 139.2 157.205 139.526 157.088C139.851 156.971 140.216 156.912 140.622 156.912C141.107 156.912 141.536 156.981 141.91 157.12C142.288 157.259 142.632 157.472 142.942 157.76L142.782 158.024ZM150.787 160.216C150.787 159.789 150.725 159.408 150.603 159.072C150.485 158.731 150.317 158.443 150.099 158.208C149.88 157.973 149.619 157.795 149.315 157.672C149.016 157.544 148.685 157.48 148.323 157.48C147.912 157.48 147.544 157.544 147.219 157.672C146.893 157.8 146.611 157.984 146.371 158.224C146.136 158.464 145.947 158.752 145.803 159.088C145.659 159.424 145.563 159.8 145.515 160.216H150.787ZM145.475 160.704V160.856C145.475 161.453 145.544 161.979 145.683 162.432C145.821 162.885 146.019 163.267 146.275 163.576C146.531 163.88 146.84 164.109 147.203 164.264C147.565 164.419 147.971 164.496 148.419 164.496C148.819 164.496 149.165 164.453 149.459 164.368C149.752 164.277 149.997 164.179 150.195 164.072C150.397 163.96 150.557 163.861 150.675 163.776C150.792 163.685 150.877 163.64 150.931 163.64C151 163.64 151.053 163.667 151.091 163.72L151.299 163.976C151.171 164.136 151 164.285 150.787 164.424C150.579 164.563 150.344 164.683 150.083 164.784C149.827 164.88 149.549 164.957 149.251 165.016C148.957 165.075 148.661 165.104 148.363 165.104C147.819 165.104 147.323 165.011 146.875 164.824C146.427 164.632 146.043 164.355 145.723 163.992C145.403 163.629 145.155 163.187 144.979 162.664C144.808 162.136 144.723 161.533 144.723 160.856C144.723 160.285 144.803 159.76 144.963 159.28C145.128 158.795 145.363 158.379 145.667 158.032C145.976 157.68 146.352 157.405 146.795 157.208C147.243 157.011 147.749 156.912 148.315 156.912C148.763 156.912 149.179 156.989 149.563 157.144C149.947 157.299 150.28 157.525 150.563 157.824C150.845 158.117 151.067 158.48 151.227 158.912C151.392 159.344 151.475 159.84 151.475 160.4C151.475 160.517 151.459 160.597 151.427 160.64C151.395 160.683 151.341 160.704 151.267 160.704H145.475ZM158.978 158.752C158.674 158.293 158.336 157.971 157.962 157.784C157.594 157.597 157.173 157.504 156.698 157.504C156.229 157.504 155.818 157.589 155.466 157.76C155.114 157.931 154.818 158.173 154.578 158.488C154.344 158.797 154.165 159.171 154.042 159.608C153.925 160.04 153.866 160.517 153.866 161.04C153.866 162.224 154.082 163.096 154.514 163.656C154.952 164.211 155.581 164.488 156.402 164.488C156.925 164.488 157.402 164.352 157.834 164.08C158.266 163.808 158.648 163.427 158.978 162.936V158.752ZM159.738 153.36V165H159.322C159.184 165 159.104 164.931 159.082 164.792L159.002 163.536C158.65 164.016 158.24 164.397 157.77 164.68C157.301 164.963 156.773 165.104 156.186 165.104C155.205 165.104 154.442 164.765 153.898 164.088C153.354 163.411 153.082 162.395 153.082 161.04C153.082 160.459 153.157 159.917 153.306 159.416C153.461 158.909 153.685 158.472 153.978 158.104C154.272 157.731 154.632 157.437 155.058 157.224C155.49 157.011 155.986 156.904 156.546 156.904C157.085 156.904 157.552 157.003 157.946 157.2C158.341 157.397 158.685 157.691 158.978 158.08V153.36H159.738ZM167.551 157.04V165H166.791V157.04H167.551ZM167.879 154.296C167.879 154.392 167.857 154.483 167.815 154.568C167.777 154.648 167.727 154.72 167.663 154.784C167.599 154.848 167.524 154.899 167.439 154.936C167.353 154.973 167.263 154.992 167.167 154.992C167.071 154.992 166.98 154.973 166.895 154.936C166.809 154.899 166.735 154.848 166.671 154.784C166.607 154.72 166.556 154.648 166.519 154.568C166.481 154.483 166.463 154.392 166.463 154.296C166.463 154.2 166.481 154.109 166.519 154.024C166.556 153.933 166.607 153.856 166.671 153.792C166.735 153.728 166.809 153.677 166.895 153.64C166.98 153.603 167.071 153.584 167.167 153.584C167.263 153.584 167.353 153.603 167.439 153.64C167.524 153.677 167.599 153.728 167.663 153.792C167.727 153.856 167.777 153.933 167.815 154.024C167.857 154.109 167.879 154.2 167.879 154.296ZM175.697 158.752C175.393 158.293 175.054 157.971 174.681 157.784C174.313 157.597 173.892 157.504 173.417 157.504C172.948 157.504 172.537 157.589 172.185 157.76C171.833 157.931 171.537 158.173 171.297 158.488C171.062 158.797 170.884 159.171 170.761 159.608C170.644 160.04 170.585 160.517 170.585 161.04C170.585 162.224 170.801 163.096 171.233 163.656C171.67 164.211 172.3 164.488 173.121 164.488C173.644 164.488 174.121 164.352 174.553 164.08C174.985 163.808 175.366 163.427 175.697 162.936V158.752ZM176.457 153.36V165H176.041C175.902 165 175.822 164.931 175.801 164.792L175.721 163.536C175.369 164.016 174.958 164.397 174.489 164.68C174.02 164.963 173.492 165.104 172.905 165.104C171.924 165.104 171.161 164.765 170.617 164.088C170.073 163.411 169.801 162.395 169.801 161.04C169.801 160.459 169.876 159.917 170.025 159.416C170.18 158.909 170.404 158.472 170.697 158.104C170.99 157.731 171.35 157.437 171.777 157.224C172.209 157.011 172.705 156.904 173.265 156.904C173.804 156.904 174.27 157.003 174.665 157.2C175.06 157.397 175.404 157.691 175.697 158.08V153.36H176.457ZM178.894 164.384C178.894 164.283 178.912 164.187 178.95 164.096C178.987 164.005 179.038 163.928 179.102 163.864C179.171 163.795 179.248 163.741 179.334 163.704C179.424 163.661 179.523 163.64 179.63 163.64C179.731 163.64 179.827 163.661 179.918 163.704C180.008 163.741 180.086 163.795 180.15 163.864C180.219 163.928 180.272 164.005 180.31 164.096C180.352 164.187 180.374 164.283 180.374 164.384C180.374 164.491 180.352 164.589 180.31 164.68C180.272 164.765 180.219 164.843 180.15 164.912C180.086 164.976 180.008 165.027 179.918 165.064C179.827 165.101 179.731 165.12 179.63 165.12C179.422 165.12 179.246 165.051 179.102 164.912C178.963 164.768 178.894 164.592 178.894 164.384Z" fill="#333333"/>
</g>
<defs>
<filter id="filter0_b_832_1489" x="-4" y="-4" width="232" height="202" filterUnits="userSpaceOnUse" color-interpolation-filters="sRGB">
<feFlood flood-opacity="0" result="BackgroundImageFix"/>
<feGaussianBlur in="BackgroundImageFix" stdDeviation="2"/>
<feComposite in2="SourceAlpha" operator="in" result="effect1_backgroundBlur_832_1489"/>
<feBlend mode="normal" in="SourceGraphic" in2="effect1_backgroundBlur_832_1489" result="shape"/>
</filter>
<linearGradient id="paint0_linear_832_1489" x1="54.5" y1="5.11566e-06" x2="162" y2="194" gradientUnits="userSpaceOnUse">
<stop stop-color="white"/>
<stop offset="1" stop-color="white" stop-opacity="0"/>
</linearGradient>
<clipPath id="clip0_832_1489">
<rect width="24" height="24" fill="white" transform="translate(28 36)"/>
</clipPath>
</defs>
</svg>
