<svg width="91" height="70" viewBox="0 0 91 70" fill="none" xmlns="http://www.w3.org/2000/svg">
<g clip-path="url(#clip0_846_669)">
<path d="M11.99 2C6.47 2 2 6.48 2 12C2 17.52 6.47 22 11.99 22C17.52 22 22 17.52 22 12C22 6.48 17.52 2 11.99 2ZM18.92 8H15.97C15.65 6.75 15.19 5.55 14.59 4.44C16.43 5.07 17.96 6.35 18.92 8ZM12 4.04C12.83 5.24 13.48 6.57 13.91 8H10.09C10.52 6.57 11.17 5.24 12 4.04ZM4.26 14C4.1 13.36 4 12.69 4 12C4 11.31 4.1 10.64 4.26 10H7.64C7.56 10.66 7.5 11.32 7.5 12C7.5 12.68 7.56 13.34 7.64 14H4.26ZM5.08 16H8.03C8.35 17.25 8.81 18.45 9.41 19.56C7.57 18.93 6.04 17.66 5.08 16ZM8.03 8H5.08C6.04 6.34 7.57 5.07 9.41 4.44C8.81 5.55 8.35 6.75 8.03 8ZM12 19.96C11.17 18.76 10.52 17.43 10.09 16H13.91C13.48 17.43 12.83 18.76 12 19.96ZM14.34 14H9.66C9.57 13.34 9.5 12.68 9.5 12C9.5 11.32 9.57 10.65 9.66 10H14.34C14.43 10.65 14.5 11.32 14.5 12C14.5 12.68 14.43 13.34 14.34 14ZM14.59 19.56C15.19 18.45 15.65 17.25 15.97 16H18.92C17.96 17.65 16.43 18.93 14.59 19.56ZM16.36 14C16.44 13.34 16.5 12.68 16.5 12C16.5 11.32 16.44 10.66 16.36 10H19.74C19.9 10.64 20 11.31 20 12C20 12.69 19.9 13.36 19.74 14H16.36Z" fill="#111111"/>
</g>
<path d="M3.008 45.8H9.056V47H1.728V36.44H3.008V45.8ZM14.1281 38.84C14.8855 38.84 15.5521 39.0053 16.1281 39.336C16.7148 39.6667 17.1735 40.1467 17.5041 40.776C17.8348 41.3947 18.0001 42.136 18.0001 43C18.0001 43.864 17.8348 44.6107 17.5041 45.24C17.1735 45.8587 16.7148 46.3333 16.1281 46.664C15.5521 46.9947 14.8855 47.16 14.1281 47.16C13.3815 47.16 12.7148 46.9947 12.1281 46.664C11.5415 46.3333 11.0828 45.8587 10.7521 45.24C10.4215 44.6107 10.2561 43.864 10.2561 43C10.2561 42.136 10.4215 41.3947 10.7521 40.776C11.0828 40.1467 11.5415 39.6667 12.1281 39.336C12.7148 39.0053 13.3815 38.84 14.1281 38.84ZM14.1281 39.944C13.5841 39.944 13.1201 40.0667 12.7361 40.312C12.3521 40.5573 12.0535 40.9093 11.8401 41.368C11.6375 41.816 11.5361 42.36 11.5361 43C11.5361 43.6293 11.6375 44.1733 11.8401 44.632C12.0535 45.0907 12.3521 45.4427 12.7361 45.688C13.1201 45.9333 13.5841 46.056 14.1281 46.056C14.6721 46.056 15.1361 45.9333 15.5201 45.688C15.9041 45.4427 16.1975 45.0907 16.4001 44.632C16.6135 44.1733 16.7201 43.6293 16.7201 43C16.7201 42.36 16.6135 41.816 16.4001 41.368C16.1975 40.9093 15.9041 40.5573 15.5201 40.312C15.1361 40.0667 14.6721 39.944 14.1281 39.944ZM20.4099 47V39H21.4499L21.6259 40.312C21.8499 39.8213 22.1752 39.4533 22.6019 39.208C23.0392 38.9627 23.5672 38.84 24.1859 38.84C24.3245 38.84 24.4739 38.8507 24.6339 38.872C24.8045 38.8933 24.9485 38.936 25.0659 39L24.8419 40.168C24.7245 40.1253 24.5965 40.0933 24.4579 40.072C24.3192 40.0507 24.1219 40.04 23.8659 40.04C23.5352 40.04 23.1992 40.136 22.8579 40.328C22.5272 40.52 22.2499 40.8133 22.0259 41.208C21.8019 41.592 21.6899 42.0827 21.6899 42.68V47H20.4099ZM30.0351 47.16C29.2778 47.16 28.6005 46.9947 28.0031 46.664C27.4165 46.3333 26.9578 45.8587 26.6271 45.24C26.2965 44.6107 26.1311 43.864 26.1311 43C26.1311 42.136 26.2965 41.3947 26.6271 40.776C26.9578 40.1467 27.4111 39.6667 27.9871 39.336C28.5631 39.0053 29.2191 38.84 29.9551 38.84C30.7018 38.84 31.3365 39 31.8591 39.32C32.3925 39.64 32.7978 40.0773 33.0751 40.632C33.3525 41.176 33.4911 41.7893 33.4911 42.472C33.4911 42.6533 33.4858 42.8187 33.4751 42.968C33.4645 43.1173 33.4485 43.2507 33.4271 43.368H26.9631V42.232H32.8671L32.2111 42.36C32.2111 41.592 31.9978 41 31.5711 40.584C31.1551 40.168 30.6058 39.96 29.9231 39.96C29.4005 39.96 28.9471 40.0827 28.5631 40.328C28.1898 40.5627 27.8965 40.9093 27.6831 41.368C27.4805 41.816 27.3791 42.36 27.3791 43C27.3791 43.6293 27.4858 44.1733 27.6991 44.632C27.9125 45.0907 28.2111 45.4427 28.5951 45.688C28.9898 45.9227 29.4591 46.04 30.0031 46.04C30.5898 46.04 31.0645 45.928 31.4271 45.704C31.8005 45.48 32.0991 45.176 32.3231 44.792L33.3311 45.384C33.1285 45.7467 32.8671 46.0613 32.5471 46.328C32.2378 46.5947 31.8698 46.8027 31.4431 46.952C31.0271 47.0907 30.5578 47.16 30.0351 47.16ZM35.9255 47V39H37.0455L37.1255 40.248C37.4135 39.7573 37.7868 39.4 38.2455 39.176C38.7148 38.952 39.1948 38.84 39.6855 38.84C40.2508 38.84 40.7842 38.968 41.2855 39.224C41.7868 39.48 42.1708 39.8747 42.4375 40.408C42.6082 40.0453 42.8482 39.752 43.1575 39.528C43.4668 39.2933 43.8028 39.1227 44.1655 39.016C44.5388 38.8987 44.8908 38.84 45.2215 38.84C45.7335 38.84 46.2188 38.9467 46.6775 39.16C47.1468 39.3733 47.5308 39.704 47.8295 40.152C48.1282 40.6 48.2775 41.176 48.2775 41.88V47H46.9975V42.008C46.9975 41.2827 46.8162 40.76 46.4535 40.44C46.0908 40.12 45.6428 39.96 45.1095 39.96C44.6935 39.96 44.3042 40.0613 43.9415 40.264C43.5788 40.4667 43.2855 40.7653 43.0615 41.16C42.8482 41.5547 42.7415 42.04 42.7415 42.616V47H41.4615V42.008C41.4615 41.2827 41.2802 40.76 40.9175 40.44C40.5548 40.12 40.1068 39.96 39.5735 39.96C39.2215 39.96 38.8588 40.056 38.4855 40.248C38.1228 40.4293 37.8188 40.7227 37.5735 41.128C37.3282 41.5333 37.2055 42.0667 37.2055 42.728V47H35.9255ZM57.2686 37.464C56.9806 37.464 56.746 37.3787 56.5646 37.208C56.394 37.0267 56.3086 36.792 56.3086 36.504C56.3086 36.216 56.394 35.9867 56.5646 35.816C56.746 35.6347 56.9806 35.544 57.2686 35.544C57.5566 35.544 57.786 35.6347 57.9566 35.816C58.138 35.9867 58.2286 36.216 58.2286 36.504C58.2286 36.792 58.138 37.0267 57.9566 37.208C57.786 37.3787 57.5566 37.464 57.2686 37.464ZM57.9086 39V47H56.6286V39H57.9086ZM60.8786 50.36V39H61.9986L62.1106 40.952L61.9346 40.728C62.0733 40.3547 62.2813 40.0293 62.5586 39.752C62.836 39.464 63.172 39.24 63.5666 39.08C63.9613 38.92 64.388 38.84 64.8466 38.84C65.4973 38.84 66.0946 39.0053 66.6386 39.336C67.1933 39.6667 67.636 40.1413 67.9666 40.76C68.2973 41.3787 68.4626 42.1253 68.4626 43C68.4626 43.864 68.292 44.6107 67.9506 45.24C67.62 45.8587 67.1773 46.3333 66.6226 46.664C66.068 46.9947 65.46 47.16 64.7986 47.16C64.1373 47.16 63.556 47 63.0546 46.68C62.564 46.3493 62.212 45.9333 61.9986 45.432L62.1586 45.192V50.36H60.8786ZM64.6706 46.04C65.46 46.04 66.0733 45.7627 66.5106 45.208C66.9586 44.6533 67.1826 43.9173 67.1826 43C67.1826 42.0827 66.964 41.3467 66.5266 40.792C66.1 40.2373 65.4973 39.96 64.7186 39.96C64.2066 39.96 63.7586 40.088 63.3746 40.344C62.9906 40.5893 62.692 40.9413 62.4786 41.4C62.2653 41.848 62.1586 42.3813 62.1586 43C62.1586 43.608 62.26 44.1413 62.4626 44.6C62.676 45.0587 62.9693 45.416 63.3426 45.672C63.7266 45.9173 64.1693 46.04 64.6706 46.04ZM73.7899 47.16C73.0112 47.16 72.2912 46.9947 71.6299 46.664C70.9792 46.3333 70.4779 45.864 70.1259 45.256L71.2139 44.472C71.4485 44.9627 71.7899 45.3467 72.2379 45.624C72.6965 45.9013 73.2459 46.04 73.8859 46.04C74.4512 46.04 74.8939 45.9333 75.2139 45.72C75.5339 45.496 75.6939 45.208 75.6939 44.856C75.6939 44.632 75.6192 44.4293 75.4699 44.248C75.3312 44.056 75.0592 43.9173 74.6539 43.832L72.7339 43.432C71.9552 43.272 71.3952 43.0053 71.0539 42.632C70.7232 42.2587 70.5579 41.7947 70.5579 41.24C70.5579 40.8027 70.6805 40.4027 70.9259 40.04C71.1819 39.6773 71.5392 39.3893 71.9979 39.176C72.4672 38.952 73.0165 38.84 73.6459 38.84C74.4352 38.84 75.1019 38.9947 75.6459 39.304C76.1899 39.6133 76.5952 40.0507 76.8619 40.616L75.7899 41.32C75.6085 40.8507 75.3152 40.5093 74.9099 40.296C74.5045 40.072 74.0832 39.96 73.6459 39.96C73.2619 39.96 72.9312 40.0133 72.6539 40.12C72.3872 40.2267 72.1792 40.376 72.0299 40.568C71.8912 40.7493 71.8219 40.9573 71.8219 41.192C71.8219 41.4267 71.9019 41.6453 72.0619 41.848C72.2219 42.04 72.5205 42.1787 72.9579 42.264L74.9579 42.68C75.7045 42.8293 76.2272 43.0747 76.5259 43.416C76.8245 43.7573 76.9739 44.1733 76.9739 44.664C76.9739 45.1653 76.8405 45.608 76.5739 45.992C76.3072 46.3653 75.9339 46.6533 75.4539 46.856C74.9739 47.0587 74.4192 47.16 73.7899 47.16ZM82.2434 47.16C81.7314 47.16 81.246 47.064 80.7874 46.872C80.3394 46.68 79.9714 46.3707 79.6834 45.944C79.406 45.5067 79.2674 44.9413 79.2674 44.248V39H80.5474V43.912C80.5474 44.7227 80.7234 45.2827 81.0754 45.592C81.4274 45.8907 81.9234 46.04 82.5634 46.04C82.862 46.04 83.1554 45.992 83.4434 45.896C83.7314 45.7893 83.9874 45.6293 84.2114 45.416C84.446 45.192 84.6274 44.9093 84.7554 44.568C84.894 44.2267 84.9634 43.8213 84.9634 43.352V39H86.2434V47H85.1234L85.0434 45.784C84.766 46.264 84.3874 46.616 83.9074 46.84C83.438 47.0533 82.8834 47.16 82.2434 47.16ZM4.608 66.16C3.94667 66.16 3.33867 65.9947 2.784 65.664C2.22933 65.3333 1.78667 64.8587 1.456 64.24C1.12533 63.6107 0.96 62.864 0.96 62C0.96 61.1147 1.136 60.3627 1.488 59.744C1.84 59.1253 2.304 58.656 2.88 58.336C3.456 58.0053 4.07467 57.84 4.736 57.84C5.39733 57.84 5.968 58.0107 6.448 58.352C6.93867 58.6933 7.264 59.1467 7.424 59.712L7.264 59.824V54.32H8.544V66H7.424L7.312 64.064L7.488 63.968C7.41333 64.4373 7.232 64.8373 6.944 65.168C6.66667 65.488 6.32 65.7333 5.904 65.904C5.49867 66.0747 5.06667 66.16 4.608 66.16ZM4.736 65.04C5.248 65.04 5.69067 64.912 6.064 64.656C6.448 64.4 6.74133 64.0373 6.944 63.568C7.15733 63.088 7.264 62.528 7.264 61.888C7.264 61.28 7.15733 60.7573 6.944 60.32C6.74133 59.8827 6.45333 59.5467 6.08 59.312C5.71733 59.0773 5.29067 58.96 4.8 58.96C3.98933 58.96 3.36 59.2373 2.912 59.792C2.464 60.3467 2.24 61.0827 2.24 62C2.24 62.9173 2.45867 63.6533 2.896 64.208C3.33333 64.7627 3.94667 65.04 4.736 65.04ZM14.8313 57.84C15.5886 57.84 16.2553 58.0053 16.8313 58.336C17.4179 58.6667 17.8766 59.1467 18.2073 59.776C18.5379 60.3947 18.7033 61.136 18.7033 62C18.7033 62.864 18.5379 63.6107 18.2073 64.24C17.8766 64.8587 17.4179 65.3333 16.8313 65.664C16.2553 65.9947 15.5886 66.16 14.8313 66.16C14.0846 66.16 13.4179 65.9947 12.8313 65.664C12.2446 65.3333 11.7859 64.8587 11.4553 64.24C11.1246 63.6107 10.9593 62.864 10.9593 62C10.9593 61.136 11.1246 60.3947 11.4553 59.776C11.7859 59.1467 12.2446 58.6667 12.8313 58.336C13.4179 58.0053 14.0846 57.84 14.8313 57.84ZM14.8313 58.944C14.2873 58.944 13.8233 59.0667 13.4393 59.312C13.0553 59.5573 12.7566 59.9093 12.5433 60.368C12.3406 60.816 12.2393 61.36 12.2393 62C12.2393 62.6293 12.3406 63.1733 12.5433 63.632C12.7566 64.0907 13.0553 64.4427 13.4393 64.688C13.8233 64.9333 14.2873 65.056 14.8313 65.056C15.3753 65.056 15.8393 64.9333 16.2233 64.688C16.6073 64.4427 16.9006 64.0907 17.1033 63.632C17.3166 63.1733 17.4233 62.6293 17.4233 62C17.4233 61.36 17.3166 60.816 17.1033 60.368C16.9006 59.9093 16.6073 59.5573 16.2233 59.312C15.8393 59.0667 15.3753 58.944 14.8313 58.944ZM22.329 54.32V63.968C22.329 64.3733 22.4037 64.656 22.553 64.816C22.7023 64.9653 22.9423 65.04 23.273 65.04C23.4863 65.04 23.6623 65.024 23.801 64.992C23.9397 64.96 24.1263 64.9013 24.361 64.816L24.153 65.936C23.9823 66.0107 23.7957 66.064 23.593 66.096C23.3903 66.1387 23.1823 66.16 22.969 66.16C22.3183 66.16 21.833 65.984 21.513 65.632C21.2037 65.28 21.049 64.7413 21.049 64.016V54.32H22.329ZM29.3156 57.84C30.073 57.84 30.7396 58.0053 31.3156 58.336C31.9023 58.6667 32.361 59.1467 32.6916 59.776C33.0223 60.3947 33.1876 61.136 33.1876 62C33.1876 62.864 33.0223 63.6107 32.6916 64.24C32.361 64.8587 31.9023 65.3333 31.3156 65.664C30.7396 65.9947 30.073 66.16 29.3156 66.16C28.569 66.16 27.9023 65.9947 27.3156 65.664C26.729 65.3333 26.2703 64.8587 25.9396 64.24C25.609 63.6107 25.4436 62.864 25.4436 62C25.4436 61.136 25.609 60.3947 25.9396 59.776C26.2703 59.1467 26.729 58.6667 27.3156 58.336C27.9023 58.0053 28.569 57.84 29.3156 57.84ZM29.3156 58.944C28.7716 58.944 28.3076 59.0667 27.9236 59.312C27.5396 59.5573 27.241 59.9093 27.0276 60.368C26.825 60.816 26.7236 61.36 26.7236 62C26.7236 62.6293 26.825 63.1733 27.0276 63.632C27.241 64.0907 27.5396 64.4427 27.9236 64.688C28.3076 64.9333 28.7716 65.056 29.3156 65.056C29.8596 65.056 30.3236 64.9333 30.7076 64.688C31.0916 64.4427 31.385 64.0907 31.5876 63.632C31.801 63.1733 31.9076 62.6293 31.9076 62C31.9076 61.36 31.801 60.816 31.5876 60.368C31.385 59.9093 31.0916 59.5573 30.7076 59.312C30.3236 59.0667 29.8596 58.944 29.3156 58.944ZM35.5974 66V58H36.6374L36.8134 59.312C37.0374 58.8213 37.3627 58.4533 37.7894 58.208C38.2267 57.9627 38.7547 57.84 39.3734 57.84C39.512 57.84 39.6614 57.8507 39.8214 57.872C39.992 57.8933 40.136 57.936 40.2534 58L40.0294 59.168C39.912 59.1253 39.784 59.0933 39.6454 59.072C39.5067 59.0507 39.3094 59.04 39.0534 59.04C38.7227 59.04 38.3867 59.136 38.0454 59.328C37.7147 59.52 37.4374 59.8133 37.2134 60.208C36.9894 60.592 36.8774 61.0827 36.8774 61.68V66H35.5974ZM51.8788 60.832C51.8788 60.2347 51.7188 59.776 51.3988 59.456C51.0788 59.1253 50.6254 58.96 50.0388 58.96C49.4841 58.96 49.0148 59.0827 48.6308 59.328C48.2468 59.5627 47.9641 59.9467 47.7828 60.48L46.7428 59.84C46.9561 59.2427 47.3508 58.7627 47.9268 58.4C48.5028 58.0267 49.2174 57.84 50.0708 57.84C50.6468 57.84 51.1694 57.9413 51.6388 58.144C52.1081 58.336 52.4761 58.6347 52.7428 59.04C53.0201 59.4347 53.1588 59.9467 53.1588 60.576V64.448C53.1588 64.832 53.3614 65.024 53.7668 65.024C53.9694 65.024 54.1668 64.9973 54.3588 64.944L54.2948 65.952C54.0814 66.0587 53.8041 66.112 53.4628 66.112C53.1534 66.112 52.8761 66.0533 52.6308 65.936C52.3854 65.8187 52.1934 65.6427 52.0548 65.408C51.9161 65.1627 51.8468 64.8587 51.8468 64.496V64.336L52.1668 64.384C52.0388 64.8 51.8201 65.1413 51.5108 65.408C51.2014 65.664 50.8548 65.856 50.4708 65.984C50.0868 66.1013 49.7081 66.16 49.3348 66.16C48.8654 66.16 48.4281 66.08 48.0228 65.92C47.6174 65.76 47.2921 65.52 47.0468 65.2C46.8121 64.8693 46.6948 64.464 46.6948 63.984C46.6948 63.3867 46.8921 62.896 47.2868 62.512C47.6921 62.1173 48.2521 61.8507 48.9668 61.712L52.1348 61.088V62.144L49.5588 62.672C49.0361 62.7787 48.6468 62.928 48.3908 63.12C48.1348 63.312 48.0068 63.5787 48.0068 63.92C48.0068 64.2507 48.1348 64.5227 48.3908 64.736C48.6574 64.9387 49.0308 65.04 49.5108 65.04C49.8201 65.04 50.1134 65.0027 50.3908 64.928C50.6788 64.8427 50.9348 64.72 51.1588 64.56C51.3828 64.3893 51.5588 64.1813 51.6868 63.936C51.8148 63.68 51.8788 63.3813 51.8788 63.04V60.832ZM56.2693 66V58H57.3893L57.4693 59.248C57.7573 58.7573 58.1306 58.4 58.5893 58.176C59.0586 57.952 59.5386 57.84 60.0293 57.84C60.5946 57.84 61.1279 57.968 61.6293 58.224C62.1306 58.48 62.5146 58.8747 62.7812 59.408C62.9519 59.0453 63.1919 58.752 63.5013 58.528C63.8106 58.2933 64.1466 58.1227 64.5093 58.016C64.8826 57.8987 65.2346 57.84 65.5653 57.84C66.0773 57.84 66.5626 57.9467 67.0213 58.16C67.4906 58.3733 67.8746 58.704 68.1733 59.152C68.4719 59.6 68.6213 60.176 68.6213 60.88V66H67.3413V61.008C67.3413 60.2827 67.1599 59.76 66.7973 59.44C66.4346 59.12 65.9866 58.96 65.4533 58.96C65.0373 58.96 64.6479 59.0613 64.2853 59.264C63.9226 59.4667 63.6293 59.7653 63.4053 60.16C63.1919 60.5547 63.0853 61.04 63.0853 61.616V66H61.8053V61.008C61.8053 60.2827 61.6239 59.76 61.2613 59.44C60.8986 59.12 60.4506 58.96 59.9173 58.96C59.5653 58.96 59.2026 59.056 58.8293 59.248C58.4666 59.4293 58.1626 59.7227 57.9173 60.128C57.6719 60.5333 57.5493 61.0667 57.5493 61.728V66H56.2693ZM74.8633 66.16C74.1059 66.16 73.4286 65.9947 72.8313 65.664C72.2446 65.3333 71.7859 64.8587 71.4553 64.24C71.1246 63.6107 70.9593 62.864 70.9593 62C70.9593 61.136 71.1246 60.3947 71.4553 59.776C71.7859 59.1467 72.2393 58.6667 72.8153 58.336C73.3913 58.0053 74.0473 57.84 74.7833 57.84C75.5299 57.84 76.1646 58 76.6873 58.32C77.2206 58.64 77.6259 59.0773 77.9033 59.632C78.1806 60.176 78.3193 60.7893 78.3193 61.472C78.3193 61.6533 78.3139 61.8187 78.3033 61.968C78.2926 62.1173 78.2766 62.2507 78.2552 62.368H71.7913V61.232H77.6953L77.0393 61.36C77.0393 60.592 76.8259 60 76.3993 59.584C75.9833 59.168 75.4339 58.96 74.7513 58.96C74.2286 58.96 73.7753 59.0827 73.3913 59.328C73.0179 59.5627 72.7246 59.9093 72.5113 60.368C72.3086 60.816 72.2073 61.36 72.2073 62C72.2073 62.6293 72.3139 63.1733 72.5273 63.632C72.7406 64.0907 73.0393 64.4427 73.4233 64.688C73.8179 64.9227 74.2873 65.04 74.8313 65.04C75.4179 65.04 75.8926 64.928 76.2553 64.704C76.6286 64.48 76.9273 64.176 77.1513 63.792L78.1593 64.384C77.9566 64.7467 77.6953 65.0613 77.3753 65.328C77.0659 65.5947 76.6979 65.8027 76.2713 65.952C75.8553 66.0907 75.3859 66.16 74.8633 66.16ZM82.4073 55.728V63.792C82.4073 64.1867 82.5193 64.48 82.7433 64.672C82.9673 64.864 83.2553 64.96 83.6073 64.96C83.9166 64.96 84.1833 64.9067 84.4073 64.8C84.6313 64.6933 84.8339 64.5493 85.0153 64.368L85.4633 65.44C85.2179 65.664 84.9246 65.84 84.5833 65.968C84.2526 66.096 83.8686 66.16 83.4313 66.16C83.0259 66.16 82.6473 66.0907 82.2953 65.952C81.9433 65.8027 81.6606 65.5733 81.4473 65.264C81.2446 64.944 81.1379 64.528 81.1273 64.016V56.08L82.4073 55.728ZM85.3193 58V59.104H79.5273V58H85.3193Z" fill="#111111"/>
<defs>
<clipPath id="clip0_846_669">
<rect width="24" height="24" fill="white"/>
</clipPath>
</defs>
</svg>
