<svg width="216" height="185" viewBox="0 0 216 185" fill="none" xmlns="http://www.w3.org/2000/svg">
<rect width="216" height="185" rx="24" fill="#FAEFE3"/>
<g clip-path="url(#clip0_858_576)">
<path d="M46.0002 34C39.3335 34 33.6402 38.1467 31.3335 44C33.6402 49.8533 39.3335 54 46.0002 54C52.6668 54 58.3602 49.8533 60.6668 44C58.3602 38.1467 52.6668 34 46.0002 34ZM46.0002 50.6667C42.3202 50.6667 39.3335 47.68 39.3335 44C39.3335 40.32 42.3202 37.3333 46.0002 37.3333C49.6802 37.3333 52.6668 40.32 52.6668 44C52.6668 47.68 49.6802 50.6667 46.0002 50.6667ZM46.0002 40C43.7868 40 42.0002 41.7867 42.0002 44C42.0002 46.2133 43.7868 48 46.0002 48C48.2135 48 50.0002 46.2133 50.0002 44C50.0002 41.7867 48.2135 40 46.0002 40Z" fill="#FCB782"/>
</g>
<path d="M30.16 73.72H41.72V75.88H37.18V88H34.68V75.88H30.16V73.72ZM43.1155 73.72H45.3955V75.88H43.1155V73.72ZM43.1155 77.66H45.3955V88H43.1155V77.66ZM46.8397 77.66H48.5597V74.56H50.8397V77.66H52.8997V79.36H50.8397V84.88C50.8397 85.12 50.8464 85.3267 50.8597 85.5C50.8864 85.6733 50.933 85.82 50.9997 85.94C51.0797 86.06 51.193 86.1533 51.3397 86.22C51.4864 86.2733 51.6864 86.3 51.9397 86.3C52.0997 86.3 52.2597 86.3 52.4197 86.3C52.5797 86.2867 52.7397 86.26 52.8997 86.22V87.98C52.6464 88.0067 52.3997 88.0333 52.1597 88.06C51.9197 88.0867 51.673 88.1 51.4197 88.1C50.8197 88.1 50.333 88.0467 49.9597 87.94C49.5997 87.82 49.313 87.6533 49.0997 87.44C48.8997 87.2133 48.7597 86.9333 48.6797 86.6C48.613 86.2667 48.573 85.8867 48.5597 85.46V79.36H46.8397V77.66ZM54.5998 73.72H56.8798V88H54.5998V73.72ZM66.4641 81.92C66.4374 81.56 66.3574 81.2133 66.2241 80.88C66.1041 80.5467 65.9307 80.26 65.7041 80.02C65.4907 79.7667 65.2241 79.5667 64.9041 79.42C64.5974 79.26 64.2507 79.18 63.8641 79.18C63.4641 79.18 63.0974 79.2533 62.7641 79.4C62.4441 79.5333 62.1641 79.7267 61.9241 79.98C61.6974 80.22 61.5107 80.5067 61.3641 80.84C61.2307 81.1733 61.1574 81.5333 61.1441 81.92H66.4641ZM61.1441 83.42C61.1441 83.82 61.1974 84.2067 61.3041 84.58C61.4241 84.9533 61.5974 85.28 61.8241 85.56C62.0507 85.84 62.3374 86.0667 62.6841 86.24C63.0307 86.4 63.4441 86.48 63.9241 86.48C64.5907 86.48 65.1241 86.34 65.5241 86.06C65.9374 85.7667 66.2441 85.3333 66.4441 84.76H68.6041C68.4841 85.32 68.2774 85.82 67.9841 86.26C67.6907 86.7 67.3374 87.0733 66.9241 87.38C66.5107 87.6733 66.0441 87.8933 65.5241 88.04C65.0174 88.2 64.4841 88.28 63.9241 88.28C63.1107 88.28 62.3907 88.1467 61.7641 87.88C61.1374 87.6133 60.6041 87.24 60.1641 86.76C59.7374 86.28 59.4107 85.7067 59.1841 85.04C58.9707 84.3733 58.8641 83.64 58.8641 82.84C58.8641 82.1067 58.9774 81.4133 59.2041 80.76C59.4441 80.0933 59.7774 79.5133 60.2041 79.02C60.6441 78.5133 61.1707 78.1133 61.7841 77.82C62.3974 77.5267 63.0907 77.38 63.8641 77.38C64.6774 77.38 65.4041 77.5533 66.0441 77.9C66.6974 78.2333 67.2374 78.68 67.6641 79.24C68.0907 79.8 68.3974 80.4467 68.5841 81.18C68.7841 81.9 68.8374 82.6467 68.7441 83.42H61.1441Z" fill="#000103"/>
<path d="M31.152 104.576V116H38.64V115.072H32.24V104.576H31.152ZM43.0418 108.352C43.5218 108.352 43.9431 108.453 44.3058 108.656C44.6684 108.859 44.9671 109.125 45.2018 109.456C45.4471 109.787 45.6284 110.165 45.7458 110.592C45.8738 111.008 45.9378 111.435 45.9378 111.872C45.9378 112.309 45.8738 112.741 45.7458 113.168C45.6284 113.584 45.4471 113.957 45.2018 114.288C44.9671 114.619 44.6684 114.885 44.3058 115.088C43.9431 115.291 43.5218 115.392 43.0418 115.392C42.5618 115.392 42.1404 115.291 41.7778 115.088C41.4151 114.885 41.1111 114.619 40.8658 114.288C40.6311 113.957 40.4498 113.584 40.3218 113.168C40.2044 112.741 40.1458 112.309 40.1458 111.872C40.1458 111.435 40.2044 111.008 40.3218 110.592C40.4498 110.165 40.6311 109.787 40.8658 109.456C41.1111 109.125 41.4151 108.859 41.7778 108.656C42.1404 108.453 42.5618 108.352 43.0418 108.352ZM43.0418 107.504C42.4124 107.504 41.8524 107.621 41.3618 107.856C40.8818 108.091 40.4764 108.405 40.1458 108.8C39.8151 109.195 39.5644 109.659 39.3938 110.192C39.2231 110.715 39.1378 111.275 39.1378 111.872C39.1378 112.469 39.2231 113.035 39.3938 113.568C39.5644 114.091 39.8151 114.549 40.1458 114.944C40.4764 115.339 40.8818 115.653 41.3618 115.888C41.8524 116.112 42.4124 116.224 43.0418 116.224C43.6711 116.224 44.2258 116.112 44.7058 115.888C45.1964 115.653 45.6071 115.339 45.9378 114.944C46.2684 114.549 46.5191 114.091 46.6898 113.568C46.8604 113.035 46.9458 112.469 46.9458 111.872C46.9458 111.275 46.8604 110.715 46.6898 110.192C46.5191 109.659 46.2684 109.195 45.9378 108.8C45.6071 108.405 45.1964 108.091 44.7058 107.856C44.2258 107.621 43.6711 107.504 43.0418 107.504ZM48.4444 107.744V116H49.4524V111.6C49.4524 111.163 49.527 110.763 49.6764 110.4C49.8257 110.027 50.0337 109.707 50.3004 109.44C50.5777 109.173 50.903 108.971 51.2764 108.832C51.6497 108.683 52.0657 108.619 52.5244 108.64V107.632C51.7777 107.6 51.1324 107.765 50.5884 108.128C50.055 108.491 49.6604 109.008 49.4044 109.68H49.3724V107.744H48.4444ZM59.146 111.296H53.802C53.8447 110.923 53.93 110.56 54.058 110.208C54.1967 109.845 54.378 109.531 54.602 109.264C54.826 108.987 55.098 108.768 55.418 108.608C55.738 108.437 56.106 108.352 56.522 108.352C56.9273 108.352 57.29 108.437 57.61 108.608C57.93 108.768 58.202 108.987 58.426 109.264C58.65 109.531 58.8207 109.84 58.938 110.192C59.066 110.544 59.1353 110.912 59.146 111.296ZM53.802 112.144H60.154C60.1753 111.568 60.122 111.003 59.994 110.448C59.866 109.883 59.6527 109.387 59.354 108.96C59.066 108.523 58.6873 108.171 58.218 107.904C57.7487 107.637 57.1833 107.504 56.522 107.504C55.8713 107.504 55.306 107.632 54.826 107.888C54.3567 108.133 53.9727 108.464 53.674 108.88C53.3753 109.285 53.1513 109.749 53.002 110.272C52.8633 110.795 52.794 111.328 52.794 111.872C52.794 112.459 52.8633 113.019 53.002 113.552C53.1513 114.075 53.3753 114.539 53.674 114.944C53.9727 115.339 54.3567 115.653 54.826 115.888C55.306 116.112 55.8713 116.224 56.522 116.224C57.5673 116.224 58.3727 115.968 58.938 115.456C59.514 114.944 59.9087 114.219 60.122 113.28H59.114C58.954 113.92 58.666 114.432 58.25 114.816C57.834 115.2 57.258 115.392 56.522 115.392C56.042 115.392 55.6313 115.291 55.29 115.088C54.9487 114.885 54.666 114.629 54.442 114.32C54.218 114.011 54.0527 113.664 53.946 113.28C53.85 112.885 53.802 112.507 53.802 112.144ZM61.5069 107.744V116H62.5149V111.392C62.5149 110.955 62.5629 110.555 62.6589 110.192C62.7549 109.819 62.8989 109.499 63.0909 109.232C63.2935 108.955 63.5495 108.741 63.8589 108.592C64.1789 108.432 64.5522 108.352 64.9789 108.352C65.2989 108.352 65.5709 108.405 65.7949 108.512C66.0189 108.619 66.1949 108.768 66.3229 108.96C66.4615 109.141 66.5575 109.36 66.6109 109.616C66.6749 109.861 66.7069 110.123 66.7069 110.4V116H67.7149V111.328C67.7149 110.944 67.7469 110.576 67.8109 110.224C67.8855 109.861 68.0082 109.541 68.1789 109.264C68.3495 108.987 68.5789 108.768 68.8669 108.608C69.1549 108.437 69.5175 108.352 69.9549 108.352C70.6802 108.352 71.1869 108.533 71.4749 108.896C71.7629 109.248 71.9069 109.765 71.9069 110.448V116H72.9149V110.4C72.9149 108.469 72.0029 107.504 70.1789 107.504C69.6349 107.504 69.1229 107.637 68.6429 107.904C68.1629 108.171 67.8002 108.576 67.5549 109.12C67.4055 108.576 67.1069 108.171 66.6589 107.904C66.2215 107.637 65.7309 107.504 65.1869 107.504C64.5149 107.504 63.9602 107.648 63.5229 107.936C63.0962 108.224 62.7495 108.624 62.4829 109.136H62.4349V107.744H61.5069ZM79.3041 104.576V106.192H80.3121V104.576H79.3041ZM79.3041 107.744V116H80.3121V107.744H79.3041ZM82.2413 107.744V119.04H83.2493V114.432H83.2812C83.3879 114.731 83.5373 114.992 83.7293 115.216C83.9319 115.44 84.1613 115.627 84.4173 115.776C84.6733 115.925 84.9506 116.037 85.2493 116.112C85.5479 116.187 85.8466 116.224 86.1453 116.224C86.7746 116.224 87.3186 116.112 87.7773 115.888C88.2466 115.653 88.6359 115.339 88.9453 114.944C89.2546 114.539 89.4839 114.075 89.6333 113.552C89.7826 113.019 89.8573 112.459 89.8573 111.872C89.8573 111.285 89.7826 110.731 89.6333 110.208C89.4839 109.675 89.2546 109.211 88.9453 108.816C88.6359 108.411 88.2466 108.091 87.7773 107.856C87.3186 107.621 86.7746 107.504 86.1453 107.504C85.4733 107.504 84.8706 107.664 84.3373 107.984C83.8146 108.293 83.4359 108.736 83.2013 109.312H83.1693V107.744H82.2413ZM88.8493 111.872C88.8493 112.299 88.7959 112.725 88.6893 113.152C88.5933 113.568 88.4333 113.941 88.2093 114.272C87.9959 114.603 87.7186 114.875 87.3773 115.088C87.0359 115.291 86.6253 115.392 86.1453 115.392C85.6119 115.392 85.1586 115.291 84.7853 115.088C84.4226 114.875 84.1239 114.603 83.8893 114.272C83.6653 113.941 83.4999 113.568 83.3932 113.152C83.2973 112.725 83.2493 112.299 83.2493 111.872C83.2493 111.403 83.2919 110.955 83.3773 110.528C83.4733 110.101 83.6333 109.728 83.8573 109.408C84.0813 109.088 84.3799 108.832 84.7533 108.64C85.1266 108.448 85.5906 108.352 86.1453 108.352C86.6253 108.352 87.0359 108.459 87.3773 108.672C87.7186 108.875 87.9959 109.141 88.2093 109.472C88.4333 109.803 88.5933 110.181 88.6893 110.608C88.7959 111.024 88.8493 111.445 88.8493 111.872ZM96.3728 110.16H97.3808C97.3594 109.712 97.2688 109.323 97.1088 108.992C96.9488 108.661 96.7301 108.384 96.4528 108.16C96.1861 107.936 95.8714 107.771 95.5088 107.664C95.1568 107.557 94.7728 107.504 94.3568 107.504C93.9941 107.504 93.6261 107.547 93.2528 107.632C92.8901 107.717 92.5594 107.851 92.2608 108.032C91.9621 108.213 91.7168 108.453 91.5247 108.752C91.3434 109.051 91.2528 109.408 91.2528 109.824C91.2528 110.176 91.3114 110.475 91.4288 110.72C91.5461 110.955 91.7061 111.157 91.9088 111.328C92.1221 111.488 92.3674 111.627 92.6448 111.744C92.9221 111.851 93.2261 111.947 93.5568 112.032L94.8528 112.32C95.0768 112.373 95.2954 112.437 95.5088 112.512C95.7328 112.587 95.9301 112.683 96.1008 112.8C96.2714 112.907 96.4048 113.045 96.5008 113.216C96.6074 113.376 96.6608 113.579 96.6608 113.824C96.6608 114.112 96.5861 114.357 96.4368 114.56C96.2981 114.752 96.1168 114.912 95.8928 115.04C95.6688 115.168 95.4234 115.259 95.1568 115.312C94.9008 115.365 94.6501 115.392 94.4048 115.392C93.7328 115.392 93.1674 115.221 92.7088 114.88C92.2608 114.528 92.0154 114.011 91.9728 113.328H90.9648C91.0501 114.341 91.3914 115.077 91.9888 115.536C92.5968 115.995 93.3861 116.224 94.3568 116.224C94.7408 116.224 95.1301 116.181 95.5248 116.096C95.9194 116.011 96.2714 115.872 96.5808 115.68C96.9008 115.477 97.1621 115.221 97.3648 114.912C97.5674 114.592 97.6688 114.208 97.6688 113.76C97.6688 113.397 97.5994 113.083 97.4608 112.816C97.3221 112.549 97.1408 112.325 96.9168 112.144C96.7034 111.963 96.4528 111.819 96.1648 111.712C95.8874 111.595 95.6048 111.515 95.3168 111.472L93.9728 111.168C93.8021 111.125 93.6154 111.072 93.4128 111.008C93.2101 110.933 93.0234 110.843 92.8528 110.736C92.6821 110.629 92.5381 110.501 92.4208 110.352C92.3141 110.192 92.2608 110 92.2608 109.776C92.2608 109.509 92.3194 109.285 92.4368 109.104C92.5541 108.923 92.7088 108.779 92.9008 108.672C93.0928 108.555 93.3008 108.475 93.5248 108.432C93.7594 108.379 93.9888 108.352 94.2128 108.352C94.5008 108.352 94.7728 108.389 95.0288 108.464C95.2848 108.528 95.5088 108.635 95.7008 108.784C95.9034 108.933 96.0634 109.125 96.1808 109.36C96.2981 109.584 96.3621 109.851 96.3728 110.16ZM105.82 116V107.744H104.812V112.08C104.812 112.496 104.764 112.907 104.668 113.312C104.572 113.707 104.423 114.059 104.22 114.368C104.017 114.677 103.761 114.928 103.452 115.12C103.143 115.301 102.769 115.392 102.332 115.392C101.532 115.392 100.967 115.2 100.636 114.816C100.316 114.432 100.145 113.867 100.124 113.12V107.744H99.1159V113.104C99.1159 113.595 99.1692 114.032 99.2759 114.416C99.3825 114.8 99.5479 115.125 99.7719 115.392C100.007 115.659 100.305 115.861 100.668 116C101.041 116.149 101.489 116.224 102.012 116.224C102.631 116.224 103.191 116.08 103.692 115.792C104.204 115.493 104.593 115.067 104.86 114.512H104.892V116H105.82ZM107.726 107.744V116H108.734V111.392C108.734 110.955 108.782 110.555 108.878 110.192C108.974 109.819 109.118 109.499 109.31 109.232C109.512 108.955 109.768 108.741 110.078 108.592C110.398 108.432 110.771 108.352 111.198 108.352C111.518 108.352 111.79 108.405 112.014 108.512C112.238 108.619 112.414 108.768 112.542 108.96C112.68 109.141 112.776 109.36 112.83 109.616C112.894 109.861 112.926 110.123 112.926 110.4V116H113.934V111.328C113.934 110.944 113.966 110.576 114.03 110.224C114.104 109.861 114.227 109.541 114.398 109.264C114.568 108.987 114.798 108.768 115.086 108.608C115.374 108.437 115.736 108.352 116.174 108.352C116.899 108.352 117.406 108.533 117.694 108.896C117.982 109.248 118.126 109.765 118.126 110.448V116H119.134V110.4C119.134 108.469 118.222 107.504 116.398 107.504C115.854 107.504 115.342 107.637 114.862 107.904C114.382 108.171 114.019 108.576 113.774 109.12C113.624 108.576 113.326 108.171 112.878 107.904C112.44 107.637 111.95 107.504 111.406 107.504C110.734 107.504 110.179 107.648 109.742 107.936C109.315 108.224 108.968 108.624 108.702 109.136H108.654V107.744H107.726ZM132.771 116V104.576H131.763V109.312H131.731C131.624 109.013 131.47 108.752 131.267 108.528C131.075 108.304 130.851 108.117 130.595 107.968C130.339 107.808 130.062 107.691 129.763 107.616C129.475 107.541 129.176 107.504 128.867 107.504C128.238 107.504 127.688 107.621 127.219 107.856C126.76 108.091 126.376 108.411 126.067 108.816C125.758 109.211 125.528 109.675 125.379 110.208C125.23 110.731 125.155 111.285 125.155 111.872C125.155 112.459 125.23 113.019 125.379 113.552C125.528 114.075 125.758 114.539 126.067 114.944C126.376 115.339 126.76 115.653 127.219 115.888C127.688 116.112 128.238 116.224 128.867 116.224C129.166 116.224 129.464 116.181 129.763 116.096C130.072 116.011 130.36 115.893 130.627 115.744C130.894 115.584 131.128 115.392 131.331 115.168C131.544 114.944 131.704 114.699 131.811 114.432H131.843V116H132.771ZM126.163 111.872C126.163 111.445 126.211 111.024 126.307 110.608C126.414 110.181 126.574 109.803 126.787 109.472C127.011 109.141 127.294 108.875 127.635 108.672C127.976 108.459 128.387 108.352 128.867 108.352C129.4 108.352 129.848 108.459 130.211 108.672C130.584 108.875 130.883 109.141 131.107 109.472C131.342 109.803 131.507 110.181 131.603 110.608C131.71 111.024 131.763 111.445 131.763 111.872C131.763 112.299 131.71 112.725 131.603 113.152C131.507 113.568 131.342 113.941 131.107 114.272C130.883 114.603 130.584 114.875 130.211 115.088C129.848 115.291 129.4 115.392 128.867 115.392C128.387 115.392 127.976 115.291 127.635 115.088C127.294 114.875 127.011 114.603 126.787 114.272C126.574 113.941 126.414 113.568 126.307 113.152C126.211 112.725 126.163 112.299 126.163 111.872ZM138.182 108.352C138.662 108.352 139.084 108.453 139.446 108.656C139.809 108.859 140.108 109.125 140.342 109.456C140.588 109.787 140.769 110.165 140.886 110.592C141.014 111.008 141.078 111.435 141.078 111.872C141.078 112.309 141.014 112.741 140.886 113.168C140.769 113.584 140.588 113.957 140.342 114.288C140.108 114.619 139.809 114.885 139.446 115.088C139.084 115.291 138.662 115.392 138.182 115.392C137.702 115.392 137.281 115.291 136.918 115.088C136.556 114.885 136.252 114.619 136.006 114.288C135.772 113.957 135.59 113.584 135.462 113.168C135.345 112.741 135.286 112.309 135.286 111.872C135.286 111.435 135.345 111.008 135.462 110.592C135.59 110.165 135.772 109.787 136.006 109.456C136.252 109.125 136.556 108.859 136.918 108.656C137.281 108.453 137.702 108.352 138.182 108.352ZM138.182 107.504C137.553 107.504 136.993 107.621 136.502 107.856C136.022 108.091 135.617 108.405 135.286 108.8C134.956 109.195 134.705 109.659 134.534 110.192C134.364 110.715 134.278 111.275 134.278 111.872C134.278 112.469 134.364 113.035 134.534 113.568C134.705 114.091 134.956 114.549 135.286 114.944C135.617 115.339 136.022 115.653 136.502 115.888C136.993 116.112 137.553 116.224 138.182 116.224C138.812 116.224 139.366 116.112 139.846 115.888C140.337 115.653 140.748 115.339 141.078 114.944C141.409 114.549 141.66 114.091 141.83 113.568C142.001 113.035 142.086 112.469 142.086 111.872C142.086 111.275 142.001 110.715 141.83 110.192C141.66 109.659 141.409 109.195 141.078 108.8C140.748 108.405 140.337 108.091 139.846 107.856C139.366 107.621 138.812 107.504 138.182 107.504ZM143.601 104.576V116H144.609V104.576H143.601ZM150.026 108.352C150.506 108.352 150.927 108.453 151.29 108.656C151.653 108.859 151.951 109.125 152.186 109.456C152.431 109.787 152.613 110.165 152.73 110.592C152.858 111.008 152.922 111.435 152.922 111.872C152.922 112.309 152.858 112.741 152.73 113.168C152.613 113.584 152.431 113.957 152.186 114.288C151.951 114.619 151.653 114.885 151.29 115.088C150.927 115.291 150.506 115.392 150.026 115.392C149.546 115.392 149.125 115.291 148.762 115.088C148.399 114.885 148.095 114.619 147.85 114.288C147.615 113.957 147.434 113.584 147.306 113.168C147.189 112.741 147.13 112.309 147.13 111.872C147.13 111.435 147.189 111.008 147.306 110.592C147.434 110.165 147.615 109.787 147.85 109.456C148.095 109.125 148.399 108.859 148.762 108.656C149.125 108.453 149.546 108.352 150.026 108.352ZM150.026 107.504C149.397 107.504 148.837 107.621 148.346 107.856C147.866 108.091 147.461 108.405 147.13 108.8C146.799 109.195 146.549 109.659 146.378 110.192C146.207 110.715 146.122 111.275 146.122 111.872C146.122 112.469 146.207 113.035 146.378 113.568C146.549 114.091 146.799 114.549 147.13 114.944C147.461 115.339 147.866 115.653 148.346 115.888C148.837 116.112 149.397 116.224 150.026 116.224C150.655 116.224 151.21 116.112 151.69 115.888C152.181 115.653 152.591 115.339 152.922 114.944C153.253 114.549 153.503 114.091 153.674 113.568C153.845 113.035 153.93 112.469 153.93 111.872C153.93 111.275 153.845 110.715 153.674 110.192C153.503 109.659 153.253 109.195 152.922 108.8C152.591 108.405 152.181 108.091 151.69 107.856C151.21 107.621 150.655 107.504 150.026 107.504ZM155.429 107.744V116H156.437V111.6C156.437 111.163 156.511 110.763 156.661 110.4C156.81 110.027 157.018 109.707 157.285 109.44C157.562 109.173 157.887 108.971 158.261 108.832C158.634 108.683 159.05 108.619 159.509 108.64V107.632C158.762 107.6 158.117 107.765 157.573 108.128C157.039 108.491 156.645 109.008 156.389 109.68H156.357V107.744H155.429ZM169.873 110.16H170.881C170.859 109.712 170.769 109.323 170.609 108.992C170.449 108.661 170.23 108.384 169.953 108.16C169.686 107.936 169.371 107.771 169.009 107.664C168.657 107.557 168.273 107.504 167.857 107.504C167.494 107.504 167.126 107.547 166.753 107.632C166.39 107.717 166.059 107.851 165.761 108.032C165.462 108.213 165.217 108.453 165.025 108.752C164.843 109.051 164.753 109.408 164.753 109.824C164.753 110.176 164.811 110.475 164.929 110.72C165.046 110.955 165.206 111.157 165.409 111.328C165.622 111.488 165.867 111.627 166.145 111.744C166.422 111.851 166.726 111.947 167.057 112.032L168.353 112.32C168.577 112.373 168.795 112.437 169.009 112.512C169.233 112.587 169.43 112.683 169.601 112.8C169.771 112.907 169.905 113.045 170.001 113.216C170.107 113.376 170.161 113.579 170.161 113.824C170.161 114.112 170.086 114.357 169.937 114.56C169.798 114.752 169.617 114.912 169.393 115.04C169.169 115.168 168.923 115.259 168.657 115.312C168.401 115.365 168.15 115.392 167.905 115.392C167.233 115.392 166.667 115.221 166.209 114.88C165.761 114.528 165.515 114.011 165.473 113.328H164.465C164.55 114.341 164.891 115.077 165.489 115.536C166.097 115.995 166.886 116.224 167.857 116.224C168.241 116.224 168.63 116.181 169.025 116.096C169.419 116.011 169.771 115.872 170.081 115.68C170.401 115.477 170.662 115.221 170.865 114.912C171.067 114.592 171.169 114.208 171.169 113.76C171.169 113.397 171.099 113.083 170.961 112.816C170.822 112.549 170.641 112.325 170.417 112.144C170.203 111.963 169.953 111.819 169.665 111.712C169.387 111.595 169.105 111.515 168.817 111.472L167.473 111.168C167.302 111.125 167.115 111.072 166.913 111.008C166.71 110.933 166.523 110.843 166.353 110.736C166.182 110.629 166.038 110.501 165.921 110.352C165.814 110.192 165.761 110 165.761 109.776C165.761 109.509 165.819 109.285 165.937 109.104C166.054 108.923 166.209 108.779 166.401 108.672C166.593 108.555 166.801 108.475 167.025 108.432C167.259 108.379 167.489 108.352 167.713 108.352C168.001 108.352 168.273 108.389 168.529 108.464C168.785 108.528 169.009 108.635 169.201 108.784C169.403 108.933 169.563 109.125 169.681 109.36C169.798 109.584 169.862 109.851 169.873 110.16ZM172.648 104.576V106.192H173.656V104.576H172.648ZM172.648 107.744V116H173.656V107.744H172.648ZM177.185 107.744V105.264H176.177V107.744H174.737V108.592H176.177V114.24C176.166 114.944 176.294 115.429 176.561 115.696C176.828 115.952 177.297 116.08 177.969 116.08C178.118 116.08 178.268 116.075 178.417 116.064C178.566 116.053 178.716 116.048 178.865 116.048V115.2C178.577 115.232 178.289 115.248 178.001 115.248C177.638 115.227 177.409 115.125 177.313 114.944C177.228 114.752 177.185 114.491 177.185 114.16V108.592H178.865V107.744H177.185ZM30.864 129.272H31.872C31.8933 128.6 32.1067 128.115 32.512 127.816C32.9173 127.507 33.44 127.352 34.08 127.352C34.3787 127.352 34.656 127.379 34.912 127.432C35.1787 127.475 35.408 127.56 35.6 127.688C35.8027 127.816 35.9573 127.992 36.064 128.216C36.1813 128.429 36.24 128.707 36.24 129.048C36.24 129.272 36.208 129.453 36.144 129.592C36.0907 129.731 36.0107 129.843 35.904 129.928C35.7973 130.003 35.664 130.056 35.504 130.088C35.344 130.12 35.1573 130.147 34.944 130.168C34.4 130.232 33.8613 130.301 33.328 130.376C32.8053 130.44 32.3307 130.557 31.904 130.728C31.488 130.899 31.152 131.149 30.896 131.48C30.64 131.8 30.512 132.248 30.512 132.824C30.512 133.24 30.5813 133.603 30.72 133.912C30.8693 134.211 31.0667 134.461 31.312 134.664C31.568 134.856 31.8613 134.995 32.192 135.08C32.5333 135.176 32.896 135.224 33.28 135.224C33.6853 135.224 34.032 135.187 34.32 135.112C34.6187 135.037 34.88 134.931 35.104 134.792C35.3387 134.653 35.5467 134.483 35.728 134.28C35.92 134.067 36.1067 133.827 36.288 133.56H36.32C36.32 133.773 36.3307 133.971 36.352 134.152C36.384 134.323 36.4427 134.472 36.528 134.6C36.6133 134.728 36.7307 134.829 36.88 134.904C37.04 134.968 37.248 135 37.504 135C37.6427 135 37.7547 134.995 37.84 134.984C37.936 134.973 38.0427 134.957 38.16 134.936V134.088C38.064 134.131 37.9573 134.152 37.84 134.152C37.4453 134.152 37.248 133.949 37.248 133.544V129.16C37.248 128.605 37.1573 128.157 36.976 127.816C36.7947 127.464 36.56 127.192 36.272 127C35.984 126.808 35.6587 126.68 35.296 126.616C34.9333 126.541 34.5707 126.504 34.208 126.504C33.728 126.504 33.2907 126.557 32.896 126.664C32.5013 126.771 32.1547 126.936 31.856 127.16C31.568 127.384 31.3387 127.672 31.168 128.024C30.9973 128.376 30.896 128.792 30.864 129.272ZM36.24 130.488V131.8C36.24 132.205 36.16 132.568 36 132.888C35.8507 133.208 35.6427 133.48 35.376 133.704C35.12 133.928 34.816 134.099 34.464 134.216C34.112 134.333 33.744 134.392 33.36 134.392C33.1253 134.392 32.896 134.355 32.672 134.28C32.448 134.205 32.2507 134.099 32.08 133.96C31.9093 133.811 31.7707 133.64 31.664 133.448C31.568 133.245 31.52 133.016 31.52 132.76C31.52 132.355 31.6373 132.045 31.872 131.832C32.1173 131.608 32.4267 131.437 32.8 131.32C33.1733 131.203 33.584 131.117 34.032 131.064C34.4907 131 34.9333 130.931 35.36 130.856C35.4987 130.835 35.6587 130.797 35.84 130.744C36.0213 130.691 36.144 130.605 36.208 130.488H36.24ZM39.2569 126.744V135H40.2649V130.392C40.2649 129.955 40.3129 129.555 40.4089 129.192C40.5049 128.819 40.6489 128.499 40.8409 128.232C41.0435 127.955 41.2995 127.741 41.6089 127.592C41.9289 127.432 42.3022 127.352 42.7289 127.352C43.0489 127.352 43.3209 127.405 43.5449 127.512C43.7689 127.619 43.9449 127.768 44.0729 127.96C44.2115 128.141 44.3075 128.36 44.3609 128.616C44.4249 128.861 44.4569 129.123 44.4569 129.4V135H45.4649V130.328C45.4649 129.944 45.4969 129.576 45.5609 129.224C45.6355 128.861 45.7582 128.541 45.9289 128.264C46.0995 127.987 46.3289 127.768 46.6169 127.608C46.9049 127.437 47.2675 127.352 47.7049 127.352C48.4302 127.352 48.9369 127.533 49.2249 127.896C49.5129 128.248 49.6569 128.765 49.6569 129.448V135H50.6649V129.4C50.6649 127.469 49.7529 126.504 47.9289 126.504C47.3849 126.504 46.8729 126.637 46.3929 126.904C45.9129 127.171 45.5502 127.576 45.3049 128.12C45.1555 127.576 44.8569 127.171 44.4089 126.904C43.9715 126.637 43.4809 126.504 42.9369 126.504C42.2649 126.504 41.7102 126.648 41.2729 126.936C40.8462 127.224 40.4995 127.624 40.2329 128.136H40.1849V126.744H39.2569ZM58.521 130.296H53.177C53.2197 129.923 53.305 129.56 53.433 129.208C53.5717 128.845 53.753 128.531 53.977 128.264C54.201 127.987 54.473 127.768 54.793 127.608C55.113 127.437 55.481 127.352 55.897 127.352C56.3023 127.352 56.665 127.437 56.985 127.608C57.305 127.768 57.577 127.987 57.801 128.264C58.025 128.531 58.1957 128.84 58.313 129.192C58.441 129.544 58.5103 129.912 58.521 130.296ZM53.177 131.144H59.529C59.5503 130.568 59.497 130.003 59.369 129.448C59.241 128.883 59.0277 128.387 58.729 127.96C58.441 127.523 58.0623 127.171 57.593 126.904C57.1237 126.637 56.5583 126.504 55.897 126.504C55.2463 126.504 54.681 126.632 54.201 126.888C53.7317 127.133 53.3477 127.464 53.049 127.88C52.7503 128.285 52.5263 128.749 52.377 129.272C52.2383 129.795 52.169 130.328 52.169 130.872C52.169 131.459 52.2383 132.019 52.377 132.552C52.5263 133.075 52.7503 133.539 53.049 133.944C53.3477 134.339 53.7317 134.653 54.201 134.888C54.681 135.112 55.2463 135.224 55.897 135.224C56.9423 135.224 57.7477 134.968 58.313 134.456C58.889 133.944 59.2837 133.219 59.497 132.28H58.489C58.329 132.92 58.041 133.432 57.625 133.816C57.209 134.2 56.633 134.392 55.897 134.392C55.417 134.392 55.0063 134.291 54.665 134.088C54.3237 133.885 54.041 133.629 53.817 133.32C53.593 133.011 53.4277 132.664 53.321 132.28C53.225 131.885 53.177 131.507 53.177 131.144ZM62.4819 126.744V124.264H61.4739V126.744H60.0339V127.592H61.4739V133.24C61.4632 133.944 61.5912 134.429 61.8579 134.696C62.1245 134.952 62.5939 135.08 63.2659 135.08C63.4152 135.08 63.5645 135.075 63.7139 135.064C63.8632 135.053 64.0125 135.048 64.1619 135.048V134.2C63.8739 134.232 63.5859 134.248 63.2979 134.248C62.9352 134.227 62.7059 134.125 62.6099 133.944C62.5245 133.752 62.4819 133.491 62.4819 133.16V127.592H64.1619V126.744H62.4819ZM67.5523 133.304H66.2083V135H66.8803C66.8909 135.117 66.8803 135.251 66.8483 135.4C66.8269 135.56 66.7843 135.709 66.7203 135.848C66.6563 135.997 66.5763 136.131 66.4803 136.248C66.3843 136.365 66.2723 136.445 66.1443 136.488V137.176C66.3789 137.112 66.5816 137.005 66.7523 136.856C66.9336 136.707 67.0829 136.531 67.2003 136.328C67.3176 136.136 67.4029 135.923 67.4563 135.688C67.5203 135.464 67.5523 135.235 67.5523 135V133.304ZM80.3465 129.336H81.3545C81.2372 128.387 80.8692 127.677 80.2505 127.208C79.6425 126.739 78.8958 126.504 78.0105 126.504C77.3812 126.504 76.8212 126.621 76.3305 126.856C75.8505 127.091 75.4452 127.405 75.1145 127.8C74.7838 128.195 74.5332 128.659 74.3625 129.192C74.1918 129.715 74.1065 130.275 74.1065 130.872C74.1065 131.469 74.1918 132.035 74.3625 132.568C74.5332 133.091 74.7838 133.549 75.1145 133.944C75.4452 134.339 75.8505 134.653 76.3305 134.888C76.8212 135.112 77.3812 135.224 78.0105 135.224C78.9492 135.224 79.7172 134.947 80.3145 134.392C80.9118 133.827 81.2798 133.043 81.4185 132.04H80.4105C80.3785 132.381 80.2932 132.696 80.1545 132.984C80.0158 133.272 79.8398 133.523 79.6265 133.736C79.4132 133.939 79.1678 134.099 78.8905 134.216C78.6132 134.333 78.3198 134.392 78.0105 134.392C77.5305 134.392 77.1092 134.291 76.7465 134.088C76.3838 133.885 76.0798 133.619 75.8345 133.288C75.5998 132.957 75.4185 132.584 75.2905 132.168C75.1732 131.741 75.1145 131.309 75.1145 130.872C75.1145 130.435 75.1732 130.008 75.2905 129.592C75.4185 129.165 75.5998 128.787 75.8345 128.456C76.0798 128.125 76.3838 127.859 76.7465 127.656C77.1092 127.453 77.5305 127.352 78.0105 127.352C78.6825 127.352 79.2052 127.528 79.5785 127.88C79.9518 128.232 80.2078 128.717 80.3465 129.336ZM86.3074 127.352C86.7874 127.352 87.2087 127.453 87.5714 127.656C87.934 127.859 88.2327 128.125 88.4674 128.456C88.7127 128.787 88.894 129.165 89.0114 129.592C89.1394 130.008 89.2034 130.435 89.2034 130.872C89.2034 131.309 89.1394 131.741 89.0114 132.168C88.894 132.584 88.7127 132.957 88.4674 133.288C88.2327 133.619 87.934 133.885 87.5714 134.088C87.2087 134.291 86.7874 134.392 86.3074 134.392C85.8274 134.392 85.406 134.291 85.0434 134.088C84.6807 133.885 84.3767 133.619 84.1314 133.288C83.8967 132.957 83.7154 132.584 83.5874 132.168C83.47 131.741 83.4114 131.309 83.4114 130.872C83.4114 130.435 83.47 130.008 83.5874 129.592C83.7154 129.165 83.8967 128.787 84.1314 128.456C84.3767 128.125 84.6807 127.859 85.0434 127.656C85.406 127.453 85.8274 127.352 86.3074 127.352ZM86.3074 126.504C85.678 126.504 85.118 126.621 84.6274 126.856C84.1474 127.091 83.742 127.405 83.4114 127.8C83.0807 128.195 82.83 128.659 82.6594 129.192C82.4887 129.715 82.4034 130.275 82.4034 130.872C82.4034 131.469 82.4887 132.035 82.6594 132.568C82.83 133.091 83.0807 133.549 83.4114 133.944C83.742 134.339 84.1474 134.653 84.6274 134.888C85.118 135.112 85.678 135.224 86.3074 135.224C86.9367 135.224 87.4914 135.112 87.9714 134.888C88.462 134.653 88.8727 134.339 89.2034 133.944C89.534 133.549 89.7847 133.091 89.9554 132.568C90.126 132.035 90.2114 131.469 90.2114 130.872C90.2114 130.275 90.126 129.715 89.9554 129.192C89.7847 128.659 89.534 128.195 89.2034 127.8C88.8727 127.405 88.462 127.091 87.9714 126.856C87.4914 126.621 86.9367 126.504 86.3074 126.504ZM91.694 126.744V135H92.702V130.184C92.7127 129.779 92.7767 129.405 92.894 129.064C93.022 128.712 93.1927 128.413 93.406 128.168C93.63 127.912 93.8967 127.715 94.206 127.576C94.526 127.427 94.8887 127.352 95.294 127.352C95.6993 127.352 96.0353 127.416 96.302 127.544C96.5793 127.672 96.798 127.848 96.958 128.072C97.118 128.296 97.23 128.563 97.294 128.872C97.358 129.171 97.39 129.496 97.39 129.848V135H98.398V129.688C98.398 129.197 98.35 128.755 98.254 128.36C98.158 127.965 97.9927 127.635 97.758 127.368C97.5233 127.091 97.2087 126.877 96.814 126.728C96.43 126.579 95.95 126.504 95.374 126.504C94.7873 126.504 94.2487 126.659 93.758 126.968C93.2673 127.267 92.926 127.667 92.734 128.168H92.702V126.744H91.694ZM105.248 129.16H106.256C106.234 128.712 106.144 128.323 105.984 127.992C105.824 127.661 105.605 127.384 105.328 127.16C105.061 126.936 104.746 126.771 104.384 126.664C104.032 126.557 103.648 126.504 103.232 126.504C102.869 126.504 102.501 126.547 102.128 126.632C101.765 126.717 101.434 126.851 101.136 127.032C100.837 127.213 100.592 127.453 100.4 127.752C100.218 128.051 100.128 128.408 100.128 128.824C100.128 129.176 100.186 129.475 100.304 129.72C100.421 129.955 100.581 130.157 100.784 130.328C100.997 130.488 101.242 130.627 101.52 130.744C101.797 130.851 102.101 130.947 102.432 131.032L103.728 131.32C103.952 131.373 104.17 131.437 104.384 131.512C104.608 131.587 104.805 131.683 104.976 131.8C105.146 131.907 105.28 132.045 105.376 132.216C105.482 132.376 105.536 132.579 105.536 132.824C105.536 133.112 105.461 133.357 105.312 133.56C105.173 133.752 104.992 133.912 104.768 134.04C104.544 134.168 104.298 134.259 104.032 134.312C103.776 134.365 103.525 134.392 103.28 134.392C102.608 134.392 102.042 134.221 101.584 133.88C101.136 133.528 100.89 133.011 100.848 132.328H99.8398C99.9251 133.341 100.266 134.077 100.864 134.536C101.472 134.995 102.261 135.224 103.232 135.224C103.616 135.224 104.005 135.181 104.4 135.096C104.794 135.011 105.146 134.872 105.456 134.68C105.776 134.477 106.037 134.221 106.24 133.912C106.442 133.592 106.544 133.208 106.544 132.76C106.544 132.397 106.474 132.083 106.336 131.816C106.197 131.549 106.016 131.325 105.792 131.144C105.578 130.963 105.328 130.819 105.04 130.712C104.762 130.595 104.48 130.515 104.192 130.472L102.848 130.168C102.677 130.125 102.49 130.072 102.288 130.008C102.085 129.933 101.898 129.843 101.728 129.736C101.557 129.629 101.413 129.501 101.296 129.352C101.189 129.192 101.136 129 101.136 128.776C101.136 128.509 101.194 128.285 101.312 128.104C101.429 127.923 101.584 127.779 101.776 127.672C101.968 127.555 102.176 127.475 102.4 127.432C102.634 127.379 102.864 127.352 103.088 127.352C103.376 127.352 103.648 127.389 103.904 127.464C104.16 127.528 104.384 127.635 104.576 127.784C104.778 127.933 104.938 128.125 105.056 128.36C105.173 128.584 105.237 128.851 105.248 129.16ZM113.943 130.296H108.599C108.642 129.923 108.727 129.56 108.855 129.208C108.994 128.845 109.175 128.531 109.399 128.264C109.623 127.987 109.895 127.768 110.215 127.608C110.535 127.437 110.903 127.352 111.319 127.352C111.724 127.352 112.087 127.437 112.407 127.608C112.727 127.768 112.999 127.987 113.223 128.264C113.447 128.531 113.618 128.84 113.735 129.192C113.863 129.544 113.932 129.912 113.943 130.296ZM108.599 131.144H114.951C114.972 130.568 114.919 130.003 114.791 129.448C114.663 128.883 114.45 128.387 114.151 127.96C113.863 127.523 113.484 127.171 113.015 126.904C112.546 126.637 111.98 126.504 111.319 126.504C110.668 126.504 110.103 126.632 109.623 126.888C109.154 127.133 108.77 127.464 108.471 127.88C108.172 128.285 107.948 128.749 107.799 129.272C107.66 129.795 107.591 130.328 107.591 130.872C107.591 131.459 107.66 132.019 107.799 132.552C107.948 133.075 108.172 133.539 108.471 133.944C108.77 134.339 109.154 134.653 109.623 134.888C110.103 135.112 110.668 135.224 111.319 135.224C112.364 135.224 113.17 134.968 113.735 134.456C114.311 133.944 114.706 133.219 114.919 132.28H113.911C113.751 132.92 113.463 133.432 113.047 133.816C112.631 134.2 112.055 134.392 111.319 134.392C110.839 134.392 110.428 134.291 110.087 134.088C109.746 133.885 109.463 133.629 109.239 133.32C109.015 133.011 108.85 132.664 108.743 132.28C108.647 131.885 108.599 131.507 108.599 131.144ZM122.128 129.336H123.136C123.018 128.387 122.65 127.677 122.032 127.208C121.424 126.739 120.677 126.504 119.792 126.504C119.162 126.504 118.602 126.621 118.112 126.856C117.632 127.091 117.226 127.405 116.896 127.8C116.565 128.195 116.314 128.659 116.144 129.192C115.973 129.715 115.888 130.275 115.888 130.872C115.888 131.469 115.973 132.035 116.144 132.568C116.314 133.091 116.565 133.549 116.896 133.944C117.226 134.339 117.632 134.653 118.112 134.888C118.602 135.112 119.162 135.224 119.792 135.224C120.73 135.224 121.498 134.947 122.096 134.392C122.693 133.827 123.061 133.043 123.2 132.04H122.192C122.16 132.381 122.074 132.696 121.936 132.984C121.797 133.272 121.621 133.523 121.408 133.736C121.194 133.939 120.949 134.099 120.672 134.216C120.394 134.333 120.101 134.392 119.792 134.392C119.312 134.392 118.89 134.291 118.528 134.088C118.165 133.885 117.861 133.619 117.616 133.288C117.381 132.957 117.2 132.584 117.072 132.168C116.954 131.741 116.896 131.309 116.896 130.872C116.896 130.435 116.954 130.008 117.072 129.592C117.2 129.165 117.381 128.787 117.616 128.456C117.861 128.125 118.165 127.859 118.528 127.656C118.89 127.453 119.312 127.352 119.792 127.352C120.464 127.352 120.986 127.528 121.36 127.88C121.733 128.232 121.989 128.717 122.128 129.336ZM126.201 126.744V124.264H125.193V126.744H123.753V127.592H125.193V133.24C125.182 133.944 125.31 134.429 125.577 134.696C125.843 134.952 126.313 135.08 126.985 135.08C127.134 135.08 127.283 135.075 127.433 135.064C127.582 135.053 127.731 135.048 127.881 135.048V134.2C127.593 134.232 127.305 134.248 127.017 134.248C126.654 134.227 126.425 134.125 126.329 133.944C126.243 133.752 126.201 133.491 126.201 133.16V127.592H127.881V126.744H126.201ZM135.271 130.296H129.927C129.97 129.923 130.055 129.56 130.183 129.208C130.322 128.845 130.503 128.531 130.727 128.264C130.951 127.987 131.223 127.768 131.543 127.608C131.863 127.437 132.231 127.352 132.647 127.352C133.052 127.352 133.415 127.437 133.735 127.608C134.055 127.768 134.327 127.987 134.551 128.264C134.775 128.531 134.946 128.84 135.063 129.192C135.191 129.544 135.26 129.912 135.271 130.296ZM129.927 131.144H136.279C136.3 130.568 136.247 130.003 136.119 129.448C135.991 128.883 135.778 128.387 135.479 127.96C135.191 127.523 134.812 127.171 134.343 126.904C133.874 126.637 133.308 126.504 132.647 126.504C131.996 126.504 131.431 126.632 130.951 126.888C130.482 127.133 130.098 127.464 129.799 127.88C129.5 128.285 129.276 128.749 129.127 129.272C128.988 129.795 128.919 130.328 128.919 130.872C128.919 131.459 128.988 132.019 129.127 132.552C129.276 133.075 129.5 133.539 129.799 133.944C130.098 134.339 130.482 134.653 130.951 134.888C131.431 135.112 131.996 135.224 132.647 135.224C133.692 135.224 134.498 134.968 135.063 134.456C135.639 133.944 136.034 133.219 136.247 132.28H135.239C135.079 132.92 134.791 133.432 134.375 133.816C133.959 134.2 133.383 134.392 132.647 134.392C132.167 134.392 131.756 134.291 131.415 134.088C131.074 133.885 130.791 133.629 130.567 133.32C130.343 133.011 130.178 132.664 130.071 132.28C129.975 131.885 129.927 131.507 129.927 131.144ZM139.232 126.744V124.264H138.224V126.744H136.784V127.592H138.224V133.24C138.213 133.944 138.341 134.429 138.608 134.696C138.875 134.952 139.344 135.08 140.016 135.08C140.165 135.08 140.315 135.075 140.464 135.064C140.613 135.053 140.763 135.048 140.912 135.048V134.2C140.624 134.232 140.336 134.248 140.048 134.248C139.685 134.227 139.456 134.125 139.36 133.944C139.275 133.752 139.232 133.491 139.232 133.16V127.592H140.912V126.744H139.232ZM149.054 135V126.744H148.046V131.08C148.046 131.496 147.998 131.907 147.902 132.312C147.806 132.707 147.657 133.059 147.454 133.368C147.252 133.677 146.996 133.928 146.686 134.12C146.377 134.301 146.004 134.392 145.566 134.392C144.766 134.392 144.201 134.2 143.87 133.816C143.55 133.432 143.38 132.867 143.358 132.12V126.744H142.35V132.104C142.35 132.595 142.404 133.032 142.51 133.416C142.617 133.8 142.782 134.125 143.006 134.392C143.241 134.659 143.54 134.861 143.902 135C144.276 135.149 144.724 135.224 145.246 135.224C145.865 135.224 146.425 135.08 146.926 134.792C147.438 134.493 147.828 134.067 148.094 133.512H148.126V135H149.054ZM150.96 126.744V135H151.968V130.6C151.968 130.163 152.043 129.763 152.192 129.4C152.341 129.027 152.549 128.707 152.816 128.44C153.093 128.173 153.419 127.971 153.792 127.832C154.165 127.683 154.581 127.619 155.04 127.64V126.632C154.293 126.6 153.648 126.765 153.104 127.128C152.571 127.491 152.176 128.008 151.92 128.68H151.888V126.744H150.96ZM30.864 148.272H31.872C31.8933 147.6 32.1067 147.115 32.512 146.816C32.9173 146.507 33.44 146.352 34.08 146.352C34.3787 146.352 34.656 146.379 34.912 146.432C35.1787 146.475 35.408 146.56 35.6 146.688C35.8027 146.816 35.9573 146.992 36.064 147.216C36.1813 147.429 36.24 147.707 36.24 148.048C36.24 148.272 36.208 148.453 36.144 148.592C36.0907 148.731 36.0107 148.843 35.904 148.928C35.7973 149.003 35.664 149.056 35.504 149.088C35.344 149.12 35.1573 149.147 34.944 149.168C34.4 149.232 33.8613 149.301 33.328 149.376C32.8053 149.44 32.3307 149.557 31.904 149.728C31.488 149.899 31.152 150.149 30.896 150.48C30.64 150.8 30.512 151.248 30.512 151.824C30.512 152.24 30.5813 152.603 30.72 152.912C30.8693 153.211 31.0667 153.461 31.312 153.664C31.568 153.856 31.8613 153.995 32.192 154.08C32.5333 154.176 32.896 154.224 33.28 154.224C33.6853 154.224 34.032 154.187 34.32 154.112C34.6187 154.037 34.88 153.931 35.104 153.792C35.3387 153.653 35.5467 153.483 35.728 153.28C35.92 153.067 36.1067 152.827 36.288 152.56H36.32C36.32 152.773 36.3307 152.971 36.352 153.152C36.384 153.323 36.4427 153.472 36.528 153.6C36.6133 153.728 36.7307 153.829 36.88 153.904C37.04 153.968 37.248 154 37.504 154C37.6427 154 37.7547 153.995 37.84 153.984C37.936 153.973 38.0427 153.957 38.16 153.936V153.088C38.064 153.131 37.9573 153.152 37.84 153.152C37.4453 153.152 37.248 152.949 37.248 152.544V148.16C37.248 147.605 37.1573 147.157 36.976 146.816C36.7947 146.464 36.56 146.192 36.272 146C35.984 145.808 35.6587 145.68 35.296 145.616C34.9333 145.541 34.5707 145.504 34.208 145.504C33.728 145.504 33.2907 145.557 32.896 145.664C32.5013 145.771 32.1547 145.936 31.856 146.16C31.568 146.384 31.3387 146.672 31.168 147.024C30.9973 147.376 30.896 147.792 30.864 148.272ZM36.24 149.488V150.8C36.24 151.205 36.16 151.568 36 151.888C35.8507 152.208 35.6427 152.48 35.376 152.704C35.12 152.928 34.816 153.099 34.464 153.216C34.112 153.333 33.744 153.392 33.36 153.392C33.1253 153.392 32.896 153.355 32.672 153.28C32.448 153.205 32.2507 153.099 32.08 152.96C31.9093 152.811 31.7707 152.64 31.664 152.448C31.568 152.245 31.52 152.016 31.52 151.76C31.52 151.355 31.6373 151.045 31.872 150.832C32.1173 150.608 32.4267 150.437 32.8 150.32C33.1733 150.203 33.584 150.117 34.032 150.064C34.4907 150 34.9333 149.931 35.36 149.856C35.4987 149.835 35.6587 149.797 35.84 149.744C36.0213 149.691 36.144 149.605 36.208 149.488H36.24ZM46.5209 154V142.576H45.5129V147.312H45.4809C45.3742 147.013 45.2195 146.752 45.0169 146.528C44.8249 146.304 44.6009 146.117 44.3449 145.968C44.0889 145.808 43.8115 145.691 43.5129 145.616C43.2249 145.541 42.9262 145.504 42.6169 145.504C41.9875 145.504 41.4382 145.621 40.9689 145.856C40.5102 146.091 40.1262 146.411 39.8169 146.816C39.5075 147.211 39.2782 147.675 39.1289 148.208C38.9795 148.731 38.9049 149.285 38.9049 149.872C38.9049 150.459 38.9795 151.019 39.1289 151.552C39.2782 152.075 39.5075 152.539 39.8169 152.944C40.1262 153.339 40.5102 153.653 40.9689 153.888C41.4382 154.112 41.9875 154.224 42.6169 154.224C42.9155 154.224 43.2142 154.181 43.5129 154.096C43.8222 154.011 44.1102 153.893 44.3769 153.744C44.6435 153.584 44.8782 153.392 45.0809 153.168C45.2942 152.944 45.4542 152.699 45.5609 152.432H45.5929V154H46.5209ZM39.9129 149.872C39.9129 149.445 39.9609 149.024 40.0569 148.608C40.1635 148.181 40.3235 147.803 40.5369 147.472C40.7609 147.141 41.0435 146.875 41.3849 146.672C41.7262 146.459 42.1369 146.352 42.6169 146.352C43.1502 146.352 43.5982 146.459 43.9609 146.672C44.3342 146.875 44.6329 147.141 44.8569 147.472C45.0915 147.803 45.2569 148.181 45.3529 148.608C45.4595 149.024 45.5129 149.445 45.5129 149.872C45.5129 150.299 45.4595 150.725 45.3529 151.152C45.2569 151.568 45.0915 151.941 44.8569 152.272C44.6329 152.603 44.3342 152.875 43.9609 153.088C43.5982 153.291 43.1502 153.392 42.6169 153.392C42.1369 153.392 41.7262 153.291 41.3849 153.088C41.0435 152.875 40.7609 152.603 40.5369 152.272C40.3235 151.941 40.1635 151.568 40.0569 151.152C39.9609 150.725 39.9129 150.299 39.9129 149.872ZM48.4604 142.576V144.192H49.4684V142.576H48.4604ZM48.4604 145.744V154H49.4684V145.744H48.4604ZM51.3975 145.744V157.04H52.4055V152.432H52.4375C52.5442 152.731 52.6935 152.992 52.8855 153.216C53.0882 153.44 53.3175 153.627 53.5735 153.776C53.8295 153.925 54.1068 154.037 54.4055 154.112C54.7042 154.187 55.0028 154.224 55.3015 154.224C55.9308 154.224 56.4748 154.112 56.9335 153.888C57.4028 153.653 57.7922 153.339 58.1015 152.944C58.4108 152.539 58.6402 152.075 58.7895 151.552C58.9388 151.019 59.0135 150.459 59.0135 149.872C59.0135 149.285 58.9388 148.731 58.7895 148.208C58.6402 147.675 58.4108 147.211 58.1015 146.816C57.7922 146.411 57.4028 146.091 56.9335 145.856C56.4748 145.621 55.9308 145.504 55.3015 145.504C54.6295 145.504 54.0268 145.664 53.4935 145.984C52.9708 146.293 52.5922 146.736 52.3575 147.312H52.3255V145.744H51.3975ZM58.0055 149.872C58.0055 150.299 57.9522 150.725 57.8455 151.152C57.7495 151.568 57.5895 151.941 57.3655 152.272C57.1522 152.603 56.8748 152.875 56.5335 153.088C56.1922 153.291 55.7815 153.392 55.3015 153.392C54.7682 153.392 54.3148 153.291 53.9415 153.088C53.5788 152.875 53.2802 152.603 53.0455 152.272C52.8215 151.941 52.6562 151.568 52.5495 151.152C52.4535 150.725 52.4055 150.299 52.4055 149.872C52.4055 149.403 52.4482 148.955 52.5335 148.528C52.6295 148.101 52.7895 147.728 53.0135 147.408C53.2375 147.088 53.5362 146.832 53.9095 146.64C54.2828 146.448 54.7468 146.352 55.3015 146.352C55.7815 146.352 56.1922 146.459 56.5335 146.672C56.8748 146.875 57.1522 147.141 57.3655 147.472C57.5895 147.803 57.7495 148.181 57.8455 148.608C57.9522 149.024 58.0055 149.445 58.0055 149.872ZM60.601 142.576V144.192H61.609V142.576H60.601ZM60.601 145.744V154H61.609V145.744H60.601ZM68.4821 148.16H69.4901C69.4688 147.712 69.3781 147.323 69.2181 146.992C69.0581 146.661 68.8395 146.384 68.5621 146.16C68.2955 145.936 67.9808 145.771 67.6181 145.664C67.2661 145.557 66.8821 145.504 66.4661 145.504C66.1035 145.504 65.7355 145.547 65.3621 145.632C64.9995 145.717 64.6688 145.851 64.3701 146.032C64.0715 146.213 63.8261 146.453 63.6341 146.752C63.4528 147.051 63.3621 147.408 63.3621 147.824C63.3621 148.176 63.4208 148.475 63.5381 148.72C63.6555 148.955 63.8155 149.157 64.0181 149.328C64.2315 149.488 64.4768 149.627 64.7541 149.744C65.0315 149.851 65.3355 149.947 65.6661 150.032L66.9621 150.32C67.1861 150.373 67.4048 150.437 67.6181 150.512C67.8421 150.587 68.0395 150.683 68.2101 150.8C68.3808 150.907 68.5141 151.045 68.6101 151.216C68.7168 151.376 68.7701 151.579 68.7701 151.824C68.7701 152.112 68.6955 152.357 68.5461 152.56C68.4075 152.752 68.2261 152.912 68.0021 153.04C67.7781 153.168 67.5328 153.259 67.2661 153.312C67.0101 153.365 66.7595 153.392 66.5141 153.392C65.8421 153.392 65.2768 153.221 64.8181 152.88C64.3701 152.528 64.1248 152.011 64.0821 151.328H63.0741C63.1595 152.341 63.5008 153.077 64.0981 153.536C64.7061 153.995 65.4955 154.224 66.4661 154.224C66.8501 154.224 67.2395 154.181 67.6341 154.096C68.0288 154.011 68.3808 153.872 68.6901 153.68C69.0101 153.477 69.2715 153.221 69.4741 152.912C69.6768 152.592 69.7781 152.208 69.7781 151.76C69.7781 151.397 69.7088 151.083 69.5701 150.816C69.4315 150.549 69.2501 150.325 69.0261 150.144C68.8128 149.963 68.5621 149.819 68.2741 149.712C67.9968 149.595 67.7141 149.515 67.4261 149.472L66.0821 149.168C65.9115 149.125 65.7248 149.072 65.5221 149.008C65.3195 148.933 65.1328 148.843 64.9621 148.736C64.7915 148.629 64.6475 148.501 64.5301 148.352C64.4235 148.192 64.3701 148 64.3701 147.776C64.3701 147.509 64.4288 147.285 64.5461 147.104C64.6635 146.923 64.8181 146.779 65.0101 146.672C65.2021 146.555 65.4101 146.475 65.6341 146.432C65.8688 146.379 66.0981 146.352 66.3221 146.352C66.6101 146.352 66.8821 146.389 67.1381 146.464C67.3941 146.528 67.6181 146.635 67.8101 146.784C68.0128 146.933 68.1728 147.125 68.2901 147.36C68.4075 147.584 68.4715 147.851 68.4821 148.16ZM77.0653 148.336H78.0733C77.9559 147.387 77.5879 146.677 76.9693 146.208C76.3613 145.739 75.6146 145.504 74.7293 145.504C74.0999 145.504 73.5399 145.621 73.0493 145.856C72.5693 146.091 72.1639 146.405 71.8333 146.8C71.5026 147.195 71.2519 147.659 71.0813 148.192C70.9106 148.715 70.8253 149.275 70.8253 149.872C70.8253 150.469 70.9106 151.035 71.0813 151.568C71.2519 152.091 71.5026 152.549 71.8333 152.944C72.1639 153.339 72.5693 153.653 73.0493 153.888C73.5399 154.112 74.0999 154.224 74.7293 154.224C75.6679 154.224 76.4359 153.947 77.0333 153.392C77.6306 152.827 77.9986 152.043 78.1373 151.04H77.1293C77.0973 151.381 77.0119 151.696 76.8733 151.984C76.7346 152.272 76.5586 152.523 76.3453 152.736C76.1319 152.939 75.8866 153.099 75.6093 153.216C75.3319 153.333 75.0386 153.392 74.7293 153.392C74.2493 153.392 73.8279 153.291 73.4653 153.088C73.1026 152.885 72.7986 152.619 72.5533 152.288C72.3186 151.957 72.1373 151.584 72.0093 151.168C71.8919 150.741 71.8333 150.309 71.8333 149.872C71.8333 149.435 71.8919 149.008 72.0093 148.592C72.1373 148.165 72.3186 147.787 72.5533 147.456C72.7986 147.125 73.1026 146.859 73.4653 146.656C73.8279 146.453 74.2493 146.352 74.7293 146.352C75.4013 146.352 75.9239 146.528 76.2973 146.88C76.6706 147.232 76.9266 147.717 77.0653 148.336ZM79.5541 142.576V144.192H80.5621V142.576H79.5541ZM79.5541 145.744V154H80.5621V145.744H79.5541ZM82.4753 145.744V154H83.4833V149.184C83.4939 148.779 83.5579 148.405 83.6753 148.064C83.8033 147.712 83.9739 147.413 84.1873 147.168C84.4113 146.912 84.6779 146.715 84.9873 146.576C85.3073 146.427 85.6699 146.352 86.0753 146.352C86.4806 146.352 86.8166 146.416 87.0833 146.544C87.3606 146.672 87.5793 146.848 87.7393 147.072C87.8993 147.296 88.0113 147.563 88.0753 147.872C88.1393 148.171 88.1713 148.496 88.1713 148.848V154H89.1793V148.688C89.1793 148.197 89.1313 147.755 89.0353 147.36C88.9393 146.965 88.7739 146.635 88.5393 146.368C88.3046 146.091 87.9899 145.877 87.5953 145.728C87.2113 145.579 86.7313 145.504 86.1553 145.504C85.5686 145.504 85.0299 145.659 84.5393 145.968C84.0486 146.267 83.7073 146.667 83.5153 147.168H83.4833V145.744H82.4753ZM98.061 153.328V145.744H97.053V147.168H97.021C96.925 146.944 96.7863 146.731 96.605 146.528C96.4343 146.325 96.237 146.149 96.013 146C95.789 145.84 95.5383 145.717 95.261 145.632C94.9943 145.547 94.7063 145.504 94.397 145.504C93.7997 145.504 93.2663 145.616 92.797 145.84C92.3383 146.053 91.949 146.352 91.629 146.736C91.3197 147.109 91.0797 147.552 90.909 148.064C90.749 148.565 90.669 149.099 90.669 149.664C90.669 150.251 90.7383 150.805 90.877 151.328C91.0157 151.84 91.2343 152.288 91.533 152.672C91.8423 153.056 92.2317 153.36 92.701 153.584C93.1703 153.797 93.7357 153.904 94.397 153.904C95.005 153.904 95.533 153.749 95.981 153.44C96.4397 153.131 96.7863 152.72 97.021 152.208H97.053V153.328C97.053 154.331 96.845 155.099 96.429 155.632C96.013 156.165 95.3357 156.432 94.397 156.432C94.1197 156.432 93.8477 156.4 93.581 156.336C93.3143 156.283 93.069 156.192 92.845 156.064C92.6317 155.936 92.445 155.765 92.285 155.552C92.1357 155.349 92.0343 155.093 91.981 154.784H90.973C91.005 155.221 91.1223 155.595 91.325 155.904C91.5383 156.224 91.7997 156.485 92.109 156.688C92.429 156.891 92.7863 157.04 93.181 157.136C93.5757 157.232 93.981 157.28 94.397 157.28C95.069 157.28 95.6343 157.189 96.093 157.008C96.5623 156.827 96.941 156.565 97.229 156.224C97.517 155.883 97.725 155.467 97.853 154.976C97.9917 154.485 98.061 153.936 98.061 153.328ZM94.397 153.056C93.9277 153.056 93.5223 152.965 93.181 152.784C92.8397 152.592 92.557 152.347 92.333 152.048C92.109 151.739 91.9437 151.387 91.837 150.992C91.7303 150.597 91.677 150.192 91.677 149.776C91.677 149.349 91.725 148.933 91.821 148.528C91.9277 148.112 92.093 147.744 92.317 147.424C92.541 147.104 92.8237 146.848 93.165 146.656C93.5063 146.453 93.917 146.352 94.397 146.352C94.877 146.352 95.2823 146.453 95.613 146.656C95.9543 146.859 96.2317 147.125 96.445 147.456C96.6583 147.787 96.813 148.155 96.909 148.56C97.005 148.965 97.053 149.371 97.053 149.776C97.053 150.192 96.9943 150.597 96.877 150.992C96.7703 151.387 96.605 151.739 96.381 152.048C96.157 152.347 95.8797 152.592 95.549 152.784C95.2183 152.965 94.8343 153.056 94.397 153.056ZM110.365 149.296H105.021C105.063 148.923 105.149 148.56 105.277 148.208C105.415 147.845 105.597 147.531 105.821 147.264C106.045 146.987 106.317 146.768 106.637 146.608C106.957 146.437 107.325 146.352 107.741 146.352C108.146 146.352 108.509 146.437 108.829 146.608C109.149 146.768 109.421 146.987 109.645 147.264C109.869 147.531 110.039 147.84 110.157 148.192C110.285 148.544 110.354 148.912 110.365 149.296ZM105.021 150.144H111.373C111.394 149.568 111.341 149.003 111.213 148.448C111.085 147.883 110.871 147.387 110.573 146.96C110.285 146.523 109.906 146.171 109.437 145.904C108.967 145.637 108.402 145.504 107.741 145.504C107.09 145.504 106.525 145.632 106.045 145.888C105.575 146.133 105.191 146.464 104.893 146.88C104.594 147.285 104.37 147.749 104.221 148.272C104.082 148.795 104.013 149.328 104.013 149.872C104.013 150.459 104.082 151.019 104.221 151.552C104.37 152.075 104.594 152.539 104.893 152.944C105.191 153.339 105.575 153.653 106.045 153.888C106.525 154.112 107.09 154.224 107.741 154.224C108.786 154.224 109.591 153.968 110.157 153.456C110.733 152.944 111.127 152.219 111.341 151.28H110.333C110.173 151.92 109.885 152.432 109.469 152.816C109.053 153.2 108.477 153.392 107.741 153.392C107.261 153.392 106.85 153.291 106.509 153.088C106.167 152.885 105.885 152.629 105.661 152.32C105.437 152.011 105.271 151.664 105.165 151.28C105.069 150.885 105.021 150.507 105.021 150.144ZM112.742 142.576V154H113.75V142.576H112.742ZM115.695 142.576V144.192H116.703V142.576H115.695ZM115.695 145.744V154H116.703V145.744H115.695ZM120.232 145.744V143.264H119.224V145.744H117.784V146.592H119.224V152.24C119.213 152.944 119.341 153.429 119.608 153.696C119.875 153.952 120.344 154.08 121.016 154.08C121.165 154.08 121.315 154.075 121.464 154.064C121.613 154.053 121.763 154.048 121.912 154.048V153.2C121.624 153.232 121.336 153.248 121.048 153.248C120.685 153.227 120.456 153.125 120.36 152.944C120.275 152.752 120.232 152.491 120.232 152.16V146.592H121.912V145.744H120.232ZM123.958 154H125.302V152.304H123.958V154Z" fill="#000103"/>
<defs>
<clipPath id="clip0_858_576">
<rect width="32" height="32" fill="white" transform="translate(30 28)"/>
</clipPath>
</defs>
</svg>
