<svg width="1212" height="871" viewBox="0 0 1212 871" fill="none" xmlns="http://www.w3.org/2000/svg">
<path d="M358 2C375.756 2 375.756 20 393.512 20C411.269 20 411.269 2 429.025 2C446.781 2 446.781 20 464.496 20C482.253 20 482.253 2 499.967 2C517.723 2 517.723 20 535.438 20C553.194 20 553.194 2 570.949 2C588.706 2 588.706 20 606.463 20C624.218 20 624.218 2 641.975 2C659.731 2 659.731 20 677.488 20C695.243 20 695.243 2 713 2" stroke="#4F4F4F" stroke-width="3" stroke-miterlimit="10" stroke-linecap="round"/>
<path d="M358 56C375.756 56 375.756 74 393.512 74C411.269 74 411.269 56 429.025 56C446.781 56 446.781 74 464.496 74C482.253 74 482.253 56 499.967 56C517.723 56 517.723 74 535.438 74C553.194 74 553.194 56 570.949 56C588.706 56 588.706 74 606.463 74C624.218 74 624.218 56 641.975 56C659.731 56 659.731 74 677.488 74C695.243 74 695.243 56 713 56" stroke="#4F4F4F" stroke-width="3" stroke-miterlimit="10" stroke-linecap="round"/>
<path d="M358 110C375.756 110 375.756 128 393.512 128C411.269 128 411.269 110 429.025 110C446.781 110 446.781 128 464.496 128C482.253 128 482.253 110 499.967 110C517.723 110 517.723 128 535.438 128C553.194 128 553.194 110 570.949 110C588.706 110 588.706 128 606.463 128C624.218 128 624.218 110 641.975 110C659.731 110 659.731 128 677.488 128C695.243 128 695.243 110 713 110" stroke="#4F4F4F" stroke-width="3" stroke-miterlimit="10" stroke-linecap="round"/>
<path d="M1083.5 452L1083.52 580.374L1132.68 461.781L1083.57 580.393L1174.36 489.637L1083.61 580.428L1202.22 531.325L1083.63 580.475L1212 580.5L1083.63 580.525L1202.22 629.675L1083.61 580.571L1174.36 671.363L1083.57 580.607L1132.68 699.218L1083.52 580.626L1083.5 709L1083.48 580.626L1034.32 699.218L1083.43 580.607L992.637 671.363L1083.39 580.571L964.781 629.675L1083.37 580.525L955 580.5L1083.37 580.475L964.781 531.325L1083.39 580.428L992.637 489.637L1083.43 580.393L1034.32 461.781L1083.48 580.374L1083.5 452Z" stroke="#4F4F4F" stroke-width="3"/>
<path d="M580 299L580.024 422.878L627.453 308.439L580.069 422.897L667.681 335.319L580.103 422.931L694.561 375.547L580.122 422.976L704 423L580.122 423.024L694.561 470.453L580.103 423.069L667.681 510.681L580.069 423.103L627.453 537.561L580.024 423.122L580 547L579.976 423.122L532.547 537.561L579.931 423.103L492.319 510.681L579.897 423.069L465.439 470.453L579.878 423.024L456 423L579.878 422.976L465.439 375.547L579.897 422.931L492.319 335.319L579.931 422.897L532.547 308.439L579.976 422.878L580 299Z" fill="#F0C3D2" stroke="#4F4F4F" stroke-width="4"/>
<path d="M87.2329 585C40.1598 585 2 599.209 2 616.737C2 634.265 40.1598 648.474 87.2329 648.474C113.614 648.474 135 642.459 135 635.04C135 627.62 113.614 621.605 87.2329 621.605C40.1598 621.605 2 635.814 2 653.342C2 670.87 40.1598 685.08 87.2329 685.08C113.614 685.08 135 679.065 135 671.644C135 664.225 113.614 658.21 87.2329 658.21C40.1598 658.21 2 672.506 2 690.142C2 707.777 40.1598 722.074 87.2329 722.074C113.614 722.074 135 716.059 135 708.639C135 701.219 113.614 695.204 87.2329 695.204C40.1598 695.204 2 709.413 2 726.941C2 744.469 40.1598 758.678 87.2329 758.678C113.614 758.678 135 752.664 135 745.244C135 737.824 113.614 731.809 87.2329 731.809C40.1598 731.809 2 746.018 2 763.546C2 781.074 40.1598 795.283 87.2329 795.283C113.614 795.283 135 789.268 135 781.849C135 774.429 113.614 768.414 87.2329 768.414C40.1598 768.414 2 782.623 2 800.15C2 817.678 40.1598 831.888 87.2329 831.888C113.614 831.888 135 825.873 135 818.453C135 811.034 113.614 805.019 87.2329 805.019C40.1598 805.019 2 819.315 2 836.95C2 854.585 40.1598 868.882 87.2329 868.882" stroke="#4F4F4F" stroke-width="3.35294" stroke-linecap="round"/>
</svg>
